<?xml version="1.0" encoding="UTF-8" standalone="no"?>
<!DOCTYPE svg PUBLIC "-//W3C//DTD SVG 1.1//EN"
 "http://www.w3.org/Graphics/SVG/1.1/DTD/svg11.dtd">
<!-- Generated by graphviz version 2.46.1 (20210213.1702)
 -->
<!-- Title: anonymous_graph Pages: 1 -->
<svg width="448pt" height="610pt"
 viewBox="0.00 0.00 448.00 610.00" xmlns="http://www.w3.org/2000/svg" xmlns:xlink="http://www.w3.org/1999/xlink">
<g id="graph0" class="graph" transform="scale(1 1) rotate(0) translate(4 606)">
<title>anonymous_graph</title>
<polygon fill="white" stroke="transparent" points="-4,4 -4,-606 444,-606 444,4 -4,4"/>
<!-- N0 -->
<g id="node1" class="node">
<title>N0</title>
<ellipse fill="none" stroke="black" cx="212" cy="-584" rx="29.5" ry="18"/>
<text text-anchor="middle" x="212" y="-580.3" font-family="Times New Roman,serif" font-size="14.00">initial</text>
</g>
<!-- N1 -->
<g id="node2" class="node">
<title>N1</title>
<ellipse fill="none" stroke="black" cx="31" cy="-478" rx="27" ry="18"/>
<ellipse fill="none" stroke="black" cx="31" cy="-478" rx="31" ry="22"/>
<text text-anchor="middle" x="31" y="-474.3" font-family="Times New Roman,serif" font-size="14.00">final</text>
</g>
<!-- N0&#45;&gt;N1 -->
<g id="edge3" class="edge">
<title>N0&#45;&gt;N1</title>
<path fill="none" stroke="black" d="M183.38,-580.2C142.66,-575.67 70.86,-565.41 52,-548 41.44,-538.25 36.13,-523.38 33.48,-509.94"/>
<polygon fill="black" stroke="black" points="36.94,-509.38 31.93,-500.04 30.02,-510.46 36.94,-509.38"/>
<text text-anchor="middle" x="70.5" y="-529.3" font-family="Times New Roman,serif" font-size="14.00">return;</text>
</g>
<!-- N2 -->
<g id="node3" class="node">
<title>N2</title>
<ellipse fill="none" stroke="black" cx="107" cy="-478" rx="27" ry="18"/>
<text text-anchor="middle" x="107" y="-474.3" font-family="Times New Roman,serif" font-size="14.00">N6</text>
</g>
<!-- N0&#45;&gt;N2 -->
<g id="edge1" class="edge">
<title>N0&#45;&gt;N2</title>
<path fill="none" stroke="black" d="M182.7,-582.87C156.3,-581 118.82,-573.6 100,-548 91.05,-535.82 92.56,-519 96.42,-505.01"/>
<polygon fill="black" stroke="black" points="99.77,-506.02 99.54,-495.43 93.12,-503.86 99.77,-506.02"/>
<text text-anchor="middle" x="140" y="-529.3" font-family="Times New Roman,serif" font-size="14.00">change = true;</text>
</g>
<!-- N10 -->
<g id="node11" class="node">
<title>N10</title>
<ellipse fill="none" stroke="black" cx="161" cy="-366" rx="27" ry="18"/>
<text text-anchor="middle" x="161" y="-362.3" font-family="Times New Roman,serif" font-size="14.00">N71</text>
</g>
<!-- N0&#45;&gt;N10 -->
<g id="edge2" class="edge">
<title>N0&#45;&gt;N10</title>
<path fill="none" stroke="black" d="M207.92,-565.9C204.01,-549.17 198.12,-522.93 194,-500 186.22,-456.7 193.82,-443.77 180,-402 178.88,-398.62 177.44,-395.17 175.86,-391.84"/>
<polygon fill="black" stroke="black" points="178.88,-390.08 171.15,-382.84 172.68,-393.32 178.88,-390.08"/>
<text text-anchor="middle" x="217.5" y="-474.3" font-family="Times New Roman,serif" font-size="14.00">p = null;</text>
</g>
<!-- N11 -->
<g id="node12" class="node">
<title>N11</title>
<ellipse fill="none" stroke="black" cx="269" cy="-420" rx="27" ry="18"/>
<text text-anchor="middle" x="269" y="-416.3" font-family="Times New Roman,serif" font-size="14.00">N84</text>
</g>
<!-- N0&#45;&gt;N11 -->
<g id="edge4" class="edge">
<title>N0&#45;&gt;N11</title>
<path fill="none" stroke="black" d="M215.58,-566.13C218.82,-552.66 224.26,-533.54 232,-518 236.4,-509.17 240.62,-508.84 245,-500 253.17,-483.51 259.18,-463.7 263.15,-448.03"/>
<polygon fill="black" stroke="black" points="266.64,-448.49 265.56,-437.95 259.83,-446.86 266.64,-448.49"/>
<text text-anchor="middle" x="271" y="-536.8" font-family="Times New Roman,serif" font-size="14.00">!(1 &lt; head.d)/</text>
<text text-anchor="middle" x="271" y="-521.8" font-family="Times New Roman,serif" font-size="14.00">p = y;</text>
</g>
<!-- N7 -->
<g id="node8" class="node">
<title>N7</title>
<ellipse fill="none" stroke="black" cx="75" cy="-366" rx="27" ry="18"/>
<text text-anchor="middle" x="75" y="-362.3" font-family="Times New Roman,serif" font-size="14.00">N41</text>
</g>
<!-- N2&#45;&gt;N7 -->
<g id="edge6" class="edge">
<title>N2&#45;&gt;N7</title>
<path fill="none" stroke="black" d="M87.23,-465.56C77.7,-458.87 67.24,-449.47 62,-438 55.51,-423.78 58.43,-406.56 63.13,-392.65"/>
<polygon fill="black" stroke="black" points="66.45,-393.77 66.76,-383.18 59.91,-391.27 66.45,-393.77"/>
<text text-anchor="middle" x="86" y="-416.3" font-family="Times New Roman,serif" font-size="14.00">t = yn.n;</text>
</g>
<!-- N2&#45;&gt;N10 -->
<g id="edge5" class="edge">
<title>N2&#45;&gt;N10</title>
<path fill="none" stroke="black" d="M111.13,-459.92C115.33,-444.25 122.68,-420.7 133,-402 135.26,-397.9 138,-393.8 140.88,-389.92"/>
<polygon fill="black" stroke="black" points="143.79,-391.89 147.24,-381.87 138.3,-387.54 143.79,-391.89"/>
<text text-anchor="middle" x="156.5" y="-416.3" font-family="Times New Roman,serif" font-size="14.00">p = null;</text>
</g>
<!-- N3 -->
<g id="node4" class="node">
<title>N3</title>
<ellipse fill="none" stroke="black" cx="242" cy="-105" rx="27" ry="18"/>
<text text-anchor="middle" x="242" y="-101.3" font-family="Times New Roman,serif" font-size="14.00">N10</text>
</g>
<!-- N9 -->
<g id="node10" class="node">
<title>N9</title>
<ellipse fill="none" stroke="black" cx="342" cy="-18" rx="27" ry="18"/>
<text text-anchor="middle" x="342" y="-14.3" font-family="Times New Roman,serif" font-size="14.00">N52</text>
</g>
<!-- N3&#45;&gt;N9 -->
<g id="edge7" class="edge">
<title>N3&#45;&gt;N9</title>
<path fill="none" stroke="black" d="M258.07,-90.34C274.32,-76.53 299.64,-55.01 318.22,-39.21"/>
<polygon fill="black" stroke="black" points="320.62,-41.77 325.97,-32.62 316.09,-36.43 320.62,-41.77"/>
<text text-anchor="middle" x="317.5" y="-57.8" font-family="Times New Roman,serif" font-size="14.00">p = yn;</text>
</g>
<!-- N4 -->
<g id="node5" class="node">
<title>N4</title>
<ellipse fill="none" stroke="black" cx="185" cy="-279" rx="27" ry="18"/>
<text text-anchor="middle" x="185" y="-275.3" font-family="Times New Roman,serif" font-size="14.00">N14</text>
</g>
<!-- N6 -->
<g id="node7" class="node">
<title>N6</title>
<ellipse fill="none" stroke="black" cx="269" cy="-192" rx="27" ry="18"/>
<text text-anchor="middle" x="269" y="-188.3" font-family="Times New Roman,serif" font-size="14.00">N29</text>
</g>
<!-- N4&#45;&gt;N6 -->
<g id="edge8" class="edge">
<title>N4&#45;&gt;N6</title>
<path fill="none" stroke="black" d="M187.56,-260.64C189.85,-250.2 194.12,-237.19 202,-228 210.89,-217.62 223.64,-209.89 235.64,-204.38"/>
<polygon fill="black" stroke="black" points="237.15,-207.54 245,-200.42 234.43,-201.09 237.15,-207.54"/>
<text text-anchor="middle" x="228.5" y="-231.8" font-family="Times New Roman,serif" font-size="14.00">y = head;</text>
</g>
<!-- N5 -->
<g id="node6" class="node">
<title>N5</title>
<ellipse fill="none" stroke="black" cx="159" cy="-192" rx="27" ry="18"/>
<text text-anchor="middle" x="159" y="-188.3" font-family="Times New Roman,serif" font-size="14.00">N23</text>
</g>
<!-- N5&#45;&gt;N3 -->
<g id="edge9" class="edge">
<title>N5&#45;&gt;N3</title>
<path fill="none" stroke="black" d="M154.96,-173.86C153.52,-163.5 153.59,-150.5 160,-141 170.33,-125.7 188.82,-117.06 205.64,-112.19"/>
<polygon fill="black" stroke="black" points="206.97,-115.47 215.81,-109.63 205.25,-108.68 206.97,-115.47"/>
<text text-anchor="middle" x="190" y="-144.8" font-family="Times New Roman,serif" font-size="14.00">head = yn;</text>
</g>
<!-- N5&#45;&gt;N3 -->
<g id="edge10" class="edge">
<title>N5&#45;&gt;N3</title>
<path fill="none" stroke="black" d="M181.96,-182.08C194.54,-176.24 209.63,-167.53 220,-156 226.04,-149.28 230.63,-140.64 234.02,-132.43"/>
<polygon fill="black" stroke="black" points="237.39,-133.4 237.56,-122.8 230.82,-130.98 237.39,-133.4"/>
<text text-anchor="middle" x="255" y="-144.8" font-family="Times New Roman,serif" font-size="14.00">p.n = yn;</text>
</g>
<!-- N6&#45;&gt;N0 -->
<g id="edge11" class="edge">
<title>N6&#45;&gt;N0</title>
<path fill="none" stroke="black" d="M284.91,-206.59C301.15,-222.07 324,-249 324,-278 324,-479 324,-479 324,-479 324,-510.29 330.49,-524.35 310,-548 295.12,-565.17 271.21,-573.92 250.74,-578.37"/>
<polygon fill="black" stroke="black" points="249.88,-574.97 240.71,-580.28 251.19,-581.85 249.88,-574.97"/>
<text text-anchor="middle" x="349.5" y="-362.3" font-family="Times New Roman,serif" font-size="14.00">yn = y.n;</text>
</g>
<!-- N8 -->
<g id="node9" class="node">
<title>N8</title>
<ellipse fill="none" stroke="black" cx="101" cy="-279" rx="27" ry="18"/>
<text text-anchor="middle" x="101" y="-275.3" font-family="Times New Roman,serif" font-size="14.00">N42</text>
</g>
<!-- N7&#45;&gt;N8 -->
<g id="edge12" class="edge">
<title>N7&#45;&gt;N8</title>
<path fill="none" stroke="black" d="M80.14,-348.21C83.77,-336.33 88.71,-320.17 92.88,-306.56"/>
<polygon fill="black" stroke="black" points="96.3,-307.34 95.87,-296.76 89.6,-305.3 96.3,-307.34"/>
<text text-anchor="middle" x="109.5" y="-318.8" font-family="Times New Roman,serif" font-size="14.00">y.n = t;</text>
</g>
<!-- N8&#45;&gt;N5 -->
<g id="edge13" class="edge">
<title>N8&#45;&gt;N5</title>
<path fill="none" stroke="black" d="M107.07,-260.99C111.08,-250.93 116.9,-238.19 124,-228 127.46,-223.03 131.67,-218.14 135.95,-213.67"/>
<polygon fill="black" stroke="black" points="138.45,-216.12 143.1,-206.6 133.53,-211.14 138.45,-216.12"/>
<text text-anchor="middle" x="149.5" y="-231.8" font-family="Times New Roman,serif" font-size="14.00">yn.n = y;</text>
</g>
<!-- N9&#45;&gt;N0 -->
<g id="edge14" class="edge">
<title>N9&#45;&gt;N0</title>
<path fill="none" stroke="black" d="M359.32,-31.95C377.35,-47.06 403,-73.85 403,-104 403,-479 403,-479 403,-479 403,-547.6 306.79,-571.21 250.94,-579.14"/>
<polygon fill="black" stroke="black" points="250.47,-575.67 241.01,-580.44 251.38,-582.61 250.47,-575.67"/>
<text text-anchor="middle" x="421.5" y="-275.3" font-family="Times New Roman,serif" font-size="14.00">yn = t;</text>
</g>
<!-- N10&#45;&gt;N4 -->
<g id="edge15" class="edge">
<title>N10&#45;&gt;N4</title>
<path fill="none" stroke="black" d="M159.03,-347.96C158.46,-338.11 158.71,-325.61 162,-315 163.2,-311.13 164.97,-307.28 167,-303.63"/>
<polygon fill="black" stroke="black" points="170.03,-305.39 172.43,-295.07 164.12,-301.64 170.03,-305.39"/>
<text text-anchor="middle" x="204.5" y="-318.8" font-family="Times New Roman,serif" font-size="14.00">change = false;</text>
</g>
<!-- N11&#45;&gt;N6 -->
<g id="edge16" class="edge">
<title>N11&#45;&gt;N6</title>
<path fill="none" stroke="black" d="M269,-401.64C269,-362.52 269,-267.21 269,-220.17"/>
<polygon fill="black" stroke="black" points="272.5,-220.11 269,-210.11 265.5,-220.11 272.5,-220.11"/>
<text text-anchor="middle" x="289" y="-318.8" font-family="Times New Roman,serif" font-size="14.00">y = yn;</text>
</g>
</g>
</svg>
