<?xml version="1.0" encoding="UTF-8" standalone="no"?>
<!DOCTYPE svg PUBLIC "-//W3C//DTD SVG 1.1//EN"
 "http://www.w3.org/Graphics/SVG/1.1/DTD/svg11.dtd">
<!-- Generated by graphviz version 2.46.1 (20210213.1702)
 -->
<!-- Title: anonymous_graph Pages: 1 -->
<svg width="578pt" height="943pt"
 viewBox="0.00 0.00 578.00 943.00" xmlns="http://www.w3.org/2000/svg" xmlns:xlink="http://www.w3.org/1999/xlink">
<g id="graph0" class="graph" transform="scale(1 1) rotate(0) translate(4 939)">
<title>anonymous_graph</title>
<polygon fill="white" stroke="transparent" points="-4,4 -4,-939 574,-939 574,4 -4,4"/>
<!-- N0 -->
<g id="node1" class="node">
<title>N0</title>
<ellipse fill="none" stroke="black" cx="216" cy="-917" rx="29.5" ry="18"/>
<text text-anchor="middle" x="216" y="-913.3" font-family="Times New Roman,serif" font-size="14.00">initial</text>
</g>
<!-- N1 -->
<g id="node2" class="node">
<title>N1</title>
<ellipse fill="none" stroke="black" cx="31" cy="-826" rx="27" ry="18"/>
<ellipse fill="none" stroke="black" cx="31" cy="-826" rx="31" ry="22"/>
<text text-anchor="middle" x="31" y="-822.3" font-family="Times New Roman,serif" font-size="14.00">final</text>
</g>
<!-- N0&#45;&gt;N1 -->
<g id="edge4" class="edge">
<title>N0&#45;&gt;N1</title>
<path fill="none" stroke="black" d="M186.96,-914.23C142.07,-910.86 58.94,-901.92 39,-881 33.14,-874.85 30.41,-866.4 29.32,-858"/>
<polygon fill="black" stroke="black" points="32.81,-857.72 28.72,-847.95 25.82,-858.14 32.81,-857.72"/>
<text text-anchor="middle" x="57.5" y="-869.8" font-family="Times New Roman,serif" font-size="14.00">return;</text>
</g>
<!-- N2 -->
<g id="node3" class="node">
<title>N2</title>
<ellipse fill="none" stroke="black" cx="165" cy="-768" rx="27" ry="18"/>
<text text-anchor="middle" x="165" y="-764.3" font-family="Times New Roman,serif" font-size="14.00">N1</text>
</g>
<!-- N0&#45;&gt;N2 -->
<g id="edge1" class="edge">
<title>N0&#45;&gt;N2</title>
<path fill="none" stroke="black" d="M191.61,-906.69C180.46,-901.06 168.35,-892.68 162,-881 147.68,-854.65 151.7,-819.41 157.16,-795.55"/>
<polygon fill="black" stroke="black" points="160.57,-796.32 159.62,-785.77 153.78,-794.61 160.57,-796.32"/>
<text text-anchor="middle" x="202" y="-869.8" font-family="Times New Roman,serif" font-size="14.00">change = true;</text>
</g>
<!-- N3 -->
<g id="node4" class="node">
<title>N3</title>
<ellipse fill="none" stroke="black" cx="268" cy="-826" rx="27" ry="18"/>
<text text-anchor="middle" x="268" y="-822.3" font-family="Times New Roman,serif" font-size="14.00">N6</text>
</g>
<!-- N0&#45;&gt;N3 -->
<g id="edge2" class="edge">
<title>N0&#45;&gt;N3</title>
<path fill="none" stroke="black" d="M230.59,-901.15C235.9,-895.21 241.67,-888.11 246,-881 251.27,-872.37 255.77,-862.25 259.31,-853.12"/>
<polygon fill="black" stroke="black" points="262.6,-854.32 262.76,-843.72 256.03,-851.91 262.6,-854.32"/>
<text text-anchor="middle" x="293" y="-869.8" font-family="Times New Roman,serif" font-size="14.00">change = true;</text>
</g>
<!-- N12 -->
<g id="node13" class="node">
<title>N12</title>
<ellipse fill="none" stroke="black" cx="202" cy="-192" rx="27" ry="18"/>
<text text-anchor="middle" x="202" y="-188.3" font-family="Times New Roman,serif" font-size="14.00">N71</text>
</g>
<!-- N0&#45;&gt;N12 -->
<g id="edge3" class="edge">
<title>N0&#45;&gt;N12</title>
<path fill="none" stroke="black" d="M188.97,-909.79C151.95,-899.49 90,-875.07 90,-827 90,-827 90,-827 90,-278 90,-238.51 134.72,-214.99 167.64,-203.02"/>
<polygon fill="black" stroke="black" points="169.09,-206.22 177.42,-199.67 166.83,-199.6 169.09,-206.22"/>
<text text-anchor="middle" x="113.5" y="-536.3" font-family="Times New Roman,serif" font-size="14.00">p = null;</text>
</g>
<!-- N13 -->
<g id="node14" class="node">
<title>N13</title>
<ellipse fill="none" stroke="black" cx="377" cy="-192" rx="27" ry="18"/>
<text text-anchor="middle" x="377" y="-188.3" font-family="Times New Roman,serif" font-size="14.00">N84</text>
</g>
<!-- N0&#45;&gt;N13 -->
<g id="edge5" class="edge">
<title>N0&#45;&gt;N13</title>
<path fill="none" stroke="black" d="M245.49,-915.66C300.45,-913.31 413,-899.62 413,-827 413,-827 413,-827 413,-278 413,-256.3 402.93,-233.77 393.44,-217.36"/>
<polygon fill="black" stroke="black" points="396.2,-215.17 388,-208.46 390.23,-218.82 396.2,-215.17"/>
<text text-anchor="middle" x="452" y="-543.8" font-family="Times New Roman,serif" font-size="14.00">!(1 &lt; head.d)/</text>
<text text-anchor="middle" x="452" y="-528.8" font-family="Times New Roman,serif" font-size="14.00">p = y;</text>
</g>
<!-- N2&#45;&gt;N12 -->
<g id="edge6" class="edge">
<title>N2&#45;&gt;N12</title>
<path fill="none" stroke="black" d="M165,-749.75C165,-730.62 165,-698.86 165,-671.5 165,-671.5 165,-671.5 165,-278 165,-256.2 175.35,-233.68 185.11,-217.3"/>
<polygon fill="black" stroke="black" points="188.33,-218.75 190.7,-208.42 182.41,-215.02 188.33,-218.75"/>
<text text-anchor="middle" x="188.5" y="-492.8" font-family="Times New Roman,serif" font-size="14.00">p = null;</text>
</g>
<!-- N8 -->
<g id="node9" class="node">
<title>N8</title>
<ellipse fill="none" stroke="black" cx="284" cy="-714" rx="27" ry="18"/>
<text text-anchor="middle" x="284" y="-710.3" font-family="Times New Roman,serif" font-size="14.00">N41</text>
</g>
<!-- N3&#45;&gt;N8 -->
<g id="edge7" class="edge">
<title>N3&#45;&gt;N8</title>
<path fill="none" stroke="black" d="M270.5,-807.81C273.06,-790.21 277.08,-762.61 280.06,-742.07"/>
<polygon fill="black" stroke="black" points="283.54,-742.47 281.52,-732.07 276.61,-741.46 283.54,-742.47"/>
<text text-anchor="middle" x="302" y="-764.3" font-family="Times New Roman,serif" font-size="14.00">t = yn.n;</text>
</g>
<!-- N4 -->
<g id="node5" class="node">
<title>N4</title>
<ellipse fill="none" stroke="black" cx="282" cy="-453" rx="27" ry="18"/>
<text text-anchor="middle" x="282" y="-449.3" font-family="Times New Roman,serif" font-size="14.00">N10</text>
</g>
<!-- N11 -->
<g id="node12" class="node">
<title>N11</title>
<ellipse fill="none" stroke="black" cx="282" cy="-366" rx="27" ry="18"/>
<text text-anchor="middle" x="282" y="-362.3" font-family="Times New Roman,serif" font-size="14.00">N52</text>
</g>
<!-- N4&#45;&gt;N11 -->
<g id="edge8" class="edge">
<title>N4&#45;&gt;N11</title>
<path fill="none" stroke="black" d="M282,-434.8C282,-423.16 282,-407.55 282,-394.24"/>
<polygon fill="black" stroke="black" points="285.5,-394.18 282,-384.18 278.5,-394.18 285.5,-394.18"/>
<text text-anchor="middle" x="302.5" y="-405.8" font-family="Times New Roman,serif" font-size="14.00">p = yn;</text>
</g>
<!-- N5 -->
<g id="node6" class="node">
<title>N5</title>
<ellipse fill="none" stroke="black" cx="285" cy="-105" rx="27" ry="18"/>
<text text-anchor="middle" x="285" y="-101.3" font-family="Times New Roman,serif" font-size="14.00">N14</text>
</g>
<!-- N7 -->
<g id="node8" class="node">
<title>N7</title>
<ellipse fill="none" stroke="black" cx="377" cy="-18" rx="27" ry="18"/>
<text text-anchor="middle" x="377" y="-14.3" font-family="Times New Roman,serif" font-size="14.00">N29</text>
</g>
<!-- N5&#45;&gt;N7 -->
<g id="edge9" class="edge">
<title>N5&#45;&gt;N7</title>
<path fill="none" stroke="black" d="M290.41,-87.08C294.46,-76.54 300.89,-63.28 310,-54 319.51,-44.32 332.26,-36.75 344.09,-31.17"/>
<polygon fill="black" stroke="black" points="345.55,-34.35 353.29,-27.11 342.73,-27.94 345.55,-34.35"/>
<text text-anchor="middle" x="336.5" y="-57.8" font-family="Times New Roman,serif" font-size="14.00">y = head;</text>
</g>
<!-- N6 -->
<g id="node7" class="node">
<title>N6</title>
<ellipse fill="none" stroke="black" cx="350" cy="-540" rx="27" ry="18"/>
<text text-anchor="middle" x="350" y="-536.3" font-family="Times New Roman,serif" font-size="14.00">N23</text>
</g>
<!-- N6&#45;&gt;N4 -->
<g id="edge10" class="edge">
<title>N6&#45;&gt;N4</title>
<path fill="none" stroke="black" d="M327.46,-529.6C321.47,-527.11 314.99,-524.44 309,-522 289.05,-513.87 276.08,-521.84 264,-504 258.76,-496.26 260.49,-486.81 264.49,-478.22"/>
<polygon fill="black" stroke="black" points="267.63,-479.78 269.5,-469.36 261.53,-476.34 267.63,-479.78"/>
<text text-anchor="middle" x="294" y="-492.8" font-family="Times New Roman,serif" font-size="14.00">head = yn;</text>
</g>
<!-- N6&#45;&gt;N4 -->
<g id="edge11" class="edge">
<title>N6&#45;&gt;N4</title>
<path fill="none" stroke="black" d="M343.31,-522.25C338.76,-512.04 332.1,-499.06 324,-489 319.44,-483.34 313.85,-477.93 308.25,-473.13"/>
<polygon fill="black" stroke="black" points="310.14,-470.16 300.17,-466.58 305.73,-475.59 310.14,-470.16"/>
<text text-anchor="middle" x="359" y="-492.8" font-family="Times New Roman,serif" font-size="14.00">p.n = yn;</text>
</g>
<!-- N7&#45;&gt;N0 -->
<g id="edge12" class="edge">
<title>N7&#45;&gt;N0</title>
<path fill="none" stroke="black" d="M403.38,-22.66C444.44,-30.01 519,-50.7 519,-104 519,-827 519,-827 519,-827 519,-881.43 336.74,-904.97 254.93,-912.79"/>
<polygon fill="black" stroke="black" points="254.41,-909.32 244.78,-913.73 255.06,-916.29 254.41,-909.32"/>
<text text-anchor="middle" x="544.5" y="-449.3" font-family="Times New Roman,serif" font-size="14.00">yn = y.n;</text>
</g>
<!-- N9 -->
<g id="node10" class="node">
<title>N9</title>
<ellipse fill="none" stroke="black" cx="297" cy="-627" rx="27" ry="18"/>
<text text-anchor="middle" x="297" y="-623.3" font-family="Times New Roman,serif" font-size="14.00">N42</text>
</g>
<!-- N8&#45;&gt;N9 -->
<g id="edge13" class="edge">
<title>N8&#45;&gt;N9</title>
<path fill="none" stroke="black" d="M286.63,-695.8C288.41,-684.16 290.8,-668.55 292.83,-655.24"/>
<polygon fill="black" stroke="black" points="296.32,-655.59 294.37,-645.18 289.4,-654.53 296.32,-655.59"/>
<text text-anchor="middle" x="311.5" y="-666.8" font-family="Times New Roman,serif" font-size="14.00">y.n = t;</text>
</g>
<!-- N9&#45;&gt;N6 -->
<g id="edge14" class="edge">
<title>N9&#45;&gt;N6</title>
<path fill="none" stroke="black" d="M306.97,-610.01C314.74,-597.55 325.67,-580.01 334.57,-565.74"/>
<polygon fill="black" stroke="black" points="337.75,-567.25 340.08,-556.92 331.81,-563.55 337.75,-567.25"/>
<text text-anchor="middle" x="351.5" y="-579.8" font-family="Times New Roman,serif" font-size="14.00">yn.n = y;</text>
</g>
<!-- N10 -->
<g id="node11" class="node">
<title>N10</title>
<ellipse fill="none" stroke="black" cx="251" cy="-279" rx="27" ry="18"/>
<text text-anchor="middle" x="251" y="-275.3" font-family="Times New Roman,serif" font-size="14.00">N46</text>
</g>
<!-- N10&#45;&gt;N3 -->
<g id="edge16" class="edge">
<title>N10&#45;&gt;N3</title>
<path fill="none" stroke="black" d="M248.51,-297.01C242,-342.95 225,-473.39 225,-582.5 225,-715 225,-715 225,-715 225,-746.08 240.07,-778.92 252.37,-800.54"/>
<polygon fill="black" stroke="black" points="249.49,-802.53 257.59,-809.35 255.51,-798.97 249.49,-802.53"/>
<text text-anchor="middle" x="266" y="-543.8" font-family="Times New Roman,serif" font-size="14.00">!(yn == null)/</text>
<text text-anchor="middle" x="266" y="-528.8" font-family="Times New Roman,serif" font-size="14.00">change = true;</text>
</g>
<!-- N10&#45;&gt;N12 -->
<g id="edge15" class="edge">
<title>N10&#45;&gt;N12</title>
<path fill="none" stroke="black" d="M241.78,-262.01C234.64,-249.63 224.62,-232.23 216.42,-218.01"/>
<polygon fill="black" stroke="black" points="219.37,-216.12 211.34,-209.21 213.3,-219.62 219.37,-216.12"/>
<text text-anchor="middle" x="252.5" y="-231.8" font-family="Times New Roman,serif" font-size="14.00">p = null;</text>
</g>
<!-- N10&#45;&gt;N13 -->
<g id="edge17" class="edge">
<title>N10&#45;&gt;N13</title>
<path fill="none" stroke="black" d="M269.32,-265.64C290.6,-251.29 325.88,-227.49 350.23,-211.06"/>
<polygon fill="black" stroke="black" points="352.32,-213.87 358.66,-205.37 348.41,-208.07 352.32,-213.87"/>
<text text-anchor="middle" x="338" y="-231.8" font-family="Times New Roman,serif" font-size="14.00">p = y;</text>
</g>
<!-- N11&#45;&gt;N10 -->
<g id="edge18" class="edge">
<title>N11&#45;&gt;N10</title>
<path fill="none" stroke="black" d="M275.88,-348.21C271.5,-336.22 265.53,-319.85 260.54,-306.16"/>
<polygon fill="black" stroke="black" points="263.83,-304.95 257.11,-296.76 257.25,-307.35 263.83,-304.95"/>
<text text-anchor="middle" x="286.5" y="-318.8" font-family="Times New Roman,serif" font-size="14.00">yn = t;</text>
</g>
<!-- N12&#45;&gt;N5 -->
<g id="edge19" class="edge">
<title>N12&#45;&gt;N5</title>
<path fill="none" stroke="black" d="M216.08,-176.58C229.08,-163.27 248.57,-143.31 263.51,-128.01"/>
<polygon fill="black" stroke="black" points="266.37,-130.09 270.85,-120.49 261.36,-125.2 266.37,-130.09"/>
<text text-anchor="middle" x="290.5" y="-144.8" font-family="Times New Roman,serif" font-size="14.00">change = false;</text>
</g>
<!-- N13&#45;&gt;N7 -->
<g id="edge20" class="edge">
<title>N13&#45;&gt;N7</title>
<path fill="none" stroke="black" d="M377,-173.88C377,-144 377,-82.11 377,-46.27"/>
<polygon fill="black" stroke="black" points="380.5,-46.05 377,-36.05 373.5,-46.05 380.5,-46.05"/>
<text text-anchor="middle" x="397" y="-101.3" font-family="Times New Roman,serif" font-size="14.00">y = yn;</text>
</g>
</g>
</svg>
