<?xml version="1.0" encoding="UTF-8" standalone="no"?>
<!DOCTYPE svg PUBLIC "-//W3C//DTD SVG 1.1//EN"
 "http://www.w3.org/Graphics/SVG/1.1/DTD/svg11.dtd">
<!-- Generated by graphviz version 2.46.1 (20210213.1702)
 -->
<!-- Title: anonymous_graph Pages: 1 -->
<svg width="968pt" height="625pt"
 viewBox="0.00 0.00 968.00 625.00" xmlns="http://www.w3.org/2000/svg" xmlns:xlink="http://www.w3.org/1999/xlink">
<g id="graph0" class="graph" transform="scale(1 1) rotate(0) translate(4 621)">
<title>anonymous_graph</title>
<polygon fill="white" stroke="transparent" points="-4,4 -4,-621 964,-621 964,4 -4,4"/>
<!-- N0 -->
<g id="node1" class="node">
<title>N0</title>
<ellipse fill="none" stroke="black" cx="561" cy="-599" rx="29.5" ry="18"/>
<text text-anchor="middle" x="561" y="-595.3" font-family="Times New Roman,serif" font-size="14.00">initial</text>
</g>
<!-- N1 -->
<g id="node2" class="node">
<title>N1</title>
<ellipse fill="none" stroke="black" cx="31" cy="-493" rx="27" ry="18"/>
<ellipse fill="none" stroke="black" cx="31" cy="-493" rx="31" ry="22"/>
<text text-anchor="middle" x="31" y="-489.3" font-family="Times New Roman,serif" font-size="14.00">final</text>
</g>
<!-- N0&#45;&gt;N1 -->
<g id="edge3" class="edge">
<title>N0&#45;&gt;N1</title>
<path fill="none" stroke="black" d="M531.63,-598.05C427.72,-597.93 81.69,-595.13 45,-563 34.37,-553.7 30.49,-538.73 29.42,-525.12"/>
<polygon fill="black" stroke="black" points="32.92,-524.96 29.09,-515.08 25.92,-525.19 32.92,-524.96"/>
<text text-anchor="middle" x="139.5" y="-551.8" font-family="Times New Roman,serif" font-size="14.00">yn == null &amp;&amp; !(change == true)/</text>
<text text-anchor="middle" x="139.5" y="-536.8" font-family="Times New Roman,serif" font-size="14.00">return;</text>
</g>
<!-- N2 -->
<g id="node3" class="node">
<title>N2</title>
<ellipse fill="none" stroke="black" cx="375" cy="-493" rx="27" ry="18"/>
<text text-anchor="middle" x="375" y="-489.3" font-family="Times New Roman,serif" font-size="14.00">N6</text>
</g>
<!-- N0&#45;&gt;N2 -->
<g id="edge1" class="edge">
<title>N0&#45;&gt;N2</title>
<path fill="none" stroke="black" d="M531.9,-596.96C457.17,-593.98 263.05,-584.27 244,-563 235.1,-553.07 236.03,-543.69 244,-533 265.38,-504.33 307,-495.9 337.61,-493.81"/>
<polygon fill="black" stroke="black" points="338.11,-497.3 347.93,-493.32 337.77,-490.3 338.11,-497.3"/>
<text text-anchor="middle" x="387.5" y="-551.8" font-family="Times New Roman,serif" font-size="14.00">!(yn == null) &amp;&amp; !(y.d &lt; yn.d) &amp;&amp; !(y.d == yn.d)/</text>
<text text-anchor="middle" x="387.5" y="-536.8" font-family="Times New Roman,serif" font-size="14.00">change = true;</text>
</g>
<!-- N10 -->
<g id="node11" class="node">
<title>N10</title>
<ellipse fill="none" stroke="black" cx="545" cy="-381" rx="27" ry="18"/>
<text text-anchor="middle" x="545" y="-377.3" font-family="Times New Roman,serif" font-size="14.00">N71</text>
</g>
<!-- N0&#45;&gt;N10 -->
<g id="edge2" class="edge">
<title>N0&#45;&gt;N10</title>
<path fill="none" stroke="black" d="M556.73,-580.97C552.78,-564.29 547.2,-538.08 545,-515 541.53,-478.64 542.35,-436.42 543.48,-409.48"/>
<polygon fill="black" stroke="black" points="546.99,-409.42 543.96,-399.27 539.99,-409.09 546.99,-409.42"/>
<text text-anchor="middle" x="632.5" y="-496.8" font-family="Times New Roman,serif" font-size="14.00">yn == null &amp;&amp; change == true/</text>
<text text-anchor="middle" x="632.5" y="-481.8" font-family="Times New Roman,serif" font-size="14.00">p = null;</text>
</g>
<!-- N11 -->
<g id="node12" class="node">
<title>N11</title>
<ellipse fill="none" stroke="black" cx="748" cy="-435" rx="27" ry="18"/>
<text text-anchor="middle" x="748" y="-431.3" font-family="Times New Roman,serif" font-size="14.00">N84</text>
</g>
<!-- N0&#45;&gt;N11 -->
<g id="edge4" class="edge">
<title>N0&#45;&gt;N11</title>
<path fill="none" stroke="black" d="M560.79,-580.88C561.61,-565.91 565.35,-544.78 579,-533 628.16,-490.57 674.32,-556.82 724,-515 738.98,-502.39 744.81,-480.73 746.99,-463.28"/>
<polygon fill="black" stroke="black" points="750.49,-463.35 747.92,-453.08 743.52,-462.72 750.49,-463.35"/>
<text text-anchor="middle" x="704.5" y="-551.8" font-family="Times New Roman,serif" font-size="14.00">!(yn == null) &amp;&amp; (y.d &lt; yn.d || y.d == yn.d)/</text>
<text text-anchor="middle" x="704.5" y="-536.8" font-family="Times New Roman,serif" font-size="14.00">p = y;</text>
</g>
<!-- N7 -->
<g id="node8" class="node">
<title>N7</title>
<ellipse fill="none" stroke="black" cx="424" cy="-381" rx="27" ry="18"/>
<text text-anchor="middle" x="424" y="-377.3" font-family="Times New Roman,serif" font-size="14.00">N41</text>
</g>
<!-- N2&#45;&gt;N7 -->
<g id="edge6" class="edge">
<title>N2&#45;&gt;N7</title>
<path fill="none" stroke="black" d="M371.12,-475.17C368.36,-459.26 366.61,-435.16 376,-417 380.05,-409.16 386.75,-402.66 393.88,-397.47"/>
<polygon fill="black" stroke="black" points="395.84,-400.36 402.31,-391.98 392.02,-394.5 395.84,-400.36"/>
<text text-anchor="middle" x="405.5" y="-438.8" font-family="Times New Roman,serif" font-size="14.00">y.n == yn/</text>
<text text-anchor="middle" x="405.5" y="-423.8" font-family="Times New Roman,serif" font-size="14.00">t = yn.n;</text>
</g>
<!-- N2&#45;&gt;N10 -->
<g id="edge5" class="edge">
<title>N2&#45;&gt;N10</title>
<path fill="none" stroke="black" d="M395.75,-481.45C408.09,-474.49 423.54,-464.55 435,-453 448.37,-439.52 443.39,-429.12 458,-417 472.98,-404.58 492.94,-396.12 509.96,-390.64"/>
<polygon fill="black" stroke="black" points="511.02,-393.98 519.59,-387.75 509,-387.28 511.02,-393.98"/>
<text text-anchor="middle" x="494.5" y="-438.8" font-family="Times New Roman,serif" font-size="14.00">!(y.n == yn)/</text>
<text text-anchor="middle" x="494.5" y="-423.8" font-family="Times New Roman,serif" font-size="14.00">p = null;</text>
</g>
<!-- N3 -->
<g id="node4" class="node">
<title>N3</title>
<ellipse fill="none" stroke="black" cx="708" cy="-105" rx="27" ry="18"/>
<text text-anchor="middle" x="708" y="-101.3" font-family="Times New Roman,serif" font-size="14.00">N10</text>
</g>
<!-- N9 -->
<g id="node10" class="node">
<title>N9</title>
<ellipse fill="none" stroke="black" cx="842" cy="-18" rx="27" ry="18"/>
<text text-anchor="middle" x="842" y="-14.3" font-family="Times New Roman,serif" font-size="14.00">N52</text>
</g>
<!-- N3&#45;&gt;N9 -->
<g id="edge7" class="edge">
<title>N3&#45;&gt;N9</title>
<path fill="none" stroke="black" d="M726.91,-92C749.76,-77.51 788.37,-53.02 814.5,-36.44"/>
<polygon fill="black" stroke="black" points="816.61,-39.25 823.18,-30.94 812.86,-33.34 816.61,-39.25"/>
<text text-anchor="middle" x="803.5" y="-57.8" font-family="Times New Roman,serif" font-size="14.00">p = yn;</text>
</g>
<!-- N4 -->
<g id="node5" class="node">
<title>N4</title>
<ellipse fill="none" stroke="black" cx="650" cy="-294" rx="27" ry="18"/>
<text text-anchor="middle" x="650" y="-290.3" font-family="Times New Roman,serif" font-size="14.00">N14</text>
</g>
<!-- N6 -->
<g id="node7" class="node">
<title>N6</title>
<ellipse fill="none" stroke="black" cx="748" cy="-207" rx="27" ry="18"/>
<text text-anchor="middle" x="748" y="-203.3" font-family="Times New Roman,serif" font-size="14.00">N29</text>
</g>
<!-- N4&#45;&gt;N6 -->
<g id="edge8" class="edge">
<title>N4&#45;&gt;N6</title>
<path fill="none" stroke="black" d="M657.34,-276.57C662.71,-265.97 670.82,-252.45 681,-243 690.94,-233.77 703.77,-226.28 715.55,-220.64"/>
<polygon fill="black" stroke="black" points="717.01,-223.82 724.69,-216.52 714.13,-217.44 717.01,-223.82"/>
<text text-anchor="middle" x="707.5" y="-246.8" font-family="Times New Roman,serif" font-size="14.00">y = head;</text>
</g>
<!-- N5 -->
<g id="node6" class="node">
<title>N5</title>
<ellipse fill="none" stroke="black" cx="624" cy="-207" rx="27" ry="18"/>
<text text-anchor="middle" x="624" y="-203.3" font-family="Times New Roman,serif" font-size="14.00">N23</text>
</g>
<!-- N5&#45;&gt;N3 -->
<g id="edge9" class="edge">
<title>N5&#45;&gt;N3</title>
<path fill="none" stroke="black" d="M619.5,-189.01C616.82,-174.94 615.53,-155.03 625,-141 635.53,-125.4 654.51,-116.73 671.66,-111.92"/>
<polygon fill="black" stroke="black" points="672.59,-115.3 681.47,-109.52 670.93,-108.5 672.59,-115.3"/>
<text text-anchor="middle" x="655.5" y="-159.8" font-family="Times New Roman,serif" font-size="14.00">head == y/</text>
<text text-anchor="middle" x="655.5" y="-144.8" font-family="Times New Roman,serif" font-size="14.00">head = yn;</text>
</g>
<!-- N5&#45;&gt;N3 -->
<g id="edge10" class="edge">
<title>N5&#45;&gt;N3</title>
<path fill="none" stroke="black" d="M647.43,-197.64C660.41,-191.94 675.91,-183.19 686,-171 694.9,-160.25 700.27,-145.72 703.46,-133.12"/>
<polygon fill="black" stroke="black" points="706.93,-133.64 705.67,-123.12 700.1,-132.13 706.93,-133.64"/>
<text text-anchor="middle" x="738.5" y="-159.8" font-family="Times New Roman,serif" font-size="14.00">!(head == y)/</text>
<text text-anchor="middle" x="738.5" y="-144.8" font-family="Times New Roman,serif" font-size="14.00">p.n = yn;</text>
</g>
<!-- N6&#45;&gt;N0 -->
<g id="edge11" class="edge">
<title>N6&#45;&gt;N0</title>
<path fill="none" stroke="black" d="M771.24,-216.65C799.65,-228.92 844,-254.27 844,-293 844,-494 844,-494 844,-494 844,-525.29 852.9,-541.67 830,-563 797.54,-593.24 667.14,-597.93 600.55,-598.29"/>
<polygon fill="black" stroke="black" points="600.43,-594.79 590.44,-598.32 600.45,-601.79 600.43,-594.79"/>
<text text-anchor="middle" x="869.5" y="-377.3" font-family="Times New Roman,serif" font-size="14.00">yn = y.n;</text>
</g>
<!-- N8 -->
<g id="node9" class="node">
<title>N8</title>
<ellipse fill="none" stroke="black" cx="564" cy="-294" rx="27" ry="18"/>
<text text-anchor="middle" x="564" y="-290.3" font-family="Times New Roman,serif" font-size="14.00">N42</text>
</g>
<!-- N7&#45;&gt;N8 -->
<g id="edge12" class="edge">
<title>N7&#45;&gt;N8</title>
<path fill="none" stroke="black" d="M443.47,-368.18C467.5,-353.59 508.54,-328.67 535.97,-312.02"/>
<polygon fill="black" stroke="black" points="537.97,-314.9 544.7,-306.72 534.33,-308.92 537.97,-314.9"/>
<text text-anchor="middle" x="522.5" y="-333.8" font-family="Times New Roman,serif" font-size="14.00">y.n = t;</text>
</g>
<!-- N8&#45;&gt;N5 -->
<g id="edge13" class="edge">
<title>N8&#45;&gt;N5</title>
<path fill="none" stroke="black" d="M569.79,-276.39C573.76,-266.22 579.65,-253.25 587,-243 590.63,-237.94 595.07,-233.01 599.59,-228.53"/>
<polygon fill="black" stroke="black" points="602.24,-230.84 607.15,-221.45 597.46,-225.73 602.24,-230.84"/>
<text text-anchor="middle" x="612.5" y="-246.8" font-family="Times New Roman,serif" font-size="14.00">yn.n = y;</text>
</g>
<!-- N9&#45;&gt;N0 -->
<g id="edge14" class="edge">
<title>N9&#45;&gt;N0</title>
<path fill="none" stroke="black" d="M863.28,-29.6C887.28,-43.23 923,-69.35 923,-104 923,-494 923,-494 923,-494 923,-538.32 891.06,-544.04 851,-563 807.51,-583.59 669.15,-592.88 600.47,-596.32"/>
<polygon fill="black" stroke="black" points="600.28,-592.82 590.46,-596.8 600.62,-599.81 600.28,-592.82"/>
<text text-anchor="middle" x="941.5" y="-290.3" font-family="Times New Roman,serif" font-size="14.00">yn = t;</text>
</g>
<!-- N10&#45;&gt;N4 -->
<g id="edge15" class="edge">
<title>N10&#45;&gt;N4</title>
<path fill="none" stroke="black" d="M561.87,-366.34C579.12,-352.38 606.08,-330.56 625.64,-314.72"/>
<polygon fill="black" stroke="black" points="627.95,-317.35 633.52,-308.34 623.54,-311.91 627.95,-317.35"/>
<text text-anchor="middle" x="645.5" y="-333.8" font-family="Times New Roman,serif" font-size="14.00">change = false;</text>
</g>
<!-- N11&#45;&gt;N6 -->
<g id="edge16" class="edge">
<title>N11&#45;&gt;N6</title>
<path fill="none" stroke="black" d="M748,-416.64C748,-377.52 748,-282.21 748,-235.17"/>
<polygon fill="black" stroke="black" points="751.5,-235.11 748,-225.11 744.5,-235.11 751.5,-235.11"/>
<text text-anchor="middle" x="768" y="-333.8" font-family="Times New Roman,serif" font-size="14.00">y = yn;</text>
</g>
</g>
</svg>
