<?xml version="1.0" encoding="UTF-8" standalone="no"?>
<!DOCTYPE svg PUBLIC "-//W3C//DTD SVG 1.1//EN"
 "http://www.w3.org/Graphics/SVG/1.1/DTD/svg11.dtd">
<!-- Generated by graphviz version 2.46.1 (20210213.1702)
 -->
<!-- Title: anonymous_graph Pages: 1 -->
<svg width="477pt" height="3031pt"
 viewBox="0.00 0.00 477.00 3031.00" xmlns="http://www.w3.org/2000/svg" xmlns:xlink="http://www.w3.org/1999/xlink">
<g id="graph0" class="graph" transform="scale(1 1) rotate(0) translate(4 3027)">
<title>anonymous_graph</title>
<polygon fill="white" stroke="transparent" points="-4,4 -4,-3027 473,-3027 473,4 -4,4"/>
<!-- N0 -->
<g id="node1" class="node">
<title>N0</title>
<ellipse fill="none" stroke="black" cx="294" cy="-3005" rx="29.5" ry="18"/>
<text text-anchor="middle" x="294" y="-3001.3" font-family="Times New Roman,serif" font-size="14.00">initial</text>
</g>
<!-- N2 -->
<g id="node3" class="node">
<title>N2</title>
<ellipse fill="none" stroke="black" cx="294" cy="-2918" rx="27" ry="18"/>
<text text-anchor="middle" x="294" y="-2914.3" font-family="Times New Roman,serif" font-size="14.00">N1</text>
</g>
<!-- N0&#45;&gt;N2 -->
<g id="edge1" class="edge">
<title>N0&#45;&gt;N2</title>
<path fill="none" stroke="black" d="M294,-2986.8C294,-2975.16 294,-2959.55 294,-2946.24"/>
<polygon fill="black" stroke="black" points="297.5,-2946.18 294,-2936.18 290.5,-2946.18 297.5,-2946.18"/>
<text text-anchor="middle" x="334" y="-2957.8" font-family="Times New Roman,serif" font-size="14.00">change = true;</text>
</g>
<!-- N1 -->
<g id="node2" class="node">
<title>N1</title>
<ellipse fill="none" stroke="black" cx="203" cy="-109" rx="27" ry="18"/>
<ellipse fill="none" stroke="black" cx="203" cy="-109" rx="31" ry="22"/>
<text text-anchor="middle" x="203" y="-105.3" font-family="Times New Roman,serif" font-size="14.00">final</text>
</g>
<!-- N3 -->
<g id="node4" class="node">
<title>N3</title>
<ellipse fill="none" stroke="black" cx="294" cy="-2831" rx="27" ry="18"/>
<text text-anchor="middle" x="294" y="-2827.3" font-family="Times New Roman,serif" font-size="14.00">N2</text>
</g>
<!-- N2&#45;&gt;N3 -->
<g id="edge2" class="edge">
<title>N2&#45;&gt;N3</title>
<path fill="none" stroke="black" d="M294,-2899.8C294,-2888.16 294,-2872.55 294,-2859.24"/>
<polygon fill="black" stroke="black" points="297.5,-2859.18 294,-2849.18 290.5,-2859.18 297.5,-2859.18"/>
<text text-anchor="middle" x="317.5" y="-2870.8" font-family="Times New Roman,serif" font-size="14.00">p = null;</text>
</g>
<!-- N4 -->
<g id="node5" class="node">
<title>N4</title>
<ellipse fill="none" stroke="black" cx="294" cy="-2744" rx="27" ry="18"/>
<text text-anchor="middle" x="294" y="-2740.3" font-family="Times New Roman,serif" font-size="14.00">N3</text>
</g>
<!-- N3&#45;&gt;N4 -->
<g id="edge3" class="edge">
<title>N3&#45;&gt;N4</title>
<path fill="none" stroke="black" d="M294,-2812.8C294,-2801.16 294,-2785.55 294,-2772.24"/>
<polygon fill="black" stroke="black" points="297.5,-2772.18 294,-2762.18 290.5,-2772.18 297.5,-2772.18"/>
<text text-anchor="middle" x="336.5" y="-2783.8" font-family="Times New Roman,serif" font-size="14.00">change = false;</text>
</g>
<!-- N5 -->
<g id="node6" class="node">
<title>N5</title>
<ellipse fill="none" stroke="black" cx="294" cy="-2657" rx="27" ry="18"/>
<text text-anchor="middle" x="294" y="-2653.3" font-family="Times New Roman,serif" font-size="14.00">N4</text>
</g>
<!-- N4&#45;&gt;N5 -->
<g id="edge4" class="edge">
<title>N4&#45;&gt;N5</title>
<path fill="none" stroke="black" d="M294,-2725.8C294,-2714.16 294,-2698.55 294,-2685.24"/>
<polygon fill="black" stroke="black" points="297.5,-2685.18 294,-2675.18 290.5,-2685.18 297.5,-2685.18"/>
<text text-anchor="middle" x="320.5" y="-2696.8" font-family="Times New Roman,serif" font-size="14.00">y = head;</text>
</g>
<!-- N6 -->
<g id="node7" class="node">
<title>N6</title>
<ellipse fill="none" stroke="black" cx="294" cy="-2570" rx="27" ry="18"/>
<text text-anchor="middle" x="294" y="-2566.3" font-family="Times New Roman,serif" font-size="14.00">N5</text>
</g>
<!-- N5&#45;&gt;N6 -->
<g id="edge5" class="edge">
<title>N5&#45;&gt;N6</title>
<path fill="none" stroke="black" d="M294,-2638.8C294,-2627.16 294,-2611.55 294,-2598.24"/>
<polygon fill="black" stroke="black" points="297.5,-2598.18 294,-2588.18 290.5,-2598.18 297.5,-2598.18"/>
<text text-anchor="middle" x="319.5" y="-2609.8" font-family="Times New Roman,serif" font-size="14.00">yn = y.n;</text>
</g>
<!-- N7 -->
<g id="node8" class="node">
<title>N7</title>
<ellipse fill="none" stroke="black" cx="243" cy="-2414" rx="27" ry="18"/>
<text text-anchor="middle" x="243" y="-2410.3" font-family="Times New Roman,serif" font-size="14.00">N6</text>
</g>
<!-- N6&#45;&gt;N7 -->
<g id="edge6" class="edge">
<title>N6&#45;&gt;N7</title>
<path fill="none" stroke="black" d="M271.01,-2560.39C259.49,-2554.76 246.62,-2546.17 240,-2534 224.54,-2505.56 229.12,-2467.38 235.01,-2442.02"/>
<polygon fill="black" stroke="black" points="238.48,-2442.55 237.55,-2432 231.7,-2440.83 238.48,-2442.55"/>
<text text-anchor="middle" x="280" y="-2522.8" font-family="Times New Roman,serif" font-size="14.00">!(0 &lt; yn.d)/</text>
<text text-anchor="middle" x="280" y="-2507.8" font-family="Times New Roman,serif" font-size="14.00">change = true;</text>
</g>
<!-- N19 -->
<g id="node20" class="node">
<title>N19</title>
<ellipse fill="none" stroke="black" cx="346" cy="-2468" rx="27" ry="18"/>
<text text-anchor="middle" x="346" y="-2464.3" font-family="Times New Roman,serif" font-size="14.00">N37</text>
</g>
<!-- N6&#45;&gt;N19 -->
<g id="edge7" class="edge">
<title>N6&#45;&gt;N19</title>
<path fill="none" stroke="black" d="M308.51,-2554.63C313.94,-2548.64 319.8,-2541.37 324,-2534 330.7,-2522.23 335.79,-2508.09 339.38,-2496.01"/>
<polygon fill="black" stroke="black" points="342.84,-2496.61 342.14,-2486.04 336.1,-2494.74 342.84,-2496.61"/>
<text text-anchor="middle" x="362" y="-2522.8" font-family="Times New Roman,serif" font-size="14.00">0 &lt; yn.d/</text>
<text text-anchor="middle" x="362" y="-2507.8" font-family="Times New Roman,serif" font-size="14.00">p = y;</text>
</g>
<!-- N23 -->
<g id="node24" class="node">
<title>N23</title>
<ellipse fill="none" stroke="black" cx="249" cy="-2084" rx="27" ry="18"/>
<text text-anchor="middle" x="249" y="-2080.3" font-family="Times New Roman,serif" font-size="14.00">N41</text>
</g>
<!-- N7&#45;&gt;N23 -->
<g id="edge8" class="edge">
<title>N7&#45;&gt;N23</title>
<path fill="none" stroke="black" d="M243,-2395.75C243,-2376.62 243,-2344.86 243,-2317.5 243,-2317.5 243,-2317.5 243,-2170 243,-2150.7 244.56,-2129.01 246.09,-2112.36"/>
<polygon fill="black" stroke="black" points="249.59,-2112.52 247.07,-2102.23 242.62,-2111.85 249.59,-2112.52"/>
<text text-anchor="middle" x="267" y="-2269.3" font-family="Times New Roman,serif" font-size="14.00">t = yn.n;</text>
</g>
<!-- N8 -->
<g id="node9" class="node">
<title>N8</title>
<ellipse fill="none" stroke="black" cx="99" cy="-1823" rx="27" ry="18"/>
<text text-anchor="middle" x="99" y="-1819.3" font-family="Times New Roman,serif" font-size="14.00">N10</text>
</g>
<!-- N26 -->
<g id="node27" class="node">
<title>N26</title>
<ellipse fill="none" stroke="black" cx="98" cy="-1715" rx="27" ry="18"/>
<text text-anchor="middle" x="98" y="-1711.3" font-family="Times New Roman,serif" font-size="14.00">N52</text>
</g>
<!-- N8&#45;&gt;N26 -->
<g id="edge9" class="edge">
<title>N8&#45;&gt;N26</title>
<path fill="none" stroke="black" d="M98.84,-1804.97C98.68,-1788.38 98.44,-1762.88 98.26,-1743.43"/>
<polygon fill="black" stroke="black" points="101.76,-1743.31 98.16,-1733.34 94.76,-1743.37 101.76,-1743.31"/>
<text text-anchor="middle" x="119.5" y="-1765.3" font-family="Times New Roman,serif" font-size="14.00">p = yn;</text>
</g>
<!-- N9 -->
<g id="node10" class="node">
<title>N9</title>
<ellipse fill="none" stroke="black" cx="28" cy="-1439" rx="27" ry="18"/>
<text text-anchor="middle" x="28" y="-1435.3" font-family="Times New Roman,serif" font-size="14.00">N14</text>
</g>
<!-- N15 -->
<g id="node16" class="node">
<title>N15</title>
<ellipse fill="none" stroke="black" cx="34" cy="-1352" rx="27" ry="18"/>
<text text-anchor="middle" x="34" y="-1348.3" font-family="Times New Roman,serif" font-size="14.00">N29</text>
</g>
<!-- N9&#45;&gt;N15 -->
<g id="edge10" class="edge">
<title>N9&#45;&gt;N15</title>
<path fill="none" stroke="black" d="M29.21,-1420.8C30.04,-1409.16 31.14,-1393.55 32.08,-1380.24"/>
<polygon fill="black" stroke="black" points="35.57,-1380.4 32.79,-1370.18 28.59,-1379.9 35.57,-1380.4"/>
<text text-anchor="middle" x="58.5" y="-1391.8" font-family="Times New Roman,serif" font-size="14.00">y = head;</text>
</g>
<!-- N10 -->
<g id="node11" class="node">
<title>N10</title>
<ellipse fill="none" stroke="black" cx="37" cy="-1265" rx="27" ry="18"/>
<text text-anchor="middle" x="37" y="-1261.3" font-family="Times New Roman,serif" font-size="14.00">N16</text>
</g>
<!-- N16 -->
<g id="node17" class="node">
<title>N16</title>
<ellipse fill="none" stroke="black" cx="38" cy="-1178" rx="27" ry="18"/>
<text text-anchor="middle" x="38" y="-1174.3" font-family="Times New Roman,serif" font-size="14.00">N31</text>
</g>
<!-- N10&#45;&gt;N16 -->
<g id="edge11" class="edge">
<title>N10&#45;&gt;N16</title>
<path fill="none" stroke="black" d="M37.2,-1246.8C37.34,-1235.16 37.52,-1219.55 37.68,-1206.24"/>
<polygon fill="black" stroke="black" points="41.18,-1206.22 37.8,-1196.18 34.18,-1206.13 41.18,-1206.22"/>
<text text-anchor="middle" x="55" y="-1217.8" font-family="Times New Roman,serif" font-size="14.00">p = y;</text>
</g>
<!-- N11 -->
<g id="node12" class="node">
<title>N11</title>
<ellipse fill="none" stroke="black" cx="135" cy="-200" rx="27" ry="18"/>
<text text-anchor="middle" x="135" y="-196.3" font-family="Times New Roman,serif" font-size="14.00">N19</text>
</g>
<!-- N11&#45;&gt;N1 -->
<g id="edge12" class="edge">
<title>N11&#45;&gt;N1</title>
<path fill="none" stroke="black" d="M146.1,-183.05C153.09,-173.14 162.39,-160.19 171,-149 174.19,-144.85 177.63,-140.52 181.03,-136.31"/>
<polygon fill="black" stroke="black" points="183.84,-138.41 187.46,-128.45 178.42,-133.98 183.84,-138.41"/>
<text text-anchor="middle" x="189.5" y="-152.8" font-family="Times New Roman,serif" font-size="14.00">return;</text>
</g>
<!-- N17 -->
<g id="node18" class="node">
<title>N17</title>
<ellipse fill="none" stroke="black" cx="40" cy="-109" rx="27" ry="18"/>
<text text-anchor="middle" x="40" y="-105.3" font-family="Times New Roman,serif" font-size="14.00">N34</text>
</g>
<!-- N11&#45;&gt;N17 -->
<g id="edge14" class="edge">
<title>N11&#45;&gt;N17</title>
<path fill="none" stroke="black" d="M109.55,-193.93C91.85,-189.12 69.01,-180.15 55,-164 48.56,-156.58 44.87,-146.61 42.76,-137.26"/>
<polygon fill="black" stroke="black" points="46.15,-136.37 40.98,-127.13 39.26,-137.58 46.15,-136.37"/>
<text text-anchor="middle" x="72" y="-152.8" font-family="Times New Roman,serif" font-size="14.00">p = y;</text>
</g>
<!-- N28 -->
<g id="node29" class="node">
<title>N28</title>
<ellipse fill="none" stroke="black" cx="318" cy="-109" rx="27" ry="18"/>
<text text-anchor="middle" x="318" y="-105.3" font-family="Times New Roman,serif" font-size="14.00">N61</text>
</g>
<!-- N11&#45;&gt;N28 -->
<g id="edge13" class="edge">
<title>N11&#45;&gt;N28</title>
<path fill="none" stroke="black" d="M157.1,-189.32C171.78,-182.67 191.34,-173.37 208,-164 218.64,-158.02 220.29,-154.85 231,-149 248.73,-139.32 269.33,-130.01 286.03,-122.91"/>
<polygon fill="black" stroke="black" points="287.49,-126.09 295.36,-119 284.79,-119.64 287.49,-126.09"/>
<text text-anchor="middle" x="271" y="-152.8" font-family="Times New Roman,serif" font-size="14.00">change = true;</text>
</g>
<!-- N12 -->
<g id="node13" class="node">
<title>N12</title>
<ellipse fill="none" stroke="black" cx="219" cy="-1526" rx="27" ry="18"/>
<text text-anchor="middle" x="219" y="-1522.3" font-family="Times New Roman,serif" font-size="14.00">N20</text>
</g>
<!-- N12&#45;&gt;N23 -->
<g id="edge15" class="edge">
<title>N12&#45;&gt;N23</title>
<path fill="none" stroke="black" d="M227.4,-1543.44C230.11,-1549.2 232.94,-1555.79 235,-1562 244.31,-1590.05 249,-1597.45 249,-1627 249,-1998 249,-1998 249,-1998 249,-2017.25 249,-2038.95 249,-2055.6"/>
<polygon fill="black" stroke="black" points="245.5,-2055.74 249,-2065.74 252.5,-2055.74 245.5,-2055.74"/>
<text text-anchor="middle" x="273" y="-1819.3" font-family="Times New Roman,serif" font-size="14.00">t = yn.n;</text>
</g>
<!-- N13 -->
<g id="node14" class="node">
<title>N13</title>
<ellipse fill="none" stroke="black" cx="174" cy="-1910" rx="27" ry="18"/>
<text text-anchor="middle" x="174" y="-1906.3" font-family="Times New Roman,serif" font-size="14.00">N23</text>
</g>
<!-- N13&#45;&gt;N8 -->
<g id="edge16" class="edge">
<title>N13&#45;&gt;N8</title>
<path fill="none" stroke="black" d="M169.2,-1891.91C165.67,-1881.56 160.07,-1868.57 152,-1859 145.63,-1851.45 137.23,-1844.9 128.99,-1839.57"/>
<polygon fill="black" stroke="black" points="130.6,-1836.45 120.23,-1834.28 126.98,-1842.44 130.6,-1836.45"/>
<text text-anchor="middle" x="192" y="-1862.8" font-family="Times New Roman,serif" font-size="14.00">head = yn;</text>
</g>
<!-- N13&#45;&gt;N8 -->
<g id="edge17" class="edge">
<title>N13&#45;&gt;N8</title>
<path fill="none" stroke="black" d="M147.81,-1904.79C129.88,-1900.4 107.37,-1891.57 96,-1874 91.66,-1867.3 90.82,-1858.98 91.53,-1851.06"/>
<polygon fill="black" stroke="black" points="95,-1851.48 93.18,-1841.05 88.1,-1850.34 95,-1851.48"/>
<text text-anchor="middle" x="122" y="-1862.8" font-family="Times New Roman,serif" font-size="14.00">p.n = yn;</text>
</g>
<!-- N14 -->
<g id="node15" class="node">
<title>N14</title>
<ellipse fill="none" stroke="black" cx="27" cy="-1526" rx="27" ry="18"/>
<text text-anchor="middle" x="27" y="-1522.3" font-family="Times New Roman,serif" font-size="14.00">N27</text>
</g>
<!-- N14&#45;&gt;N9 -->
<g id="edge18" class="edge">
<title>N14&#45;&gt;N9</title>
<path fill="none" stroke="black" d="M27.2,-1507.8C27.34,-1496.16 27.52,-1480.55 27.68,-1467.24"/>
<polygon fill="black" stroke="black" points="31.18,-1467.22 27.8,-1457.18 24.18,-1467.13 31.18,-1467.22"/>
<text text-anchor="middle" x="70.5" y="-1478.8" font-family="Times New Roman,serif" font-size="14.00">change = false;</text>
</g>
<!-- N15&#45;&gt;N10 -->
<g id="edge19" class="edge">
<title>N15&#45;&gt;N10</title>
<path fill="none" stroke="black" d="M34.61,-1333.8C35.02,-1322.16 35.57,-1306.55 36.04,-1293.24"/>
<polygon fill="black" stroke="black" points="39.54,-1293.29 36.39,-1283.18 32.54,-1293.05 39.54,-1293.29"/>
<text text-anchor="middle" x="61.5" y="-1304.8" font-family="Times New Roman,serif" font-size="14.00">yn = y.n;</text>
</g>
<!-- N27 -->
<g id="node28" class="node">
<title>N27</title>
<ellipse fill="none" stroke="black" cx="38" cy="-1037" rx="27" ry="18"/>
<text text-anchor="middle" x="38" y="-1033.3" font-family="Times New Roman,serif" font-size="14.00">N59</text>
</g>
<!-- N16&#45;&gt;N27 -->
<g id="edge20" class="edge">
<title>N16&#45;&gt;N27</title>
<path fill="none" stroke="black" d="M38,-1159.96C38,-1136.4 38,-1093.64 38,-1065.53"/>
<polygon fill="black" stroke="black" points="41.5,-1065.18 38,-1055.18 34.5,-1065.18 41.5,-1065.18"/>
<text text-anchor="middle" x="58" y="-1130.8" font-family="Times New Roman,serif" font-size="14.00">y = yn;</text>
</g>
<!-- N18 -->
<g id="node19" class="node">
<title>N18</title>
<ellipse fill="none" stroke="black" cx="71" cy="-18" rx="27" ry="18"/>
<text text-anchor="middle" x="71" y="-14.3" font-family="Times New Roman,serif" font-size="14.00">N35</text>
</g>
<!-- N17&#45;&gt;N18 -->
<g id="edge21" class="edge">
<title>N17&#45;&gt;N18</title>
<path fill="none" stroke="black" d="M41.1,-91.01C42.22,-80.14 44.48,-65.91 49,-54 50.42,-50.26 52.27,-46.48 54.29,-42.87"/>
<polygon fill="black" stroke="black" points="57.28,-44.69 59.52,-34.33 51.31,-41.03 57.28,-44.69"/>
<text text-anchor="middle" x="69" y="-57.8" font-family="Times New Roman,serif" font-size="14.00">y = yn;</text>
</g>
<!-- N18&#45;&gt;N11 -->
<g id="edge22" class="edge">
<title>N18&#45;&gt;N11</title>
<path fill="none" stroke="black" d="M80.06,-35.09C83.14,-40.93 86.45,-47.66 89,-54 102.34,-87.13 101.17,-96.97 112,-131 116.37,-144.73 121.49,-159.93 125.78,-172.47"/>
<polygon fill="black" stroke="black" points="122.6,-173.97 129.16,-182.29 129.21,-171.69 122.6,-173.97"/>
<text text-anchor="middle" x="137.5" y="-105.3" font-family="Times New Roman,serif" font-size="14.00">yn = y.n;</text>
</g>
<!-- N20 -->
<g id="node21" class="node">
<title>N20</title>
<ellipse fill="none" stroke="black" cx="346" cy="-2360" rx="27" ry="18"/>
<text text-anchor="middle" x="346" y="-2356.3" font-family="Times New Roman,serif" font-size="14.00">N38</text>
</g>
<!-- N19&#45;&gt;N20 -->
<g id="edge23" class="edge">
<title>N19&#45;&gt;N20</title>
<path fill="none" stroke="black" d="M346,-2449.97C346,-2433.38 346,-2407.88 346,-2388.43"/>
<polygon fill="black" stroke="black" points="349.5,-2388.34 346,-2378.34 342.5,-2388.34 349.5,-2388.34"/>
<text text-anchor="middle" x="366" y="-2410.3" font-family="Times New Roman,serif" font-size="14.00">y = yn;</text>
</g>
<!-- N21 -->
<g id="node22" class="node">
<title>N21</title>
<ellipse fill="none" stroke="black" cx="346" cy="-2273" rx="27" ry="18"/>
<text text-anchor="middle" x="346" y="-2269.3" font-family="Times New Roman,serif" font-size="14.00">N39</text>
</g>
<!-- N20&#45;&gt;N21 -->
<g id="edge24" class="edge">
<title>N20&#45;&gt;N21</title>
<path fill="none" stroke="black" d="M346,-2341.8C346,-2330.16 346,-2314.55 346,-2301.24"/>
<polygon fill="black" stroke="black" points="349.5,-2301.18 346,-2291.18 342.5,-2301.18 349.5,-2301.18"/>
<text text-anchor="middle" x="371.5" y="-2312.8" font-family="Times New Roman,serif" font-size="14.00">yn = y.n;</text>
</g>
<!-- N22 -->
<g id="node23" class="node">
<title>N22</title>
<ellipse fill="none" stroke="black" cx="298" cy="-2171" rx="27" ry="18"/>
<text text-anchor="middle" x="298" y="-2167.3" font-family="Times New Roman,serif" font-size="14.00">N40</text>
</g>
<!-- N21&#45;&gt;N22 -->
<g id="edge25" class="edge">
<title>N21&#45;&gt;N22</title>
<path fill="none" stroke="black" d="M324.52,-2261.77C314.88,-2255.96 304.47,-2247.69 299,-2237 293.11,-2225.5 292.29,-2211.29 293.18,-2199.09"/>
<polygon fill="black" stroke="black" points="296.68,-2199.34 294.32,-2189.01 289.72,-2198.55 296.68,-2199.34"/>
<text text-anchor="middle" x="339" y="-2225.8" font-family="Times New Roman,serif" font-size="14.00">1 &lt; head.d/</text>
<text text-anchor="middle" x="339" y="-2210.8" font-family="Times New Roman,serif" font-size="14.00">change = true;</text>
</g>
<!-- N44 -->
<g id="node45" class="node">
<title>N44</title>
<ellipse fill="none" stroke="black" cx="401" cy="-2171" rx="27" ry="18"/>
<text text-anchor="middle" x="401" y="-2167.3" font-family="Times New Roman,serif" font-size="14.00">N84</text>
</g>
<!-- N21&#45;&gt;N44 -->
<g id="edge26" class="edge">
<title>N21&#45;&gt;N44</title>
<path fill="none" stroke="black" d="M361.68,-2258.18C367.75,-2252.17 374.35,-2244.73 379,-2237 386.1,-2225.19 391.27,-2210.79 394.81,-2198.55"/>
<polygon fill="black" stroke="black" points="398.19,-2199.44 397.41,-2188.88 391.43,-2197.63 398.19,-2199.44"/>
<text text-anchor="middle" x="430" y="-2225.8" font-family="Times New Roman,serif" font-size="14.00">!(1 &lt; head.d)/</text>
<text text-anchor="middle" x="430" y="-2210.8" font-family="Times New Roman,serif" font-size="14.00">p = y;</text>
</g>
<!-- N22&#45;&gt;N23 -->
<g id="edge27" class="edge">
<title>N22&#45;&gt;N23</title>
<path fill="none" stroke="black" d="M288.78,-2154.01C281.64,-2141.63 271.62,-2124.23 263.42,-2110.01"/>
<polygon fill="black" stroke="black" points="266.37,-2108.12 258.34,-2101.21 260.3,-2111.62 266.37,-2108.12"/>
<text text-anchor="middle" x="300" y="-2123.8" font-family="Times New Roman,serif" font-size="14.00">t = yn.n;</text>
</g>
<!-- N24 -->
<g id="node25" class="node">
<title>N24</title>
<ellipse fill="none" stroke="black" cx="181" cy="-1997" rx="27" ry="18"/>
<text text-anchor="middle" x="181" y="-1993.3" font-family="Times New Roman,serif" font-size="14.00">N42</text>
</g>
<!-- N23&#45;&gt;N24 -->
<g id="edge28" class="edge">
<title>N23&#45;&gt;N24</title>
<path fill="none" stroke="black" d="M226.8,-2073.73C215.42,-2067.91 202.26,-2059.35 194,-2048 189.16,-2041.34 186.11,-2033.03 184.2,-2025.11"/>
<polygon fill="black" stroke="black" points="187.6,-2024.26 182.29,-2015.09 180.73,-2025.57 187.6,-2024.26"/>
<text text-anchor="middle" x="214.5" y="-2036.8" font-family="Times New Roman,serif" font-size="14.00">y.n = t;</text>
</g>
<!-- N24&#45;&gt;N13 -->
<g id="edge29" class="edge">
<title>N24&#45;&gt;N13</title>
<path fill="none" stroke="black" d="M179.58,-1978.8C178.63,-1967.16 177.34,-1951.55 176.24,-1938.24"/>
<polygon fill="black" stroke="black" points="179.72,-1937.85 175.41,-1928.18 172.75,-1938.43 179.72,-1937.85"/>
<text text-anchor="middle" x="203.5" y="-1949.8" font-family="Times New Roman,serif" font-size="14.00">yn.n = y;</text>
</g>
<!-- N25 -->
<g id="node26" class="node">
<title>N25</title>
<ellipse fill="none" stroke="black" cx="97" cy="-1628" rx="27" ry="18"/>
<text text-anchor="middle" x="97" y="-1624.3" font-family="Times New Roman,serif" font-size="14.00">N46</text>
</g>
<!-- N25&#45;&gt;N12 -->
<g id="edge31" class="edge">
<title>N25&#45;&gt;N12</title>
<path fill="none" stroke="black" d="M112.09,-1612.77C118.43,-1606.57 125.77,-1599.11 132,-1592 143.08,-1579.37 142.24,-1572.93 155,-1562 164.67,-1553.71 176.61,-1546.54 187.56,-1540.88"/>
<polygon fill="black" stroke="black" points="189.41,-1543.87 196.83,-1536.3 186.32,-1537.59 189.41,-1543.87"/>
<text text-anchor="middle" x="195" y="-1580.8" font-family="Times New Roman,serif" font-size="14.00">!(yn == null)/</text>
<text text-anchor="middle" x="195" y="-1565.8" font-family="Times New Roman,serif" font-size="14.00">change = true;</text>
</g>
<!-- N25&#45;&gt;N14 -->
<g id="edge30" class="edge">
<title>N25&#45;&gt;N14</title>
<path fill="none" stroke="black" d="M75.08,-1617.26C64.24,-1611.4 51.83,-1602.94 44,-1592 36.17,-1581.07 31.95,-1566.81 29.67,-1554.43"/>
<polygon fill="black" stroke="black" points="33.07,-1553.54 28.12,-1544.17 26.15,-1554.58 33.07,-1553.54"/>
<text text-anchor="middle" x="67.5" y="-1573.3" font-family="Times New Roman,serif" font-size="14.00">p = null;</text>
</g>
<!-- N29 -->
<g id="node30" class="node">
<title>N29</title>
<ellipse fill="none" stroke="black" cx="117" cy="-1526" rx="27" ry="18"/>
<text text-anchor="middle" x="117" y="-1522.3" font-family="Times New Roman,serif" font-size="14.00">N68</text>
</g>
<!-- N25&#45;&gt;N29 -->
<g id="edge32" class="edge">
<title>N25&#45;&gt;N29</title>
<path fill="none" stroke="black" d="M95.06,-1609.86C94.08,-1596.58 93.85,-1577.83 98,-1562 98.9,-1558.55 100.21,-1555.07 101.73,-1551.71"/>
<polygon fill="black" stroke="black" points="104.91,-1553.19 106.39,-1542.7 98.69,-1549.98 104.91,-1553.19"/>
<text text-anchor="middle" x="115" y="-1573.3" font-family="Times New Roman,serif" font-size="14.00">p = y;</text>
</g>
<!-- N26&#45;&gt;N25 -->
<g id="edge33" class="edge">
<title>N26&#45;&gt;N25</title>
<path fill="none" stroke="black" d="M97.8,-1696.8C97.66,-1685.16 97.48,-1669.55 97.32,-1656.24"/>
<polygon fill="black" stroke="black" points="100.82,-1656.13 97.2,-1646.18 93.82,-1656.22 100.82,-1656.13"/>
<text text-anchor="middle" x="116.5" y="-1667.8" font-family="Times New Roman,serif" font-size="14.00">yn = t;</text>
</g>
<!-- N27&#45;&gt;N11 -->
<g id="edge34" class="edge">
<title>N27&#45;&gt;N11</title>
<path fill="none" stroke="black" d="M38.29,-1018.75C38.58,-999.62 39,-967.86 39,-940.5 39,-940.5 39,-940.5 39,-286 39,-251.35 74.49,-227.41 102.31,-213.97"/>
<polygon fill="black" stroke="black" points="104.12,-216.99 111.76,-209.65 101.21,-210.63 104.12,-216.99"/>
<text text-anchor="middle" x="64.5" y="-631.3" font-family="Times New Roman,serif" font-size="14.00">yn = y.n;</text>
</g>
<!-- N28&#45;&gt;N23 -->
<g id="edge35" class="edge">
<title>N28&#45;&gt;N23</title>
<path fill="none" stroke="black" d="M320.14,-127.03C322.2,-144.92 325,-173.89 325,-199 325,-1998 325,-1998 325,-1998 325,-2027.4 299.41,-2051.3 277.93,-2066.18"/>
<polygon fill="black" stroke="black" points="275.8,-2063.4 269.37,-2071.81 279.65,-2069.25 275.8,-2063.4"/>
<text text-anchor="middle" x="349" y="-1087.3" font-family="Times New Roman,serif" font-size="14.00">t = yn.n;</text>
</g>
<!-- N30 -->
<g id="node31" class="node">
<title>N30</title>
<ellipse fill="none" stroke="black" cx="135" cy="-1439" rx="27" ry="18"/>
<text text-anchor="middle" x="135" y="-1435.3" font-family="Times New Roman,serif" font-size="14.00">N69</text>
</g>
<!-- N29&#45;&gt;N30 -->
<g id="edge36" class="edge">
<title>N29&#45;&gt;N30</title>
<path fill="none" stroke="black" d="M120.64,-1507.8C123.12,-1496.09 126.46,-1480.34 129.29,-1466.97"/>
<polygon fill="black" stroke="black" points="132.78,-1467.39 131.42,-1456.89 125.93,-1465.94 132.78,-1467.39"/>
<text text-anchor="middle" x="148" y="-1478.8" font-family="Times New Roman,serif" font-size="14.00">y = yn;</text>
</g>
<!-- N31 -->
<g id="node32" class="node">
<title>N31</title>
<ellipse fill="none" stroke="black" cx="135" cy="-1352" rx="27" ry="18"/>
<text text-anchor="middle" x="135" y="-1348.3" font-family="Times New Roman,serif" font-size="14.00">N70</text>
</g>
<!-- N30&#45;&gt;N31 -->
<g id="edge37" class="edge">
<title>N30&#45;&gt;N31</title>
<path fill="none" stroke="black" d="M135,-1420.8C135,-1409.16 135,-1393.55 135,-1380.24"/>
<polygon fill="black" stroke="black" points="138.5,-1380.18 135,-1370.18 131.5,-1380.18 138.5,-1380.18"/>
<text text-anchor="middle" x="160.5" y="-1391.8" font-family="Times New Roman,serif" font-size="14.00">yn = y.n;</text>
</g>
<!-- N32 -->
<g id="node33" class="node">
<title>N32</title>
<ellipse fill="none" stroke="black" cx="135" cy="-1265" rx="27" ry="18"/>
<text text-anchor="middle" x="135" y="-1261.3" font-family="Times New Roman,serif" font-size="14.00">N71</text>
</g>
<!-- N31&#45;&gt;N32 -->
<g id="edge38" class="edge">
<title>N31&#45;&gt;N32</title>
<path fill="none" stroke="black" d="M135,-1333.8C135,-1322.16 135,-1306.55 135,-1293.24"/>
<polygon fill="black" stroke="black" points="138.5,-1293.18 135,-1283.18 131.5,-1293.18 138.5,-1293.18"/>
<text text-anchor="middle" x="158.5" y="-1304.8" font-family="Times New Roman,serif" font-size="14.00">p = null;</text>
</g>
<!-- N33 -->
<g id="node34" class="node">
<title>N33</title>
<ellipse fill="none" stroke="black" cx="135" cy="-1178" rx="27" ry="18"/>
<text text-anchor="middle" x="135" y="-1174.3" font-family="Times New Roman,serif" font-size="14.00">N72</text>
</g>
<!-- N32&#45;&gt;N33 -->
<g id="edge39" class="edge">
<title>N32&#45;&gt;N33</title>
<path fill="none" stroke="black" d="M135,-1246.8C135,-1235.16 135,-1219.55 135,-1206.24"/>
<polygon fill="black" stroke="black" points="138.5,-1206.18 135,-1196.18 131.5,-1206.18 138.5,-1206.18"/>
<text text-anchor="middle" x="177.5" y="-1217.8" font-family="Times New Roman,serif" font-size="14.00">change = false;</text>
</g>
<!-- N34 -->
<g id="node35" class="node">
<title>N34</title>
<ellipse fill="none" stroke="black" cx="135" cy="-1091" rx="27" ry="18"/>
<text text-anchor="middle" x="135" y="-1087.3" font-family="Times New Roman,serif" font-size="14.00">N73</text>
</g>
<!-- N33&#45;&gt;N34 -->
<g id="edge40" class="edge">
<title>N33&#45;&gt;N34</title>
<path fill="none" stroke="black" d="M135,-1159.8C135,-1148.16 135,-1132.55 135,-1119.24"/>
<polygon fill="black" stroke="black" points="138.5,-1119.18 135,-1109.18 131.5,-1119.18 138.5,-1119.18"/>
<text text-anchor="middle" x="161.5" y="-1130.8" font-family="Times New Roman,serif" font-size="14.00">y = head;</text>
</g>
<!-- N35 -->
<g id="node36" class="node">
<title>N35</title>
<ellipse fill="none" stroke="black" cx="135" cy="-983" rx="27" ry="18"/>
<text text-anchor="middle" x="135" y="-979.3" font-family="Times New Roman,serif" font-size="14.00">N74</text>
</g>
<!-- N34&#45;&gt;N35 -->
<g id="edge41" class="edge">
<title>N34&#45;&gt;N35</title>
<path fill="none" stroke="black" d="M135,-1072.97C135,-1056.38 135,-1030.88 135,-1011.43"/>
<polygon fill="black" stroke="black" points="138.5,-1011.34 135,-1001.34 131.5,-1011.34 138.5,-1011.34"/>
<text text-anchor="middle" x="160.5" y="-1033.3" font-family="Times New Roman,serif" font-size="14.00">yn = y.n;</text>
</g>
<!-- N36 -->
<g id="node37" class="node">
<title>N36</title>
<ellipse fill="none" stroke="black" cx="135" cy="-896" rx="27" ry="18"/>
<text text-anchor="middle" x="135" y="-892.3" font-family="Times New Roman,serif" font-size="14.00">N75</text>
</g>
<!-- N35&#45;&gt;N36 -->
<g id="edge42" class="edge">
<title>N35&#45;&gt;N36</title>
<path fill="none" stroke="black" d="M135,-964.8C135,-953.16 135,-937.55 135,-924.24"/>
<polygon fill="black" stroke="black" points="138.5,-924.18 135,-914.18 131.5,-924.18 138.5,-924.18"/>
<text text-anchor="middle" x="152" y="-935.8" font-family="Times New Roman,serif" font-size="14.00">p = y;</text>
</g>
<!-- N37 -->
<g id="node38" class="node">
<title>N37</title>
<ellipse fill="none" stroke="black" cx="135" cy="-809" rx="27" ry="18"/>
<text text-anchor="middle" x="135" y="-805.3" font-family="Times New Roman,serif" font-size="14.00">N76</text>
</g>
<!-- N36&#45;&gt;N37 -->
<g id="edge43" class="edge">
<title>N36&#45;&gt;N37</title>
<path fill="none" stroke="black" d="M135,-877.8C135,-866.16 135,-850.55 135,-837.24"/>
<polygon fill="black" stroke="black" points="138.5,-837.18 135,-827.18 131.5,-837.18 138.5,-837.18"/>
<text text-anchor="middle" x="155" y="-848.8" font-family="Times New Roman,serif" font-size="14.00">y = yn;</text>
</g>
<!-- N38 -->
<g id="node39" class="node">
<title>N38</title>
<ellipse fill="none" stroke="black" cx="135" cy="-722" rx="27" ry="18"/>
<text text-anchor="middle" x="135" y="-718.3" font-family="Times New Roman,serif" font-size="14.00">N77</text>
</g>
<!-- N37&#45;&gt;N38 -->
<g id="edge44" class="edge">
<title>N37&#45;&gt;N38</title>
<path fill="none" stroke="black" d="M135,-790.8C135,-779.16 135,-763.55 135,-750.24"/>
<polygon fill="black" stroke="black" points="138.5,-750.18 135,-740.18 131.5,-750.18 138.5,-750.18"/>
<text text-anchor="middle" x="160.5" y="-761.8" font-family="Times New Roman,serif" font-size="14.00">yn = y.n;</text>
</g>
<!-- N39 -->
<g id="node40" class="node">
<title>N39</title>
<ellipse fill="none" stroke="black" cx="135" cy="-635" rx="27" ry="18"/>
<text text-anchor="middle" x="135" y="-631.3" font-family="Times New Roman,serif" font-size="14.00">N78</text>
</g>
<!-- N38&#45;&gt;N39 -->
<g id="edge45" class="edge">
<title>N38&#45;&gt;N39</title>
<path fill="none" stroke="black" d="M135,-703.8C135,-692.16 135,-676.55 135,-663.24"/>
<polygon fill="black" stroke="black" points="138.5,-663.18 135,-653.18 131.5,-663.18 138.5,-663.18"/>
<text text-anchor="middle" x="152" y="-674.8" font-family="Times New Roman,serif" font-size="14.00">p = y;</text>
</g>
<!-- N40 -->
<g id="node41" class="node">
<title>N40</title>
<ellipse fill="none" stroke="black" cx="135" cy="-548" rx="27" ry="18"/>
<text text-anchor="middle" x="135" y="-544.3" font-family="Times New Roman,serif" font-size="14.00">N79</text>
</g>
<!-- N39&#45;&gt;N40 -->
<g id="edge46" class="edge">
<title>N39&#45;&gt;N40</title>
<path fill="none" stroke="black" d="M135,-616.8C135,-605.16 135,-589.55 135,-576.24"/>
<polygon fill="black" stroke="black" points="138.5,-576.18 135,-566.18 131.5,-576.18 138.5,-576.18"/>
<text text-anchor="middle" x="155" y="-587.8" font-family="Times New Roman,serif" font-size="14.00">y = yn;</text>
</g>
<!-- N41 -->
<g id="node42" class="node">
<title>N41</title>
<ellipse fill="none" stroke="black" cx="135" cy="-461" rx="27" ry="18"/>
<text text-anchor="middle" x="135" y="-457.3" font-family="Times New Roman,serif" font-size="14.00">N80</text>
</g>
<!-- N40&#45;&gt;N41 -->
<g id="edge47" class="edge">
<title>N40&#45;&gt;N41</title>
<path fill="none" stroke="black" d="M135,-529.8C135,-518.16 135,-502.55 135,-489.24"/>
<polygon fill="black" stroke="black" points="138.5,-489.18 135,-479.18 131.5,-489.18 138.5,-489.18"/>
<text text-anchor="middle" x="160.5" y="-500.8" font-family="Times New Roman,serif" font-size="14.00">yn = y.n;</text>
</g>
<!-- N42 -->
<g id="node43" class="node">
<title>N42</title>
<ellipse fill="none" stroke="black" cx="135" cy="-374" rx="27" ry="18"/>
<text text-anchor="middle" x="135" y="-370.3" font-family="Times New Roman,serif" font-size="14.00">N81</text>
</g>
<!-- N41&#45;&gt;N42 -->
<g id="edge48" class="edge">
<title>N41&#45;&gt;N42</title>
<path fill="none" stroke="black" d="M135,-442.8C135,-431.16 135,-415.55 135,-402.24"/>
<polygon fill="black" stroke="black" points="138.5,-402.18 135,-392.18 131.5,-402.18 138.5,-402.18"/>
<text text-anchor="middle" x="152" y="-413.8" font-family="Times New Roman,serif" font-size="14.00">p = y;</text>
</g>
<!-- N43 -->
<g id="node44" class="node">
<title>N43</title>
<ellipse fill="none" stroke="black" cx="135" cy="-287" rx="27" ry="18"/>
<text text-anchor="middle" x="135" y="-283.3" font-family="Times New Roman,serif" font-size="14.00">N82</text>
</g>
<!-- N42&#45;&gt;N43 -->
<g id="edge49" class="edge">
<title>N42&#45;&gt;N43</title>
<path fill="none" stroke="black" d="M135,-355.8C135,-344.16 135,-328.55 135,-315.24"/>
<polygon fill="black" stroke="black" points="138.5,-315.18 135,-305.18 131.5,-315.18 138.5,-315.18"/>
<text text-anchor="middle" x="155" y="-326.8" font-family="Times New Roman,serif" font-size="14.00">y = yn;</text>
</g>
<!-- N43&#45;&gt;N11 -->
<g id="edge50" class="edge">
<title>N43&#45;&gt;N11</title>
<path fill="none" stroke="black" d="M135,-268.8C135,-257.16 135,-241.55 135,-228.24"/>
<polygon fill="black" stroke="black" points="138.5,-228.18 135,-218.18 131.5,-228.18 138.5,-228.18"/>
<text text-anchor="middle" x="160.5" y="-239.8" font-family="Times New Roman,serif" font-size="14.00">yn = y.n;</text>
</g>
<!-- N45 -->
<g id="node46" class="node">
<title>N45</title>
<ellipse fill="none" stroke="black" cx="401" cy="-2084" rx="27" ry="18"/>
<text text-anchor="middle" x="401" y="-2080.3" font-family="Times New Roman,serif" font-size="14.00">N85</text>
</g>
<!-- N44&#45;&gt;N45 -->
<g id="edge51" class="edge">
<title>N44&#45;&gt;N45</title>
<path fill="none" stroke="black" d="M401,-2152.8C401,-2141.16 401,-2125.55 401,-2112.24"/>
<polygon fill="black" stroke="black" points="404.5,-2112.18 401,-2102.18 397.5,-2112.18 404.5,-2112.18"/>
<text text-anchor="middle" x="421" y="-2123.8" font-family="Times New Roman,serif" font-size="14.00">y = yn;</text>
</g>
<!-- N46 -->
<g id="node47" class="node">
<title>N46</title>
<ellipse fill="none" stroke="black" cx="401" cy="-1997" rx="27" ry="18"/>
<text text-anchor="middle" x="401" y="-1993.3" font-family="Times New Roman,serif" font-size="14.00">N86</text>
</g>
<!-- N45&#45;&gt;N46 -->
<g id="edge52" class="edge">
<title>N45&#45;&gt;N46</title>
<path fill="none" stroke="black" d="M401,-2065.8C401,-2054.16 401,-2038.55 401,-2025.24"/>
<polygon fill="black" stroke="black" points="404.5,-2025.18 401,-2015.18 397.5,-2025.18 404.5,-2025.18"/>
<text text-anchor="middle" x="426.5" y="-2036.8" font-family="Times New Roman,serif" font-size="14.00">yn = y.n;</text>
</g>
<!-- N47 -->
<g id="node48" class="node">
<title>N47</title>
<ellipse fill="none" stroke="black" cx="401" cy="-1910" rx="27" ry="18"/>
<text text-anchor="middle" x="401" y="-1906.3" font-family="Times New Roman,serif" font-size="14.00">N87</text>
</g>
<!-- N46&#45;&gt;N47 -->
<g id="edge53" class="edge">
<title>N46&#45;&gt;N47</title>
<path fill="none" stroke="black" d="M401,-1978.8C401,-1967.16 401,-1951.55 401,-1938.24"/>
<polygon fill="black" stroke="black" points="404.5,-1938.18 401,-1928.18 397.5,-1938.18 404.5,-1938.18"/>
<text text-anchor="middle" x="418" y="-1949.8" font-family="Times New Roman,serif" font-size="14.00">p = y;</text>
</g>
<!-- N48 -->
<g id="node49" class="node">
<title>N48</title>
<ellipse fill="none" stroke="black" cx="401" cy="-1769" rx="27" ry="18"/>
<text text-anchor="middle" x="401" y="-1765.3" font-family="Times New Roman,serif" font-size="14.00">N88</text>
</g>
<!-- N47&#45;&gt;N48 -->
<g id="edge54" class="edge">
<title>N47&#45;&gt;N48</title>
<path fill="none" stroke="black" d="M401,-1891.96C401,-1868.4 401,-1825.64 401,-1797.53"/>
<polygon fill="black" stroke="black" points="404.5,-1797.18 401,-1787.18 397.5,-1797.18 404.5,-1797.18"/>
<text text-anchor="middle" x="421" y="-1862.8" font-family="Times New Roman,serif" font-size="14.00">y = yn;</text>
</g>
<!-- N48&#45;&gt;N11 -->
<g id="edge55" class="edge">
<title>N48&#45;&gt;N11</title>
<path fill="none" stroke="black" d="M401,-1750.75C401,-1731.62 401,-1699.86 401,-1672.5 401,-1672.5 401,-1672.5 401,-286 401,-238.41 244.53,-213.82 171.6,-204.94"/>
<polygon fill="black" stroke="black" points="171.82,-201.44 161.48,-203.75 171,-208.4 171.82,-201.44"/>
<text text-anchor="middle" x="426.5" y="-979.3" font-family="Times New Roman,serif" font-size="14.00">yn = y.n;</text>
</g>
</g>
</svg>
