<?xml version="1.0" encoding="UTF-8" standalone="no"?>
<!DOCTYPE svg PUBLIC "-//W3C//DTD SVG 1.1//EN"
 "http://www.w3.org/Graphics/SVG/1.1/DTD/svg11.dtd">
<!-- Generated by graphviz version 2.46.1 (20210213.1702)
 -->
<!-- Title: anonymous_graph Pages: 1 -->
<svg width="525pt" height="1357pt"
 viewBox="0.00 0.00 525.00 1357.00" xmlns="http://www.w3.org/2000/svg" xmlns:xlink="http://www.w3.org/1999/xlink">
<g id="graph0" class="graph" transform="scale(1 1) rotate(0) translate(4 1353)">
<title>anonymous_graph</title>
<polygon fill="white" stroke="transparent" points="-4,4 -4,-1353 521,-1353 521,4 -4,4"/>
<!-- N0 -->
<g id="node1" class="node">
<title>N0</title>
<ellipse fill="none" stroke="black" cx="73" cy="-1331" rx="29.5" ry="18"/>
<text text-anchor="middle" x="73" y="-1327.3" font-family="Times New Roman,serif" font-size="14.00">initial</text>
</g>
<!-- N2 -->
<g id="node3" class="node">
<title>N2</title>
<ellipse fill="none" stroke="black" cx="73" cy="-1244" rx="27" ry="18"/>
<text text-anchor="middle" x="73" y="-1240.3" font-family="Times New Roman,serif" font-size="14.00">N1</text>
</g>
<!-- N0&#45;&gt;N2 -->
<g id="edge1" class="edge">
<title>N0&#45;&gt;N2</title>
<path fill="none" stroke="black" d="M73,-1312.8C73,-1301.16 73,-1285.55 73,-1272.24"/>
<polygon fill="black" stroke="black" points="76.5,-1272.18 73,-1262.18 69.5,-1272.18 76.5,-1272.18"/>
<text text-anchor="middle" x="113" y="-1283.8" font-family="Times New Roman,serif" font-size="14.00">change = true;</text>
</g>
<!-- N1 -->
<g id="node2" class="node">
<title>N1</title>
<ellipse fill="none" stroke="black" cx="486" cy="-805" rx="27" ry="18"/>
<ellipse fill="none" stroke="black" cx="486" cy="-805" rx="31" ry="22"/>
<text text-anchor="middle" x="486" y="-801.3" font-family="Times New Roman,serif" font-size="14.00">final</text>
</g>
<!-- N16 -->
<g id="node17" class="node">
<title>N16</title>
<ellipse fill="none" stroke="black" cx="73" cy="-1157" rx="27" ry="18"/>
<text text-anchor="middle" x="73" y="-1153.3" font-family="Times New Roman,serif" font-size="14.00">N71</text>
</g>
<!-- N2&#45;&gt;N16 -->
<g id="edge2" class="edge">
<title>N2&#45;&gt;N16</title>
<path fill="none" stroke="black" d="M73,-1225.8C73,-1214.16 73,-1198.55 73,-1185.24"/>
<polygon fill="black" stroke="black" points="76.5,-1185.18 73,-1175.18 69.5,-1185.18 76.5,-1185.18"/>
<text text-anchor="middle" x="96.5" y="-1196.8" font-family="Times New Roman,serif" font-size="14.00">p = null;</text>
</g>
<!-- N3 -->
<g id="node4" class="node">
<title>N3</title>
<ellipse fill="none" stroke="black" cx="226" cy="-805" rx="27" ry="18"/>
<text text-anchor="middle" x="226" y="-801.3" font-family="Times New Roman,serif" font-size="14.00">N6</text>
</g>
<!-- N10 -->
<g id="node11" class="node">
<title>N10</title>
<ellipse fill="none" stroke="black" cx="231" cy="-714" rx="27" ry="18"/>
<text text-anchor="middle" x="231" y="-710.3" font-family="Times New Roman,serif" font-size="14.00">N41</text>
</g>
<!-- N3&#45;&gt;N10 -->
<g id="edge3" class="edge">
<title>N3&#45;&gt;N10</title>
<path fill="none" stroke="black" d="M226.96,-786.84C227.67,-774.28 228.64,-756.98 229.45,-742.5"/>
<polygon fill="black" stroke="black" points="232.97,-742.29 230.04,-732.11 225.98,-741.9 232.97,-742.29"/>
<text text-anchor="middle" x="252" y="-753.8" font-family="Times New Roman,serif" font-size="14.00">t = yn.n;</text>
</g>
<!-- N4 -->
<g id="node5" class="node">
<title>N4</title>
<ellipse fill="none" stroke="black" cx="188" cy="-453" rx="27" ry="18"/>
<text text-anchor="middle" x="188" y="-449.3" font-family="Times New Roman,serif" font-size="14.00">N10</text>
</g>
<!-- N13 -->
<g id="node14" class="node">
<title>N13</title>
<ellipse fill="none" stroke="black" cx="188" cy="-366" rx="27" ry="18"/>
<text text-anchor="middle" x="188" y="-362.3" font-family="Times New Roman,serif" font-size="14.00">N52</text>
</g>
<!-- N4&#45;&gt;N13 -->
<g id="edge4" class="edge">
<title>N4&#45;&gt;N13</title>
<path fill="none" stroke="black" d="M188,-434.8C188,-423.16 188,-407.55 188,-394.24"/>
<polygon fill="black" stroke="black" points="191.5,-394.18 188,-384.18 184.5,-394.18 191.5,-394.18"/>
<text text-anchor="middle" x="208.5" y="-405.8" font-family="Times New Roman,serif" font-size="14.00">p = yn;</text>
</g>
<!-- N5 -->
<g id="node6" class="node">
<title>N5</title>
<ellipse fill="none" stroke="black" cx="140" cy="-1070" rx="27" ry="18"/>
<text text-anchor="middle" x="140" y="-1066.3" font-family="Times New Roman,serif" font-size="14.00">N14</text>
</g>
<!-- N7 -->
<g id="node8" class="node">
<title>N7</title>
<ellipse fill="none" stroke="black" cx="212" cy="-983" rx="27" ry="18"/>
<text text-anchor="middle" x="212" y="-979.3" font-family="Times New Roman,serif" font-size="14.00">N29</text>
</g>
<!-- N5&#45;&gt;N7 -->
<g id="edge5" class="edge">
<title>N5&#45;&gt;N7</title>
<path fill="none" stroke="black" d="M152.87,-1053.8C163.93,-1040.75 180.04,-1021.74 192.65,-1006.85"/>
<polygon fill="black" stroke="black" points="195.45,-1008.96 199.24,-999.06 190.11,-1004.43 195.45,-1008.96"/>
<text text-anchor="middle" x="206.5" y="-1022.8" font-family="Times New Roman,serif" font-size="14.00">y = head;</text>
</g>
<!-- N6 -->
<g id="node7" class="node">
<title>N6</title>
<ellipse fill="none" stroke="black" cx="258" cy="-540" rx="27" ry="18"/>
<text text-anchor="middle" x="258" y="-536.3" font-family="Times New Roman,serif" font-size="14.00">N23</text>
</g>
<!-- N6&#45;&gt;N4 -->
<g id="edge6" class="edge">
<title>N6&#45;&gt;N4</title>
<path fill="none" stroke="black" d="M248.36,-523.1C241.94,-512.97 233.04,-499.77 224,-489 220.05,-484.3 215.55,-479.53 211.1,-475.09"/>
<polygon fill="black" stroke="black" points="213.38,-472.43 203.76,-468 208.52,-477.47 213.38,-472.43"/>
<text text-anchor="middle" x="265" y="-492.8" font-family="Times New Roman,serif" font-size="14.00">head = yn;</text>
</g>
<!-- N6&#45;&gt;N4 -->
<g id="edge7" class="edge">
<title>N6&#45;&gt;N4</title>
<path fill="none" stroke="black" d="M235.51,-529.48C229.52,-527 223.03,-524.36 217,-522 195.39,-513.56 181.28,-523.02 168,-504 162.44,-496.03 164.69,-486.3 169.32,-477.54"/>
<polygon fill="black" stroke="black" points="172.41,-479.21 174.79,-468.88 166.49,-475.47 172.41,-479.21"/>
<text text-anchor="middle" x="194" y="-492.8" font-family="Times New Roman,serif" font-size="14.00">p.n = yn;</text>
</g>
<!-- N9 -->
<g id="node10" class="node">
<title>N9</title>
<ellipse fill="none" stroke="black" cx="321" cy="-896" rx="27" ry="18"/>
<text text-anchor="middle" x="321" y="-892.3" font-family="Times New Roman,serif" font-size="14.00">N39</text>
</g>
<!-- N7&#45;&gt;N9 -->
<g id="edge8" class="edge">
<title>N7&#45;&gt;N9</title>
<path fill="none" stroke="black" d="M229.03,-968.72C247.03,-954.68 275.59,-932.41 296.11,-916.41"/>
<polygon fill="black" stroke="black" points="298.35,-919.1 304.09,-910.19 294.05,-913.58 298.35,-919.1"/>
<text text-anchor="middle" x="298.5" y="-935.8" font-family="Times New Roman,serif" font-size="14.00">yn = y.n;</text>
</g>
<!-- N8 -->
<g id="node9" class="node">
<title>N8</title>
<ellipse fill="none" stroke="black" cx="355" cy="-105" rx="27" ry="18"/>
<text text-anchor="middle" x="355" y="-101.3" font-family="Times New Roman,serif" font-size="14.00">N35</text>
</g>
<!-- N8&#45;&gt;N9 -->
<g id="edge9" class="edge">
<title>N8&#45;&gt;N9</title>
<path fill="none" stroke="black" d="M374.67,-117.71C395.99,-132.06 427,-158.51 427,-191 427,-806 427,-806 427,-806 427,-844.6 385.27,-869.79 354.18,-883.21"/>
<polygon fill="black" stroke="black" points="352.46,-880.14 344.52,-887.16 355.11,-886.62 352.46,-880.14"/>
<text text-anchor="middle" x="452.5" y="-492.8" font-family="Times New Roman,serif" font-size="14.00">yn = y.n;</text>
</g>
<!-- N9&#45;&gt;N1 -->
<g id="edge11" class="edge">
<title>N9&#45;&gt;N1</title>
<path fill="none" stroke="black" d="M347.68,-891.8C373.33,-887.72 412.32,-878.79 441,-860 451.42,-853.17 460.69,-843.2 468.06,-833.68"/>
<polygon fill="black" stroke="black" points="470.95,-835.66 474.04,-825.52 465.31,-831.52 470.95,-835.66"/>
<text text-anchor="middle" x="476.5" y="-848.8" font-family="Times New Roman,serif" font-size="14.00">return;</text>
</g>
<!-- N9&#45;&gt;N3 -->
<g id="edge12" class="edge">
<title>N9&#45;&gt;N3</title>
<path fill="none" stroke="black" d="M294.2,-892.99C272.17,-889.78 242.2,-881.46 227,-860 221.56,-852.33 220.23,-842.38 220.63,-833.12"/>
<polygon fill="black" stroke="black" points="224.11,-833.42 221.67,-823.11 217.15,-832.69 224.11,-833.42"/>
<text text-anchor="middle" x="267" y="-848.8" font-family="Times New Roman,serif" font-size="14.00">change = true;</text>
</g>
<!-- N17 -->
<g id="node18" class="node">
<title>N17</title>
<ellipse fill="none" stroke="black" cx="299" cy="-192" rx="27" ry="18"/>
<text text-anchor="middle" x="299" y="-188.3" font-family="Times New Roman,serif" font-size="14.00">N84</text>
</g>
<!-- N9&#45;&gt;N17 -->
<g id="edge10" class="edge">
<title>N9&#45;&gt;N17</title>
<path fill="none" stroke="black" d="M321,-877.94C321,-860.02 321,-831.03 321,-806 321,-806 321,-806 321,-278 321,-257.8 315.11,-235.74 309.42,-219.16"/>
<polygon fill="black" stroke="black" points="312.66,-217.82 305.96,-209.61 306.07,-220.2 312.66,-217.82"/>
<text text-anchor="middle" x="360" y="-543.8" font-family="Times New Roman,serif" font-size="14.00">!(1 &lt; head.d)/</text>
<text text-anchor="middle" x="360" y="-528.8" font-family="Times New Roman,serif" font-size="14.00">p = y;</text>
</g>
<!-- N11 -->
<g id="node12" class="node">
<title>N11</title>
<ellipse fill="none" stroke="black" cx="240" cy="-627" rx="27" ry="18"/>
<text text-anchor="middle" x="240" y="-623.3" font-family="Times New Roman,serif" font-size="14.00">N42</text>
</g>
<!-- N10&#45;&gt;N11 -->
<g id="edge13" class="edge">
<title>N10&#45;&gt;N11</title>
<path fill="none" stroke="black" d="M232.82,-695.8C234.05,-684.16 235.71,-668.55 237.12,-655.24"/>
<polygon fill="black" stroke="black" points="240.61,-655.49 238.18,-645.18 233.65,-654.75 240.61,-655.49"/>
<text text-anchor="middle" x="256.5" y="-666.8" font-family="Times New Roman,serif" font-size="14.00">y.n = t;</text>
</g>
<!-- N11&#45;&gt;N6 -->
<g id="edge14" class="edge">
<title>N11&#45;&gt;N6</title>
<path fill="none" stroke="black" d="M243.64,-608.8C246.12,-597.09 249.46,-581.34 252.29,-567.97"/>
<polygon fill="black" stroke="black" points="255.78,-568.39 254.42,-557.89 248.93,-566.94 255.78,-568.39"/>
<text text-anchor="middle" x="275.5" y="-579.8" font-family="Times New Roman,serif" font-size="14.00">yn.n = y;</text>
</g>
<!-- N12 -->
<g id="node13" class="node">
<title>N12</title>
<ellipse fill="none" stroke="black" cx="155" cy="-279" rx="27" ry="18"/>
<text text-anchor="middle" x="155" y="-275.3" font-family="Times New Roman,serif" font-size="14.00">N46</text>
</g>
<!-- N12&#45;&gt;N3 -->
<g id="edge16" class="edge">
<title>N12&#45;&gt;N3</title>
<path fill="none" stroke="black" d="M148.04,-296.61C141.59,-313.51 133,-340.61 133,-365 133,-497.5 133,-497.5 133,-497.5 133,-606.16 187.19,-727.52 212.84,-778.88"/>
<polygon fill="black" stroke="black" points="209.77,-780.58 217.42,-787.91 216.02,-777.41 209.77,-780.58"/>
<text text-anchor="middle" x="177" y="-543.8" font-family="Times New Roman,serif" font-size="14.00">!(yn == null)/</text>
<text text-anchor="middle" x="177" y="-528.8" font-family="Times New Roman,serif" font-size="14.00">change = true;</text>
</g>
<!-- N12&#45;&gt;N16 -->
<g id="edge15" class="edge">
<title>N12&#45;&gt;N16</title>
<path fill="none" stroke="black" d="M133.88,-290.29C109.59,-303.79 73,-329.94 73,-365 73,-1071 73,-1071 73,-1071 73,-1090.25 73,-1111.95 73,-1128.6"/>
<polygon fill="black" stroke="black" points="69.5,-1128.74 73,-1138.74 76.5,-1128.74 69.5,-1128.74"/>
<text text-anchor="middle" x="96.5" y="-710.3" font-family="Times New Roman,serif" font-size="14.00">p = null;</text>
</g>
<!-- N12&#45;&gt;N17 -->
<g id="edge17" class="edge">
<title>N12&#45;&gt;N17</title>
<path fill="none" stroke="black" d="M174.72,-266.36C199.6,-251.67 242.56,-226.31 270.88,-209.6"/>
<polygon fill="black" stroke="black" points="272.69,-212.6 279.52,-204.5 269.13,-206.57 272.69,-212.6"/>
<text text-anchor="middle" x="252" y="-231.8" font-family="Times New Roman,serif" font-size="14.00">p = y;</text>
</g>
<!-- N13&#45;&gt;N12 -->
<g id="edge18" class="edge">
<title>N13&#45;&gt;N12</title>
<path fill="none" stroke="black" d="M181.48,-348.21C176.82,-336.22 170.47,-319.85 165.16,-306.16"/>
<polygon fill="black" stroke="black" points="168.39,-304.81 161.51,-296.76 161.86,-307.35 168.39,-304.81"/>
<text text-anchor="middle" x="191.5" y="-318.8" font-family="Times New Roman,serif" font-size="14.00">yn = t;</text>
</g>
<!-- N14 -->
<g id="node15" class="node">
<title>N14</title>
<ellipse fill="none" stroke="black" cx="260" cy="-105" rx="27" ry="18"/>
<text text-anchor="middle" x="260" y="-101.3" font-family="Times New Roman,serif" font-size="14.00">N69</text>
</g>
<!-- N15 -->
<g id="node16" class="node">
<title>N15</title>
<ellipse fill="none" stroke="black" cx="27" cy="-18" rx="27" ry="18"/>
<text text-anchor="middle" x="27" y="-14.3" font-family="Times New Roman,serif" font-size="14.00">N70</text>
</g>
<!-- N14&#45;&gt;N15 -->
<g id="edge19" class="edge">
<title>N14&#45;&gt;N15</title>
<path fill="none" stroke="black" d="M236.81,-95.54C195.11,-80.33 107.4,-48.33 59.65,-30.91"/>
<polygon fill="black" stroke="black" points="60.69,-27.57 50.1,-27.43 58.29,-34.14 60.69,-27.57"/>
<text text-anchor="middle" x="182.5" y="-57.8" font-family="Times New Roman,serif" font-size="14.00">yn = y.n;</text>
</g>
<!-- N15&#45;&gt;N16 -->
<g id="edge20" class="edge">
<title>N15&#45;&gt;N16</title>
<path fill="none" stroke="black" d="M21.94,-35.76C17.25,-52.78 11,-79.97 11,-104 11,-1071 11,-1071 11,-1071 11,-1097.29 30.6,-1120.89 47.77,-1136.52"/>
<polygon fill="black" stroke="black" points="45.54,-1139.22 55.4,-1143.11 50.12,-1133.93 45.54,-1139.22"/>
<text text-anchor="middle" x="34.5" y="-579.8" font-family="Times New Roman,serif" font-size="14.00">p = null;</text>
</g>
<!-- N16&#45;&gt;N5 -->
<g id="edge21" class="edge">
<title>N16&#45;&gt;N5</title>
<path fill="none" stroke="black" d="M84.98,-1140.8C95.11,-1127.95 109.8,-1109.32 121.45,-1094.54"/>
<polygon fill="black" stroke="black" points="124.46,-1096.37 127.9,-1086.35 118.96,-1092.04 124.46,-1096.37"/>
<text text-anchor="middle" x="152.5" y="-1109.8" font-family="Times New Roman,serif" font-size="14.00">change = false;</text>
</g>
<!-- N17&#45;&gt;N8 -->
<g id="edge22" class="edge">
<title>N17&#45;&gt;N8</title>
<path fill="none" stroke="black" d="M310.98,-175.56C315.51,-169.55 320.62,-162.54 325,-156 330.4,-147.93 335.96,-138.89 340.81,-130.74"/>
<polygon fill="black" stroke="black" points="343.89,-132.41 345.93,-122.01 337.85,-128.86 343.89,-132.41"/>
<text text-anchor="middle" x="354" y="-144.8" font-family="Times New Roman,serif" font-size="14.00">y = yn;</text>
</g>
<!-- N17&#45;&gt;N14 -->
<g id="edge23" class="edge">
<title>N17&#45;&gt;N14</title>
<path fill="none" stroke="black" d="M291.48,-174.61C285.87,-162.38 278.1,-145.44 271.68,-131.46"/>
<polygon fill="black" stroke="black" points="274.85,-129.97 267.5,-122.34 268.49,-132.89 274.85,-129.97"/>
<text text-anchor="middle" x="301" y="-144.8" font-family="Times New Roman,serif" font-size="14.00">y = yn;</text>
</g>
</g>
</svg>
