<?xml version="1.0" encoding="UTF-8" standalone="no"?>
<!DOCTYPE svg PUBLIC "-//W3C//DTD SVG 1.1//EN"
 "http://www.w3.org/Graphics/SVG/1.1/DTD/svg11.dtd">
<!-- Generated by graphviz version 2.46.1 (20210213.1702)
 -->
<!-- Title: anonymous_graph Pages: 1 -->
<svg width="441pt" height="1270pt"
 viewBox="0.00 0.00 441.00 1270.00" xmlns="http://www.w3.org/2000/svg" xmlns:xlink="http://www.w3.org/1999/xlink">
<g id="graph0" class="graph" transform="scale(1 1) rotate(0) translate(4 1266)">
<title>anonymous_graph</title>
<polygon fill="white" stroke="transparent" points="-4,4 -4,-1266 437,-1266 437,4 -4,4"/>
<!-- N0 -->
<g id="node1" class="node">
<title>N0</title>
<ellipse fill="none" stroke="black" cx="194" cy="-1244" rx="29.5" ry="18"/>
<text text-anchor="middle" x="194" y="-1240.3" font-family="Times New Roman,serif" font-size="14.00">initial</text>
</g>
<!-- N2 -->
<g id="node3" class="node">
<title>N2</title>
<ellipse fill="none" stroke="black" cx="194" cy="-1157" rx="27" ry="18"/>
<text text-anchor="middle" x="194" y="-1153.3" font-family="Times New Roman,serif" font-size="14.00">N1</text>
</g>
<!-- N0&#45;&gt;N2 -->
<g id="edge1" class="edge">
<title>N0&#45;&gt;N2</title>
<path fill="none" stroke="black" d="M194,-1225.8C194,-1214.16 194,-1198.55 194,-1185.24"/>
<polygon fill="black" stroke="black" points="197.5,-1185.18 194,-1175.18 190.5,-1185.18 197.5,-1185.18"/>
<text text-anchor="middle" x="234" y="-1196.8" font-family="Times New Roman,serif" font-size="14.00">change = true;</text>
</g>
<!-- N1 -->
<g id="node2" class="node">
<title>N1</title>
<ellipse fill="none" stroke="black" cx="323" cy="-718" rx="27" ry="18"/>
<ellipse fill="none" stroke="black" cx="323" cy="-718" rx="31" ry="22"/>
<text text-anchor="middle" x="323" y="-714.3" font-family="Times New Roman,serif" font-size="14.00">final</text>
</g>
<!-- N14 -->
<g id="node15" class="node">
<title>N14</title>
<ellipse fill="none" stroke="black" cx="194" cy="-1070" rx="27" ry="18"/>
<text text-anchor="middle" x="194" y="-1066.3" font-family="Times New Roman,serif" font-size="14.00">N71</text>
</g>
<!-- N2&#45;&gt;N14 -->
<g id="edge2" class="edge">
<title>N2&#45;&gt;N14</title>
<path fill="none" stroke="black" d="M194,-1138.8C194,-1127.16 194,-1111.55 194,-1098.24"/>
<polygon fill="black" stroke="black" points="197.5,-1098.18 194,-1088.18 190.5,-1098.18 197.5,-1098.18"/>
<text text-anchor="middle" x="217.5" y="-1109.8" font-family="Times New Roman,serif" font-size="14.00">p = null;</text>
</g>
<!-- N3 -->
<g id="node4" class="node">
<title>N3</title>
<ellipse fill="none" stroke="black" cx="169" cy="-718" rx="27" ry="18"/>
<text text-anchor="middle" x="169" y="-714.3" font-family="Times New Roman,serif" font-size="14.00">N6</text>
</g>
<!-- N10 -->
<g id="node11" class="node">
<title>N10</title>
<ellipse fill="none" stroke="black" cx="171" cy="-627" rx="27" ry="18"/>
<text text-anchor="middle" x="171" y="-623.3" font-family="Times New Roman,serif" font-size="14.00">N41</text>
</g>
<!-- N3&#45;&gt;N10 -->
<g id="edge3" class="edge">
<title>N3&#45;&gt;N10</title>
<path fill="none" stroke="black" d="M169.39,-699.84C169.67,-687.28 170.06,-669.98 170.38,-655.5"/>
<polygon fill="black" stroke="black" points="173.89,-655.18 170.62,-645.11 166.89,-655.03 173.89,-655.18"/>
<text text-anchor="middle" x="195" y="-666.8" font-family="Times New Roman,serif" font-size="14.00">t = yn.n;</text>
</g>
<!-- N4 -->
<g id="node5" class="node">
<title>N4</title>
<ellipse fill="none" stroke="black" cx="130" cy="-366" rx="27" ry="18"/>
<text text-anchor="middle" x="130" y="-362.3" font-family="Times New Roman,serif" font-size="14.00">N10</text>
</g>
<!-- N13 -->
<g id="node14" class="node">
<title>N13</title>
<ellipse fill="none" stroke="black" cx="130" cy="-279" rx="27" ry="18"/>
<text text-anchor="middle" x="130" y="-275.3" font-family="Times New Roman,serif" font-size="14.00">N52</text>
</g>
<!-- N4&#45;&gt;N13 -->
<g id="edge4" class="edge">
<title>N4&#45;&gt;N13</title>
<path fill="none" stroke="black" d="M130,-347.8C130,-336.16 130,-320.55 130,-307.24"/>
<polygon fill="black" stroke="black" points="133.5,-307.18 130,-297.18 126.5,-307.18 133.5,-307.18"/>
<text text-anchor="middle" x="150.5" y="-318.8" font-family="Times New Roman,serif" font-size="14.00">p = yn;</text>
</g>
<!-- N5 -->
<g id="node6" class="node">
<title>N5</title>
<ellipse fill="none" stroke="black" cx="256" cy="-983" rx="27" ry="18"/>
<text text-anchor="middle" x="256" y="-979.3" font-family="Times New Roman,serif" font-size="14.00">N14</text>
</g>
<!-- N7 -->
<g id="node8" class="node">
<title>N7</title>
<ellipse fill="none" stroke="black" cx="264" cy="-896" rx="27" ry="18"/>
<text text-anchor="middle" x="264" y="-892.3" font-family="Times New Roman,serif" font-size="14.00">N29</text>
</g>
<!-- N5&#45;&gt;N7 -->
<g id="edge5" class="edge">
<title>N5&#45;&gt;N7</title>
<path fill="none" stroke="black" d="M257.62,-964.8C258.71,-953.16 260.18,-937.55 261.44,-924.24"/>
<polygon fill="black" stroke="black" points="264.93,-924.46 262.38,-914.18 257.96,-923.8 264.93,-924.46"/>
<text text-anchor="middle" x="286.5" y="-935.8" font-family="Times New Roman,serif" font-size="14.00">y = head;</text>
</g>
<!-- N6 -->
<g id="node7" class="node">
<title>N6</title>
<ellipse fill="none" stroke="black" cx="200" cy="-453" rx="27" ry="18"/>
<text text-anchor="middle" x="200" y="-449.3" font-family="Times New Roman,serif" font-size="14.00">N23</text>
</g>
<!-- N6&#45;&gt;N4 -->
<g id="edge6" class="edge">
<title>N6&#45;&gt;N4</title>
<path fill="none" stroke="black" d="M177.45,-442.63C171.46,-440.14 164.99,-437.46 159,-435 139.46,-426.95 126.78,-434.54 115,-417 109.94,-409.46 111.14,-400.15 114.48,-391.62"/>
<polygon fill="black" stroke="black" points="117.71,-392.98 118.93,-382.46 111.41,-389.92 117.71,-392.98"/>
<text text-anchor="middle" x="145" y="-405.8" font-family="Times New Roman,serif" font-size="14.00">head = yn;</text>
</g>
<!-- N6&#45;&gt;N4 -->
<g id="edge7" class="edge">
<title>N6&#45;&gt;N4</title>
<path fill="none" stroke="black" d="M193.8,-435.14C189.51,-424.89 183.12,-411.91 175,-402 170,-395.9 163.74,-390.2 157.5,-385.25"/>
<polygon fill="black" stroke="black" points="159.23,-382.17 149.12,-378.99 155.04,-387.78 159.23,-382.17"/>
<text text-anchor="middle" x="210" y="-405.8" font-family="Times New Roman,serif" font-size="14.00">p.n = yn;</text>
</g>
<!-- N9 -->
<g id="node10" class="node">
<title>N9</title>
<ellipse fill="none" stroke="black" cx="264" cy="-809" rx="27" ry="18"/>
<text text-anchor="middle" x="264" y="-805.3" font-family="Times New Roman,serif" font-size="14.00">N39</text>
</g>
<!-- N7&#45;&gt;N9 -->
<g id="edge8" class="edge">
<title>N7&#45;&gt;N9</title>
<path fill="none" stroke="black" d="M264,-877.8C264,-866.16 264,-850.55 264,-837.24"/>
<polygon fill="black" stroke="black" points="267.5,-837.18 264,-827.18 260.5,-837.18 267.5,-837.18"/>
<text text-anchor="middle" x="289.5" y="-848.8" font-family="Times New Roman,serif" font-size="14.00">yn = y.n;</text>
</g>
<!-- N8 -->
<g id="node9" class="node">
<title>N8</title>
<ellipse fill="none" stroke="black" cx="323" cy="-18" rx="27" ry="18"/>
<text text-anchor="middle" x="323" y="-14.3" font-family="Times New Roman,serif" font-size="14.00">N35</text>
</g>
<!-- N8&#45;&gt;N9 -->
<g id="edge9" class="edge">
<title>N8&#45;&gt;N9</title>
<path fill="none" stroke="black" d="M340.07,-32.35C357.49,-47.62 382,-74.36 382,-104 382,-719 382,-719 382,-719 382,-761.15 333.41,-785.86 298.59,-798.15"/>
<polygon fill="black" stroke="black" points="297.12,-794.95 288.74,-801.43 299.33,-801.59 297.12,-794.95"/>
<text text-anchor="middle" x="407.5" y="-405.8" font-family="Times New Roman,serif" font-size="14.00">yn = y.n;</text>
</g>
<!-- N9&#45;&gt;N1 -->
<g id="edge12" class="edge">
<title>N9&#45;&gt;N1</title>
<path fill="none" stroke="black" d="M274.55,-792.09C282.92,-779.47 294.81,-761.52 304.72,-746.57"/>
<polygon fill="black" stroke="black" points="307.68,-748.45 310.29,-738.18 301.84,-744.58 307.68,-748.45"/>
<text text-anchor="middle" x="315.5" y="-761.8" font-family="Times New Roman,serif" font-size="14.00">return;</text>
</g>
<!-- N9&#45;&gt;N3 -->
<g id="edge13" class="edge">
<title>N9&#45;&gt;N3</title>
<path fill="none" stroke="black" d="M237.2,-805.99C215.17,-802.78 185.2,-794.46 170,-773 164.56,-765.33 163.23,-755.38 163.63,-746.12"/>
<polygon fill="black" stroke="black" points="167.11,-746.42 164.67,-736.11 160.15,-745.69 167.11,-746.42"/>
<text text-anchor="middle" x="210" y="-761.8" font-family="Times New Roman,serif" font-size="14.00">change = true;</text>
</g>
<!-- N9&#45;&gt;N14 -->
<g id="edge11" class="edge">
<title>N9&#45;&gt;N14</title>
<path fill="none" stroke="black" d="M254.65,-826.19C246.99,-839.78 236.13,-859.83 228,-878 217.55,-901.36 213.79,-907.07 208,-932 199.31,-969.42 196.01,-1013.83 194.76,-1041.72"/>
<polygon fill="black" stroke="black" points="191.26,-1041.77 194.36,-1051.9 198.25,-1042.04 191.26,-1041.77"/>
<text text-anchor="middle" x="231.5" y="-935.8" font-family="Times New Roman,serif" font-size="14.00">p = null;</text>
</g>
<!-- N15 -->
<g id="node16" class="node">
<title>N15</title>
<ellipse fill="none" stroke="black" cx="264" cy="-105" rx="27" ry="18"/>
<text text-anchor="middle" x="264" y="-101.3" font-family="Times New Roman,serif" font-size="14.00">N84</text>
</g>
<!-- N9&#45;&gt;N15 -->
<g id="edge10" class="edge">
<title>N9&#45;&gt;N15</title>
<path fill="none" stroke="black" d="M264,-790.94C264,-773.02 264,-744.03 264,-719 264,-719 264,-719 264,-191 264,-171.75 264,-150.05 264,-133.4"/>
<polygon fill="black" stroke="black" points="267.5,-133.26 264,-123.26 260.5,-133.26 267.5,-133.26"/>
<text text-anchor="middle" x="303" y="-456.8" font-family="Times New Roman,serif" font-size="14.00">!(1 &lt; head.d)/</text>
<text text-anchor="middle" x="303" y="-441.8" font-family="Times New Roman,serif" font-size="14.00">p = y;</text>
</g>
<!-- N11 -->
<g id="node12" class="node">
<title>N11</title>
<ellipse fill="none" stroke="black" cx="177" cy="-540" rx="27" ry="18"/>
<text text-anchor="middle" x="177" y="-536.3" font-family="Times New Roman,serif" font-size="14.00">N42</text>
</g>
<!-- N10&#45;&gt;N11 -->
<g id="edge14" class="edge">
<title>N10&#45;&gt;N11</title>
<path fill="none" stroke="black" d="M172.21,-608.8C173.04,-597.16 174.14,-581.55 175.08,-568.24"/>
<polygon fill="black" stroke="black" points="178.57,-568.4 175.79,-558.18 171.59,-567.9 178.57,-568.4"/>
<text text-anchor="middle" x="195.5" y="-579.8" font-family="Times New Roman,serif" font-size="14.00">y.n = t;</text>
</g>
<!-- N11&#45;&gt;N6 -->
<g id="edge15" class="edge">
<title>N11&#45;&gt;N6</title>
<path fill="none" stroke="black" d="M181.54,-522.21C184.76,-510.33 189.13,-494.17 192.81,-480.56"/>
<polygon fill="black" stroke="black" points="196.23,-481.33 195.47,-470.76 189.47,-479.5 196.23,-481.33"/>
<text text-anchor="middle" x="214.5" y="-492.8" font-family="Times New Roman,serif" font-size="14.00">yn.n = y;</text>
</g>
<!-- N12 -->
<g id="node13" class="node">
<title>N12</title>
<ellipse fill="none" stroke="black" cx="97" cy="-192" rx="27" ry="18"/>
<text text-anchor="middle" x="97" y="-188.3" font-family="Times New Roman,serif" font-size="14.00">N46</text>
</g>
<!-- N12&#45;&gt;N3 -->
<g id="edge17" class="edge">
<title>N12&#45;&gt;N3</title>
<path fill="none" stroke="black" d="M90.04,-209.61C83.59,-226.51 75,-253.61 75,-278 75,-628 75,-628 75,-628 75,-663.18 110.15,-688.62 137.46,-703.07"/>
<polygon fill="black" stroke="black" points="136.22,-706.36 146.72,-707.72 139.36,-700.1 136.22,-706.36"/>
<text text-anchor="middle" x="115" y="-456.8" font-family="Times New Roman,serif" font-size="14.00">!(yn == null)/</text>
<text text-anchor="middle" x="115" y="-441.8" font-family="Times New Roman,serif" font-size="14.00">change = true;</text>
</g>
<!-- N12&#45;&gt;N14 -->
<g id="edge16" class="edge">
<title>N12&#45;&gt;N14</title>
<path fill="none" stroke="black" d="M73.52,-201.58C44.81,-213.77 0,-239.04 0,-278 0,-984 0,-984 0,-984 0,-1051.71 100.37,-1065.99 156.72,-1068.67"/>
<polygon fill="black" stroke="black" points="156.9,-1072.18 167.03,-1069.06 157.16,-1065.19 156.9,-1072.18"/>
<text text-anchor="middle" x="23.5" y="-623.3" font-family="Times New Roman,serif" font-size="14.00">p = null;</text>
</g>
<!-- N12&#45;&gt;N15 -->
<g id="edge18" class="edge">
<title>N12&#45;&gt;N15</title>
<path fill="none" stroke="black" d="M117.81,-180.41C147.02,-165.54 200.34,-138.4 233.88,-121.33"/>
<polygon fill="black" stroke="black" points="235.86,-124.25 243.19,-116.59 232.69,-118.01 235.86,-124.25"/>
<text text-anchor="middle" x="207" y="-144.8" font-family="Times New Roman,serif" font-size="14.00">p = y;</text>
</g>
<!-- N13&#45;&gt;N12 -->
<g id="edge19" class="edge">
<title>N13&#45;&gt;N12</title>
<path fill="none" stroke="black" d="M123.48,-261.21C118.82,-249.22 112.47,-232.85 107.16,-219.16"/>
<polygon fill="black" stroke="black" points="110.39,-217.81 103.51,-209.76 103.86,-220.35 110.39,-217.81"/>
<text text-anchor="middle" x="134.5" y="-231.8" font-family="Times New Roman,serif" font-size="14.00">yn = t;</text>
</g>
<!-- N14&#45;&gt;N5 -->
<g id="edge20" class="edge">
<title>N14&#45;&gt;N5</title>
<path fill="none" stroke="black" d="M205.37,-1053.41C214.72,-1040.59 228.12,-1022.22 238.79,-1007.6"/>
<polygon fill="black" stroke="black" points="241.63,-1009.63 244.7,-999.49 235.98,-1005.51 241.63,-1009.63"/>
<text text-anchor="middle" x="270.5" y="-1022.8" font-family="Times New Roman,serif" font-size="14.00">change = false;</text>
</g>
<!-- N15&#45;&gt;N8 -->
<g id="edge21" class="edge">
<title>N15&#45;&gt;N8</title>
<path fill="none" stroke="black" d="M274.82,-88.41C283.58,-75.79 296.08,-57.79 306.15,-43.28"/>
<polygon fill="black" stroke="black" points="309.22,-44.99 312.05,-34.78 303.47,-41 309.22,-44.99"/>
<text text-anchor="middle" x="317" y="-57.8" font-family="Times New Roman,serif" font-size="14.00">y = yn;</text>
</g>
</g>
</svg>
