<?xml version="1.0" encoding="UTF-8" standalone="no"?>
<!DOCTYPE svg PUBLIC "-//W3C//DTD SVG 1.1//EN"
 "http://www.w3.org/Graphics/SVG/1.1/DTD/svg11.dtd">
<!-- Generated by graphviz version 2.46.1 (20210213.1702)
 -->
<!-- Title: anonymous_graph Pages: 1 -->
<svg width="569pt" height="922pt"
 viewBox="0.00 0.00 569.00 922.00" xmlns="http://www.w3.org/2000/svg" xmlns:xlink="http://www.w3.org/1999/xlink">
<g id="graph0" class="graph" transform="scale(1 1) rotate(0) translate(4 918)">
<title>anonymous_graph</title>
<polygon fill="white" stroke="transparent" points="-4,4 -4,-918 565,-918 565,4 -4,4"/>
<!-- N0 -->
<g id="node1" class="node">
<title>N0</title>
<ellipse fill="none" stroke="black" cx="216" cy="-896" rx="29.5" ry="18"/>
<text text-anchor="middle" x="216" y="-892.3" font-family="Times New Roman,serif" font-size="14.00">initial</text>
</g>
<!-- N1 -->
<g id="node2" class="node">
<title>N1</title>
<ellipse fill="none" stroke="black" cx="31" cy="-805" rx="27" ry="18"/>
<ellipse fill="none" stroke="black" cx="31" cy="-805" rx="31" ry="22"/>
<text text-anchor="middle" x="31" y="-801.3" font-family="Times New Roman,serif" font-size="14.00">final</text>
</g>
<!-- N0&#45;&gt;N1 -->
<g id="edge3" class="edge">
<title>N0&#45;&gt;N1</title>
<path fill="none" stroke="black" d="M186.96,-893.23C142.07,-889.86 58.94,-880.92 39,-860 33.14,-853.85 30.41,-845.4 29.32,-837"/>
<polygon fill="black" stroke="black" points="32.81,-836.72 28.72,-826.95 25.82,-837.14 32.81,-836.72"/>
<text text-anchor="middle" x="57.5" y="-848.8" font-family="Times New Roman,serif" font-size="14.00">return;</text>
</g>
<!-- N2 -->
<g id="node3" class="node">
<title>N2</title>
<ellipse fill="none" stroke="black" cx="216" cy="-805" rx="27" ry="18"/>
<text text-anchor="middle" x="216" y="-801.3" font-family="Times New Roman,serif" font-size="14.00">N6</text>
</g>
<!-- N0&#45;&gt;N2 -->
<g id="edge1" class="edge">
<title>N0&#45;&gt;N2</title>
<path fill="none" stroke="black" d="M216,-877.84C216,-865.28 216,-847.98 216,-833.5"/>
<polygon fill="black" stroke="black" points="219.5,-833.11 216,-823.11 212.5,-833.11 219.5,-833.11"/>
<text text-anchor="middle" x="256" y="-848.8" font-family="Times New Roman,serif" font-size="14.00">change = true;</text>
</g>
<!-- N11 -->
<g id="node12" class="node">
<title>N11</title>
<ellipse fill="none" stroke="black" cx="183" cy="-192" rx="27" ry="18"/>
<text text-anchor="middle" x="183" y="-188.3" font-family="Times New Roman,serif" font-size="14.00">N71</text>
</g>
<!-- N0&#45;&gt;N11 -->
<g id="edge2" class="edge">
<title>N0&#45;&gt;N11</title>
<path fill="none" stroke="black" d="M188.97,-888.79C151.95,-878.49 90,-854.07 90,-806 90,-806 90,-806 90,-278 90,-244.15 123.98,-220.16 150.87,-206.49"/>
<polygon fill="black" stroke="black" points="152.52,-209.57 160.01,-202.08 149.48,-203.27 152.52,-209.57"/>
<text text-anchor="middle" x="113.5" y="-536.3" font-family="Times New Roman,serif" font-size="14.00">p = null;</text>
</g>
<!-- N12 -->
<g id="node13" class="node">
<title>N12</title>
<ellipse fill="none" stroke="black" cx="364" cy="-192" rx="27" ry="18"/>
<text text-anchor="middle" x="364" y="-188.3" font-family="Times New Roman,serif" font-size="14.00">N84</text>
</g>
<!-- N0&#45;&gt;N12 -->
<g id="edge4" class="edge">
<title>N0&#45;&gt;N12</title>
<path fill="none" stroke="black" d="M245.38,-894.09C298.25,-890.73 404,-875.33 404,-806 404,-806 404,-806 404,-278 404,-255.71 392.6,-232.99 381.97,-216.65"/>
<polygon fill="black" stroke="black" points="384.76,-214.54 376.22,-208.28 378.99,-218.5 384.76,-214.54"/>
<text text-anchor="middle" x="443" y="-543.8" font-family="Times New Roman,serif" font-size="14.00">!(1 &lt; head.d)/</text>
<text text-anchor="middle" x="443" y="-528.8" font-family="Times New Roman,serif" font-size="14.00">p = y;</text>
</g>
<!-- N7 -->
<g id="node8" class="node">
<title>N7</title>
<ellipse fill="none" stroke="black" cx="296" cy="-714" rx="27" ry="18"/>
<text text-anchor="middle" x="296" y="-710.3" font-family="Times New Roman,serif" font-size="14.00">N41</text>
</g>
<!-- N2&#45;&gt;N7 -->
<g id="edge6" class="edge">
<title>N2&#45;&gt;N7</title>
<path fill="none" stroke="black" d="M229.57,-788.9C242.17,-774.88 261.11,-753.81 275.55,-737.75"/>
<polygon fill="black" stroke="black" points="278.55,-739.65 282.63,-729.87 273.34,-734.97 278.55,-739.65"/>
<text text-anchor="middle" x="287" y="-753.8" font-family="Times New Roman,serif" font-size="14.00">t = yn.n;</text>
</g>
<!-- N2&#45;&gt;N11 -->
<g id="edge5" class="edge">
<title>N2&#45;&gt;N11</title>
<path fill="none" stroke="black" d="M201.52,-789.7C186.44,-773.21 165,-744.56 165,-715 165,-715 165,-715 165,-582.5 165,-525.33 159,-511.17 159,-454 159,-454 159,-454 159,-278 159,-257.68 165.43,-235.63 171.63,-219.07"/>
<polygon fill="black" stroke="black" points="174.98,-220.13 175.41,-209.54 168.47,-217.55 174.98,-220.13"/>
<text text-anchor="middle" x="183.5" y="-492.8" font-family="Times New Roman,serif" font-size="14.00">p = null;</text>
</g>
<!-- N3 -->
<g id="node4" class="node">
<title>N3</title>
<ellipse fill="none" stroke="black" cx="276" cy="-453" rx="27" ry="18"/>
<text text-anchor="middle" x="276" y="-449.3" font-family="Times New Roman,serif" font-size="14.00">N10</text>
</g>
<!-- N10 -->
<g id="node11" class="node">
<title>N10</title>
<ellipse fill="none" stroke="black" cx="276" cy="-366" rx="27" ry="18"/>
<text text-anchor="middle" x="276" y="-362.3" font-family="Times New Roman,serif" font-size="14.00">N52</text>
</g>
<!-- N3&#45;&gt;N10 -->
<g id="edge7" class="edge">
<title>N3&#45;&gt;N10</title>
<path fill="none" stroke="black" d="M276,-434.8C276,-423.16 276,-407.55 276,-394.24"/>
<polygon fill="black" stroke="black" points="279.5,-394.18 276,-384.18 272.5,-394.18 279.5,-394.18"/>
<text text-anchor="middle" x="296.5" y="-405.8" font-family="Times New Roman,serif" font-size="14.00">p = yn;</text>
</g>
<!-- N4 -->
<g id="node5" class="node">
<title>N4</title>
<ellipse fill="none" stroke="black" cx="272" cy="-105" rx="27" ry="18"/>
<text text-anchor="middle" x="272" y="-101.3" font-family="Times New Roman,serif" font-size="14.00">N14</text>
</g>
<!-- N6 -->
<g id="node7" class="node">
<title>N6</title>
<ellipse fill="none" stroke="black" cx="364" cy="-18" rx="27" ry="18"/>
<text text-anchor="middle" x="364" y="-14.3" font-family="Times New Roman,serif" font-size="14.00">N29</text>
</g>
<!-- N4&#45;&gt;N6 -->
<g id="edge8" class="edge">
<title>N4&#45;&gt;N6</title>
<path fill="none" stroke="black" d="M277.41,-87.08C281.46,-76.54 287.89,-63.28 297,-54 306.51,-44.32 319.26,-36.75 331.09,-31.17"/>
<polygon fill="black" stroke="black" points="332.55,-34.35 340.29,-27.11 329.73,-27.94 332.55,-34.35"/>
<text text-anchor="middle" x="323.5" y="-57.8" font-family="Times New Roman,serif" font-size="14.00">y = head;</text>
</g>
<!-- N5 -->
<g id="node6" class="node">
<title>N5</title>
<ellipse fill="none" stroke="black" cx="341" cy="-540" rx="27" ry="18"/>
<text text-anchor="middle" x="341" y="-536.3" font-family="Times New Roman,serif" font-size="14.00">N23</text>
</g>
<!-- N5&#45;&gt;N3 -->
<g id="edge9" class="edge">
<title>N5&#45;&gt;N3</title>
<path fill="none" stroke="black" d="M318.46,-529.6C312.47,-527.11 305.99,-524.44 300,-522 280.05,-513.87 267.08,-521.84 255,-504 249.46,-495.81 251.99,-485.93 256.92,-477.12"/>
<polygon fill="black" stroke="black" points="259.84,-479.05 262.42,-468.77 253.99,-475.19 259.84,-479.05"/>
<text text-anchor="middle" x="285" y="-492.8" font-family="Times New Roman,serif" font-size="14.00">head = yn;</text>
</g>
<!-- N5&#45;&gt;N3 -->
<g id="edge10" class="edge">
<title>N5&#45;&gt;N3</title>
<path fill="none" stroke="black" d="M334.18,-522.36C329.58,-512.18 322.91,-499.21 315,-489 310.9,-483.72 305.94,-478.58 300.96,-473.94"/>
<polygon fill="black" stroke="black" points="303.03,-471.11 293.21,-467.12 298.4,-476.36 303.03,-471.11"/>
<text text-anchor="middle" x="350" y="-492.8" font-family="Times New Roman,serif" font-size="14.00">p.n = yn;</text>
</g>
<!-- N6&#45;&gt;N0 -->
<g id="edge11" class="edge">
<title>N6&#45;&gt;N0</title>
<path fill="none" stroke="black" d="M390.44,-22.3C432.51,-29.19 510,-49.3 510,-104 510,-806 510,-806 510,-806 510,-858.7 334.79,-883.07 254.89,-891.45"/>
<polygon fill="black" stroke="black" points="254.32,-887.99 244.73,-892.48 255.03,-894.95 254.32,-887.99"/>
<text text-anchor="middle" x="535.5" y="-449.3" font-family="Times New Roman,serif" font-size="14.00">yn = y.n;</text>
</g>
<!-- N8 -->
<g id="node9" class="node">
<title>N8</title>
<ellipse fill="none" stroke="black" cx="329" cy="-627" rx="27" ry="18"/>
<text text-anchor="middle" x="329" y="-623.3" font-family="Times New Roman,serif" font-size="14.00">N42</text>
</g>
<!-- N7&#45;&gt;N8 -->
<g id="edge12" class="edge">
<title>N7&#45;&gt;N8</title>
<path fill="none" stroke="black" d="M302.52,-696.21C307.18,-684.22 313.53,-667.85 318.84,-654.16"/>
<polygon fill="black" stroke="black" points="322.14,-655.35 322.49,-644.76 315.61,-652.81 322.14,-655.35"/>
<text text-anchor="middle" x="334.5" y="-666.8" font-family="Times New Roman,serif" font-size="14.00">y.n = t;</text>
</g>
<!-- N8&#45;&gt;N5 -->
<g id="edge13" class="edge">
<title>N8&#45;&gt;N5</title>
<path fill="none" stroke="black" d="M331.43,-608.8C333.07,-597.16 335.28,-581.55 337.15,-568.24"/>
<polygon fill="black" stroke="black" points="340.64,-568.57 338.58,-558.18 333.71,-567.59 340.64,-568.57"/>
<text text-anchor="middle" x="360.5" y="-579.8" font-family="Times New Roman,serif" font-size="14.00">yn.n = y;</text>
</g>
<!-- N9 -->
<g id="node10" class="node">
<title>N9</title>
<ellipse fill="none" stroke="black" cx="242" cy="-279" rx="27" ry="18"/>
<text text-anchor="middle" x="242" y="-275.3" font-family="Times New Roman,serif" font-size="14.00">N46</text>
</g>
<!-- N9&#45;&gt;N2 -->
<g id="edge15" class="edge">
<title>N9&#45;&gt;N2</title>
<path fill="none" stroke="black" d="M239.51,-297.01C233,-342.95 216,-473.39 216,-582.5 216,-715 216,-715 216,-715 216,-735.73 216,-759.17 216,-776.8"/>
<polygon fill="black" stroke="black" points="212.5,-776.94 216,-786.94 219.5,-776.94 212.5,-776.94"/>
<text text-anchor="middle" x="257" y="-543.8" font-family="Times New Roman,serif" font-size="14.00">!(yn == null)/</text>
<text text-anchor="middle" x="257" y="-528.8" font-family="Times New Roman,serif" font-size="14.00">change = true;</text>
</g>
<!-- N9&#45;&gt;N11 -->
<g id="edge14" class="edge">
<title>N9&#45;&gt;N11</title>
<path fill="none" stroke="black" d="M231.18,-262.41C222.42,-249.79 209.92,-231.79 199.85,-217.28"/>
<polygon fill="black" stroke="black" points="202.53,-215 193.95,-208.78 196.78,-218.99 202.53,-215"/>
<text text-anchor="middle" x="239.5" y="-231.8" font-family="Times New Roman,serif" font-size="14.00">p = null;</text>
</g>
<!-- N9&#45;&gt;N12 -->
<g id="edge16" class="edge">
<title>N9&#45;&gt;N12</title>
<path fill="none" stroke="black" d="M260,-265.46C280.45,-251.21 314.03,-227.82 337.48,-211.48"/>
<polygon fill="black" stroke="black" points="339.72,-214.18 345.92,-205.59 335.72,-208.44 339.72,-214.18"/>
<text text-anchor="middle" x="327" y="-231.8" font-family="Times New Roman,serif" font-size="14.00">p = y;</text>
</g>
<!-- N10&#45;&gt;N9 -->
<g id="edge17" class="edge">
<title>N10&#45;&gt;N9</title>
<path fill="none" stroke="black" d="M269.28,-348.21C264.46,-336.14 257.86,-319.64 252.36,-305.89"/>
<polygon fill="black" stroke="black" points="255.55,-304.45 248.59,-296.47 249.05,-307.05 255.55,-304.45"/>
<text text-anchor="middle" x="279.5" y="-318.8" font-family="Times New Roman,serif" font-size="14.00">yn = t;</text>
</g>
<!-- N11&#45;&gt;N4 -->
<g id="edge18" class="edge">
<title>N11&#45;&gt;N4</title>
<path fill="none" stroke="black" d="M198.1,-176.58C212.25,-163.07 233.58,-142.7 249.69,-127.31"/>
<polygon fill="black" stroke="black" points="252.31,-129.64 257.13,-120.21 247.48,-124.58 252.31,-129.64"/>
<text text-anchor="middle" x="274.5" y="-144.8" font-family="Times New Roman,serif" font-size="14.00">change = false;</text>
</g>
<!-- N12&#45;&gt;N6 -->
<g id="edge19" class="edge">
<title>N12&#45;&gt;N6</title>
<path fill="none" stroke="black" d="M364,-173.88C364,-144 364,-82.11 364,-46.27"/>
<polygon fill="black" stroke="black" points="367.5,-46.05 364,-36.05 360.5,-46.05 367.5,-46.05"/>
<text text-anchor="middle" x="384" y="-101.3" font-family="Times New Roman,serif" font-size="14.00">y = yn;</text>
</g>
</g>
</svg>
