<?xml version="1.0" encoding="UTF-8" standalone="no"?>
<!DOCTYPE svg PUBLIC "-//W3C//DTD SVG 1.1//EN"
 "http://www.w3.org/Graphics/SVG/1.1/DTD/svg11.dtd">
<!-- Generated by graphviz version 2.46.1 (20210213.1702)
 -->
<!-- Title: anonymous_graph Pages: 1 -->
<svg width="453pt" height="1183pt"
 viewBox="0.00 0.00 453.00 1183.00" xmlns="http://www.w3.org/2000/svg" xmlns:xlink="http://www.w3.org/1999/xlink">
<g id="graph0" class="graph" transform="scale(1 1) rotate(0) translate(4 1179)">
<title>anonymous_graph</title>
<polygon fill="white" stroke="transparent" points="-4,4 -4,-1179 449,-1179 449,4 -4,4"/>
<!-- N0 -->
<g id="node1" class="node">
<title>N0</title>
<ellipse fill="none" stroke="black" cx="214" cy="-1157" rx="29.5" ry="18"/>
<text text-anchor="middle" x="214" y="-1153.3" font-family="Times New Roman,serif" font-size="14.00">initial</text>
</g>
<!-- N2 -->
<g id="node3" class="node">
<title>N2</title>
<ellipse fill="none" stroke="black" cx="214" cy="-1070" rx="27" ry="18"/>
<text text-anchor="middle" x="214" y="-1066.3" font-family="Times New Roman,serif" font-size="14.00">N1</text>
</g>
<!-- N0&#45;&gt;N2 -->
<g id="edge1" class="edge">
<title>N0&#45;&gt;N2</title>
<path fill="none" stroke="black" d="M214,-1138.8C214,-1127.16 214,-1111.55 214,-1098.24"/>
<polygon fill="black" stroke="black" points="217.5,-1098.18 214,-1088.18 210.5,-1098.18 217.5,-1098.18"/>
<text text-anchor="middle" x="254" y="-1109.8" font-family="Times New Roman,serif" font-size="14.00">change = true;</text>
</g>
<!-- N1 -->
<g id="node2" class="node">
<title>N1</title>
<ellipse fill="none" stroke="black" cx="240" cy="-631" rx="27" ry="18"/>
<ellipse fill="none" stroke="black" cx="240" cy="-631" rx="31" ry="22"/>
<text text-anchor="middle" x="240" y="-627.3" font-family="Times New Roman,serif" font-size="14.00">final</text>
</g>
<!-- N13 -->
<g id="node14" class="node">
<title>N13</title>
<ellipse fill="none" stroke="black" cx="214" cy="-983" rx="27" ry="18"/>
<text text-anchor="middle" x="214" y="-979.3" font-family="Times New Roman,serif" font-size="14.00">N71</text>
</g>
<!-- N2&#45;&gt;N13 -->
<g id="edge2" class="edge">
<title>N2&#45;&gt;N13</title>
<path fill="none" stroke="black" d="M214,-1051.8C214,-1040.16 214,-1024.55 214,-1011.24"/>
<polygon fill="black" stroke="black" points="217.5,-1011.18 214,-1001.18 210.5,-1011.18 217.5,-1011.18"/>
<text text-anchor="middle" x="237.5" y="-1022.8" font-family="Times New Roman,serif" font-size="14.00">p = null;</text>
</g>
<!-- N3 -->
<g id="node4" class="node">
<title>N3</title>
<ellipse fill="none" stroke="black" cx="137" cy="-631" rx="27" ry="18"/>
<text text-anchor="middle" x="137" y="-627.3" font-family="Times New Roman,serif" font-size="14.00">N6</text>
</g>
<!-- N9 -->
<g id="node10" class="node">
<title>N9</title>
<ellipse fill="none" stroke="black" cx="114" cy="-540" rx="27" ry="18"/>
<text text-anchor="middle" x="114" y="-536.3" font-family="Times New Roman,serif" font-size="14.00">N41</text>
</g>
<!-- N3&#45;&gt;N9 -->
<g id="edge3" class="edge">
<title>N3&#45;&gt;N9</title>
<path fill="none" stroke="black" d="M129.21,-613.62C126.23,-606.76 123.06,-598.63 121,-591 119.04,-583.75 117.61,-575.76 116.57,-568.33"/>
<polygon fill="black" stroke="black" points="120.04,-567.84 115.35,-558.34 113.09,-568.69 120.04,-567.84"/>
<text text-anchor="middle" x="145" y="-579.8" font-family="Times New Roman,serif" font-size="14.00">t = yn.n;</text>
</g>
<!-- N4 -->
<g id="node5" class="node">
<title>N4</title>
<ellipse fill="none" stroke="black" cx="108" cy="-279" rx="27" ry="18"/>
<text text-anchor="middle" x="108" y="-275.3" font-family="Times New Roman,serif" font-size="14.00">N10</text>
</g>
<!-- N12 -->
<g id="node13" class="node">
<title>N12</title>
<ellipse fill="none" stroke="black" cx="117" cy="-192" rx="27" ry="18"/>
<text text-anchor="middle" x="117" y="-188.3" font-family="Times New Roman,serif" font-size="14.00">N52</text>
</g>
<!-- N4&#45;&gt;N12 -->
<g id="edge4" class="edge">
<title>N4&#45;&gt;N12</title>
<path fill="none" stroke="black" d="M109.82,-260.8C111.05,-249.16 112.71,-233.55 114.12,-220.24"/>
<polygon fill="black" stroke="black" points="117.61,-220.49 115.18,-210.18 110.65,-219.75 117.61,-220.49"/>
<text text-anchor="middle" x="133.5" y="-231.8" font-family="Times New Roman,serif" font-size="14.00">p = yn;</text>
</g>
<!-- N5 -->
<g id="node6" class="node">
<title>N5</title>
<ellipse fill="none" stroke="black" cx="276" cy="-896" rx="27" ry="18"/>
<text text-anchor="middle" x="276" y="-892.3" font-family="Times New Roman,serif" font-size="14.00">N14</text>
</g>
<!-- N7 -->
<g id="node8" class="node">
<title>N7</title>
<ellipse fill="none" stroke="black" cx="284" cy="-809" rx="27" ry="18"/>
<text text-anchor="middle" x="284" y="-805.3" font-family="Times New Roman,serif" font-size="14.00">N29</text>
</g>
<!-- N5&#45;&gt;N7 -->
<g id="edge5" class="edge">
<title>N5&#45;&gt;N7</title>
<path fill="none" stroke="black" d="M277.62,-877.8C278.71,-866.16 280.18,-850.55 281.44,-837.24"/>
<polygon fill="black" stroke="black" points="284.93,-837.46 282.38,-827.18 277.96,-836.8 284.93,-837.46"/>
<text text-anchor="middle" x="306.5" y="-848.8" font-family="Times New Roman,serif" font-size="14.00">y = head;</text>
</g>
<!-- N6 -->
<g id="node7" class="node">
<title>N6</title>
<ellipse fill="none" stroke="black" cx="108" cy="-366" rx="27" ry="18"/>
<text text-anchor="middle" x="108" y="-362.3" font-family="Times New Roman,serif" font-size="14.00">N23</text>
</g>
<!-- N6&#45;&gt;N4 -->
<g id="edge6" class="edge">
<title>N6&#45;&gt;N4</title>
<path fill="none" stroke="black" d="M108,-347.8C108,-336.16 108,-320.55 108,-307.24"/>
<polygon fill="black" stroke="black" points="111.5,-307.18 108,-297.18 104.5,-307.18 111.5,-307.18"/>
<text text-anchor="middle" x="138" y="-318.8" font-family="Times New Roman,serif" font-size="14.00">head = yn;</text>
</g>
<!-- N6&#45;&gt;N4 -->
<g id="edge7" class="edge">
<title>N6&#45;&gt;N4</title>
<path fill="none" stroke="black" d="M84.9,-356.38C65.39,-347.65 42.08,-332.9 52,-315 57.21,-305.6 66.11,-298.39 75.31,-293.03"/>
<polygon fill="black" stroke="black" points="77.21,-295.98 84.47,-288.27 73.99,-289.77 77.21,-295.98"/>
<text text-anchor="middle" x="78" y="-318.8" font-family="Times New Roman,serif" font-size="14.00">p.n = yn;</text>
</g>
<!-- N8 -->
<g id="node9" class="node">
<title>N8</title>
<ellipse fill="none" stroke="black" cx="240" cy="-722" rx="27" ry="18"/>
<text text-anchor="middle" x="240" y="-718.3" font-family="Times New Roman,serif" font-size="14.00">N39</text>
</g>
<!-- N7&#45;&gt;N8 -->
<g id="edge8" class="edge">
<title>N7&#45;&gt;N8</title>
<path fill="none" stroke="black" d="M275.52,-791.61C269.19,-779.38 260.42,-762.44 253.18,-748.46"/>
<polygon fill="black" stroke="black" points="256.16,-746.61 248.46,-739.34 249.95,-749.83 256.16,-746.61"/>
<text text-anchor="middle" x="289.5" y="-761.8" font-family="Times New Roman,serif" font-size="14.00">yn = y.n;</text>
</g>
<!-- N8&#45;&gt;N1 -->
<g id="edge11" class="edge">
<title>N8&#45;&gt;N1</title>
<path fill="none" stroke="black" d="M240,-703.84C240,-692.44 240,-677.13 240,-663.58"/>
<polygon fill="black" stroke="black" points="243.5,-663.19 240,-653.19 236.5,-663.19 243.5,-663.19"/>
<text text-anchor="middle" x="258.5" y="-674.8" font-family="Times New Roman,serif" font-size="14.00">return;</text>
</g>
<!-- N8&#45;&gt;N3 -->
<g id="edge12" class="edge">
<title>N8&#45;&gt;N3</title>
<path fill="none" stroke="black" d="M214.42,-716.16C195.91,-711.42 171.52,-702.42 156,-686 148.98,-678.57 144.54,-668.4 141.73,-658.89"/>
<polygon fill="black" stroke="black" points="145.08,-657.85 139.28,-648.99 138.28,-659.53 145.08,-657.85"/>
<text text-anchor="middle" x="196" y="-674.8" font-family="Times New Roman,serif" font-size="14.00">change = true;</text>
</g>
<!-- N8&#45;&gt;N13 -->
<g id="edge10" class="edge">
<title>N8&#45;&gt;N13</title>
<path fill="none" stroke="black" d="M238.29,-740.06C233.87,-784.03 222.08,-901.54 216.72,-954.93"/>
<polygon fill="black" stroke="black" points="213.22,-954.71 215.71,-965.01 220.19,-955.41 213.22,-954.71"/>
<text text-anchor="middle" x="250.5" y="-848.8" font-family="Times New Roman,serif" font-size="14.00">p = null;</text>
</g>
<!-- N14 -->
<g id="node15" class="node">
<title>N14</title>
<ellipse fill="none" stroke="black" cx="299" cy="-18" rx="27" ry="18"/>
<text text-anchor="middle" x="299" y="-14.3" font-family="Times New Roman,serif" font-size="14.00">N84</text>
</g>
<!-- N8&#45;&gt;N14 -->
<g id="edge9" class="edge">
<title>N8&#45;&gt;N14</title>
<path fill="none" stroke="black" d="M258.76,-708.49C266.56,-702.48 275.14,-694.69 281,-686 295.14,-665.02 299,-657.3 299,-632 299,-632 299,-632 299,-104 299,-84.75 299,-63.05 299,-46.4"/>
<polygon fill="black" stroke="black" points="302.5,-46.26 299,-36.26 295.5,-46.26 302.5,-46.26"/>
<text text-anchor="middle" x="338" y="-369.8" font-family="Times New Roman,serif" font-size="14.00">!(1 &lt; head.d)/</text>
<text text-anchor="middle" x="338" y="-354.8" font-family="Times New Roman,serif" font-size="14.00">p = y;</text>
</g>
<!-- N10 -->
<g id="node11" class="node">
<title>N10</title>
<ellipse fill="none" stroke="black" cx="113" cy="-453" rx="27" ry="18"/>
<text text-anchor="middle" x="113" y="-449.3" font-family="Times New Roman,serif" font-size="14.00">N42</text>
</g>
<!-- N9&#45;&gt;N10 -->
<g id="edge13" class="edge">
<title>N9&#45;&gt;N10</title>
<path fill="none" stroke="black" d="M113.8,-521.8C113.66,-510.16 113.48,-494.55 113.32,-481.24"/>
<polygon fill="black" stroke="black" points="116.82,-481.13 113.2,-471.18 109.82,-481.22 116.82,-481.13"/>
<text text-anchor="middle" x="133.5" y="-492.8" font-family="Times New Roman,serif" font-size="14.00">y.n = t;</text>
</g>
<!-- N10&#45;&gt;N6 -->
<g id="edge14" class="edge">
<title>N10&#45;&gt;N6</title>
<path fill="none" stroke="black" d="M111.99,-434.8C111.3,-423.16 110.39,-407.55 109.6,-394.24"/>
<polygon fill="black" stroke="black" points="113.09,-393.95 109.01,-384.18 106.1,-394.36 113.09,-393.95"/>
<text text-anchor="middle" x="135.5" y="-405.8" font-family="Times New Roman,serif" font-size="14.00">yn.n = y;</text>
</g>
<!-- N11 -->
<g id="node12" class="node">
<title>N11</title>
<ellipse fill="none" stroke="black" cx="156" cy="-105" rx="27" ry="18"/>
<text text-anchor="middle" x="156" y="-101.3" font-family="Times New Roman,serif" font-size="14.00">N46</text>
</g>
<!-- N11&#45;&gt;N3 -->
<g id="edge16" class="edge">
<title>N11&#45;&gt;N3</title>
<path fill="none" stroke="black" d="M164.39,-122.13C172.32,-138.88 183,-166.07 183,-191 183,-541 183,-541 183,-541 183,-564.08 179.66,-570.53 169,-591 165.97,-596.81 161.98,-602.56 157.85,-607.78"/>
<polygon fill="black" stroke="black" points="155.12,-605.58 151.36,-615.49 160.48,-610.09 155.12,-605.58"/>
<text text-anchor="middle" x="223" y="-369.8" font-family="Times New Roman,serif" font-size="14.00">!(yn == null)/</text>
<text text-anchor="middle" x="223" y="-354.8" font-family="Times New Roman,serif" font-size="14.00">change = true;</text>
</g>
<!-- N11&#45;&gt;N13 -->
<g id="edge15" class="edge">
<title>N11&#45;&gt;N13</title>
<path fill="none" stroke="black" d="M129.18,-108.49C84.58,-114.26 0,-132.86 0,-191 0,-897 0,-897 0,-897 0,-934.88 117.3,-963.26 178.22,-975.45"/>
<polygon fill="black" stroke="black" points="177.7,-978.91 188.19,-977.4 179.04,-972.04 177.7,-978.91"/>
<text text-anchor="middle" x="23.5" y="-536.3" font-family="Times New Roman,serif" font-size="14.00">p = null;</text>
</g>
<!-- N11&#45;&gt;N14 -->
<g id="edge17" class="edge">
<title>N11&#45;&gt;N14</title>
<path fill="none" stroke="black" d="M175.58,-92.36C200.05,-77.82 242.11,-52.82 270.24,-36.1"/>
<polygon fill="black" stroke="black" points="272.39,-38.89 279.19,-30.77 268.81,-32.87 272.39,-38.89"/>
<text text-anchor="middle" x="253" y="-57.8" font-family="Times New Roman,serif" font-size="14.00">p = y;</text>
</g>
<!-- N12&#45;&gt;N11 -->
<g id="edge18" class="edge">
<title>N12&#45;&gt;N11</title>
<path fill="none" stroke="black" d="M120.74,-173.85C123.24,-163.96 126.99,-151.46 132,-141 133.77,-137.29 135.91,-133.54 138.18,-129.94"/>
<polygon fill="black" stroke="black" points="141.24,-131.65 143.92,-121.4 135.43,-127.75 141.24,-131.65"/>
<text text-anchor="middle" x="150.5" y="-144.8" font-family="Times New Roman,serif" font-size="14.00">yn = t;</text>
</g>
<!-- N13&#45;&gt;N5 -->
<g id="edge19" class="edge">
<title>N13&#45;&gt;N5</title>
<path fill="none" stroke="black" d="M225.37,-966.41C234.72,-953.59 248.12,-935.22 258.79,-920.6"/>
<polygon fill="black" stroke="black" points="261.63,-922.63 264.7,-912.49 255.98,-918.51 261.63,-922.63"/>
<text text-anchor="middle" x="290.5" y="-935.8" font-family="Times New Roman,serif" font-size="14.00">change = false;</text>
</g>
<!-- N14&#45;&gt;N7 -->
<g id="edge20" class="edge">
<title>N14&#45;&gt;N7</title>
<path fill="none" stroke="black" d="M323.05,-26.36C354.33,-37.6 405,-62.25 405,-104 405,-723 405,-723 405,-723 405,-765.36 354.74,-788.42 319.01,-799.47"/>
<polygon fill="black" stroke="black" points="317.99,-796.12 309.37,-802.27 319.95,-802.84 317.99,-796.12"/>
<text text-anchor="middle" x="425" y="-405.8" font-family="Times New Roman,serif" font-size="14.00">y = yn;</text>
</g>
</g>
</svg>
