<?xml version="1.0" encoding="UTF-8" standalone="no"?>
<!DOCTYPE svg PUBLIC "-//W3C//DTD SVG 1.1//EN"
 "http://www.w3.org/Graphics/SVG/1.1/DTD/svg11.dtd">
<!-- Generated by graphviz version 2.46.1 (20210213.1702)
 -->
<!-- Title: anonymous_graph Pages: 1 -->
<svg width="536pt" height="3031pt"
 viewBox="0.00 0.00 536.00 3031.00" xmlns="http://www.w3.org/2000/svg" xmlns:xlink="http://www.w3.org/1999/xlink">
<g id="graph0" class="graph" transform="scale(1 1) rotate(0) translate(4 3027)">
<title>anonymous_graph</title>
<polygon fill="white" stroke="transparent" points="-4,4 -4,-3027 532,-3027 532,4 -4,4"/>
<!-- N0 -->
<g id="node1" class="node">
<title>N0</title>
<ellipse fill="none" stroke="black" cx="309" cy="-3005" rx="29.5" ry="18"/>
<text text-anchor="middle" x="309" y="-3001.3" font-family="Times New Roman,serif" font-size="14.00">initial</text>
</g>
<!-- N2 -->
<g id="node3" class="node">
<title>N2</title>
<ellipse fill="none" stroke="black" cx="309" cy="-2918" rx="27" ry="18"/>
<text text-anchor="middle" x="309" y="-2914.3" font-family="Times New Roman,serif" font-size="14.00">N1</text>
</g>
<!-- N0&#45;&gt;N2 -->
<g id="edge1" class="edge">
<title>N0&#45;&gt;N2</title>
<path fill="none" stroke="black" d="M309,-2986.8C309,-2975.16 309,-2959.55 309,-2946.24"/>
<polygon fill="black" stroke="black" points="312.5,-2946.18 309,-2936.18 305.5,-2946.18 312.5,-2946.18"/>
<text text-anchor="middle" x="349" y="-2957.8" font-family="Times New Roman,serif" font-size="14.00">change = true;</text>
</g>
<!-- N1 -->
<g id="node2" class="node">
<title>N1</title>
<ellipse fill="none" stroke="black" cx="134" cy="-109" rx="27" ry="18"/>
<ellipse fill="none" stroke="black" cx="134" cy="-109" rx="31" ry="22"/>
<text text-anchor="middle" x="134" y="-105.3" font-family="Times New Roman,serif" font-size="14.00">final</text>
</g>
<!-- N3 -->
<g id="node4" class="node">
<title>N3</title>
<ellipse fill="none" stroke="black" cx="309" cy="-2831" rx="27" ry="18"/>
<text text-anchor="middle" x="309" y="-2827.3" font-family="Times New Roman,serif" font-size="14.00">N2</text>
</g>
<!-- N2&#45;&gt;N3 -->
<g id="edge2" class="edge">
<title>N2&#45;&gt;N3</title>
<path fill="none" stroke="black" d="M309,-2899.8C309,-2888.16 309,-2872.55 309,-2859.24"/>
<polygon fill="black" stroke="black" points="312.5,-2859.18 309,-2849.18 305.5,-2859.18 312.5,-2859.18"/>
<text text-anchor="middle" x="332.5" y="-2870.8" font-family="Times New Roman,serif" font-size="14.00">p = null;</text>
</g>
<!-- N4 -->
<g id="node5" class="node">
<title>N4</title>
<ellipse fill="none" stroke="black" cx="309" cy="-2744" rx="27" ry="18"/>
<text text-anchor="middle" x="309" y="-2740.3" font-family="Times New Roman,serif" font-size="14.00">N3</text>
</g>
<!-- N3&#45;&gt;N4 -->
<g id="edge3" class="edge">
<title>N3&#45;&gt;N4</title>
<path fill="none" stroke="black" d="M309,-2812.8C309,-2801.16 309,-2785.55 309,-2772.24"/>
<polygon fill="black" stroke="black" points="312.5,-2772.18 309,-2762.18 305.5,-2772.18 312.5,-2772.18"/>
<text text-anchor="middle" x="351.5" y="-2783.8" font-family="Times New Roman,serif" font-size="14.00">change = false;</text>
</g>
<!-- N5 -->
<g id="node6" class="node">
<title>N5</title>
<ellipse fill="none" stroke="black" cx="309" cy="-2657" rx="27" ry="18"/>
<text text-anchor="middle" x="309" y="-2653.3" font-family="Times New Roman,serif" font-size="14.00">N4</text>
</g>
<!-- N4&#45;&gt;N5 -->
<g id="edge4" class="edge">
<title>N4&#45;&gt;N5</title>
<path fill="none" stroke="black" d="M309,-2725.8C309,-2714.16 309,-2698.55 309,-2685.24"/>
<polygon fill="black" stroke="black" points="312.5,-2685.18 309,-2675.18 305.5,-2685.18 312.5,-2685.18"/>
<text text-anchor="middle" x="335.5" y="-2696.8" font-family="Times New Roman,serif" font-size="14.00">y = head;</text>
</g>
<!-- N6 -->
<g id="node7" class="node">
<title>N6</title>
<ellipse fill="none" stroke="black" cx="309" cy="-2570" rx="27" ry="18"/>
<text text-anchor="middle" x="309" y="-2566.3" font-family="Times New Roman,serif" font-size="14.00">N5</text>
</g>
<!-- N5&#45;&gt;N6 -->
<g id="edge5" class="edge">
<title>N5&#45;&gt;N6</title>
<path fill="none" stroke="black" d="M309,-2638.8C309,-2627.16 309,-2611.55 309,-2598.24"/>
<polygon fill="black" stroke="black" points="312.5,-2598.18 309,-2588.18 305.5,-2598.18 312.5,-2598.18"/>
<text text-anchor="middle" x="334.5" y="-2609.8" font-family="Times New Roman,serif" font-size="14.00">yn = y.n;</text>
</g>
<!-- N7 -->
<g id="node8" class="node">
<title>N7</title>
<ellipse fill="none" stroke="black" cx="258" cy="-2414" rx="27" ry="18"/>
<text text-anchor="middle" x="258" y="-2410.3" font-family="Times New Roman,serif" font-size="14.00">N6</text>
</g>
<!-- N6&#45;&gt;N7 -->
<g id="edge6" class="edge">
<title>N6&#45;&gt;N7</title>
<path fill="none" stroke="black" d="M286.01,-2560.39C274.49,-2554.76 261.62,-2546.17 255,-2534 239.54,-2505.56 244.12,-2467.38 250.01,-2442.02"/>
<polygon fill="black" stroke="black" points="253.48,-2442.55 252.55,-2432 246.7,-2440.83 253.48,-2442.55"/>
<text text-anchor="middle" x="295" y="-2522.8" font-family="Times New Roman,serif" font-size="14.00">!(0 &lt; yn.d)/</text>
<text text-anchor="middle" x="295" y="-2507.8" font-family="Times New Roman,serif" font-size="14.00">change = true;</text>
</g>
<!-- N22 -->
<g id="node23" class="node">
<title>N22</title>
<ellipse fill="none" stroke="black" cx="361" cy="-2468" rx="27" ry="18"/>
<text text-anchor="middle" x="361" y="-2464.3" font-family="Times New Roman,serif" font-size="14.00">N37</text>
</g>
<!-- N6&#45;&gt;N22 -->
<g id="edge7" class="edge">
<title>N6&#45;&gt;N22</title>
<path fill="none" stroke="black" d="M323.51,-2554.63C328.94,-2548.64 334.8,-2541.37 339,-2534 345.7,-2522.23 350.79,-2508.09 354.38,-2496.01"/>
<polygon fill="black" stroke="black" points="357.84,-2496.61 357.14,-2486.04 351.1,-2494.74 357.84,-2496.61"/>
<text text-anchor="middle" x="377" y="-2522.8" font-family="Times New Roman,serif" font-size="14.00">0 &lt; yn.d/</text>
<text text-anchor="middle" x="377" y="-2507.8" font-family="Times New Roman,serif" font-size="14.00">p = y;</text>
</g>
<!-- N26 -->
<g id="node27" class="node">
<title>N26</title>
<ellipse fill="none" stroke="black" cx="258" cy="-2084" rx="27" ry="18"/>
<text text-anchor="middle" x="258" y="-2080.3" font-family="Times New Roman,serif" font-size="14.00">N41</text>
</g>
<!-- N7&#45;&gt;N26 -->
<g id="edge8" class="edge">
<title>N7&#45;&gt;N26</title>
<path fill="none" stroke="black" d="M258,-2395.75C258,-2376.62 258,-2344.86 258,-2317.5 258,-2317.5 258,-2317.5 258,-2170 258,-2150.75 258,-2129.05 258,-2112.4"/>
<polygon fill="black" stroke="black" points="261.5,-2112.26 258,-2102.26 254.5,-2112.26 261.5,-2112.26"/>
<text text-anchor="middle" x="282" y="-2269.3" font-family="Times New Roman,serif" font-size="14.00">t = yn.n;</text>
</g>
<!-- N8 -->
<g id="node9" class="node">
<title>N8</title>
<ellipse fill="none" stroke="black" cx="184" cy="-1997" rx="27" ry="18"/>
<text text-anchor="middle" x="184" y="-1993.3" font-family="Times New Roman,serif" font-size="14.00">N8</text>
</g>
<!-- N9 -->
<g id="node10" class="node">
<title>N9</title>
<ellipse fill="none" stroke="black" cx="176" cy="-1910" rx="27" ry="18"/>
<text text-anchor="middle" x="176" y="-1906.3" font-family="Times New Roman,serif" font-size="14.00">N9</text>
</g>
<!-- N8&#45;&gt;N9 -->
<g id="edge9" class="edge">
<title>N8&#45;&gt;N9</title>
<path fill="none" stroke="black" d="M182.38,-1978.8C181.29,-1967.16 179.82,-1951.55 178.56,-1938.24"/>
<polygon fill="black" stroke="black" points="182.04,-1937.8 177.62,-1928.18 175.07,-1938.46 182.04,-1937.8"/>
<text text-anchor="middle" x="205.5" y="-1949.8" font-family="Times New Roman,serif" font-size="14.00">yn.n = y;</text>
</g>
<!-- N10 -->
<g id="node11" class="node">
<title>N10</title>
<ellipse fill="none" stroke="black" cx="173" cy="-1823" rx="27" ry="18"/>
<text text-anchor="middle" x="173" y="-1819.3" font-family="Times New Roman,serif" font-size="14.00">N10</text>
</g>
<!-- N9&#45;&gt;N10 -->
<g id="edge10" class="edge">
<title>N9&#45;&gt;N10</title>
<path fill="none" stroke="black" d="M175.39,-1891.8C174.98,-1880.16 174.43,-1864.55 173.96,-1851.24"/>
<polygon fill="black" stroke="black" points="177.46,-1851.05 173.61,-1841.18 170.46,-1851.29 177.46,-1851.05"/>
<text text-anchor="middle" x="204" y="-1862.8" font-family="Times New Roman,serif" font-size="14.00">head = yn;</text>
</g>
<!-- N30 -->
<g id="node31" class="node">
<title>N30</title>
<ellipse fill="none" stroke="black" cx="173" cy="-1715" rx="27" ry="18"/>
<text text-anchor="middle" x="173" y="-1711.3" font-family="Times New Roman,serif" font-size="14.00">N52</text>
</g>
<!-- N10&#45;&gt;N30 -->
<g id="edge11" class="edge">
<title>N10&#45;&gt;N30</title>
<path fill="none" stroke="black" d="M173,-1804.97C173,-1788.38 173,-1762.88 173,-1743.43"/>
<polygon fill="black" stroke="black" points="176.5,-1743.34 173,-1733.34 169.5,-1743.34 176.5,-1743.34"/>
<text text-anchor="middle" x="193.5" y="-1765.3" font-family="Times New Roman,serif" font-size="14.00">p = yn;</text>
</g>
<!-- N11 -->
<g id="node12" class="node">
<title>N11</title>
<ellipse fill="none" stroke="black" cx="104" cy="-1439" rx="27" ry="18"/>
<text text-anchor="middle" x="104" y="-1435.3" font-family="Times New Roman,serif" font-size="14.00">N14</text>
</g>
<!-- N18 -->
<g id="node19" class="node">
<title>N18</title>
<ellipse fill="none" stroke="black" cx="110" cy="-1352" rx="27" ry="18"/>
<text text-anchor="middle" x="110" y="-1348.3" font-family="Times New Roman,serif" font-size="14.00">N29</text>
</g>
<!-- N11&#45;&gt;N18 -->
<g id="edge12" class="edge">
<title>N11&#45;&gt;N18</title>
<path fill="none" stroke="black" d="M105.21,-1420.8C106.04,-1409.16 107.14,-1393.55 108.08,-1380.24"/>
<polygon fill="black" stroke="black" points="111.57,-1380.4 108.79,-1370.18 104.59,-1379.9 111.57,-1380.4"/>
<text text-anchor="middle" x="134.5" y="-1391.8" font-family="Times New Roman,serif" font-size="14.00">y = head;</text>
</g>
<!-- N12 -->
<g id="node13" class="node">
<title>N12</title>
<ellipse fill="none" stroke="black" cx="113" cy="-1265" rx="27" ry="18"/>
<text text-anchor="middle" x="113" y="-1261.3" font-family="Times New Roman,serif" font-size="14.00">N16</text>
</g>
<!-- N19 -->
<g id="node20" class="node">
<title>N19</title>
<ellipse fill="none" stroke="black" cx="114" cy="-1178" rx="27" ry="18"/>
<text text-anchor="middle" x="114" y="-1174.3" font-family="Times New Roman,serif" font-size="14.00">N31</text>
</g>
<!-- N12&#45;&gt;N19 -->
<g id="edge13" class="edge">
<title>N12&#45;&gt;N19</title>
<path fill="none" stroke="black" d="M113.2,-1246.8C113.34,-1235.16 113.52,-1219.55 113.68,-1206.24"/>
<polygon fill="black" stroke="black" points="117.18,-1206.22 113.8,-1196.18 110.18,-1206.13 117.18,-1206.22"/>
<text text-anchor="middle" x="131" y="-1217.8" font-family="Times New Roman,serif" font-size="14.00">p = y;</text>
</g>
<!-- N13 -->
<g id="node14" class="node">
<title>N13</title>
<ellipse fill="none" stroke="black" cx="211" cy="-200" rx="27" ry="18"/>
<text text-anchor="middle" x="211" y="-196.3" font-family="Times New Roman,serif" font-size="14.00">N19</text>
</g>
<!-- N13&#45;&gt;N1 -->
<g id="edge14" class="edge">
<title>N13&#45;&gt;N1</title>
<path fill="none" stroke="black" d="M193.2,-186.11C185.29,-179.92 176.18,-172.1 169,-164 162.12,-156.25 155.63,-147.02 150.15,-138.41"/>
<polygon fill="black" stroke="black" points="153.05,-136.43 144.84,-129.74 147.08,-140.1 153.05,-136.43"/>
<text text-anchor="middle" x="187.5" y="-152.8" font-family="Times New Roman,serif" font-size="14.00">return;</text>
</g>
<!-- N20 -->
<g id="node21" class="node">
<title>N20</title>
<ellipse fill="none" stroke="black" cx="210" cy="-109" rx="27" ry="18"/>
<text text-anchor="middle" x="210" y="-105.3" font-family="Times New Roman,serif" font-size="14.00">N34</text>
</g>
<!-- N13&#45;&gt;N20 -->
<g id="edge16" class="edge">
<title>N13&#45;&gt;N20</title>
<path fill="none" stroke="black" d="M210.81,-181.84C210.67,-169.28 210.47,-151.98 210.31,-137.5"/>
<polygon fill="black" stroke="black" points="213.8,-137.07 210.19,-127.11 206.8,-137.15 213.8,-137.07"/>
<text text-anchor="middle" x="227" y="-152.8" font-family="Times New Roman,serif" font-size="14.00">p = y;</text>
</g>
<!-- N32 -->
<g id="node33" class="node">
<title>N32</title>
<ellipse fill="none" stroke="black" cx="385" cy="-109" rx="27" ry="18"/>
<text text-anchor="middle" x="385" y="-105.3" font-family="Times New Roman,serif" font-size="14.00">N61</text>
</g>
<!-- N13&#45;&gt;N32 -->
<g id="edge15" class="edge">
<title>N13&#45;&gt;N32</title>
<path fill="none" stroke="black" d="M233.1,-189.32C247.78,-182.67 267.34,-173.37 284,-164 294.64,-158.02 296.41,-155.07 307,-149 322.3,-140.23 339.82,-131.36 354.38,-124.31"/>
<polygon fill="black" stroke="black" points="355.96,-127.43 363.47,-119.95 352.94,-121.12 355.96,-127.43"/>
<text text-anchor="middle" x="347" y="-152.8" font-family="Times New Roman,serif" font-size="14.00">change = true;</text>
</g>
<!-- N14 -->
<g id="node15" class="node">
<title>N14</title>
<ellipse fill="none" stroke="black" cx="295" cy="-1526" rx="27" ry="18"/>
<text text-anchor="middle" x="295" y="-1522.3" font-family="Times New Roman,serif" font-size="14.00">N20</text>
</g>
<!-- N14&#45;&gt;N26 -->
<g id="edge17" class="edge">
<title>N14&#45;&gt;N26</title>
<path fill="none" stroke="black" d="M303.4,-1543.44C306.11,-1549.2 308.94,-1555.79 311,-1562 320.31,-1590.05 325,-1597.45 325,-1627 325,-1998 325,-1998 325,-1998 325,-2022.28 317.93,-2028.85 303,-2048 298.15,-2054.23 291.95,-2059.97 285.72,-2064.93"/>
<polygon fill="black" stroke="black" points="283.26,-2062.39 277.32,-2071.17 287.43,-2068.01 283.26,-2062.39"/>
<text text-anchor="middle" x="349" y="-1819.3" font-family="Times New Roman,serif" font-size="14.00">t = yn.n;</text>
</g>
<!-- N15 -->
<g id="node16" class="node">
<title>N15</title>
<ellipse fill="none" stroke="black" cx="30" cy="-1997" rx="27" ry="18"/>
<text text-anchor="middle" x="30" y="-1993.3" font-family="Times New Roman,serif" font-size="14.00">N22</text>
</g>
<!-- N16 -->
<g id="node17" class="node">
<title>N16</title>
<ellipse fill="none" stroke="black" cx="27" cy="-1910" rx="27" ry="18"/>
<text text-anchor="middle" x="27" y="-1906.3" font-family="Times New Roman,serif" font-size="14.00">N23</text>
</g>
<!-- N15&#45;&gt;N16 -->
<g id="edge18" class="edge">
<title>N15&#45;&gt;N16</title>
<path fill="none" stroke="black" d="M29.39,-1978.8C28.98,-1967.16 28.43,-1951.55 27.96,-1938.24"/>
<polygon fill="black" stroke="black" points="31.46,-1938.05 27.61,-1928.18 24.46,-1938.29 31.46,-1938.05"/>
<text text-anchor="middle" x="54.5" y="-1949.8" font-family="Times New Roman,serif" font-size="14.00">yn.n = y;</text>
</g>
<!-- N16&#45;&gt;N10 -->
<g id="edge19" class="edge">
<title>N16&#45;&gt;N10</title>
<path fill="none" stroke="black" d="M32.36,-1891.91C36.61,-1881.03 43.57,-1867.45 54,-1859 77.38,-1840.06 110.7,-1831.37 136.13,-1827.38"/>
<polygon fill="black" stroke="black" points="136.73,-1830.83 146.15,-1825.98 135.76,-1823.9 136.73,-1830.83"/>
<text text-anchor="middle" x="80" y="-1862.8" font-family="Times New Roman,serif" font-size="14.00">p.n = yn;</text>
</g>
<!-- N17 -->
<g id="node18" class="node">
<title>N17</title>
<ellipse fill="none" stroke="black" cx="103" cy="-1526" rx="27" ry="18"/>
<text text-anchor="middle" x="103" y="-1522.3" font-family="Times New Roman,serif" font-size="14.00">N27</text>
</g>
<!-- N17&#45;&gt;N11 -->
<g id="edge20" class="edge">
<title>N17&#45;&gt;N11</title>
<path fill="none" stroke="black" d="M103.2,-1507.8C103.34,-1496.16 103.52,-1480.55 103.68,-1467.24"/>
<polygon fill="black" stroke="black" points="107.18,-1467.22 103.8,-1457.18 100.18,-1467.13 107.18,-1467.22"/>
<text text-anchor="middle" x="146.5" y="-1478.8" font-family="Times New Roman,serif" font-size="14.00">change = false;</text>
</g>
<!-- N18&#45;&gt;N12 -->
<g id="edge21" class="edge">
<title>N18&#45;&gt;N12</title>
<path fill="none" stroke="black" d="M110.61,-1333.8C111.02,-1322.16 111.57,-1306.55 112.04,-1293.24"/>
<polygon fill="black" stroke="black" points="115.54,-1293.29 112.39,-1283.18 108.54,-1293.05 115.54,-1293.29"/>
<text text-anchor="middle" x="137.5" y="-1304.8" font-family="Times New Roman,serif" font-size="14.00">yn = y.n;</text>
</g>
<!-- N31 -->
<g id="node32" class="node">
<title>N31</title>
<ellipse fill="none" stroke="black" cx="114" cy="-1037" rx="27" ry="18"/>
<text text-anchor="middle" x="114" y="-1033.3" font-family="Times New Roman,serif" font-size="14.00">N59</text>
</g>
<!-- N19&#45;&gt;N31 -->
<g id="edge22" class="edge">
<title>N19&#45;&gt;N31</title>
<path fill="none" stroke="black" d="M114,-1159.96C114,-1136.4 114,-1093.64 114,-1065.53"/>
<polygon fill="black" stroke="black" points="117.5,-1065.18 114,-1055.18 110.5,-1065.18 117.5,-1065.18"/>
<text text-anchor="middle" x="134" y="-1130.8" font-family="Times New Roman,serif" font-size="14.00">y = yn;</text>
</g>
<!-- N21 -->
<g id="node22" class="node">
<title>N21</title>
<ellipse fill="none" stroke="black" cx="243" cy="-18" rx="27" ry="18"/>
<text text-anchor="middle" x="243" y="-14.3" font-family="Times New Roman,serif" font-size="14.00">N35</text>
</g>
<!-- N20&#45;&gt;N21 -->
<g id="edge23" class="edge">
<title>N20&#45;&gt;N21</title>
<path fill="none" stroke="black" d="M210.94,-90.95C212,-80.05 214.24,-65.81 219,-54 220.54,-50.19 222.54,-46.38 224.74,-42.74"/>
<polygon fill="black" stroke="black" points="227.81,-44.45 230.44,-34.19 221.98,-40.57 227.81,-44.45"/>
<text text-anchor="middle" x="239" y="-57.8" font-family="Times New Roman,serif" font-size="14.00">y = yn;</text>
</g>
<!-- N21&#45;&gt;N13 -->
<g id="edge24" class="edge">
<title>N21&#45;&gt;N13</title>
<path fill="none" stroke="black" d="M252.17,-35.23C254.94,-40.97 257.61,-47.6 259,-54 269.45,-102.01 270,-120.07 248,-164 245.21,-169.57 241.15,-174.73 236.74,-179.28"/>
<polygon fill="black" stroke="black" points="234.09,-176.96 229.13,-186.32 238.84,-182.09 234.09,-176.96"/>
<text text-anchor="middle" x="290.5" y="-105.3" font-family="Times New Roman,serif" font-size="14.00">yn = y.n;</text>
</g>
<!-- N23 -->
<g id="node24" class="node">
<title>N23</title>
<ellipse fill="none" stroke="black" cx="361" cy="-2360" rx="27" ry="18"/>
<text text-anchor="middle" x="361" y="-2356.3" font-family="Times New Roman,serif" font-size="14.00">N38</text>
</g>
<!-- N22&#45;&gt;N23 -->
<g id="edge25" class="edge">
<title>N22&#45;&gt;N23</title>
<path fill="none" stroke="black" d="M361,-2449.97C361,-2433.38 361,-2407.88 361,-2388.43"/>
<polygon fill="black" stroke="black" points="364.5,-2388.34 361,-2378.34 357.5,-2388.34 364.5,-2388.34"/>
<text text-anchor="middle" x="381" y="-2410.3" font-family="Times New Roman,serif" font-size="14.00">y = yn;</text>
</g>
<!-- N24 -->
<g id="node25" class="node">
<title>N24</title>
<ellipse fill="none" stroke="black" cx="361" cy="-2273" rx="27" ry="18"/>
<text text-anchor="middle" x="361" y="-2269.3" font-family="Times New Roman,serif" font-size="14.00">N39</text>
</g>
<!-- N23&#45;&gt;N24 -->
<g id="edge26" class="edge">
<title>N23&#45;&gt;N24</title>
<path fill="none" stroke="black" d="M361,-2341.8C361,-2330.16 361,-2314.55 361,-2301.24"/>
<polygon fill="black" stroke="black" points="364.5,-2301.18 361,-2291.18 357.5,-2301.18 364.5,-2301.18"/>
<text text-anchor="middle" x="386.5" y="-2312.8" font-family="Times New Roman,serif" font-size="14.00">yn = y.n;</text>
</g>
<!-- N25 -->
<g id="node26" class="node">
<title>N25</title>
<ellipse fill="none" stroke="black" cx="315" cy="-2171" rx="27" ry="18"/>
<text text-anchor="middle" x="315" y="-2167.3" font-family="Times New Roman,serif" font-size="14.00">N40</text>
</g>
<!-- N24&#45;&gt;N25 -->
<g id="edge27" class="edge">
<title>N24&#45;&gt;N25</title>
<path fill="none" stroke="black" d="M345.04,-2258.02C339.18,-2252.09 333,-2244.76 329,-2237 322.98,-2225.34 319.55,-2211.21 317.59,-2199.11"/>
<polygon fill="black" stroke="black" points="321.04,-2198.55 316.22,-2189.12 314.11,-2199.5 321.04,-2198.55"/>
<text text-anchor="middle" x="369" y="-2225.8" font-family="Times New Roman,serif" font-size="14.00">1 &lt; head.d/</text>
<text text-anchor="middle" x="369" y="-2210.8" font-family="Times New Roman,serif" font-size="14.00">change = true;</text>
</g>
<!-- N50 -->
<g id="node51" class="node">
<title>N50</title>
<ellipse fill="none" stroke="black" cx="432" cy="-2171" rx="27" ry="18"/>
<text text-anchor="middle" x="432" y="-2167.3" font-family="Times New Roman,serif" font-size="14.00">N84</text>
</g>
<!-- N24&#45;&gt;N50 -->
<g id="edge28" class="edge">
<title>N24&#45;&gt;N50</title>
<path fill="none" stroke="black" d="M381.47,-2260.96C390.96,-2254.96 401.73,-2246.76 409,-2237 417.33,-2225.83 422.84,-2211.38 426.37,-2198.94"/>
<polygon fill="black" stroke="black" points="429.8,-2199.63 428.89,-2189.08 423.02,-2197.9 429.8,-2199.63"/>
<text text-anchor="middle" x="462" y="-2225.8" font-family="Times New Roman,serif" font-size="14.00">!(1 &lt; head.d)/</text>
<text text-anchor="middle" x="462" y="-2210.8" font-family="Times New Roman,serif" font-size="14.00">p = y;</text>
</g>
<!-- N25&#45;&gt;N26 -->
<g id="edge29" class="edge">
<title>N25&#45;&gt;N26</title>
<path fill="none" stroke="black" d="M304.28,-2154.01C295.79,-2141.35 283.79,-2123.45 274.13,-2109.06"/>
<polygon fill="black" stroke="black" points="276.96,-2106.99 268.48,-2100.63 271.14,-2110.88 276.96,-2106.99"/>
<text text-anchor="middle" x="313" y="-2123.8" font-family="Times New Roman,serif" font-size="14.00">t = yn.n;</text>
</g>
<!-- N26&#45;&gt;N8 -->
<g id="edge30" class="edge">
<title>N26&#45;&gt;N8</title>
<path fill="none" stroke="black" d="M239.12,-2070.81C230.5,-2064.65 220.55,-2056.65 213,-2048 206.57,-2040.64 200.84,-2031.65 196.21,-2023.33"/>
<polygon fill="black" stroke="black" points="199.22,-2021.55 191.46,-2014.34 193.03,-2024.82 199.22,-2021.55"/>
<text text-anchor="middle" x="233.5" y="-2036.8" font-family="Times New Roman,serif" font-size="14.00">y.n = t;</text>
</g>
<!-- N26&#45;&gt;N15 -->
<g id="edge31" class="edge">
<title>N26&#45;&gt;N15</title>
<path fill="none" stroke="black" d="M231.27,-2081.01C197.81,-2077.7 139.37,-2069.18 94,-2048 78.64,-2040.83 63.58,-2029.36 51.94,-2019.22"/>
<polygon fill="black" stroke="black" points="54.24,-2016.57 44.46,-2012.48 49.55,-2021.77 54.24,-2016.57"/>
<text text-anchor="middle" x="114.5" y="-2036.8" font-family="Times New Roman,serif" font-size="14.00">y.n = t;</text>
</g>
<!-- N27 -->
<g id="node28" class="node">
<title>N27</title>
<ellipse fill="none" stroke="black" cx="258" cy="-1997" rx="27" ry="18"/>
<text text-anchor="middle" x="258" y="-1993.3" font-family="Times New Roman,serif" font-size="14.00">N42</text>
</g>
<!-- N26&#45;&gt;N27 -->
<g id="edge33" class="edge">
<title>N26&#45;&gt;N27</title>
<path fill="none" stroke="black" d="M258,-2065.8C258,-2054.16 258,-2038.55 258,-2025.24"/>
<polygon fill="black" stroke="black" points="261.5,-2025.18 258,-2015.18 254.5,-2025.18 261.5,-2025.18"/>
<text text-anchor="middle" x="278.5" y="-2036.8" font-family="Times New Roman,serif" font-size="14.00">y.n = t;</text>
</g>
<!-- N33 -->
<g id="node34" class="node">
<title>N33</title>
<ellipse fill="none" stroke="black" cx="109" cy="-1997" rx="27" ry="18"/>
<text text-anchor="middle" x="109" y="-1993.3" font-family="Times New Roman,serif" font-size="14.00">N63</text>
</g>
<!-- N26&#45;&gt;N33 -->
<g id="edge32" class="edge">
<title>N26&#45;&gt;N33</title>
<path fill="none" stroke="black" d="M232.45,-2077.69C211.09,-2072.45 180.44,-2063.01 157,-2048 145.87,-2040.87 135.46,-2030.66 127.19,-2021.32"/>
<polygon fill="black" stroke="black" points="129.65,-2018.8 120.52,-2013.43 124.31,-2023.33 129.65,-2018.8"/>
<text text-anchor="middle" x="177.5" y="-2036.8" font-family="Times New Roman,serif" font-size="14.00">y.n = t;</text>
</g>
<!-- N28 -->
<g id="node29" class="node">
<title>N28</title>
<ellipse fill="none" stroke="black" cx="258" cy="-1910" rx="27" ry="18"/>
<text text-anchor="middle" x="258" y="-1906.3" font-family="Times New Roman,serif" font-size="14.00">N43</text>
</g>
<!-- N27&#45;&gt;N28 -->
<g id="edge34" class="edge">
<title>N27&#45;&gt;N28</title>
<path fill="none" stroke="black" d="M258,-1978.8C258,-1967.16 258,-1951.55 258,-1938.24"/>
<polygon fill="black" stroke="black" points="261.5,-1938.18 258,-1928.18 254.5,-1938.18 261.5,-1938.18"/>
<text text-anchor="middle" x="283.5" y="-1949.8" font-family="Times New Roman,serif" font-size="14.00">yn.n = y;</text>
</g>
<!-- N28&#45;&gt;N10 -->
<g id="edge35" class="edge">
<title>N28&#45;&gt;N10</title>
<path fill="none" stroke="black" d="M253.61,-1892.16C250.19,-1881.65 244.56,-1868.39 236,-1859 227.59,-1849.77 216.17,-1842.42 205.36,-1836.89"/>
<polygon fill="black" stroke="black" points="206.64,-1833.62 196.1,-1832.49 203.63,-1839.94 206.64,-1833.62"/>
<text text-anchor="middle" x="271" y="-1862.8" font-family="Times New Roman,serif" font-size="14.00">p.n = yn;</text>
</g>
<!-- N29 -->
<g id="node30" class="node">
<title>N29</title>
<ellipse fill="none" stroke="black" cx="173" cy="-1628" rx="27" ry="18"/>
<text text-anchor="middle" x="173" y="-1624.3" font-family="Times New Roman,serif" font-size="14.00">N46</text>
</g>
<!-- N29&#45;&gt;N14 -->
<g id="edge37" class="edge">
<title>N29&#45;&gt;N14</title>
<path fill="none" stroke="black" d="M188.09,-1612.77C194.43,-1606.57 201.77,-1599.11 208,-1592 219.08,-1579.37 218.24,-1572.93 231,-1562 240.67,-1553.71 252.61,-1546.54 263.56,-1540.88"/>
<polygon fill="black" stroke="black" points="265.41,-1543.87 272.83,-1536.3 262.32,-1537.59 265.41,-1543.87"/>
<text text-anchor="middle" x="271" y="-1580.8" font-family="Times New Roman,serif" font-size="14.00">!(yn == null)/</text>
<text text-anchor="middle" x="271" y="-1565.8" font-family="Times New Roman,serif" font-size="14.00">change = true;</text>
</g>
<!-- N29&#45;&gt;N17 -->
<g id="edge36" class="edge">
<title>N29&#45;&gt;N17</title>
<path fill="none" stroke="black" d="M150.87,-1617.54C139.75,-1611.71 126.97,-1603.2 119,-1592 111.23,-1581.09 107.22,-1566.83 105.15,-1554.45"/>
<polygon fill="black" stroke="black" points="108.57,-1553.63 103.79,-1544.18 101.63,-1554.55 108.57,-1553.63"/>
<text text-anchor="middle" x="142.5" y="-1573.3" font-family="Times New Roman,serif" font-size="14.00">p = null;</text>
</g>
<!-- N35 -->
<g id="node36" class="node">
<title>N35</title>
<ellipse fill="none" stroke="black" cx="193" cy="-1526" rx="27" ry="18"/>
<text text-anchor="middle" x="193" y="-1522.3" font-family="Times New Roman,serif" font-size="14.00">N68</text>
</g>
<!-- N29&#45;&gt;N35 -->
<g id="edge38" class="edge">
<title>N29&#45;&gt;N35</title>
<path fill="none" stroke="black" d="M171.06,-1609.86C170.08,-1596.58 169.85,-1577.83 174,-1562 174.9,-1558.55 176.21,-1555.07 177.73,-1551.71"/>
<polygon fill="black" stroke="black" points="180.91,-1553.19 182.39,-1542.7 174.69,-1549.98 180.91,-1553.19"/>
<text text-anchor="middle" x="191" y="-1573.3" font-family="Times New Roman,serif" font-size="14.00">p = y;</text>
</g>
<!-- N30&#45;&gt;N29 -->
<g id="edge39" class="edge">
<title>N30&#45;&gt;N29</title>
<path fill="none" stroke="black" d="M173,-1696.8C173,-1685.16 173,-1669.55 173,-1656.24"/>
<polygon fill="black" stroke="black" points="176.5,-1656.18 173,-1646.18 169.5,-1656.18 176.5,-1656.18"/>
<text text-anchor="middle" x="191.5" y="-1667.8" font-family="Times New Roman,serif" font-size="14.00">yn = t;</text>
</g>
<!-- N31&#45;&gt;N13 -->
<g id="edge40" class="edge">
<title>N31&#45;&gt;N13</title>
<path fill="none" stroke="black" d="M114.29,-1018.75C114.58,-999.62 115,-967.86 115,-940.5 115,-940.5 115,-940.5 115,-286 115,-251.35 150.49,-227.41 178.31,-213.97"/>
<polygon fill="black" stroke="black" points="180.12,-216.99 187.76,-209.65 177.21,-210.63 180.12,-216.99"/>
<text text-anchor="middle" x="140.5" y="-631.3" font-family="Times New Roman,serif" font-size="14.00">yn = y.n;</text>
</g>
<!-- N32&#45;&gt;N26 -->
<g id="edge41" class="edge">
<title>N32&#45;&gt;N26</title>
<path fill="none" stroke="black" d="M389.89,-126.9C394.59,-144.68 401,-173.57 401,-199 401,-1998 401,-1998 401,-1998 401,-2047.63 336.57,-2068.93 294.21,-2077.57"/>
<polygon fill="black" stroke="black" points="293.4,-2074.16 284.23,-2079.46 294.7,-2081.04 293.4,-2074.16"/>
<text text-anchor="middle" x="425" y="-1087.3" font-family="Times New Roman,serif" font-size="14.00">t = yn.n;</text>
</g>
<!-- N34 -->
<g id="node35" class="node">
<title>N34</title>
<ellipse fill="none" stroke="black" cx="100" cy="-1910" rx="27" ry="18"/>
<text text-anchor="middle" x="100" y="-1906.3" font-family="Times New Roman,serif" font-size="14.00">N64</text>
</g>
<!-- N33&#45;&gt;N34 -->
<g id="edge42" class="edge">
<title>N33&#45;&gt;N34</title>
<path fill="none" stroke="black" d="M107.18,-1978.8C105.95,-1967.16 104.29,-1951.55 102.88,-1938.24"/>
<polygon fill="black" stroke="black" points="106.35,-1937.75 101.82,-1928.18 99.39,-1938.49 106.35,-1937.75"/>
<text text-anchor="middle" x="131.5" y="-1949.8" font-family="Times New Roman,serif" font-size="14.00">yn.n = y;</text>
</g>
<!-- N34&#45;&gt;N10 -->
<g id="edge43" class="edge">
<title>N34&#45;&gt;N10</title>
<path fill="none" stroke="black" d="M103.22,-1891.86C105.84,-1881.51 110.39,-1868.51 118,-1859 124.46,-1850.93 133.3,-1844.17 142.01,-1838.8"/>
<polygon fill="black" stroke="black" points="143.97,-1841.71 150.93,-1833.72 140.51,-1835.63 143.97,-1841.71"/>
<text text-anchor="middle" x="144" y="-1862.8" font-family="Times New Roman,serif" font-size="14.00">p.n = yn;</text>
</g>
<!-- N36 -->
<g id="node37" class="node">
<title>N36</title>
<ellipse fill="none" stroke="black" cx="211" cy="-1439" rx="27" ry="18"/>
<text text-anchor="middle" x="211" y="-1435.3" font-family="Times New Roman,serif" font-size="14.00">N69</text>
</g>
<!-- N35&#45;&gt;N36 -->
<g id="edge44" class="edge">
<title>N35&#45;&gt;N36</title>
<path fill="none" stroke="black" d="M196.64,-1507.8C199.12,-1496.09 202.46,-1480.34 205.29,-1466.97"/>
<polygon fill="black" stroke="black" points="208.78,-1467.39 207.42,-1456.89 201.93,-1465.94 208.78,-1467.39"/>
<text text-anchor="middle" x="223" y="-1478.8" font-family="Times New Roman,serif" font-size="14.00">y = yn;</text>
</g>
<!-- N37 -->
<g id="node38" class="node">
<title>N37</title>
<ellipse fill="none" stroke="black" cx="211" cy="-1352" rx="27" ry="18"/>
<text text-anchor="middle" x="211" y="-1348.3" font-family="Times New Roman,serif" font-size="14.00">N70</text>
</g>
<!-- N36&#45;&gt;N37 -->
<g id="edge45" class="edge">
<title>N36&#45;&gt;N37</title>
<path fill="none" stroke="black" d="M211,-1420.8C211,-1409.16 211,-1393.55 211,-1380.24"/>
<polygon fill="black" stroke="black" points="214.5,-1380.18 211,-1370.18 207.5,-1380.18 214.5,-1380.18"/>
<text text-anchor="middle" x="236.5" y="-1391.8" font-family="Times New Roman,serif" font-size="14.00">yn = y.n;</text>
</g>
<!-- N38 -->
<g id="node39" class="node">
<title>N38</title>
<ellipse fill="none" stroke="black" cx="211" cy="-1265" rx="27" ry="18"/>
<text text-anchor="middle" x="211" y="-1261.3" font-family="Times New Roman,serif" font-size="14.00">N71</text>
</g>
<!-- N37&#45;&gt;N38 -->
<g id="edge46" class="edge">
<title>N37&#45;&gt;N38</title>
<path fill="none" stroke="black" d="M211,-1333.8C211,-1322.16 211,-1306.55 211,-1293.24"/>
<polygon fill="black" stroke="black" points="214.5,-1293.18 211,-1283.18 207.5,-1293.18 214.5,-1293.18"/>
<text text-anchor="middle" x="234.5" y="-1304.8" font-family="Times New Roman,serif" font-size="14.00">p = null;</text>
</g>
<!-- N39 -->
<g id="node40" class="node">
<title>N39</title>
<ellipse fill="none" stroke="black" cx="211" cy="-1178" rx="27" ry="18"/>
<text text-anchor="middle" x="211" y="-1174.3" font-family="Times New Roman,serif" font-size="14.00">N72</text>
</g>
<!-- N38&#45;&gt;N39 -->
<g id="edge47" class="edge">
<title>N38&#45;&gt;N39</title>
<path fill="none" stroke="black" d="M211,-1246.8C211,-1235.16 211,-1219.55 211,-1206.24"/>
<polygon fill="black" stroke="black" points="214.5,-1206.18 211,-1196.18 207.5,-1206.18 214.5,-1206.18"/>
<text text-anchor="middle" x="253.5" y="-1217.8" font-family="Times New Roman,serif" font-size="14.00">change = false;</text>
</g>
<!-- N40 -->
<g id="node41" class="node">
<title>N40</title>
<ellipse fill="none" stroke="black" cx="211" cy="-1091" rx="27" ry="18"/>
<text text-anchor="middle" x="211" y="-1087.3" font-family="Times New Roman,serif" font-size="14.00">N73</text>
</g>
<!-- N39&#45;&gt;N40 -->
<g id="edge48" class="edge">
<title>N39&#45;&gt;N40</title>
<path fill="none" stroke="black" d="M211,-1159.8C211,-1148.16 211,-1132.55 211,-1119.24"/>
<polygon fill="black" stroke="black" points="214.5,-1119.18 211,-1109.18 207.5,-1119.18 214.5,-1119.18"/>
<text text-anchor="middle" x="237.5" y="-1130.8" font-family="Times New Roman,serif" font-size="14.00">y = head;</text>
</g>
<!-- N41 -->
<g id="node42" class="node">
<title>N41</title>
<ellipse fill="none" stroke="black" cx="211" cy="-983" rx="27" ry="18"/>
<text text-anchor="middle" x="211" y="-979.3" font-family="Times New Roman,serif" font-size="14.00">N74</text>
</g>
<!-- N40&#45;&gt;N41 -->
<g id="edge49" class="edge">
<title>N40&#45;&gt;N41</title>
<path fill="none" stroke="black" d="M211,-1072.97C211,-1056.38 211,-1030.88 211,-1011.43"/>
<polygon fill="black" stroke="black" points="214.5,-1011.34 211,-1001.34 207.5,-1011.34 214.5,-1011.34"/>
<text text-anchor="middle" x="236.5" y="-1033.3" font-family="Times New Roman,serif" font-size="14.00">yn = y.n;</text>
</g>
<!-- N42 -->
<g id="node43" class="node">
<title>N42</title>
<ellipse fill="none" stroke="black" cx="211" cy="-896" rx="27" ry="18"/>
<text text-anchor="middle" x="211" y="-892.3" font-family="Times New Roman,serif" font-size="14.00">N75</text>
</g>
<!-- N41&#45;&gt;N42 -->
<g id="edge50" class="edge">
<title>N41&#45;&gt;N42</title>
<path fill="none" stroke="black" d="M211,-964.8C211,-953.16 211,-937.55 211,-924.24"/>
<polygon fill="black" stroke="black" points="214.5,-924.18 211,-914.18 207.5,-924.18 214.5,-924.18"/>
<text text-anchor="middle" x="228" y="-935.8" font-family="Times New Roman,serif" font-size="14.00">p = y;</text>
</g>
<!-- N43 -->
<g id="node44" class="node">
<title>N43</title>
<ellipse fill="none" stroke="black" cx="211" cy="-809" rx="27" ry="18"/>
<text text-anchor="middle" x="211" y="-805.3" font-family="Times New Roman,serif" font-size="14.00">N76</text>
</g>
<!-- N42&#45;&gt;N43 -->
<g id="edge51" class="edge">
<title>N42&#45;&gt;N43</title>
<path fill="none" stroke="black" d="M211,-877.8C211,-866.16 211,-850.55 211,-837.24"/>
<polygon fill="black" stroke="black" points="214.5,-837.18 211,-827.18 207.5,-837.18 214.5,-837.18"/>
<text text-anchor="middle" x="231" y="-848.8" font-family="Times New Roman,serif" font-size="14.00">y = yn;</text>
</g>
<!-- N44 -->
<g id="node45" class="node">
<title>N44</title>
<ellipse fill="none" stroke="black" cx="211" cy="-722" rx="27" ry="18"/>
<text text-anchor="middle" x="211" y="-718.3" font-family="Times New Roman,serif" font-size="14.00">N77</text>
</g>
<!-- N43&#45;&gt;N44 -->
<g id="edge52" class="edge">
<title>N43&#45;&gt;N44</title>
<path fill="none" stroke="black" d="M211,-790.8C211,-779.16 211,-763.55 211,-750.24"/>
<polygon fill="black" stroke="black" points="214.5,-750.18 211,-740.18 207.5,-750.18 214.5,-750.18"/>
<text text-anchor="middle" x="236.5" y="-761.8" font-family="Times New Roman,serif" font-size="14.00">yn = y.n;</text>
</g>
<!-- N45 -->
<g id="node46" class="node">
<title>N45</title>
<ellipse fill="none" stroke="black" cx="211" cy="-635" rx="27" ry="18"/>
<text text-anchor="middle" x="211" y="-631.3" font-family="Times New Roman,serif" font-size="14.00">N78</text>
</g>
<!-- N44&#45;&gt;N45 -->
<g id="edge53" class="edge">
<title>N44&#45;&gt;N45</title>
<path fill="none" stroke="black" d="M211,-703.8C211,-692.16 211,-676.55 211,-663.24"/>
<polygon fill="black" stroke="black" points="214.5,-663.18 211,-653.18 207.5,-663.18 214.5,-663.18"/>
<text text-anchor="middle" x="228" y="-674.8" font-family="Times New Roman,serif" font-size="14.00">p = y;</text>
</g>
<!-- N46 -->
<g id="node47" class="node">
<title>N46</title>
<ellipse fill="none" stroke="black" cx="211" cy="-548" rx="27" ry="18"/>
<text text-anchor="middle" x="211" y="-544.3" font-family="Times New Roman,serif" font-size="14.00">N79</text>
</g>
<!-- N45&#45;&gt;N46 -->
<g id="edge54" class="edge">
<title>N45&#45;&gt;N46</title>
<path fill="none" stroke="black" d="M211,-616.8C211,-605.16 211,-589.55 211,-576.24"/>
<polygon fill="black" stroke="black" points="214.5,-576.18 211,-566.18 207.5,-576.18 214.5,-576.18"/>
<text text-anchor="middle" x="231" y="-587.8" font-family="Times New Roman,serif" font-size="14.00">y = yn;</text>
</g>
<!-- N47 -->
<g id="node48" class="node">
<title>N47</title>
<ellipse fill="none" stroke="black" cx="211" cy="-461" rx="27" ry="18"/>
<text text-anchor="middle" x="211" y="-457.3" font-family="Times New Roman,serif" font-size="14.00">N80</text>
</g>
<!-- N46&#45;&gt;N47 -->
<g id="edge55" class="edge">
<title>N46&#45;&gt;N47</title>
<path fill="none" stroke="black" d="M211,-529.8C211,-518.16 211,-502.55 211,-489.24"/>
<polygon fill="black" stroke="black" points="214.5,-489.18 211,-479.18 207.5,-489.18 214.5,-489.18"/>
<text text-anchor="middle" x="236.5" y="-500.8" font-family="Times New Roman,serif" font-size="14.00">yn = y.n;</text>
</g>
<!-- N48 -->
<g id="node49" class="node">
<title>N48</title>
<ellipse fill="none" stroke="black" cx="211" cy="-374" rx="27" ry="18"/>
<text text-anchor="middle" x="211" y="-370.3" font-family="Times New Roman,serif" font-size="14.00">N81</text>
</g>
<!-- N47&#45;&gt;N48 -->
<g id="edge56" class="edge">
<title>N47&#45;&gt;N48</title>
<path fill="none" stroke="black" d="M211,-442.8C211,-431.16 211,-415.55 211,-402.24"/>
<polygon fill="black" stroke="black" points="214.5,-402.18 211,-392.18 207.5,-402.18 214.5,-402.18"/>
<text text-anchor="middle" x="228" y="-413.8" font-family="Times New Roman,serif" font-size="14.00">p = y;</text>
</g>
<!-- N49 -->
<g id="node50" class="node">
<title>N49</title>
<ellipse fill="none" stroke="black" cx="211" cy="-287" rx="27" ry="18"/>
<text text-anchor="middle" x="211" y="-283.3" font-family="Times New Roman,serif" font-size="14.00">N82</text>
</g>
<!-- N48&#45;&gt;N49 -->
<g id="edge57" class="edge">
<title>N48&#45;&gt;N49</title>
<path fill="none" stroke="black" d="M211,-355.8C211,-344.16 211,-328.55 211,-315.24"/>
<polygon fill="black" stroke="black" points="214.5,-315.18 211,-305.18 207.5,-315.18 214.5,-315.18"/>
<text text-anchor="middle" x="231" y="-326.8" font-family="Times New Roman,serif" font-size="14.00">y = yn;</text>
</g>
<!-- N49&#45;&gt;N13 -->
<g id="edge58" class="edge">
<title>N49&#45;&gt;N13</title>
<path fill="none" stroke="black" d="M211,-268.8C211,-257.16 211,-241.55 211,-228.24"/>
<polygon fill="black" stroke="black" points="214.5,-228.18 211,-218.18 207.5,-228.18 214.5,-228.18"/>
<text text-anchor="middle" x="236.5" y="-239.8" font-family="Times New Roman,serif" font-size="14.00">yn = y.n;</text>
</g>
<!-- N51 -->
<g id="node52" class="node">
<title>N51</title>
<ellipse fill="none" stroke="black" cx="433" cy="-2084" rx="27" ry="18"/>
<text text-anchor="middle" x="433" y="-2080.3" font-family="Times New Roman,serif" font-size="14.00">N85</text>
</g>
<!-- N50&#45;&gt;N51 -->
<g id="edge59" class="edge">
<title>N50&#45;&gt;N51</title>
<path fill="none" stroke="black" d="M432.2,-2152.8C432.34,-2141.16 432.52,-2125.55 432.68,-2112.24"/>
<polygon fill="black" stroke="black" points="436.18,-2112.22 432.8,-2102.18 429.18,-2112.13 436.18,-2112.22"/>
<text text-anchor="middle" x="452" y="-2123.8" font-family="Times New Roman,serif" font-size="14.00">y = yn;</text>
</g>
<!-- N52 -->
<g id="node53" class="node">
<title>N52</title>
<ellipse fill="none" stroke="black" cx="457" cy="-1997" rx="27" ry="18"/>
<text text-anchor="middle" x="457" y="-1993.3" font-family="Times New Roman,serif" font-size="14.00">N86</text>
</g>
<!-- N51&#45;&gt;N52 -->
<g id="edge60" class="edge">
<title>N51&#45;&gt;N52</title>
<path fill="none" stroke="black" d="M437.74,-2066.21C441.09,-2054.33 445.66,-2038.17 449.5,-2024.56"/>
<polygon fill="black" stroke="black" points="452.92,-2025.33 452.27,-2014.76 446.18,-2023.43 452.92,-2025.33"/>
<text text-anchor="middle" x="471.5" y="-2036.8" font-family="Times New Roman,serif" font-size="14.00">yn = y.n;</text>
</g>
<!-- N53 -->
<g id="node54" class="node">
<title>N53</title>
<ellipse fill="none" stroke="black" cx="461" cy="-1910" rx="27" ry="18"/>
<text text-anchor="middle" x="461" y="-1906.3" font-family="Times New Roman,serif" font-size="14.00">N87</text>
</g>
<!-- N52&#45;&gt;N53 -->
<g id="edge61" class="edge">
<title>N52&#45;&gt;N53</title>
<path fill="none" stroke="black" d="M457.81,-1978.8C458.36,-1967.16 459.09,-1951.55 459.72,-1938.24"/>
<polygon fill="black" stroke="black" points="463.22,-1938.33 460.19,-1928.18 456.23,-1938 463.22,-1938.33"/>
<text text-anchor="middle" x="476" y="-1949.8" font-family="Times New Roman,serif" font-size="14.00">p = y;</text>
</g>
<!-- N54 -->
<g id="node55" class="node">
<title>N54</title>
<ellipse fill="none" stroke="black" cx="476" cy="-1769" rx="27" ry="18"/>
<text text-anchor="middle" x="476" y="-1765.3" font-family="Times New Roman,serif" font-size="14.00">N88</text>
</g>
<!-- N53&#45;&gt;N54 -->
<g id="edge62" class="edge">
<title>N53&#45;&gt;N54</title>
<path fill="none" stroke="black" d="M462.84,-1891.96C465.39,-1868.3 470.04,-1825.26 473.07,-1797.15"/>
<polygon fill="black" stroke="black" points="476.55,-1797.5 474.15,-1787.18 469.59,-1796.75 476.55,-1797.5"/>
<text text-anchor="middle" x="486" y="-1862.8" font-family="Times New Roman,serif" font-size="14.00">y = yn;</text>
</g>
<!-- N54&#45;&gt;N13 -->
<g id="edge63" class="edge">
<title>N54&#45;&gt;N13</title>
<path fill="none" stroke="black" d="M476.29,-1750.75C476.58,-1731.62 477,-1699.86 477,-1672.5 477,-1672.5 477,-1672.5 477,-286 477,-238.41 320.53,-213.82 247.6,-204.94"/>
<polygon fill="black" stroke="black" points="247.82,-201.44 237.48,-203.75 247,-208.4 247.82,-201.44"/>
<text text-anchor="middle" x="502.5" y="-979.3" font-family="Times New Roman,serif" font-size="14.00">yn = y.n;</text>
</g>
</g>
</svg>
