<?xml version="1.0" encoding="UTF-8" standalone="no"?>
<!DOCTYPE svg PUBLIC "-//W3C//DTD SVG 1.1//EN"
 "http://www.w3.org/Graphics/SVG/1.1/DTD/svg11.dtd">
<!-- Generated by graphviz version 2.46.1 (20210213.1702)
 -->
<!-- Title: anonymous_graph Pages: 1 -->
<svg width="415pt" height="3205pt"
 viewBox="0.00 0.00 415.00 3205.00" xmlns="http://www.w3.org/2000/svg" xmlns:xlink="http://www.w3.org/1999/xlink">
<g id="graph0" class="graph" transform="scale(1 1) rotate(0) translate(4 3201)">
<title>anonymous_graph</title>
<polygon fill="white" stroke="transparent" points="-4,4 -4,-3201 411,-3201 411,4 -4,4"/>
<!-- N0 -->
<g id="node1" class="node">
<title>N0</title>
<ellipse fill="none" stroke="black" cx="129" cy="-3179" rx="29.5" ry="18"/>
<text text-anchor="middle" x="129" y="-3175.3" font-family="Times New Roman,serif" font-size="14.00">initial</text>
</g>
<!-- N2 -->
<g id="node3" class="node">
<title>N2</title>
<ellipse fill="none" stroke="black" cx="129" cy="-3092" rx="27" ry="18"/>
<text text-anchor="middle" x="129" y="-3088.3" font-family="Times New Roman,serif" font-size="14.00">N1</text>
</g>
<!-- N0&#45;&gt;N2 -->
<g id="edge1" class="edge">
<title>N0&#45;&gt;N2</title>
<path fill="none" stroke="black" d="M129,-3160.8C129,-3149.16 129,-3133.55 129,-3120.24"/>
<polygon fill="black" stroke="black" points="132.5,-3120.18 129,-3110.18 125.5,-3120.18 132.5,-3120.18"/>
<text text-anchor="middle" x="169" y="-3131.8" font-family="Times New Roman,serif" font-size="14.00">change = true;</text>
</g>
<!-- N1 -->
<g id="node2" class="node">
<title>N1</title>
<ellipse fill="none" stroke="black" cx="373" cy="-283" rx="27" ry="18"/>
<ellipse fill="none" stroke="black" cx="373" cy="-283" rx="31" ry="22"/>
<text text-anchor="middle" x="373" y="-279.3" font-family="Times New Roman,serif" font-size="14.00">final</text>
</g>
<!-- N3 -->
<g id="node4" class="node">
<title>N3</title>
<ellipse fill="none" stroke="black" cx="129" cy="-3005" rx="27" ry="18"/>
<text text-anchor="middle" x="129" y="-3001.3" font-family="Times New Roman,serif" font-size="14.00">N2</text>
</g>
<!-- N2&#45;&gt;N3 -->
<g id="edge2" class="edge">
<title>N2&#45;&gt;N3</title>
<path fill="none" stroke="black" d="M129,-3073.8C129,-3062.16 129,-3046.55 129,-3033.24"/>
<polygon fill="black" stroke="black" points="132.5,-3033.18 129,-3023.18 125.5,-3033.18 132.5,-3033.18"/>
<text text-anchor="middle" x="152.5" y="-3044.8" font-family="Times New Roman,serif" font-size="14.00">p = null;</text>
</g>
<!-- N4 -->
<g id="node5" class="node">
<title>N4</title>
<ellipse fill="none" stroke="black" cx="129" cy="-2918" rx="27" ry="18"/>
<text text-anchor="middle" x="129" y="-2914.3" font-family="Times New Roman,serif" font-size="14.00">N3</text>
</g>
<!-- N3&#45;&gt;N4 -->
<g id="edge3" class="edge">
<title>N3&#45;&gt;N4</title>
<path fill="none" stroke="black" d="M129,-2986.8C129,-2975.16 129,-2959.55 129,-2946.24"/>
<polygon fill="black" stroke="black" points="132.5,-2946.18 129,-2936.18 125.5,-2946.18 132.5,-2946.18"/>
<text text-anchor="middle" x="171.5" y="-2957.8" font-family="Times New Roman,serif" font-size="14.00">change = false;</text>
</g>
<!-- N5 -->
<g id="node6" class="node">
<title>N5</title>
<ellipse fill="none" stroke="black" cx="129" cy="-2831" rx="27" ry="18"/>
<text text-anchor="middle" x="129" y="-2827.3" font-family="Times New Roman,serif" font-size="14.00">N4</text>
</g>
<!-- N4&#45;&gt;N5 -->
<g id="edge4" class="edge">
<title>N4&#45;&gt;N5</title>
<path fill="none" stroke="black" d="M129,-2899.8C129,-2888.16 129,-2872.55 129,-2859.24"/>
<polygon fill="black" stroke="black" points="132.5,-2859.18 129,-2849.18 125.5,-2859.18 132.5,-2859.18"/>
<text text-anchor="middle" x="155.5" y="-2870.8" font-family="Times New Roman,serif" font-size="14.00">y = head;</text>
</g>
<!-- N6 -->
<g id="node7" class="node">
<title>N6</title>
<ellipse fill="none" stroke="black" cx="129" cy="-2744" rx="27" ry="18"/>
<text text-anchor="middle" x="129" y="-2740.3" font-family="Times New Roman,serif" font-size="14.00">N5</text>
</g>
<!-- N5&#45;&gt;N6 -->
<g id="edge5" class="edge">
<title>N5&#45;&gt;N6</title>
<path fill="none" stroke="black" d="M129,-2812.8C129,-2801.16 129,-2785.55 129,-2772.24"/>
<polygon fill="black" stroke="black" points="132.5,-2772.18 129,-2762.18 125.5,-2772.18 132.5,-2772.18"/>
<text text-anchor="middle" x="154.5" y="-2783.8" font-family="Times New Roman,serif" font-size="14.00">yn = y.n;</text>
</g>
<!-- N7 -->
<g id="node8" class="node">
<title>N7</title>
<ellipse fill="none" stroke="black" cx="78" cy="-2642" rx="27" ry="18"/>
<text text-anchor="middle" x="78" y="-2638.3" font-family="Times New Roman,serif" font-size="14.00">N6</text>
</g>
<!-- N6&#45;&gt;N7 -->
<g id="edge6" class="edge">
<title>N6&#45;&gt;N7</title>
<path fill="none" stroke="black" d="M106.96,-2733.52C96.51,-2727.76 85.01,-2719.33 79,-2708 72.95,-2696.59 72.11,-2682.38 73.03,-2670.17"/>
<polygon fill="black" stroke="black" points="76.52,-2670.4 74.2,-2660.07 69.57,-2669.59 76.52,-2670.4"/>
<text text-anchor="middle" x="119" y="-2696.8" font-family="Times New Roman,serif" font-size="14.00">!(0 &lt; yn.d)/</text>
<text text-anchor="middle" x="119" y="-2681.8" font-family="Times New Roman,serif" font-size="14.00">change = true;</text>
</g>
<!-- N24 -->
<g id="node25" class="node">
<title>N24</title>
<ellipse fill="none" stroke="black" cx="182" cy="-2642" rx="27" ry="18"/>
<text text-anchor="middle" x="182" y="-2638.3" font-family="Times New Roman,serif" font-size="14.00">N37</text>
</g>
<!-- N6&#45;&gt;N24 -->
<g id="edge7" class="edge">
<title>N6&#45;&gt;N24</title>
<path fill="none" stroke="black" d="M143.45,-2728.6C148.88,-2722.61 154.75,-2715.34 159,-2708 165.88,-2696.1 171.22,-2681.8 175.01,-2669.64"/>
<polygon fill="black" stroke="black" points="178.37,-2670.61 177.83,-2660.03 171.66,-2668.64 178.37,-2670.61"/>
<text text-anchor="middle" x="197" y="-2696.8" font-family="Times New Roman,serif" font-size="14.00">0 &lt; yn.d/</text>
<text text-anchor="middle" x="197" y="-2681.8" font-family="Times New Roman,serif" font-size="14.00">p = y;</text>
</g>
<!-- N8 -->
<g id="node9" class="node">
<title>N8</title>
<ellipse fill="none" stroke="black" cx="78" cy="-2555" rx="27" ry="18"/>
<text text-anchor="middle" x="78" y="-2551.3" font-family="Times New Roman,serif" font-size="14.00">N7</text>
</g>
<!-- N7&#45;&gt;N8 -->
<g id="edge8" class="edge">
<title>N7&#45;&gt;N8</title>
<path fill="none" stroke="black" d="M78,-2623.8C78,-2612.16 78,-2596.55 78,-2583.24"/>
<polygon fill="black" stroke="black" points="81.5,-2583.18 78,-2573.18 74.5,-2583.18 81.5,-2583.18"/>
<text text-anchor="middle" x="102" y="-2594.8" font-family="Times New Roman,serif" font-size="14.00">t = yn.n;</text>
</g>
<!-- N9 -->
<g id="node10" class="node">
<title>N9</title>
<ellipse fill="none" stroke="black" cx="78" cy="-2468" rx="27" ry="18"/>
<text text-anchor="middle" x="78" y="-2464.3" font-family="Times New Roman,serif" font-size="14.00">N8</text>
</g>
<!-- N8&#45;&gt;N9 -->
<g id="edge9" class="edge">
<title>N8&#45;&gt;N9</title>
<path fill="none" stroke="black" d="M78,-2536.8C78,-2525.16 78,-2509.55 78,-2496.24"/>
<polygon fill="black" stroke="black" points="81.5,-2496.18 78,-2486.18 74.5,-2496.18 81.5,-2496.18"/>
<text text-anchor="middle" x="98.5" y="-2507.8" font-family="Times New Roman,serif" font-size="14.00">y.n = t;</text>
</g>
<!-- N10 -->
<g id="node11" class="node">
<title>N10</title>
<ellipse fill="none" stroke="black" cx="78" cy="-2312" rx="27" ry="18"/>
<text text-anchor="middle" x="78" y="-2308.3" font-family="Times New Roman,serif" font-size="14.00">N9</text>
</g>
<!-- N9&#45;&gt;N10 -->
<g id="edge10" class="edge">
<title>N9&#45;&gt;N10</title>
<path fill="none" stroke="black" d="M78,-2449.93C78,-2423.45 78,-2372.22 78,-2340.49"/>
<polygon fill="black" stroke="black" points="81.5,-2340.15 78,-2330.15 74.5,-2340.15 81.5,-2340.15"/>
<text text-anchor="middle" x="103.5" y="-2413.3" font-family="Times New Roman,serif" font-size="14.00">yn.n = y;</text>
</g>
<!-- N11 -->
<g id="node12" class="node">
<title>N11</title>
<ellipse fill="none" stroke="black" cx="78" cy="-1997" rx="27" ry="18"/>
<text text-anchor="middle" x="78" y="-1993.3" font-family="Times New Roman,serif" font-size="14.00">N10</text>
</g>
<!-- N10&#45;&gt;N11 -->
<g id="edge11" class="edge">
<title>N10&#45;&gt;N11</title>
<path fill="none" stroke="black" d="M78,-2293.75C78,-2274.62 78,-2242.86 78,-2215.5 78,-2215.5 78,-2215.5 78,-2083 78,-2063.75 78,-2042.05 78,-2025.4"/>
<polygon fill="black" stroke="black" points="81.5,-2025.26 78,-2015.26 74.5,-2025.26 81.5,-2025.26"/>
<text text-anchor="middle" x="108" y="-2167.3" font-family="Times New Roman,serif" font-size="14.00">head = yn;</text>
</g>
<!-- N32 -->
<g id="node33" class="node">
<title>N32</title>
<ellipse fill="none" stroke="black" cx="224" cy="-1889" rx="27" ry="18"/>
<text text-anchor="middle" x="224" y="-1885.3" font-family="Times New Roman,serif" font-size="14.00">N52</text>
</g>
<!-- N11&#45;&gt;N32 -->
<g id="edge12" class="edge">
<title>N11&#45;&gt;N32</title>
<path fill="none" stroke="black" d="M95.61,-1983.21C121.15,-1964.67 168.64,-1930.2 198.15,-1908.77"/>
<polygon fill="black" stroke="black" points="200.29,-1911.54 206.33,-1902.83 196.18,-1905.87 200.29,-1911.54"/>
<text text-anchor="middle" x="192.5" y="-1939.3" font-family="Times New Roman,serif" font-size="14.00">p = yn;</text>
</g>
<!-- N12 -->
<g id="node13" class="node">
<title>N12</title>
<ellipse fill="none" stroke="black" cx="259" cy="-1613" rx="27" ry="18"/>
<text text-anchor="middle" x="259" y="-1609.3" font-family="Times New Roman,serif" font-size="14.00">N14</text>
</g>
<!-- N20 -->
<g id="node21" class="node">
<title>N20</title>
<ellipse fill="none" stroke="black" cx="260" cy="-1526" rx="27" ry="18"/>
<text text-anchor="middle" x="260" y="-1522.3" font-family="Times New Roman,serif" font-size="14.00">N29</text>
</g>
<!-- N12&#45;&gt;N20 -->
<g id="edge13" class="edge">
<title>N12&#45;&gt;N20</title>
<path fill="none" stroke="black" d="M259.2,-1594.8C259.34,-1583.16 259.52,-1567.55 259.68,-1554.24"/>
<polygon fill="black" stroke="black" points="263.18,-1554.22 259.8,-1544.18 256.18,-1554.13 263.18,-1554.22"/>
<text text-anchor="middle" x="285.5" y="-1565.8" font-family="Times New Roman,serif" font-size="14.00">y = head;</text>
</g>
<!-- N13 -->
<g id="node14" class="node">
<title>N13</title>
<ellipse fill="none" stroke="black" cx="268" cy="-1439" rx="27" ry="18"/>
<text text-anchor="middle" x="268" y="-1435.3" font-family="Times New Roman,serif" font-size="14.00">N16</text>
</g>
<!-- N21 -->
<g id="node22" class="node">
<title>N21</title>
<ellipse fill="none" stroke="black" cx="278" cy="-1352" rx="27" ry="18"/>
<text text-anchor="middle" x="278" y="-1348.3" font-family="Times New Roman,serif" font-size="14.00">N31</text>
</g>
<!-- N13&#45;&gt;N21 -->
<g id="edge14" class="edge">
<title>N13&#45;&gt;N21</title>
<path fill="none" stroke="black" d="M270.02,-1420.8C271.39,-1409.16 273.23,-1393.55 274.8,-1380.24"/>
<polygon fill="black" stroke="black" points="278.29,-1380.52 275.98,-1370.18 271.33,-1379.7 278.29,-1380.52"/>
<text text-anchor="middle" x="290" y="-1391.8" font-family="Times New Roman,serif" font-size="14.00">p = y;</text>
</g>
<!-- N14 -->
<g id="node15" class="node">
<title>N14</title>
<ellipse fill="none" stroke="black" cx="273" cy="-374" rx="27" ry="18"/>
<text text-anchor="middle" x="273" y="-370.3" font-family="Times New Roman,serif" font-size="14.00">N19</text>
</g>
<!-- N14&#45;&gt;N1 -->
<g id="edge15" class="edge">
<title>N14&#45;&gt;N1</title>
<path fill="none" stroke="black" d="M288.62,-359.09C304.1,-345.32 328.1,-323.96 346.55,-307.54"/>
<polygon fill="black" stroke="black" points="348.93,-310.11 354.07,-300.84 344.28,-304.88 348.93,-310.11"/>
<text text-anchor="middle" x="346.5" y="-326.8" font-family="Times New Roman,serif" font-size="14.00">return;</text>
</g>
<!-- N22 -->
<g id="node23" class="node">
<title>N22</title>
<ellipse fill="none" stroke="black" cx="210" cy="-283" rx="27" ry="18"/>
<text text-anchor="middle" x="210" y="-279.3" font-family="Times New Roman,serif" font-size="14.00">N34</text>
</g>
<!-- N14&#45;&gt;N22 -->
<g id="edge17" class="edge">
<title>N14&#45;&gt;N22</title>
<path fill="none" stroke="black" d="M252.23,-362.17C242.67,-356.22 231.93,-348 225,-338 219.52,-330.1 216.04,-320.25 213.83,-311.14"/>
<polygon fill="black" stroke="black" points="217.25,-310.4 211.83,-301.3 210.39,-311.8 217.25,-310.4"/>
<text text-anchor="middle" x="242" y="-326.8" font-family="Times New Roman,serif" font-size="14.00">p = y;</text>
</g>
<!-- N34 -->
<g id="node35" class="node">
<title>N34</title>
<ellipse fill="none" stroke="black" cx="121" cy="-283" rx="27" ry="18"/>
<text text-anchor="middle" x="121" y="-279.3" font-family="Times New Roman,serif" font-size="14.00">N61</text>
</g>
<!-- N14&#45;&gt;N34 -->
<g id="edge16" class="edge">
<title>N14&#45;&gt;N34</title>
<path fill="none" stroke="black" d="M246.57,-369.72C210.51,-364.71 148.6,-354.02 133,-338 126.06,-330.88 122.77,-320.68 121.32,-311.06"/>
<polygon fill="black" stroke="black" points="124.79,-310.66 120.37,-301.03 117.82,-311.31 124.79,-310.66"/>
<text text-anchor="middle" x="173" y="-326.8" font-family="Times New Roman,serif" font-size="14.00">change = true;</text>
</g>
<!-- N15 -->
<g id="node16" class="node">
<title>N15</title>
<ellipse fill="none" stroke="black" cx="154" cy="-1700" rx="27" ry="18"/>
<text text-anchor="middle" x="154" y="-1696.3" font-family="Times New Roman,serif" font-size="14.00">N20</text>
</g>
<!-- N16 -->
<g id="node17" class="node">
<title>N16</title>
<ellipse fill="none" stroke="black" cx="114" cy="-1613" rx="27" ry="18"/>
<text text-anchor="middle" x="114" y="-1609.3" font-family="Times New Roman,serif" font-size="14.00">N21</text>
</g>
<!-- N15&#45;&gt;N16 -->
<g id="edge18" class="edge">
<title>N15&#45;&gt;N16</title>
<path fill="none" stroke="black" d="M146.29,-1682.61C140.53,-1670.38 132.56,-1653.44 125.98,-1639.46"/>
<polygon fill="black" stroke="black" points="129.11,-1637.9 121.69,-1630.34 122.78,-1640.88 129.11,-1637.9"/>
<text text-anchor="middle" x="160" y="-1652.8" font-family="Times New Roman,serif" font-size="14.00">t = yn.n;</text>
</g>
<!-- N17 -->
<g id="node18" class="node">
<title>N17</title>
<ellipse fill="none" stroke="black" cx="112" cy="-1526" rx="27" ry="18"/>
<text text-anchor="middle" x="112" y="-1522.3" font-family="Times New Roman,serif" font-size="14.00">N22</text>
</g>
<!-- N16&#45;&gt;N17 -->
<g id="edge19" class="edge">
<title>N16&#45;&gt;N17</title>
<path fill="none" stroke="black" d="M113.6,-1594.8C113.32,-1583.16 112.95,-1567.55 112.64,-1554.24"/>
<polygon fill="black" stroke="black" points="116.14,-1554.09 112.4,-1544.18 109.14,-1554.26 116.14,-1554.09"/>
<text text-anchor="middle" x="133.5" y="-1565.8" font-family="Times New Roman,serif" font-size="14.00">y.n = t;</text>
</g>
<!-- N18 -->
<g id="node19" class="node">
<title>N18</title>
<ellipse fill="none" stroke="black" cx="82" cy="-1439" rx="27" ry="18"/>
<text text-anchor="middle" x="82" y="-1435.3" font-family="Times New Roman,serif" font-size="14.00">N23</text>
</g>
<!-- N17&#45;&gt;N18 -->
<g id="edge20" class="edge">
<title>N17&#45;&gt;N18</title>
<path fill="none" stroke="black" d="M106.07,-1508.21C101.88,-1496.33 96.18,-1480.17 91.37,-1466.56"/>
<polygon fill="black" stroke="black" points="94.54,-1465.02 87.91,-1456.76 87.94,-1467.35 94.54,-1465.02"/>
<text text-anchor="middle" x="124.5" y="-1478.8" font-family="Times New Roman,serif" font-size="14.00">yn.n = y;</text>
</g>
<!-- N18&#45;&gt;N11 -->
<g id="edge21" class="edge">
<title>N18&#45;&gt;N11</title>
<path fill="none" stroke="black" d="M74.09,-1456.51C66.77,-1473.34 57,-1500.39 57,-1525 57,-1890 57,-1890 57,-1890 57,-1917.57 63.92,-1948.42 69.82,-1969.69"/>
<polygon fill="black" stroke="black" points="66.46,-1970.68 72.59,-1979.31 73.18,-1968.73 66.46,-1970.68"/>
<text text-anchor="middle" x="83" y="-1696.3" font-family="Times New Roman,serif" font-size="14.00">p.n = yn;</text>
</g>
<!-- N19 -->
<g id="node20" class="node">
<title>N19</title>
<ellipse fill="none" stroke="black" cx="298" cy="-1700" rx="27" ry="18"/>
<text text-anchor="middle" x="298" y="-1696.3" font-family="Times New Roman,serif" font-size="14.00">N27</text>
</g>
<!-- N19&#45;&gt;N12 -->
<g id="edge22" class="edge">
<title>N19&#45;&gt;N12</title>
<path fill="none" stroke="black" d="M278.27,-1687.58C270.09,-1681.69 261.47,-1673.69 257,-1664 253.75,-1656.95 253.01,-1648.73 253.43,-1641.01"/>
<polygon fill="black" stroke="black" points="256.92,-1641.3 254.59,-1630.96 249.96,-1640.49 256.92,-1641.3"/>
<text text-anchor="middle" x="299.5" y="-1652.8" font-family="Times New Roman,serif" font-size="14.00">change = false;</text>
</g>
<!-- N20&#45;&gt;N13 -->
<g id="edge23" class="edge">
<title>N20&#45;&gt;N13</title>
<path fill="none" stroke="black" d="M261.62,-1507.8C262.71,-1496.16 264.18,-1480.55 265.44,-1467.24"/>
<polygon fill="black" stroke="black" points="268.93,-1467.46 266.38,-1457.18 261.96,-1466.8 268.93,-1467.46"/>
<text text-anchor="middle" x="289.5" y="-1478.8" font-family="Times New Roman,serif" font-size="14.00">yn = y.n;</text>
</g>
<!-- N33 -->
<g id="node34" class="node">
<title>N33</title>
<ellipse fill="none" stroke="black" cx="275" cy="-1211" rx="27" ry="18"/>
<text text-anchor="middle" x="275" y="-1207.3" font-family="Times New Roman,serif" font-size="14.00">N59</text>
</g>
<!-- N21&#45;&gt;N33 -->
<g id="edge24" class="edge">
<title>N21&#45;&gt;N33</title>
<path fill="none" stroke="black" d="M277.63,-1333.96C277.12,-1310.4 276.2,-1267.64 275.59,-1239.53"/>
<polygon fill="black" stroke="black" points="279.09,-1239.11 275.37,-1229.18 272.09,-1239.26 279.09,-1239.11"/>
<text text-anchor="middle" x="297" y="-1304.8" font-family="Times New Roman,serif" font-size="14.00">y = yn;</text>
</g>
<!-- N23 -->
<g id="node24" class="node">
<title>N23</title>
<ellipse fill="none" stroke="black" cx="241" cy="-192" rx="27" ry="18"/>
<text text-anchor="middle" x="241" y="-188.3" font-family="Times New Roman,serif" font-size="14.00">N35</text>
</g>
<!-- N22&#45;&gt;N23 -->
<g id="edge25" class="edge">
<title>N22&#45;&gt;N23</title>
<path fill="none" stroke="black" d="M211.1,-265.01C212.22,-254.14 214.48,-239.91 219,-228 220.42,-224.26 222.27,-220.48 224.29,-216.87"/>
<polygon fill="black" stroke="black" points="227.28,-218.69 229.52,-208.33 221.31,-215.03 227.28,-218.69"/>
<text text-anchor="middle" x="239" y="-231.8" font-family="Times New Roman,serif" font-size="14.00">y = yn;</text>
</g>
<!-- N23&#45;&gt;N14 -->
<g id="edge26" class="edge">
<title>N23&#45;&gt;N14</title>
<path fill="none" stroke="black" d="M250.76,-208.85C253.91,-214.67 257.07,-221.44 259,-228 270.68,-267.77 273.14,-316.04 273.4,-345.63"/>
<polygon fill="black" stroke="black" points="269.9,-345.64 273.41,-355.64 276.9,-345.63 269.9,-345.64"/>
<text text-anchor="middle" x="296.5" y="-279.3" font-family="Times New Roman,serif" font-size="14.00">yn = y.n;</text>
</g>
<!-- N25 -->
<g id="node26" class="node">
<title>N25</title>
<ellipse fill="none" stroke="black" cx="182" cy="-2555" rx="27" ry="18"/>
<text text-anchor="middle" x="182" y="-2551.3" font-family="Times New Roman,serif" font-size="14.00">N38</text>
</g>
<!-- N24&#45;&gt;N25 -->
<g id="edge27" class="edge">
<title>N24&#45;&gt;N25</title>
<path fill="none" stroke="black" d="M182,-2623.8C182,-2612.16 182,-2596.55 182,-2583.24"/>
<polygon fill="black" stroke="black" points="185.5,-2583.18 182,-2573.18 178.5,-2583.18 185.5,-2583.18"/>
<text text-anchor="middle" x="202" y="-2594.8" font-family="Times New Roman,serif" font-size="14.00">y = yn;</text>
</g>
<!-- N26 -->
<g id="node27" class="node">
<title>N26</title>
<ellipse fill="none" stroke="black" cx="183" cy="-2468" rx="27" ry="18"/>
<text text-anchor="middle" x="183" y="-2464.3" font-family="Times New Roman,serif" font-size="14.00">N39</text>
</g>
<!-- N25&#45;&gt;N26 -->
<g id="edge28" class="edge">
<title>N25&#45;&gt;N26</title>
<path fill="none" stroke="black" d="M182.2,-2536.8C182.34,-2525.16 182.52,-2509.55 182.68,-2496.24"/>
<polygon fill="black" stroke="black" points="186.18,-2496.22 182.8,-2486.18 179.18,-2496.13 186.18,-2496.22"/>
<text text-anchor="middle" x="207.5" y="-2507.8" font-family="Times New Roman,serif" font-size="14.00">yn = y.n;</text>
</g>
<!-- N27 -->
<g id="node28" class="node">
<title>N27</title>
<ellipse fill="none" stroke="black" cx="183" cy="-2366" rx="27" ry="18"/>
<text text-anchor="middle" x="183" y="-2362.3" font-family="Times New Roman,serif" font-size="14.00">N40</text>
</g>
<!-- N26&#45;&gt;N27 -->
<g id="edge29" class="edge">
<title>N26&#45;&gt;N27</title>
<path fill="none" stroke="black" d="M183,-2449.58C183,-2434.38 183,-2412.07 183,-2394.46"/>
<polygon fill="black" stroke="black" points="186.5,-2394.22 183,-2384.22 179.5,-2394.22 186.5,-2394.22"/>
<text text-anchor="middle" x="223" y="-2420.8" font-family="Times New Roman,serif" font-size="14.00">1 &lt; head.d/</text>
<text text-anchor="middle" x="223" y="-2405.8" font-family="Times New Roman,serif" font-size="14.00">change = true;</text>
</g>
<!-- N53 -->
<g id="node54" class="node">
<title>N53</title>
<ellipse fill="none" stroke="black" cx="286" cy="-2366" rx="27" ry="18"/>
<text text-anchor="middle" x="286" y="-2362.3" font-family="Times New Roman,serif" font-size="14.00">N84</text>
</g>
<!-- N26&#45;&gt;N53 -->
<g id="edge30" class="edge">
<title>N26&#45;&gt;N53</title>
<path fill="none" stroke="black" d="M208.49,-2461.77C226.28,-2456.89 249.36,-2447.88 264,-2432 273.52,-2421.67 278.94,-2407.05 282.02,-2394.3"/>
<polygon fill="black" stroke="black" points="285.52,-2394.66 284.09,-2384.16 278.66,-2393.26 285.52,-2394.66"/>
<text text-anchor="middle" x="318" y="-2420.8" font-family="Times New Roman,serif" font-size="14.00">!(1 &lt; head.d)/</text>
<text text-anchor="middle" x="318" y="-2405.8" font-family="Times New Roman,serif" font-size="14.00">p = y;</text>
</g>
<!-- N28 -->
<g id="node29" class="node">
<title>N28</title>
<ellipse fill="none" stroke="black" cx="183" cy="-2258" rx="27" ry="18"/>
<text text-anchor="middle" x="183" y="-2254.3" font-family="Times New Roman,serif" font-size="14.00">N41</text>
</g>
<!-- N27&#45;&gt;N28 -->
<g id="edge31" class="edge">
<title>N27&#45;&gt;N28</title>
<path fill="none" stroke="black" d="M183,-2347.97C183,-2331.38 183,-2305.88 183,-2286.43"/>
<polygon fill="black" stroke="black" points="186.5,-2286.34 183,-2276.34 179.5,-2286.34 186.5,-2286.34"/>
<text text-anchor="middle" x="207" y="-2308.3" font-family="Times New Roman,serif" font-size="14.00">t = yn.n;</text>
</g>
<!-- N29 -->
<g id="node30" class="node">
<title>N29</title>
<ellipse fill="none" stroke="black" cx="183" cy="-2171" rx="27" ry="18"/>
<text text-anchor="middle" x="183" y="-2167.3" font-family="Times New Roman,serif" font-size="14.00">N42</text>
</g>
<!-- N28&#45;&gt;N29 -->
<g id="edge32" class="edge">
<title>N28&#45;&gt;N29</title>
<path fill="none" stroke="black" d="M183,-2239.8C183,-2228.16 183,-2212.55 183,-2199.24"/>
<polygon fill="black" stroke="black" points="186.5,-2199.18 183,-2189.18 179.5,-2199.18 186.5,-2199.18"/>
<text text-anchor="middle" x="203.5" y="-2210.8" font-family="Times New Roman,serif" font-size="14.00">y.n = t;</text>
</g>
<!-- N30 -->
<g id="node31" class="node">
<title>N30</title>
<ellipse fill="none" stroke="black" cx="146" cy="-2084" rx="27" ry="18"/>
<text text-anchor="middle" x="146" y="-2080.3" font-family="Times New Roman,serif" font-size="14.00">N43</text>
</g>
<!-- N29&#45;&gt;N30 -->
<g id="edge33" class="edge">
<title>N29&#45;&gt;N30</title>
<path fill="none" stroke="black" d="M175.87,-2153.61C170.63,-2141.58 163.4,-2124.98 157.37,-2111.13"/>
<polygon fill="black" stroke="black" points="160.44,-2109.4 153.24,-2101.63 154.02,-2112.19 160.44,-2109.4"/>
<text text-anchor="middle" x="191.5" y="-2123.8" font-family="Times New Roman,serif" font-size="14.00">yn.n = y;</text>
</g>
<!-- N30&#45;&gt;N11 -->
<g id="edge34" class="edge">
<title>N30&#45;&gt;N11</title>
<path fill="none" stroke="black" d="M133.84,-2067.8C123.56,-2054.95 108.65,-2036.32 96.83,-2021.54"/>
<polygon fill="black" stroke="black" points="99.26,-2018.97 90.28,-2013.35 93.79,-2023.35 99.26,-2018.97"/>
<text text-anchor="middle" x="142" y="-2036.8" font-family="Times New Roman,serif" font-size="14.00">p.n = yn;</text>
</g>
<!-- N31 -->
<g id="node32" class="node">
<title>N31</title>
<ellipse fill="none" stroke="black" cx="226" cy="-1802" rx="27" ry="18"/>
<text text-anchor="middle" x="226" y="-1798.3" font-family="Times New Roman,serif" font-size="14.00">N46</text>
</g>
<!-- N31&#45;&gt;N15 -->
<g id="edge36" class="edge">
<title>N31&#45;&gt;N15</title>
<path fill="none" stroke="black" d="M199.48,-1797.72C179.97,-1793.76 154.71,-1785.06 142,-1766 134.32,-1754.47 136.55,-1739.36 141.05,-1726.61"/>
<polygon fill="black" stroke="black" points="144.44,-1727.58 145.01,-1717.01 137.96,-1724.92 144.44,-1727.58"/>
<text text-anchor="middle" x="182" y="-1754.8" font-family="Times New Roman,serif" font-size="14.00">!(yn == null)/</text>
<text text-anchor="middle" x="182" y="-1739.8" font-family="Times New Roman,serif" font-size="14.00">change = true;</text>
</g>
<!-- N31&#45;&gt;N19 -->
<g id="edge35" class="edge">
<title>N31&#45;&gt;N19</title>
<path fill="none" stroke="black" d="M242.74,-1787.8C249.85,-1781.67 257.89,-1773.97 264,-1766 273.11,-1754.12 281.03,-1739.44 286.92,-1727.04"/>
<polygon fill="black" stroke="black" points="290.22,-1728.23 291.2,-1717.68 283.86,-1725.32 290.22,-1728.23"/>
<text text-anchor="middle" x="304.5" y="-1747.3" font-family="Times New Roman,serif" font-size="14.00">p = null;</text>
</g>
<!-- N38 -->
<g id="node39" class="node">
<title>N38</title>
<ellipse fill="none" stroke="black" cx="226" cy="-1700" rx="27" ry="18"/>
<text text-anchor="middle" x="226" y="-1696.3" font-family="Times New Roman,serif" font-size="14.00">N68</text>
</g>
<!-- N31&#45;&gt;N38 -->
<g id="edge37" class="edge">
<title>N31&#45;&gt;N38</title>
<path fill="none" stroke="black" d="M226,-1783.58C226,-1768.38 226,-1746.07 226,-1728.46"/>
<polygon fill="black" stroke="black" points="229.5,-1728.22 226,-1718.22 222.5,-1728.22 229.5,-1728.22"/>
<text text-anchor="middle" x="243" y="-1747.3" font-family="Times New Roman,serif" font-size="14.00">p = y;</text>
</g>
<!-- N32&#45;&gt;N31 -->
<g id="edge38" class="edge">
<title>N32&#45;&gt;N31</title>
<path fill="none" stroke="black" d="M224.4,-1870.8C224.68,-1859.16 225.05,-1843.55 225.36,-1830.24"/>
<polygon fill="black" stroke="black" points="228.86,-1830.26 225.6,-1820.18 221.86,-1830.09 228.86,-1830.26"/>
<text text-anchor="middle" x="243.5" y="-1841.8" font-family="Times New Roman,serif" font-size="14.00">yn = t;</text>
</g>
<!-- N33&#45;&gt;N14 -->
<g id="edge39" class="edge">
<title>N33&#45;&gt;N14</title>
<path fill="none" stroke="black" d="M274.42,-1192.75C273.83,-1173.63 273,-1141.86 273,-1114.5 273,-1114.5 273,-1114.5 273,-460 273,-440.75 273,-419.05 273,-402.4"/>
<polygon fill="black" stroke="black" points="276.5,-402.26 273,-392.26 269.5,-402.26 276.5,-402.26"/>
<text text-anchor="middle" x="298.5" y="-805.3" font-family="Times New Roman,serif" font-size="14.00">yn = y.n;</text>
</g>
<!-- N35 -->
<g id="node36" class="node">
<title>N35</title>
<ellipse fill="none" stroke="black" cx="118" cy="-192" rx="27" ry="18"/>
<text text-anchor="middle" x="118" y="-188.3" font-family="Times New Roman,serif" font-size="14.00">N62</text>
</g>
<!-- N34&#45;&gt;N35 -->
<g id="edge40" class="edge">
<title>N34&#45;&gt;N35</title>
<path fill="none" stroke="black" d="M120.42,-264.84C120,-252.28 119.42,-234.98 118.93,-220.5"/>
<polygon fill="black" stroke="black" points="122.41,-219.98 118.58,-210.11 115.42,-220.22 122.41,-219.98"/>
<text text-anchor="middle" x="143" y="-231.8" font-family="Times New Roman,serif" font-size="14.00">t = yn.n;</text>
</g>
<!-- N36 -->
<g id="node37" class="node">
<title>N36</title>
<ellipse fill="none" stroke="black" cx="73" cy="-105" rx="27" ry="18"/>
<text text-anchor="middle" x="73" y="-101.3" font-family="Times New Roman,serif" font-size="14.00">N63</text>
</g>
<!-- N35&#45;&gt;N36 -->
<g id="edge41" class="edge">
<title>N35&#45;&gt;N36</title>
<path fill="none" stroke="black" d="M109.32,-174.61C102.85,-162.38 93.88,-145.44 86.48,-131.46"/>
<polygon fill="black" stroke="black" points="89.42,-129.54 81.65,-122.34 83.24,-132.81 89.42,-129.54"/>
<text text-anchor="middle" x="119.5" y="-144.8" font-family="Times New Roman,serif" font-size="14.00">y.n = t;</text>
</g>
<!-- N37 -->
<g id="node38" class="node">
<title>N37</title>
<ellipse fill="none" stroke="black" cx="27" cy="-18" rx="27" ry="18"/>
<text text-anchor="middle" x="27" y="-14.3" font-family="Times New Roman,serif" font-size="14.00">N64</text>
</g>
<!-- N36&#45;&gt;N37 -->
<g id="edge42" class="edge">
<title>N36&#45;&gt;N37</title>
<path fill="none" stroke="black" d="M64.13,-87.61C57.47,-75.3 48.23,-58.23 40.63,-44.19"/>
<polygon fill="black" stroke="black" points="43.52,-42.18 35.69,-35.05 37.37,-45.51 43.52,-42.18"/>
<text text-anchor="middle" x="78.5" y="-57.8" font-family="Times New Roman,serif" font-size="14.00">yn.n = y;</text>
</g>
<!-- N37&#45;&gt;N11 -->
<g id="edge43" class="edge">
<title>N37&#45;&gt;N11</title>
<path fill="none" stroke="black" d="M21.94,-35.76C17.25,-52.78 11,-79.97 11,-104 11,-1890 11,-1890 11,-1890 11,-1923.63 35.4,-1955.28 54.75,-1975.08"/>
<polygon fill="black" stroke="black" points="52.53,-1977.81 62.12,-1982.32 57.44,-1972.82 52.53,-1977.81"/>
<text text-anchor="middle" x="37" y="-979.3" font-family="Times New Roman,serif" font-size="14.00">p.n = yn;</text>
</g>
<!-- N39 -->
<g id="node40" class="node">
<title>N39</title>
<ellipse fill="none" stroke="black" cx="187" cy="-1613" rx="27" ry="18"/>
<text text-anchor="middle" x="187" y="-1609.3" font-family="Times New Roman,serif" font-size="14.00">N69</text>
</g>
<!-- N38&#45;&gt;N39 -->
<g id="edge44" class="edge">
<title>N38&#45;&gt;N39</title>
<path fill="none" stroke="black" d="M217.92,-1682.68C215.05,-1676.81 211.84,-1670.13 209,-1664 205.42,-1656.25 201.63,-1647.77 198.23,-1640.03"/>
<polygon fill="black" stroke="black" points="201.38,-1638.5 194.18,-1630.74 194.97,-1641.3 201.38,-1638.5"/>
<text text-anchor="middle" x="229" y="-1652.8" font-family="Times New Roman,serif" font-size="14.00">y = yn;</text>
</g>
<!-- N40 -->
<g id="node41" class="node">
<title>N40</title>
<ellipse fill="none" stroke="black" cx="185" cy="-1526" rx="27" ry="18"/>
<text text-anchor="middle" x="185" y="-1522.3" font-family="Times New Roman,serif" font-size="14.00">N70</text>
</g>
<!-- N39&#45;&gt;N40 -->
<g id="edge45" class="edge">
<title>N39&#45;&gt;N40</title>
<path fill="none" stroke="black" d="M186.6,-1594.8C186.32,-1583.16 185.95,-1567.55 185.64,-1554.24"/>
<polygon fill="black" stroke="black" points="189.14,-1554.09 185.4,-1544.18 182.14,-1554.26 189.14,-1554.09"/>
<text text-anchor="middle" x="211.5" y="-1565.8" font-family="Times New Roman,serif" font-size="14.00">yn = y.n;</text>
</g>
<!-- N41 -->
<g id="node42" class="node">
<title>N41</title>
<ellipse fill="none" stroke="black" cx="174" cy="-1439" rx="27" ry="18"/>
<text text-anchor="middle" x="174" y="-1435.3" font-family="Times New Roman,serif" font-size="14.00">N71</text>
</g>
<!-- N40&#45;&gt;N41 -->
<g id="edge46" class="edge">
<title>N40&#45;&gt;N41</title>
<path fill="none" stroke="black" d="M182.77,-1507.8C181.27,-1496.16 179.25,-1480.55 177.52,-1467.24"/>
<polygon fill="black" stroke="black" points="180.98,-1466.64 176.22,-1457.18 174.04,-1467.54 180.98,-1466.64"/>
<text text-anchor="middle" x="203.5" y="-1478.8" font-family="Times New Roman,serif" font-size="14.00">p = null;</text>
</g>
<!-- N42 -->
<g id="node43" class="node">
<title>N42</title>
<ellipse fill="none" stroke="black" cx="182" cy="-1352" rx="27" ry="18"/>
<text text-anchor="middle" x="182" y="-1348.3" font-family="Times New Roman,serif" font-size="14.00">N72</text>
</g>
<!-- N41&#45;&gt;N42 -->
<g id="edge47" class="edge">
<title>N41&#45;&gt;N42</title>
<path fill="none" stroke="black" d="M171.18,-1420.79C170.04,-1411.11 169.34,-1398.83 171,-1388 171.42,-1385.26 172.02,-1382.44 172.71,-1379.65"/>
<polygon fill="black" stroke="black" points="176.13,-1380.42 175.57,-1369.84 169.41,-1378.47 176.13,-1380.42"/>
<text text-anchor="middle" x="213.5" y="-1391.8" font-family="Times New Roman,serif" font-size="14.00">change = false;</text>
</g>
<!-- N43 -->
<g id="node44" class="node">
<title>N43</title>
<ellipse fill="none" stroke="black" cx="183" cy="-1265" rx="27" ry="18"/>
<text text-anchor="middle" x="183" y="-1261.3" font-family="Times New Roman,serif" font-size="14.00">N73</text>
</g>
<!-- N42&#45;&gt;N43 -->
<g id="edge48" class="edge">
<title>N42&#45;&gt;N43</title>
<path fill="none" stroke="black" d="M182.2,-1333.8C182.34,-1322.16 182.52,-1306.55 182.68,-1293.24"/>
<polygon fill="black" stroke="black" points="186.18,-1293.22 182.8,-1283.18 179.18,-1293.13 186.18,-1293.22"/>
<text text-anchor="middle" x="208.5" y="-1304.8" font-family="Times New Roman,serif" font-size="14.00">y = head;</text>
</g>
<!-- N44 -->
<g id="node45" class="node">
<title>N44</title>
<ellipse fill="none" stroke="black" cx="197" cy="-1157" rx="27" ry="18"/>
<text text-anchor="middle" x="197" y="-1153.3" font-family="Times New Roman,serif" font-size="14.00">N74</text>
</g>
<!-- N43&#45;&gt;N44 -->
<g id="edge49" class="edge">
<title>N43&#45;&gt;N44</title>
<path fill="none" stroke="black" d="M183.33,-1246.97C183.82,-1232.53 185.03,-1211.3 188,-1193 188.44,-1190.31 188.99,-1187.52 189.6,-1184.74"/>
<polygon fill="black" stroke="black" points="193.01,-1185.5 191.98,-1174.96 186.21,-1183.85 193.01,-1185.5"/>
<text text-anchor="middle" x="213.5" y="-1207.3" font-family="Times New Roman,serif" font-size="14.00">yn = y.n;</text>
</g>
<!-- N45 -->
<g id="node46" class="node">
<title>N45</title>
<ellipse fill="none" stroke="black" cx="198" cy="-1070" rx="27" ry="18"/>
<text text-anchor="middle" x="198" y="-1066.3" font-family="Times New Roman,serif" font-size="14.00">N75</text>
</g>
<!-- N44&#45;&gt;N45 -->
<g id="edge50" class="edge">
<title>N44&#45;&gt;N45</title>
<path fill="none" stroke="black" d="M197.2,-1138.8C197.34,-1127.16 197.52,-1111.55 197.68,-1098.24"/>
<polygon fill="black" stroke="black" points="201.18,-1098.22 197.8,-1088.18 194.18,-1098.13 201.18,-1098.22"/>
<text text-anchor="middle" x="214" y="-1109.8" font-family="Times New Roman,serif" font-size="14.00">p = y;</text>
</g>
<!-- N46 -->
<g id="node47" class="node">
<title>N46</title>
<ellipse fill="none" stroke="black" cx="203" cy="-983" rx="27" ry="18"/>
<text text-anchor="middle" x="203" y="-979.3" font-family="Times New Roman,serif" font-size="14.00">N76</text>
</g>
<!-- N45&#45;&gt;N46 -->
<g id="edge51" class="edge">
<title>N45&#45;&gt;N46</title>
<path fill="none" stroke="black" d="M199.01,-1051.8C199.7,-1040.16 200.61,-1024.55 201.4,-1011.24"/>
<polygon fill="black" stroke="black" points="204.9,-1011.36 201.99,-1001.18 197.91,-1010.95 204.9,-1011.36"/>
<text text-anchor="middle" x="220" y="-1022.8" font-family="Times New Roman,serif" font-size="14.00">y = yn;</text>
</g>
<!-- N47 -->
<g id="node48" class="node">
<title>N47</title>
<ellipse fill="none" stroke="black" cx="205" cy="-896" rx="27" ry="18"/>
<text text-anchor="middle" x="205" y="-892.3" font-family="Times New Roman,serif" font-size="14.00">N77</text>
</g>
<!-- N46&#45;&gt;N47 -->
<g id="edge52" class="edge">
<title>N46&#45;&gt;N47</title>
<path fill="none" stroke="black" d="M203.4,-964.8C203.68,-953.16 204.05,-937.55 204.36,-924.24"/>
<polygon fill="black" stroke="black" points="207.86,-924.26 204.6,-914.18 200.86,-924.09 207.86,-924.26"/>
<text text-anchor="middle" x="229.5" y="-935.8" font-family="Times New Roman,serif" font-size="14.00">yn = y.n;</text>
</g>
<!-- N48 -->
<g id="node49" class="node">
<title>N48</title>
<ellipse fill="none" stroke="black" cx="205" cy="-809" rx="27" ry="18"/>
<text text-anchor="middle" x="205" y="-805.3" font-family="Times New Roman,serif" font-size="14.00">N78</text>
</g>
<!-- N47&#45;&gt;N48 -->
<g id="edge53" class="edge">
<title>N47&#45;&gt;N48</title>
<path fill="none" stroke="black" d="M205,-877.8C205,-866.16 205,-850.55 205,-837.24"/>
<polygon fill="black" stroke="black" points="208.5,-837.18 205,-827.18 201.5,-837.18 208.5,-837.18"/>
<text text-anchor="middle" x="222" y="-848.8" font-family="Times New Roman,serif" font-size="14.00">p = y;</text>
</g>
<!-- N49 -->
<g id="node50" class="node">
<title>N49</title>
<ellipse fill="none" stroke="black" cx="205" cy="-722" rx="27" ry="18"/>
<text text-anchor="middle" x="205" y="-718.3" font-family="Times New Roman,serif" font-size="14.00">N79</text>
</g>
<!-- N48&#45;&gt;N49 -->
<g id="edge54" class="edge">
<title>N48&#45;&gt;N49</title>
<path fill="none" stroke="black" d="M205,-790.8C205,-779.16 205,-763.55 205,-750.24"/>
<polygon fill="black" stroke="black" points="208.5,-750.18 205,-740.18 201.5,-750.18 208.5,-750.18"/>
<text text-anchor="middle" x="225" y="-761.8" font-family="Times New Roman,serif" font-size="14.00">y = yn;</text>
</g>
<!-- N50 -->
<g id="node51" class="node">
<title>N50</title>
<ellipse fill="none" stroke="black" cx="207" cy="-635" rx="27" ry="18"/>
<text text-anchor="middle" x="207" y="-631.3" font-family="Times New Roman,serif" font-size="14.00">N80</text>
</g>
<!-- N49&#45;&gt;N50 -->
<g id="edge55" class="edge">
<title>N49&#45;&gt;N50</title>
<path fill="none" stroke="black" d="M205.4,-703.8C205.68,-692.16 206.05,-676.55 206.36,-663.24"/>
<polygon fill="black" stroke="black" points="209.86,-663.26 206.6,-653.18 202.86,-663.09 209.86,-663.26"/>
<text text-anchor="middle" x="231.5" y="-674.8" font-family="Times New Roman,serif" font-size="14.00">yn = y.n;</text>
</g>
<!-- N51 -->
<g id="node52" class="node">
<title>N51</title>
<ellipse fill="none" stroke="black" cx="207" cy="-548" rx="27" ry="18"/>
<text text-anchor="middle" x="207" y="-544.3" font-family="Times New Roman,serif" font-size="14.00">N81</text>
</g>
<!-- N50&#45;&gt;N51 -->
<g id="edge56" class="edge">
<title>N50&#45;&gt;N51</title>
<path fill="none" stroke="black" d="M207,-616.8C207,-605.16 207,-589.55 207,-576.24"/>
<polygon fill="black" stroke="black" points="210.5,-576.18 207,-566.18 203.5,-576.18 210.5,-576.18"/>
<text text-anchor="middle" x="224" y="-587.8" font-family="Times New Roman,serif" font-size="14.00">p = y;</text>
</g>
<!-- N52 -->
<g id="node53" class="node">
<title>N52</title>
<ellipse fill="none" stroke="black" cx="207" cy="-461" rx="27" ry="18"/>
<text text-anchor="middle" x="207" y="-457.3" font-family="Times New Roman,serif" font-size="14.00">N82</text>
</g>
<!-- N51&#45;&gt;N52 -->
<g id="edge57" class="edge">
<title>N51&#45;&gt;N52</title>
<path fill="none" stroke="black" d="M207,-529.8C207,-518.16 207,-502.55 207,-489.24"/>
<polygon fill="black" stroke="black" points="210.5,-489.18 207,-479.18 203.5,-489.18 210.5,-489.18"/>
<text text-anchor="middle" x="227" y="-500.8" font-family="Times New Roman,serif" font-size="14.00">y = yn;</text>
</g>
<!-- N52&#45;&gt;N14 -->
<g id="edge58" class="edge">
<title>N52&#45;&gt;N14</title>
<path fill="none" stroke="black" d="M203.27,-443.06C201.95,-432.77 202.03,-419.78 208,-410 214.96,-398.61 227.02,-390.69 238.87,-385.31"/>
<polygon fill="black" stroke="black" points="240.28,-388.52 248.23,-381.52 237.65,-382.03 240.28,-388.52"/>
<text text-anchor="middle" x="233.5" y="-413.8" font-family="Times New Roman,serif" font-size="14.00">yn = y.n;</text>
</g>
<!-- N54 -->
<g id="node55" class="node">
<title>N54</title>
<ellipse fill="none" stroke="black" cx="289" cy="-2258" rx="27" ry="18"/>
<text text-anchor="middle" x="289" y="-2254.3" font-family="Times New Roman,serif" font-size="14.00">N85</text>
</g>
<!-- N53&#45;&gt;N54 -->
<g id="edge59" class="edge">
<title>N53&#45;&gt;N54</title>
<path fill="none" stroke="black" d="M286.48,-2347.97C286.95,-2331.38 287.67,-2305.88 288.22,-2286.43"/>
<polygon fill="black" stroke="black" points="291.72,-2286.44 288.51,-2276.34 284.73,-2286.24 291.72,-2286.44"/>
<text text-anchor="middle" x="307" y="-2308.3" font-family="Times New Roman,serif" font-size="14.00">y = yn;</text>
</g>
<!-- N55 -->
<g id="node56" class="node">
<title>N55</title>
<ellipse fill="none" stroke="black" cx="293" cy="-2171" rx="27" ry="18"/>
<text text-anchor="middle" x="293" y="-2167.3" font-family="Times New Roman,serif" font-size="14.00">N86</text>
</g>
<!-- N54&#45;&gt;N55 -->
<g id="edge60" class="edge">
<title>N54&#45;&gt;N55</title>
<path fill="none" stroke="black" d="M289.81,-2239.8C290.36,-2228.16 291.09,-2212.55 291.72,-2199.24"/>
<polygon fill="black" stroke="black" points="295.22,-2199.33 292.19,-2189.18 288.23,-2199 295.22,-2199.33"/>
<text text-anchor="middle" x="316.5" y="-2210.8" font-family="Times New Roman,serif" font-size="14.00">yn = y.n;</text>
</g>
<!-- N56 -->
<g id="node57" class="node">
<title>N56</title>
<ellipse fill="none" stroke="black" cx="314" cy="-2084" rx="27" ry="18"/>
<text text-anchor="middle" x="314" y="-2080.3" font-family="Times New Roman,serif" font-size="14.00">N87</text>
</g>
<!-- N55&#45;&gt;N56 -->
<g id="edge61" class="edge">
<title>N55&#45;&gt;N56</title>
<path fill="none" stroke="black" d="M297.15,-2153.21C300.06,-2141.41 304.02,-2125.38 307.37,-2111.82"/>
<polygon fill="black" stroke="black" points="310.79,-2112.6 309.79,-2102.05 303.99,-2110.92 310.79,-2112.6"/>
<text text-anchor="middle" x="321" y="-2123.8" font-family="Times New Roman,serif" font-size="14.00">p = y;</text>
</g>
<!-- N57 -->
<g id="node58" class="node">
<title>N57</title>
<ellipse fill="none" stroke="black" cx="352" cy="-1943" rx="27" ry="18"/>
<text text-anchor="middle" x="352" y="-1939.3" font-family="Times New Roman,serif" font-size="14.00">N88</text>
</g>
<!-- N56&#45;&gt;N57 -->
<g id="edge62" class="edge">
<title>N56&#45;&gt;N57</title>
<path fill="none" stroke="black" d="M318.58,-2066.23C325.06,-2042.54 336.96,-1999.02 344.67,-1970.81"/>
<polygon fill="black" stroke="black" points="348.14,-1971.4 347.4,-1960.83 341.39,-1969.55 348.14,-1971.4"/>
<text text-anchor="middle" x="347" y="-2036.8" font-family="Times New Roman,serif" font-size="14.00">y = yn;</text>
</g>
<!-- N57&#45;&gt;N14 -->
<g id="edge63" class="edge">
<title>N57&#45;&gt;N14</title>
<path fill="none" stroke="black" d="M353.16,-1924.76C354.34,-1905.64 356,-1873.88 356,-1846.5 356,-1846.5 356,-1846.5 356,-460 356,-428.73 326.88,-404.68 303.14,-390.27"/>
<polygon fill="black" stroke="black" points="304.79,-387.18 294.37,-385.22 301.29,-393.25 304.79,-387.18"/>
<text text-anchor="middle" x="381.5" y="-1153.3" font-family="Times New Roman,serif" font-size="14.00">yn = y.n;</text>
</g>
</g>
</svg>
