<?xml version="1.0" encoding="UTF-8" standalone="no"?>
<!DOCTYPE svg PUBLIC "-//W3C//DTD SVG 1.1//EN"
 "http://www.w3.org/Graphics/SVG/1.1/DTD/svg11.dtd">
<!-- Generated by graphviz version 2.46.1 (20210213.1702)
 -->
<!-- Title: anonymous_graph Pages: 1 -->
<svg width="648pt" height="1372pt"
 viewBox="0.00 0.00 648.00 1372.00" xmlns="http://www.w3.org/2000/svg" xmlns:xlink="http://www.w3.org/1999/xlink">
<g id="graph0" class="graph" transform="scale(1 1) rotate(0) translate(4 1368)">
<title>anonymous_graph</title>
<polygon fill="white" stroke="transparent" points="-4,4 -4,-1368 644,-1368 644,4 -4,4"/>
<!-- N0 -->
<g id="node1" class="node">
<title>N0</title>
<ellipse fill="none" stroke="black" cx="73" cy="-1346" rx="29.5" ry="18"/>
<text text-anchor="middle" x="73" y="-1342.3" font-family="Times New Roman,serif" font-size="14.00">initial</text>
</g>
<!-- N2 -->
<g id="node3" class="node">
<title>N2</title>
<ellipse fill="none" stroke="black" cx="73" cy="-1259" rx="27" ry="18"/>
<text text-anchor="middle" x="73" y="-1255.3" font-family="Times New Roman,serif" font-size="14.00">N1</text>
</g>
<!-- N0&#45;&gt;N2 -->
<g id="edge1" class="edge">
<title>N0&#45;&gt;N2</title>
<path fill="none" stroke="black" d="M73,-1327.8C73,-1316.16 73,-1300.55 73,-1287.24"/>
<polygon fill="black" stroke="black" points="76.5,-1287.18 73,-1277.18 69.5,-1287.18 76.5,-1287.18"/>
<text text-anchor="middle" x="113" y="-1298.8" font-family="Times New Roman,serif" font-size="14.00">change = true;</text>
</g>
<!-- N1 -->
<g id="node2" class="node">
<title>N1</title>
<ellipse fill="none" stroke="black" cx="297" cy="-805" rx="27" ry="18"/>
<ellipse fill="none" stroke="black" cx="297" cy="-805" rx="31" ry="22"/>
<text text-anchor="middle" x="297" y="-801.3" font-family="Times New Roman,serif" font-size="14.00">final</text>
</g>
<!-- N19 -->
<g id="node20" class="node">
<title>N19</title>
<ellipse fill="none" stroke="black" cx="73" cy="-1172" rx="27" ry="18"/>
<text text-anchor="middle" x="73" y="-1168.3" font-family="Times New Roman,serif" font-size="14.00">N71</text>
</g>
<!-- N2&#45;&gt;N19 -->
<g id="edge2" class="edge">
<title>N2&#45;&gt;N19</title>
<path fill="none" stroke="black" d="M73,-1240.8C73,-1229.16 73,-1213.55 73,-1200.24"/>
<polygon fill="black" stroke="black" points="76.5,-1200.18 73,-1190.18 69.5,-1200.18 76.5,-1200.18"/>
<text text-anchor="middle" x="96.5" y="-1211.8" font-family="Times New Roman,serif" font-size="14.00">p = null;</text>
</g>
<!-- N3 -->
<g id="node4" class="node">
<title>N3</title>
<ellipse fill="none" stroke="black" cx="201" cy="-805" rx="27" ry="18"/>
<text text-anchor="middle" x="201" y="-801.3" font-family="Times New Roman,serif" font-size="14.00">N6</text>
</g>
<!-- N12 -->
<g id="node13" class="node">
<title>N12</title>
<ellipse fill="none" stroke="black" cx="192" cy="-714" rx="27" ry="18"/>
<text text-anchor="middle" x="192" y="-710.3" font-family="Times New Roman,serif" font-size="14.00">N41</text>
</g>
<!-- N3&#45;&gt;N12 -->
<g id="edge3" class="edge">
<title>N3&#45;&gt;N12</title>
<path fill="none" stroke="black" d="M197.42,-786.99C196.13,-780.18 194.79,-772.25 194,-765 193.2,-757.69 192.71,-749.75 192.42,-742.39"/>
<polygon fill="black" stroke="black" points="195.91,-742.06 192.1,-732.17 188.91,-742.27 195.91,-742.06"/>
<text text-anchor="middle" x="218" y="-753.8" font-family="Times New Roman,serif" font-size="14.00">t = yn.n;</text>
</g>
<!-- N4 -->
<g id="node5" class="node">
<title>N4</title>
<ellipse fill="none" stroke="black" cx="128" cy="-453" rx="27" ry="18"/>
<text text-anchor="middle" x="128" y="-449.3" font-family="Times New Roman,serif" font-size="14.00">N10</text>
</g>
<!-- N15 -->
<g id="node16" class="node">
<title>N15</title>
<ellipse fill="none" stroke="black" cx="128" cy="-366" rx="27" ry="18"/>
<text text-anchor="middle" x="128" y="-362.3" font-family="Times New Roman,serif" font-size="14.00">N52</text>
</g>
<!-- N4&#45;&gt;N15 -->
<g id="edge4" class="edge">
<title>N4&#45;&gt;N15</title>
<path fill="none" stroke="black" d="M128,-434.8C128,-423.16 128,-407.55 128,-394.24"/>
<polygon fill="black" stroke="black" points="131.5,-394.18 128,-384.18 124.5,-394.18 131.5,-394.18"/>
<text text-anchor="middle" x="148.5" y="-405.8" font-family="Times New Roman,serif" font-size="14.00">p = yn;</text>
</g>
<!-- N5 -->
<g id="node6" class="node">
<title>N5</title>
<ellipse fill="none" stroke="black" cx="141" cy="-1085" rx="27" ry="18"/>
<text text-anchor="middle" x="141" y="-1081.3" font-family="Times New Roman,serif" font-size="14.00">N14</text>
</g>
<!-- N7 -->
<g id="node8" class="node">
<title>N7</title>
<ellipse fill="none" stroke="black" cx="219" cy="-998" rx="27" ry="18"/>
<text text-anchor="middle" x="219" y="-994.3" font-family="Times New Roman,serif" font-size="14.00">N29</text>
</g>
<!-- N5&#45;&gt;N7 -->
<g id="edge5" class="edge">
<title>N5&#45;&gt;N7</title>
<path fill="none" stroke="black" d="M154.59,-1069.19C166.78,-1055.91 184.84,-1036.23 198.73,-1021.08"/>
<polygon fill="black" stroke="black" points="201.39,-1023.37 205.57,-1013.64 196.23,-1018.64 201.39,-1023.37"/>
<text text-anchor="middle" x="210.5" y="-1037.8" font-family="Times New Roman,serif" font-size="14.00">y = head;</text>
</g>
<!-- N6 -->
<g id="node7" class="node">
<title>N6</title>
<ellipse fill="none" stroke="black" cx="181" cy="-540" rx="27" ry="18"/>
<text text-anchor="middle" x="181" y="-536.3" font-family="Times New Roman,serif" font-size="14.00">N23</text>
</g>
<!-- N6&#45;&gt;N4 -->
<g id="edge6" class="edge">
<title>N6&#45;&gt;N4</title>
<path fill="none" stroke="black" d="M175.09,-522.13C171.22,-512.11 165.65,-499.38 159,-489 156.17,-484.58 152.8,-480.17 149.33,-476.04"/>
<polygon fill="black" stroke="black" points="151.92,-473.68 142.68,-468.5 146.68,-478.32 151.92,-473.68"/>
<text text-anchor="middle" x="196" y="-492.8" font-family="Times New Roman,serif" font-size="14.00">head = yn;</text>
</g>
<!-- N6&#45;&gt;N4 -->
<g id="edge7" class="edge">
<title>N6&#45;&gt;N4</title>
<path fill="none" stroke="black" d="M154.81,-534.79C136.88,-530.4 114.37,-521.57 103,-504 97.32,-495.23 100.84,-485 106.82,-476.09"/>
<polygon fill="black" stroke="black" points="109.71,-478.07 113.09,-468.03 104.18,-473.77 109.71,-478.07"/>
<text text-anchor="middle" x="129" y="-492.8" font-family="Times New Roman,serif" font-size="14.00">p.n = yn;</text>
</g>
<!-- N11 -->
<g id="node12" class="node">
<title>N11</title>
<ellipse fill="none" stroke="black" cx="338" cy="-911" rx="27" ry="18"/>
<text text-anchor="middle" x="338" y="-907.3" font-family="Times New Roman,serif" font-size="14.00">N39</text>
</g>
<!-- N7&#45;&gt;N11 -->
<g id="edge8" class="edge">
<title>N7&#45;&gt;N11</title>
<path fill="none" stroke="black" d="M236.82,-984.27C256.71,-970.07 289.09,-946.93 311.86,-930.67"/>
<polygon fill="black" stroke="black" points="313.96,-933.47 320.06,-924.81 309.89,-927.78 313.96,-933.47"/>
<text text-anchor="middle" x="310.5" y="-950.8" font-family="Times New Roman,serif" font-size="14.00">yn = y.n;</text>
</g>
<!-- N8 -->
<g id="node9" class="node">
<title>N8</title>
<ellipse fill="none" stroke="black" cx="532" cy="-805" rx="27" ry="18"/>
<text text-anchor="middle" x="532" y="-801.3" font-family="Times New Roman,serif" font-size="14.00">N31</text>
</g>
<!-- N10 -->
<g id="node11" class="node">
<title>N10</title>
<ellipse fill="none" stroke="black" cx="563" cy="-714" rx="27" ry="18"/>
<text text-anchor="middle" x="563" y="-710.3" font-family="Times New Roman,serif" font-size="14.00">N38</text>
</g>
<!-- N8&#45;&gt;N10 -->
<g id="edge9" class="edge">
<title>N8&#45;&gt;N10</title>
<path fill="none" stroke="black" d="M533.1,-787.01C534.22,-776.14 536.48,-761.91 541,-750 542.42,-746.26 544.27,-742.48 546.29,-738.87"/>
<polygon fill="black" stroke="black" points="549.28,-740.69 551.52,-730.33 543.31,-737.03 549.28,-740.69"/>
<text text-anchor="middle" x="561" y="-753.8" font-family="Times New Roman,serif" font-size="14.00">y = yn;</text>
</g>
<!-- N9 -->
<g id="node10" class="node">
<title>N9</title>
<ellipse fill="none" stroke="black" cx="397" cy="-714" rx="27" ry="18"/>
<text text-anchor="middle" x="397" y="-710.3" font-family="Times New Roman,serif" font-size="14.00">N35</text>
</g>
<!-- N9&#45;&gt;N11 -->
<g id="edge10" class="edge">
<title>N9&#45;&gt;N11</title>
<path fill="none" stroke="black" d="M390.64,-731.62C385.52,-745.3 378.34,-765.26 373,-783 360.86,-823.36 361.96,-834.58 350,-875 349.16,-877.83 348.24,-880.77 347.29,-883.69"/>
<polygon fill="black" stroke="black" points="343.91,-882.76 344.03,-893.36 350.54,-885 343.91,-882.76"/>
<text text-anchor="middle" x="398.5" y="-801.3" font-family="Times New Roman,serif" font-size="14.00">yn = y.n;</text>
</g>
<!-- N10&#45;&gt;N11 -->
<g id="edge11" class="edge">
<title>N10&#45;&gt;N11</title>
<path fill="none" stroke="black" d="M573.12,-730.75C576.29,-736.57 579.39,-743.36 581,-750 594.33,-805.07 597.74,-836.69 556,-875 530.2,-898.68 430.17,-906.39 375.02,-908.86"/>
<polygon fill="black" stroke="black" points="374.79,-905.37 364.94,-909.27 375.08,-912.36 374.79,-905.37"/>
<text text-anchor="middle" x="614.5" y="-801.3" font-family="Times New Roman,serif" font-size="14.00">yn = y.n;</text>
</g>
<!-- N11&#45;&gt;N1 -->
<g id="edge14" class="edge">
<title>N11&#45;&gt;N1</title>
<path fill="none" stroke="black" d="M325.15,-894.78C320.74,-888.91 316.13,-881.94 313,-875 307.68,-863.21 304.03,-849.46 301.57,-837.35"/>
<polygon fill="black" stroke="black" points="304.96,-836.43 299.72,-827.22 298.08,-837.69 304.96,-836.43"/>
<text text-anchor="middle" x="331.5" y="-856.3" font-family="Times New Roman,serif" font-size="14.00">return;</text>
</g>
<!-- N11&#45;&gt;N3 -->
<g id="edge15" class="edge">
<title>N11&#45;&gt;N3</title>
<path fill="none" stroke="black" d="M310.97,-909.4C283.98,-907.32 243.13,-899.89 219,-875 208.29,-863.95 203.73,-847.36 201.88,-833.22"/>
<polygon fill="black" stroke="black" points="205.35,-832.65 200.94,-823.01 198.38,-833.29 205.35,-832.65"/>
<text text-anchor="middle" x="259" y="-856.3" font-family="Times New Roman,serif" font-size="14.00">change = true;</text>
</g>
<!-- N11&#45;&gt;N3 -->
<g id="edge16" class="edge">
<title>N11&#45;&gt;N3</title>
<path fill="none" stroke="black" d="M310.9,-909.83C258.04,-908.86 144.24,-903.44 120,-875 111.35,-864.85 112.91,-856.29 120,-845 130.07,-828.98 148.76,-819.39 165.65,-813.73"/>
<polygon fill="black" stroke="black" points="166.74,-817.06 175.31,-810.83 164.73,-810.35 166.74,-817.06"/>
<text text-anchor="middle" x="160" y="-863.8" font-family="Times New Roman,serif" font-size="14.00">!(0 &lt; yn.d)/</text>
<text text-anchor="middle" x="160" y="-848.8" font-family="Times New Roman,serif" font-size="14.00">change = true;</text>
</g>
<!-- N11&#45;&gt;N8 -->
<g id="edge12" class="edge">
<title>N11&#45;&gt;N8</title>
<path fill="none" stroke="black" d="M365.26,-910.54C399.01,-909.85 456.73,-904.03 495,-875 508.9,-864.45 518.17,-847.13 523.95,-832.49"/>
<polygon fill="black" stroke="black" points="527.31,-833.48 527.41,-822.89 520.72,-831.11 527.31,-833.48"/>
<text text-anchor="middle" x="535" y="-856.3" font-family="Times New Roman,serif" font-size="14.00">p = y;</text>
</g>
<!-- N20 -->
<g id="node21" class="node">
<title>N20</title>
<ellipse fill="none" stroke="black" cx="460" cy="-805" rx="27" ry="18"/>
<text text-anchor="middle" x="460" y="-801.3" font-family="Times New Roman,serif" font-size="14.00">N84</text>
</g>
<!-- N11&#45;&gt;N20 -->
<g id="edge13" class="edge">
<title>N11&#45;&gt;N20</title>
<path fill="none" stroke="black" d="M353.95,-896.4C374.96,-878.5 412.07,-846.86 436.35,-826.16"/>
<polygon fill="black" stroke="black" points="438.71,-828.75 444.05,-819.6 434.17,-823.42 438.71,-828.75"/>
<text text-anchor="middle" x="452" y="-863.8" font-family="Times New Roman,serif" font-size="14.00">!(1 &lt; head.d)/</text>
<text text-anchor="middle" x="452" y="-848.8" font-family="Times New Roman,serif" font-size="14.00">p = y;</text>
</g>
<!-- N13 -->
<g id="node14" class="node">
<title>N13</title>
<ellipse fill="none" stroke="black" cx="187" cy="-627" rx="27" ry="18"/>
<text text-anchor="middle" x="187" y="-623.3" font-family="Times New Roman,serif" font-size="14.00">N42</text>
</g>
<!-- N12&#45;&gt;N13 -->
<g id="edge17" class="edge">
<title>N12&#45;&gt;N13</title>
<path fill="none" stroke="black" d="M190.99,-695.8C190.3,-684.16 189.39,-668.55 188.6,-655.24"/>
<polygon fill="black" stroke="black" points="192.09,-654.95 188.01,-645.18 185.1,-655.36 192.09,-654.95"/>
<text text-anchor="middle" x="209.5" y="-666.8" font-family="Times New Roman,serif" font-size="14.00">y.n = t;</text>
</g>
<!-- N13&#45;&gt;N6 -->
<g id="edge18" class="edge">
<title>N13&#45;&gt;N6</title>
<path fill="none" stroke="black" d="M185.79,-608.8C184.96,-597.16 183.86,-581.55 182.92,-568.24"/>
<polygon fill="black" stroke="black" points="186.41,-567.9 182.21,-558.18 179.43,-568.4 186.41,-567.9"/>
<text text-anchor="middle" x="209.5" y="-579.8" font-family="Times New Roman,serif" font-size="14.00">yn.n = y;</text>
</g>
<!-- N14 -->
<g id="node15" class="node">
<title>N14</title>
<ellipse fill="none" stroke="black" cx="95" cy="-279" rx="27" ry="18"/>
<text text-anchor="middle" x="95" y="-275.3" font-family="Times New Roman,serif" font-size="14.00">N46</text>
</g>
<!-- N14&#45;&gt;N3 -->
<g id="edge21" class="edge">
<title>N14&#45;&gt;N3</title>
<path fill="none" stroke="black" d="M121.95,-282.1C167.78,-287.31 256,-305.1 256,-365 256,-715 256,-715 256,-715 256,-738.08 253.9,-745.23 242,-765 237.89,-771.83 232.27,-778.25 226.51,-783.83"/>
<polygon fill="black" stroke="black" points="223.77,-781.58 218.69,-790.88 228.46,-786.78 223.77,-781.58"/>
<text text-anchor="middle" x="296" y="-543.8" font-family="Times New Roman,serif" font-size="14.00">!(yn == null)/</text>
<text text-anchor="middle" x="296" y="-528.8" font-family="Times New Roman,serif" font-size="14.00">change = true;</text>
</g>
<!-- N16 -->
<g id="node17" class="node">
<title>N16</title>
<ellipse fill="none" stroke="black" cx="72" cy="-192" rx="27" ry="18"/>
<text text-anchor="middle" x="72" y="-188.3" font-family="Times New Roman,serif" font-size="14.00">N68</text>
</g>
<!-- N14&#45;&gt;N16 -->
<g id="edge20" class="edge">
<title>N14&#45;&gt;N16</title>
<path fill="none" stroke="black" d="M90.46,-261.21C87.24,-249.33 82.87,-233.17 79.19,-219.56"/>
<polygon fill="black" stroke="black" points="82.53,-218.5 76.53,-209.76 75.77,-220.33 82.53,-218.5"/>
<text text-anchor="middle" x="101" y="-231.8" font-family="Times New Roman,serif" font-size="14.00">p = y;</text>
</g>
<!-- N14&#45;&gt;N19 -->
<g id="edge19" class="edge">
<title>N14&#45;&gt;N19</title>
<path fill="none" stroke="black" d="M88.04,-296.61C81.59,-313.51 73,-340.61 73,-365 73,-1086 73,-1086 73,-1086 73,-1105.25 73,-1126.95 73,-1143.6"/>
<polygon fill="black" stroke="black" points="69.5,-1143.74 73,-1153.74 76.5,-1143.74 69.5,-1143.74"/>
<text text-anchor="middle" x="96.5" y="-710.3" font-family="Times New Roman,serif" font-size="14.00">p = null;</text>
</g>
<!-- N15&#45;&gt;N14 -->
<g id="edge22" class="edge">
<title>N15&#45;&gt;N14</title>
<path fill="none" stroke="black" d="M121.48,-348.21C116.82,-336.22 110.47,-319.85 105.16,-306.16"/>
<polygon fill="black" stroke="black" points="108.39,-304.81 101.51,-296.76 101.86,-307.35 108.39,-304.81"/>
<text text-anchor="middle" x="131.5" y="-318.8" font-family="Times New Roman,serif" font-size="14.00">yn = t;</text>
</g>
<!-- N17 -->
<g id="node18" class="node">
<title>N17</title>
<ellipse fill="none" stroke="black" cx="69" cy="-105" rx="27" ry="18"/>
<text text-anchor="middle" x="69" y="-101.3" font-family="Times New Roman,serif" font-size="14.00">N69</text>
</g>
<!-- N16&#45;&gt;N17 -->
<g id="edge23" class="edge">
<title>N16&#45;&gt;N17</title>
<path fill="none" stroke="black" d="M71.39,-173.8C70.98,-162.16 70.43,-146.55 69.96,-133.24"/>
<polygon fill="black" stroke="black" points="73.46,-133.05 69.61,-123.18 66.46,-133.29 73.46,-133.05"/>
<text text-anchor="middle" x="90" y="-144.8" font-family="Times New Roman,serif" font-size="14.00">y = yn;</text>
</g>
<!-- N18 -->
<g id="node19" class="node">
<title>N18</title>
<ellipse fill="none" stroke="black" cx="27" cy="-18" rx="27" ry="18"/>
<text text-anchor="middle" x="27" y="-14.3" font-family="Times New Roman,serif" font-size="14.00">N70</text>
</g>
<!-- N17&#45;&gt;N18 -->
<g id="edge24" class="edge">
<title>N17&#45;&gt;N18</title>
<path fill="none" stroke="black" d="M60.9,-87.61C54.86,-75.38 46.49,-58.44 39.58,-44.46"/>
<polygon fill="black" stroke="black" points="42.64,-42.75 35.07,-35.34 36.37,-45.85 42.64,-42.75"/>
<text text-anchor="middle" x="76.5" y="-57.8" font-family="Times New Roman,serif" font-size="14.00">yn = y.n;</text>
</g>
<!-- N18&#45;&gt;N19 -->
<g id="edge25" class="edge">
<title>N18&#45;&gt;N19</title>
<path fill="none" stroke="black" d="M21.94,-35.76C17.25,-52.78 11,-79.97 11,-104 11,-1086 11,-1086 11,-1086 11,-1112.29 30.6,-1135.89 47.77,-1151.52"/>
<polygon fill="black" stroke="black" points="45.54,-1154.22 55.4,-1158.11 50.12,-1148.93 45.54,-1154.22"/>
<text text-anchor="middle" x="34.5" y="-579.8" font-family="Times New Roman,serif" font-size="14.00">p = null;</text>
</g>
<!-- N19&#45;&gt;N5 -->
<g id="edge26" class="edge">
<title>N19&#45;&gt;N5</title>
<path fill="none" stroke="black" d="M85.16,-1155.8C95.44,-1142.95 110.35,-1124.32 122.17,-1109.54"/>
<polygon fill="black" stroke="black" points="125.21,-1111.35 128.72,-1101.35 119.74,-1106.97 125.21,-1111.35"/>
<text text-anchor="middle" x="153.5" y="-1124.8" font-family="Times New Roman,serif" font-size="14.00">change = false;</text>
</g>
<!-- N20&#45;&gt;N9 -->
<g id="edge27" class="edge">
<title>N20&#45;&gt;N9</title>
<path fill="none" stroke="black" d="M449.03,-788.5C439.33,-774.8 425.04,-754.61 413.88,-738.85"/>
<polygon fill="black" stroke="black" points="416.69,-736.76 408.06,-730.62 410.98,-740.81 416.69,-736.76"/>
<text text-anchor="middle" x="452" y="-753.8" font-family="Times New Roman,serif" font-size="14.00">y = yn;</text>
</g>
</g>
</svg>
