<?xml version="1.0" encoding="UTF-8" standalone="no"?>
<!DOCTYPE svg PUBLIC "-//W3C//DTD SVG 1.1//EN"
 "http://www.w3.org/Graphics/SVG/1.1/DTD/svg11.dtd">
<!-- Generated by graphviz version 2.46.1 (20210213.1702)
 -->
<!-- Title: anonymous_graph Pages: 1 -->
<svg width="935pt" height="523pt"
 viewBox="0.00 0.00 935.00 523.00" xmlns="http://www.w3.org/2000/svg" xmlns:xlink="http://www.w3.org/1999/xlink">
<g id="graph0" class="graph" transform="scale(1 1) rotate(0) translate(4 519)">
<title>anonymous_graph</title>
<polygon fill="white" stroke="transparent" points="-4,4 -4,-519 931,-519 931,4 -4,4"/>
<!-- N0 -->
<g id="node1" class="node">
<title>N0</title>
<ellipse fill="none" stroke="black" cx="423" cy="-497" rx="29.5" ry="18"/>
<text text-anchor="middle" x="423" y="-493.3" font-family="Times New Roman,serif" font-size="14.00">initial</text>
</g>
<!-- N1 -->
<g id="node2" class="node">
<title>N1</title>
<ellipse fill="none" stroke="black" cx="31" cy="-241" rx="27" ry="18"/>
<ellipse fill="none" stroke="black" cx="31" cy="-241" rx="31" ry="22"/>
<text text-anchor="middle" x="31" y="-237.3" font-family="Times New Roman,serif" font-size="14.00">final</text>
</g>
<!-- N0&#45;&gt;N1 -->
<g id="edge4" class="edge">
<title>N0&#45;&gt;N1</title>
<path fill="none" stroke="black" d="M393.57,-495.6C306.76,-494.1 56.35,-487.51 32,-461 -15.33,-409.48 4.86,-318.89 19.96,-272"/>
<polygon fill="black" stroke="black" points="23.31,-273.01 23.17,-262.42 16.68,-270.79 23.31,-273.01"/>
<text text-anchor="middle" x="126.5" y="-374.8" font-family="Times New Roman,serif" font-size="14.00">yn == null &amp;&amp; !(change == true)/</text>
<text text-anchor="middle" x="126.5" y="-359.8" font-family="Times New Roman,serif" font-size="14.00">return;</text>
</g>
<!-- N2 -->
<g id="node3" class="node">
<title>N2</title>
<ellipse fill="none" stroke="black" cx="578" cy="-241" rx="27" ry="18"/>
<text text-anchor="middle" x="578" y="-237.3" font-family="Times New Roman,serif" font-size="14.00">N6</text>
</g>
<!-- N0&#45;&gt;N2 -->
<g id="edge1" class="edge">
<title>N0&#45;&gt;N2</title>
<path fill="none" stroke="black" d="M394.08,-493.64C353.89,-489.7 284.35,-480.23 269,-461 244.05,-429.74 242.55,-311 269,-281 286.74,-260.88 462.61,-248.52 540.82,-243.98"/>
<polygon fill="black" stroke="black" points="541.4,-247.45 551.19,-243.39 541,-240.46 541.4,-247.45"/>
<text text-anchor="middle" x="412.5" y="-374.8" font-family="Times New Roman,serif" font-size="14.00">!(yn == null) &amp;&amp; !(y.d &lt; yn.d) &amp;&amp; !(y.d == yn.d)/</text>
<text text-anchor="middle" x="412.5" y="-359.8" font-family="Times New Roman,serif" font-size="14.00">change = true;</text>
</g>
<!-- N3 -->
<g id="node4" class="node">
<title>N3</title>
<ellipse fill="none" stroke="black" cx="633" cy="-18" rx="27" ry="18"/>
<text text-anchor="middle" x="633" y="-14.3" font-family="Times New Roman,serif" font-size="14.00">N29</text>
</g>
<!-- N0&#45;&gt;N3 -->
<g id="edge2" class="edge">
<title>N0&#45;&gt;N3</title>
<path fill="none" stroke="black" d="M393.71,-494.46C348.99,-491.42 266.96,-482.93 249,-461 223.66,-430.05 238.21,-319.52 249,-281 266.54,-218.39 276.18,-198.95 325,-156 408.07,-82.92 536.43,-43.06 597.88,-27.21"/>
<polygon fill="black" stroke="black" points="599.01,-30.54 607.85,-24.7 597.3,-23.75 599.01,-30.54"/>
<text text-anchor="middle" x="450.5" y="-189.8" font-family="Times New Roman,serif" font-size="14.00">!(yn == null) &amp;&amp; (y.d &lt; yn.d || y.d == yn.d)/</text>
<text text-anchor="middle" x="450.5" y="-174.8" font-family="Times New Roman,serif" font-size="14.00">p = y;</text>
<text text-anchor="middle" x="450.5" y="-159.8" font-family="Times New Roman,serif" font-size="14.00">y = yn;</text>
</g>
<!-- N4 -->
<g id="node5" class="node">
<title>N4</title>
<ellipse fill="none" stroke="black" cx="633" cy="-120" rx="27" ry="18"/>
<text text-anchor="middle" x="633" y="-116.3" font-family="Times New Roman,serif" font-size="14.00">N71</text>
</g>
<!-- N0&#45;&gt;N4 -->
<g id="edge3" class="edge">
<title>N0&#45;&gt;N4</title>
<path fill="none" stroke="black" d="M452.4,-496.36C511.1,-496.37 639.53,-492.69 667,-461 711.39,-409.78 692.48,-218.8 667,-156 664.85,-150.7 661.47,-145.76 657.66,-141.36"/>
<polygon fill="black" stroke="black" points="660,-138.76 650.5,-134.07 655.01,-143.66 660,-138.76"/>
<text text-anchor="middle" x="776.5" y="-244.8" font-family="Times New Roman,serif" font-size="14.00">yn == null &amp;&amp; change == true/</text>
<text text-anchor="middle" x="776.5" y="-229.8" font-family="Times New Roman,serif" font-size="14.00">p = null;</text>
</g>
<!-- N2&#45;&gt;N0 -->
<g id="edge6" class="edge">
<title>N2&#45;&gt;N0</title>
<path fill="none" stroke="black" d="M577.39,-259.19C575.49,-308.15 569.03,-445.74 556,-461 543.81,-475.27 496.42,-485.22 461.67,-490.77"/>
<polygon fill="black" stroke="black" points="460.7,-487.37 451.34,-492.35 461.76,-494.29 460.7,-487.37"/>
<text text-anchor="middle" x="620" y="-449.8" font-family="Times New Roman,serif" font-size="14.00">y.n == yn/</text>
<text text-anchor="middle" x="620" y="-434.8" font-family="Times New Roman,serif" font-size="14.00">t = yn.n;</text>
<text text-anchor="middle" x="620" y="-419.8" font-family="Times New Roman,serif" font-size="14.00">y.n = t;</text>
<text text-anchor="middle" x="620" y="-404.8" font-family="Times New Roman,serif" font-size="14.00">yn.n = y;</text>
<text text-anchor="middle" x="620" y="-389.8" font-family="Times New Roman,serif" font-size="14.00">if (head == y) {</text>
<text text-anchor="middle" x="620" y="-374.8" font-family="Times New Roman,serif" font-size="14.00"> &#160;head = yn;</text>
<text text-anchor="middle" x="620" y="-359.8" font-family="Times New Roman,serif" font-size="14.00">}</text>
<text text-anchor="middle" x="620" y="-344.8" font-family="Times New Roman,serif" font-size="14.00">else {</text>
<text text-anchor="middle" x="620" y="-329.8" font-family="Times New Roman,serif" font-size="14.00"> &#160;p.n = yn;</text>
<text text-anchor="middle" x="620" y="-314.8" font-family="Times New Roman,serif" font-size="14.00">}</text>
<text text-anchor="middle" x="620" y="-299.8" font-family="Times New Roman,serif" font-size="14.00">p = yn;</text>
<text text-anchor="middle" x="620" y="-284.8" font-family="Times New Roman,serif" font-size="14.00">yn = t;</text>
</g>
<!-- N2&#45;&gt;N4 -->
<g id="edge5" class="edge">
<title>N2&#45;&gt;N4</title>
<path fill="none" stroke="black" d="M578.11,-222.81C578.91,-205.02 582.18,-176.94 594,-156 597.29,-150.18 601.9,-144.81 606.81,-140.12"/>
<polygon fill="black" stroke="black" points="609.36,-142.54 614.62,-133.34 604.77,-137.26 609.36,-142.54"/>
<text text-anchor="middle" x="630.5" y="-182.3" font-family="Times New Roman,serif" font-size="14.00">!(y.n == yn)/</text>
<text text-anchor="middle" x="630.5" y="-167.3" font-family="Times New Roman,serif" font-size="14.00">p = null;</text>
</g>
<!-- N3&#45;&gt;N0 -->
<g id="edge7" class="edge">
<title>N3&#45;&gt;N0</title>
<path fill="none" stroke="black" d="M657.95,-25.36C676.7,-30.93 702.41,-40.29 722,-54 814.84,-118.96 907.97,-156.97 868,-263 826.68,-372.62 797.41,-405.96 694,-461 654.73,-481.9 527.53,-490.96 462.33,-494.31"/>
<polygon fill="black" stroke="black" points="461.86,-490.83 452.04,-494.82 462.2,-497.83 461.86,-490.83"/>
<text text-anchor="middle" x="901.5" y="-174.8" font-family="Times New Roman,serif" font-size="14.00">yn = y.n;</text>
</g>
<!-- N4&#45;&gt;N3 -->
<g id="edge8" class="edge">
<title>N4&#45;&gt;N3</title>
<path fill="none" stroke="black" d="M633,-101.58C633,-86.38 633,-64.07 633,-46.46"/>
<polygon fill="black" stroke="black" points="636.5,-46.22 633,-36.22 629.5,-46.22 636.5,-46.22"/>
<text text-anchor="middle" x="675.5" y="-72.8" font-family="Times New Roman,serif" font-size="14.00">change = false;</text>
<text text-anchor="middle" x="675.5" y="-57.8" font-family="Times New Roman,serif" font-size="14.00">y = head;</text>
</g>
</g>
</svg>
