<?xml version="1.0" encoding="UTF-8" standalone="no"?>
<!DOCTYPE svg PUBLIC "-//W3C//DTD SVG 1.1//EN"
 "http://www.w3.org/Graphics/SVG/1.1/DTD/svg11.dtd">
<!-- Generated by graphviz version 2.46.1 (20210213.1702)
 -->
<!-- Title: anonymous_graph Pages: 1 -->
<svg width="562pt" height="1771pt"
 viewBox="0.00 0.00 562.00 1771.00" xmlns="http://www.w3.org/2000/svg" xmlns:xlink="http://www.w3.org/1999/xlink">
<g id="graph0" class="graph" transform="scale(1 1) rotate(0) translate(4 1767)">
<title>anonymous_graph</title>
<polygon fill="white" stroke="transparent" points="-4,4 -4,-1767 558,-1767 558,4 -4,4"/>
<!-- N0 -->
<g id="node1" class="node">
<title>N0</title>
<ellipse fill="none" stroke="black" cx="369" cy="-1745" rx="29.5" ry="18"/>
<text text-anchor="middle" x="369" y="-1741.3" font-family="Times New Roman,serif" font-size="14.00">initial</text>
</g>
<!-- N2 -->
<g id="node3" class="node">
<title>N2</title>
<ellipse fill="none" stroke="black" cx="369" cy="-1658" rx="27" ry="18"/>
<text text-anchor="middle" x="369" y="-1654.3" font-family="Times New Roman,serif" font-size="14.00">N1</text>
</g>
<!-- N0&#45;&gt;N2 -->
<g id="edge1" class="edge">
<title>N0&#45;&gt;N2</title>
<path fill="none" stroke="black" d="M369,-1726.8C369,-1715.16 369,-1699.55 369,-1686.24"/>
<polygon fill="black" stroke="black" points="372.5,-1686.18 369,-1676.18 365.5,-1686.18 372.5,-1686.18"/>
<text text-anchor="middle" x="409" y="-1697.8" font-family="Times New Roman,serif" font-size="14.00">change = true;</text>
</g>
<!-- N1 -->
<g id="node2" class="node">
<title>N1</title>
<ellipse fill="none" stroke="black" cx="310" cy="-907" rx="27" ry="18"/>
<ellipse fill="none" stroke="black" cx="310" cy="-907" rx="31" ry="22"/>
<text text-anchor="middle" x="310" y="-903.3" font-family="Times New Roman,serif" font-size="14.00">final</text>
</g>
<!-- N3 -->
<g id="node4" class="node">
<title>N3</title>
<ellipse fill="none" stroke="black" cx="369" cy="-1571" rx="27" ry="18"/>
<text text-anchor="middle" x="369" y="-1567.3" font-family="Times New Roman,serif" font-size="14.00">N2</text>
</g>
<!-- N2&#45;&gt;N3 -->
<g id="edge2" class="edge">
<title>N2&#45;&gt;N3</title>
<path fill="none" stroke="black" d="M369,-1639.8C369,-1628.16 369,-1612.55 369,-1599.24"/>
<polygon fill="black" stroke="black" points="372.5,-1599.18 369,-1589.18 365.5,-1599.18 372.5,-1599.18"/>
<text text-anchor="middle" x="392.5" y="-1610.8" font-family="Times New Roman,serif" font-size="14.00">p = null;</text>
</g>
<!-- N7 -->
<g id="node8" class="node">
<title>N7</title>
<ellipse fill="none" stroke="black" cx="369" cy="-1484" rx="27" ry="18"/>
<text text-anchor="middle" x="369" y="-1480.3" font-family="Times New Roman,serif" font-size="14.00">N14</text>
</g>
<!-- N3&#45;&gt;N7 -->
<g id="edge3" class="edge">
<title>N3&#45;&gt;N7</title>
<path fill="none" stroke="black" d="M369,-1552.8C369,-1541.16 369,-1525.55 369,-1512.24"/>
<polygon fill="black" stroke="black" points="372.5,-1512.18 369,-1502.18 365.5,-1512.18 372.5,-1512.18"/>
<text text-anchor="middle" x="411.5" y="-1523.8" font-family="Times New Roman,serif" font-size="14.00">change = false;</text>
</g>
<!-- N4 -->
<g id="node5" class="node">
<title>N4</title>
<ellipse fill="none" stroke="black" cx="224" cy="-1310" rx="27" ry="18"/>
<text text-anchor="middle" x="224" y="-1306.3" font-family="Times New Roman,serif" font-size="14.00">N5</text>
</g>
<!-- N5 -->
<g id="node6" class="node">
<title>N5</title>
<ellipse fill="none" stroke="black" cx="27" cy="-1154" rx="27" ry="18"/>
<text text-anchor="middle" x="27" y="-1150.3" font-family="Times New Roman,serif" font-size="14.00">N6</text>
</g>
<!-- N4&#45;&gt;N5 -->
<g id="edge5" class="edge">
<title>N4&#45;&gt;N5</title>
<path fill="none" stroke="black" d="M199.86,-1301.93C182.3,-1296.1 158.48,-1286.72 140,-1274 101,-1247.14 65.01,-1205 44.56,-1178.74"/>
<polygon fill="black" stroke="black" points="47.1,-1176.3 38.24,-1170.49 41.54,-1180.55 47.1,-1176.3"/>
<text text-anchor="middle" x="180" y="-1262.8" font-family="Times New Roman,serif" font-size="14.00">!(0 &lt; yn.d)/</text>
<text text-anchor="middle" x="180" y="-1247.8" font-family="Times New Roman,serif" font-size="14.00">change = true;</text>
</g>
<!-- N12 -->
<g id="node13" class="node">
<title>N12</title>
<ellipse fill="none" stroke="black" cx="224" cy="-1208" rx="27" ry="18"/>
<text text-anchor="middle" x="224" y="-1204.3" font-family="Times New Roman,serif" font-size="14.00">N31</text>
</g>
<!-- N4&#45;&gt;N12 -->
<g id="edge4" class="edge">
<title>N4&#45;&gt;N12</title>
<path fill="none" stroke="black" d="M224,-1291.58C224,-1276.38 224,-1254.07 224,-1236.46"/>
<polygon fill="black" stroke="black" points="227.5,-1236.22 224,-1226.22 220.5,-1236.22 227.5,-1236.22"/>
<text text-anchor="middle" x="241" y="-1255.3" font-family="Times New Roman,serif" font-size="14.00">p = y;</text>
</g>
<!-- N16 -->
<g id="node17" class="node">
<title>N16</title>
<ellipse fill="none" stroke="black" cx="66" cy="-816" rx="27" ry="18"/>
<text text-anchor="middle" x="66" y="-812.3" font-family="Times New Roman,serif" font-size="14.00">N41</text>
</g>
<!-- N5&#45;&gt;N16 -->
<g id="edge6" class="edge">
<title>N5&#45;&gt;N16</title>
<path fill="none" stroke="black" d="M22.46,-1136.24C17.73,-1117.28 11,-1085.41 11,-1057.5 11,-1057.5 11,-1057.5 11,-906 11,-880.09 28.08,-855.42 43.2,-838.65"/>
<polygon fill="black" stroke="black" points="46.04,-840.75 50.39,-831.09 40.96,-835.93 46.04,-840.75"/>
<text text-anchor="middle" x="35" y="-1009.3" font-family="Times New Roman,serif" font-size="14.00">t = yn.n;</text>
</g>
<!-- N6 -->
<g id="node7" class="node">
<title>N6</title>
<ellipse fill="none" stroke="black" cx="205" cy="-555" rx="27" ry="18"/>
<text text-anchor="middle" x="205" y="-551.3" font-family="Times New Roman,serif" font-size="14.00">N10</text>
</g>
<!-- N19 -->
<g id="node20" class="node">
<title>N19</title>
<ellipse fill="none" stroke="black" cx="207" cy="-468" rx="27" ry="18"/>
<text text-anchor="middle" x="207" y="-464.3" font-family="Times New Roman,serif" font-size="14.00">N52</text>
</g>
<!-- N6&#45;&gt;N19 -->
<g id="edge7" class="edge">
<title>N6&#45;&gt;N19</title>
<path fill="none" stroke="black" d="M205.4,-536.8C205.68,-525.16 206.05,-509.55 206.36,-496.24"/>
<polygon fill="black" stroke="black" points="209.86,-496.26 206.6,-486.18 202.86,-496.09 209.86,-496.26"/>
<text text-anchor="middle" x="227.5" y="-507.8" font-family="Times New Roman,serif" font-size="14.00">p = yn;</text>
</g>
<!-- N11 -->
<g id="node12" class="node">
<title>N11</title>
<ellipse fill="none" stroke="black" cx="278" cy="-1397" rx="27" ry="18"/>
<text text-anchor="middle" x="278" y="-1393.3" font-family="Times New Roman,serif" font-size="14.00">N29</text>
</g>
<!-- N7&#45;&gt;N11 -->
<g id="edge8" class="edge">
<title>N7&#45;&gt;N11</title>
<path fill="none" stroke="black" d="M345.22,-1474.96C331.21,-1469.24 313.95,-1460.36 302,-1448 295.55,-1441.33 290.56,-1432.6 286.84,-1424.31"/>
<polygon fill="black" stroke="black" points="290.04,-1422.88 283.05,-1414.92 283.55,-1425.51 290.04,-1422.88"/>
<text text-anchor="middle" x="328.5" y="-1436.8" font-family="Times New Roman,serif" font-size="14.00">y = head;</text>
</g>
<!-- N8 -->
<g id="node9" class="node">
<title>N8</title>
<ellipse fill="none" stroke="black" cx="95" cy="-279" rx="27" ry="18"/>
<text text-anchor="middle" x="95" y="-275.3" font-family="Times New Roman,serif" font-size="14.00">N20</text>
</g>
<!-- N8&#45;&gt;N16 -->
<g id="edge9" class="edge">
<title>N8&#45;&gt;N16</title>
<path fill="none" stroke="black" d="M87.35,-296.59C79.06,-316.11 67,-349.71 67,-380 67,-730 67,-730 67,-730 67,-749.25 66.74,-770.95 66.49,-787.6"/>
<polygon fill="black" stroke="black" points="62.98,-787.69 66.32,-797.74 69.98,-787.8 62.98,-787.69"/>
<text text-anchor="middle" x="91" y="-551.3" font-family="Times New Roman,serif" font-size="14.00">t = yn.n;</text>
</g>
<!-- N9 -->
<g id="node10" class="node">
<title>N9</title>
<ellipse fill="none" stroke="black" cx="122" cy="-642" rx="27" ry="18"/>
<text text-anchor="middle" x="122" y="-638.3" font-family="Times New Roman,serif" font-size="14.00">N23</text>
</g>
<!-- N9&#45;&gt;N6 -->
<g id="edge10" class="edge">
<title>N9&#45;&gt;N6</title>
<path fill="none" stroke="black" d="M117.96,-623.86C116.52,-613.5 116.59,-600.5 123,-591 133.33,-575.7 151.82,-567.06 168.64,-562.19"/>
<polygon fill="black" stroke="black" points="169.97,-565.47 178.81,-559.63 168.25,-558.68 169.97,-565.47"/>
<text text-anchor="middle" x="153" y="-594.8" font-family="Times New Roman,serif" font-size="14.00">head = yn;</text>
</g>
<!-- N9&#45;&gt;N6 -->
<g id="edge11" class="edge">
<title>N9&#45;&gt;N6</title>
<path fill="none" stroke="black" d="M144.96,-632.08C157.54,-626.24 172.63,-617.53 183,-606 189.04,-599.28 193.63,-590.64 197.02,-582.43"/>
<polygon fill="black" stroke="black" points="200.39,-583.4 200.56,-572.8 193.82,-580.98 200.39,-583.4"/>
<text text-anchor="middle" x="219" y="-594.8" font-family="Times New Roman,serif" font-size="14.00">p.n = yn;</text>
</g>
<!-- N10 -->
<g id="node11" class="node">
<title>N10</title>
<ellipse fill="none" stroke="black" cx="346" cy="-279" rx="27" ry="18"/>
<text text-anchor="middle" x="346" y="-275.3" font-family="Times New Roman,serif" font-size="14.00">N27</text>
</g>
<!-- N10&#45;&gt;N7 -->
<g id="edge12" class="edge">
<title>N10&#45;&gt;N7</title>
<path fill="none" stroke="black" d="M352.28,-296.72C359.09,-316.36 369,-350.07 369,-380 369,-1398 369,-1398 369,-1398 369,-1417.25 369,-1438.95 369,-1455.6"/>
<polygon fill="black" stroke="black" points="365.5,-1455.74 369,-1465.74 372.5,-1455.74 365.5,-1455.74"/>
<text text-anchor="middle" x="411.5" y="-855.8" font-family="Times New Roman,serif" font-size="14.00">change = false;</text>
</g>
<!-- N11&#45;&gt;N4 -->
<g id="edge13" class="edge">
<title>N11&#45;&gt;N4</title>
<path fill="none" stroke="black" d="M267.84,-1380.01C259.92,-1367.55 248.78,-1350.01 239.72,-1335.74"/>
<polygon fill="black" stroke="black" points="242.43,-1333.48 234.11,-1326.92 236.52,-1337.23 242.43,-1333.48"/>
<text text-anchor="middle" x="279.5" y="-1349.8" font-family="Times New Roman,serif" font-size="14.00">yn = y.n;</text>
</g>
<!-- N14 -->
<g id="node15" class="node">
<title>N14</title>
<ellipse fill="none" stroke="black" cx="224" cy="-1100" rx="27" ry="18"/>
<text text-anchor="middle" x="224" y="-1096.3" font-family="Times New Roman,serif" font-size="14.00">N38</text>
</g>
<!-- N12&#45;&gt;N14 -->
<g id="edge14" class="edge">
<title>N12&#45;&gt;N14</title>
<path fill="none" stroke="black" d="M224,-1189.97C224,-1173.38 224,-1147.88 224,-1128.43"/>
<polygon fill="black" stroke="black" points="227.5,-1128.34 224,-1118.34 220.5,-1128.34 227.5,-1128.34"/>
<text text-anchor="middle" x="244" y="-1150.3" font-family="Times New Roman,serif" font-size="14.00">y = yn;</text>
</g>
<!-- N13 -->
<g id="node14" class="node">
<title>N13</title>
<ellipse fill="none" stroke="black" cx="182" cy="-816" rx="27" ry="18"/>
<text text-anchor="middle" x="182" y="-812.3" font-family="Times New Roman,serif" font-size="14.00">N35</text>
</g>
<!-- N15 -->
<g id="node16" class="node">
<title>N15</title>
<ellipse fill="none" stroke="black" cx="224" cy="-1013" rx="27" ry="18"/>
<text text-anchor="middle" x="224" y="-1009.3" font-family="Times New Roman,serif" font-size="14.00">N39</text>
</g>
<!-- N13&#45;&gt;N15 -->
<g id="edge15" class="edge">
<title>N13&#45;&gt;N15</title>
<path fill="none" stroke="black" d="M189,-833.62C191.34,-839.4 193.89,-845.94 196,-852 207.76,-885.73 207.41,-895.22 219,-929 221.79,-937.12 224.42,-938.56 226,-947 228.31,-959.32 228.24,-973.18 227.42,-984.92"/>
<polygon fill="black" stroke="black" points="223.92,-984.74 226.5,-995.01 230.9,-985.37 223.92,-984.74"/>
<text text-anchor="middle" x="244.5" y="-903.3" font-family="Times New Roman,serif" font-size="14.00">yn = y.n;</text>
</g>
<!-- N14&#45;&gt;N15 -->
<g id="edge16" class="edge">
<title>N14&#45;&gt;N15</title>
<path fill="none" stroke="black" d="M224,-1081.8C224,-1070.16 224,-1054.55 224,-1041.24"/>
<polygon fill="black" stroke="black" points="227.5,-1041.18 224,-1031.18 220.5,-1041.18 227.5,-1041.18"/>
<text text-anchor="middle" x="249.5" y="-1052.8" font-family="Times New Roman,serif" font-size="14.00">yn = y.n;</text>
</g>
<!-- N15&#45;&gt;N1 -->
<g id="edge19" class="edge">
<title>N15&#45;&gt;N1</title>
<path fill="none" stroke="black" d="M236.94,-997.09C242.26,-990.9 248.46,-983.64 254,-977 265.59,-963.1 278.32,-947.45 288.71,-934.58"/>
<polygon fill="black" stroke="black" points="291.61,-936.54 295.16,-926.56 286.16,-932.16 291.61,-936.54"/>
<text text-anchor="middle" x="295.5" y="-958.3" font-family="Times New Roman,serif" font-size="14.00">return;</text>
</g>
<!-- N20 -->
<g id="node21" class="node">
<title>N20</title>
<ellipse fill="none" stroke="black" cx="66" cy="-907" rx="27" ry="18"/>
<text text-anchor="middle" x="66" y="-903.3" font-family="Times New Roman,serif" font-size="14.00">N61</text>
</g>
<!-- N15&#45;&gt;N20 -->
<g id="edge17" class="edge">
<title>N15&#45;&gt;N20</title>
<path fill="none" stroke="black" d="M197.27,-1010.38C154.66,-1007.17 74.37,-998.39 57,-977 47.38,-965.15 49.45,-948.19 54.01,-934.05"/>
<polygon fill="black" stroke="black" points="57.4,-934.96 57.64,-924.37 50.85,-932.5 57.4,-934.96"/>
<text text-anchor="middle" x="97" y="-958.3" font-family="Times New Roman,serif" font-size="14.00">change = true;</text>
</g>
<!-- N25 -->
<g id="node26" class="node">
<title>N25</title>
<ellipse fill="none" stroke="black" cx="147" cy="-907" rx="27" ry="18"/>
<text text-anchor="middle" x="147" y="-903.3" font-family="Times New Roman,serif" font-size="14.00">N84</text>
</g>
<!-- N15&#45;&gt;N25 -->
<g id="edge18" class="edge">
<title>N15&#45;&gt;N25</title>
<path fill="none" stroke="black" d="M198.16,-1007.45C180.78,-1002.92 159.09,-994.05 148,-977 140.06,-964.8 139.43,-948.63 140.96,-935.02"/>
<polygon fill="black" stroke="black" points="144.48,-935.19 142.56,-924.77 137.56,-934.11 144.48,-935.19"/>
<text text-anchor="middle" x="187" y="-965.8" font-family="Times New Roman,serif" font-size="14.00">!(1 &lt; head.d)/</text>
<text text-anchor="middle" x="187" y="-950.8" font-family="Times New Roman,serif" font-size="14.00">p = y;</text>
</g>
<!-- N17 -->
<g id="node18" class="node">
<title>N17</title>
<ellipse fill="none" stroke="black" cx="122" cy="-729" rx="27" ry="18"/>
<text text-anchor="middle" x="122" y="-725.3" font-family="Times New Roman,serif" font-size="14.00">N42</text>
</g>
<!-- N16&#45;&gt;N17 -->
<g id="edge20" class="edge">
<title>N16&#45;&gt;N17</title>
<path fill="none" stroke="black" d="M76.53,-799.01C84.82,-786.43 96.52,-768.68 105.97,-754.33"/>
<polygon fill="black" stroke="black" points="108.94,-756.19 111.51,-745.92 103.09,-752.34 108.94,-756.19"/>
<text text-anchor="middle" x="118.5" y="-768.8" font-family="Times New Roman,serif" font-size="14.00">y.n = t;</text>
</g>
<!-- N17&#45;&gt;N9 -->
<g id="edge21" class="edge">
<title>N17&#45;&gt;N9</title>
<path fill="none" stroke="black" d="M122,-710.8C122,-699.16 122,-683.55 122,-670.24"/>
<polygon fill="black" stroke="black" points="125.5,-670.18 122,-660.18 118.5,-670.18 125.5,-670.18"/>
<text text-anchor="middle" x="147.5" y="-681.8" font-family="Times New Roman,serif" font-size="14.00">yn.n = y;</text>
</g>
<!-- N18 -->
<g id="node19" class="node">
<title>N18</title>
<ellipse fill="none" stroke="black" cx="216" cy="-381" rx="27" ry="18"/>
<text text-anchor="middle" x="216" y="-377.3" font-family="Times New Roman,serif" font-size="14.00">N46</text>
</g>
<!-- N18&#45;&gt;N8 -->
<g id="edge23" class="edge">
<title>N18&#45;&gt;N8</title>
<path fill="none" stroke="black" d="M192.66,-371.93C177.72,-366.01 158.49,-356.92 144,-345 130.35,-333.76 118.33,-317.98 109.62,-304.78"/>
<polygon fill="black" stroke="black" points="112.45,-302.71 104.14,-296.15 106.54,-306.46 112.45,-302.71"/>
<text text-anchor="middle" x="184" y="-333.8" font-family="Times New Roman,serif" font-size="14.00">!(yn == null)/</text>
<text text-anchor="middle" x="184" y="-318.8" font-family="Times New Roman,serif" font-size="14.00">change = true;</text>
</g>
<!-- N18&#45;&gt;N10 -->
<g id="edge22" class="edge">
<title>N18&#45;&gt;N10</title>
<path fill="none" stroke="black" d="M236.48,-368.92C247.87,-362.45 262.1,-353.83 274,-345 279.2,-341.14 304.14,-318.45 323.23,-300.96"/>
<polygon fill="black" stroke="black" points="325.71,-303.43 330.71,-294.09 320.98,-298.27 325.71,-303.43"/>
<text text-anchor="middle" x="330.5" y="-326.3" font-family="Times New Roman,serif" font-size="14.00">p = null;</text>
</g>
<!-- N21 -->
<g id="node22" class="node">
<title>N21</title>
<ellipse fill="none" stroke="black" cx="262" cy="-279" rx="27" ry="18"/>
<text text-anchor="middle" x="262" y="-275.3" font-family="Times New Roman,serif" font-size="14.00">N68</text>
</g>
<!-- N18&#45;&gt;N21 -->
<g id="edge24" class="edge">
<title>N18&#45;&gt;N21</title>
<path fill="none" stroke="black" d="M221.1,-363.31C225.44,-349.94 232.19,-330.87 240,-315 241.77,-311.41 243.81,-307.72 245.92,-304.15"/>
<polygon fill="black" stroke="black" points="248.91,-305.97 251.2,-295.63 242.96,-302.28 248.91,-305.97"/>
<text text-anchor="middle" x="257" y="-326.3" font-family="Times New Roman,serif" font-size="14.00">p = y;</text>
</g>
<!-- N19&#45;&gt;N18 -->
<g id="edge25" class="edge">
<title>N19&#45;&gt;N18</title>
<path fill="none" stroke="black" d="M208.82,-449.8C210.05,-438.16 211.71,-422.55 213.12,-409.24"/>
<polygon fill="black" stroke="black" points="216.61,-409.49 214.18,-399.18 209.65,-408.75 216.61,-409.49"/>
<text text-anchor="middle" x="231.5" y="-420.8" font-family="Times New Roman,serif" font-size="14.00">yn = t;</text>
</g>
<!-- N20&#45;&gt;N16 -->
<g id="edge26" class="edge">
<title>N20&#45;&gt;N16</title>
<path fill="none" stroke="black" d="M66,-888.84C66,-876.28 66,-858.98 66,-844.5"/>
<polygon fill="black" stroke="black" points="69.5,-844.11 66,-834.11 62.5,-844.11 69.5,-844.11"/>
<text text-anchor="middle" x="90" y="-855.8" font-family="Times New Roman,serif" font-size="14.00">t = yn.n;</text>
</g>
<!-- N22 -->
<g id="node23" class="node">
<title>N22</title>
<ellipse fill="none" stroke="black" cx="350" cy="-192" rx="27" ry="18"/>
<text text-anchor="middle" x="350" y="-188.3" font-family="Times New Roman,serif" font-size="14.00">N69</text>
</g>
<!-- N21&#45;&gt;N22 -->
<g id="edge27" class="edge">
<title>N21&#45;&gt;N22</title>
<path fill="none" stroke="black" d="M276.93,-263.58C290.92,-250.07 312.01,-229.7 327.94,-214.31"/>
<polygon fill="black" stroke="black" points="330.53,-216.67 335.29,-207.21 325.67,-211.64 330.53,-216.67"/>
<text text-anchor="middle" x="331" y="-231.8" font-family="Times New Roman,serif" font-size="14.00">y = yn;</text>
</g>
<!-- N23 -->
<g id="node24" class="node">
<title>N23</title>
<ellipse fill="none" stroke="black" cx="404" cy="-105" rx="27" ry="18"/>
<text text-anchor="middle" x="404" y="-101.3" font-family="Times New Roman,serif" font-size="14.00">N70</text>
</g>
<!-- N22&#45;&gt;N23 -->
<g id="edge28" class="edge">
<title>N22&#45;&gt;N23</title>
<path fill="none" stroke="black" d="M360.16,-175.01C368.08,-162.55 379.22,-145.01 388.28,-130.74"/>
<polygon fill="black" stroke="black" points="391.48,-132.23 393.89,-121.92 385.57,-128.48 391.48,-132.23"/>
<text text-anchor="middle" x="405.5" y="-144.8" font-family="Times New Roman,serif" font-size="14.00">yn = y.n;</text>
</g>
<!-- N24 -->
<g id="node25" class="node">
<title>N24</title>
<ellipse fill="none" stroke="black" cx="437" cy="-18" rx="27" ry="18"/>
<text text-anchor="middle" x="437" y="-14.3" font-family="Times New Roman,serif" font-size="14.00">N71</text>
</g>
<!-- N23&#45;&gt;N24 -->
<g id="edge29" class="edge">
<title>N23&#45;&gt;N24</title>
<path fill="none" stroke="black" d="M402.85,-86.75C402.8,-76.83 403.8,-64.33 408,-54 409.87,-49.4 412.57,-44.94 415.59,-40.84"/>
<polygon fill="black" stroke="black" points="418.4,-42.93 422.04,-32.99 412.99,-38.49 418.4,-42.93"/>
<text text-anchor="middle" x="431.5" y="-57.8" font-family="Times New Roman,serif" font-size="14.00">p = null;</text>
</g>
<!-- N24&#45;&gt;N7 -->
<g id="edge30" class="edge">
<title>N24&#45;&gt;N7</title>
<path fill="none" stroke="black" d="M446.95,-34.94C456.34,-51.54 469,-78.61 469,-104 469,-1398 469,-1398 469,-1398 469,-1433.93 431.06,-1457.84 401.92,-1470.91"/>
<polygon fill="black" stroke="black" points="400.29,-1467.81 392.45,-1474.93 403.02,-1474.25 400.29,-1467.81"/>
<text text-anchor="middle" x="511.5" y="-725.3" font-family="Times New Roman,serif" font-size="14.00">change = false;</text>
</g>
<!-- N25&#45;&gt;N13 -->
<g id="edge31" class="edge">
<title>N25&#45;&gt;N13</title>
<path fill="none" stroke="black" d="M147.79,-888.88C148.78,-877.97 151.02,-863.72 156,-852 157.73,-847.92 160.03,-843.88 162.55,-840.08"/>
<polygon fill="black" stroke="black" points="165.59,-841.85 168.64,-831.7 159.93,-837.73 165.59,-841.85"/>
<text text-anchor="middle" x="176" y="-855.8" font-family="Times New Roman,serif" font-size="14.00">y = yn;</text>
</g>
</g>
</svg>
