<?xml version="1.0" encoding="UTF-8" standalone="no"?>
<!DOCTYPE svg PUBLIC "-//W3C//DTD SVG 1.1//EN"
 "http://www.w3.org/Graphics/SVG/1.1/DTD/svg11.dtd">
<!-- Generated by graphviz version 2.46.1 (20210213.1702)
 -->
<!-- Title: anonymous_graph Pages: 1 -->
<svg width="505pt" height="1633pt"
 viewBox="0.00 0.00 505.00 1633.00" xmlns="http://www.w3.org/2000/svg" xmlns:xlink="http://www.w3.org/1999/xlink">
<g id="graph0" class="graph" transform="scale(1 1) rotate(0) translate(4 1629)">
<title>anonymous_graph</title>
<polygon fill="white" stroke="transparent" points="-4,4 -4,-1629 501,-1629 501,4 -4,4"/>
<!-- N0 -->
<g id="node1" class="node">
<title>N0</title>
<ellipse fill="none" stroke="black" cx="66" cy="-1607" rx="29.5" ry="18"/>
<text text-anchor="middle" x="66" y="-1603.3" font-family="Times New Roman,serif" font-size="14.00">initial</text>
</g>
<!-- N2 -->
<g id="node3" class="node">
<title>N2</title>
<ellipse fill="none" stroke="black" cx="66" cy="-1520" rx="27" ry="18"/>
<text text-anchor="middle" x="66" y="-1516.3" font-family="Times New Roman,serif" font-size="14.00">N1</text>
</g>
<!-- N0&#45;&gt;N2 -->
<g id="edge1" class="edge">
<title>N0&#45;&gt;N2</title>
<path fill="none" stroke="black" d="M66,-1588.8C66,-1577.16 66,-1561.55 66,-1548.24"/>
<polygon fill="black" stroke="black" points="69.5,-1548.18 66,-1538.18 62.5,-1548.18 69.5,-1548.18"/>
<text text-anchor="middle" x="106" y="-1559.8" font-family="Times New Roman,serif" font-size="14.00">change = true;</text>
</g>
<!-- N1 -->
<g id="node2" class="node">
<title>N1</title>
<ellipse fill="none" stroke="black" cx="391" cy="-805" rx="27" ry="18"/>
<ellipse fill="none" stroke="black" cx="391" cy="-805" rx="31" ry="22"/>
<text text-anchor="middle" x="391" y="-801.3" font-family="Times New Roman,serif" font-size="14.00">final</text>
</g>
<!-- N20 -->
<g id="node21" class="node">
<title>N20</title>
<ellipse fill="none" stroke="black" cx="66" cy="-1433" rx="27" ry="18"/>
<text text-anchor="middle" x="66" y="-1429.3" font-family="Times New Roman,serif" font-size="14.00">N71</text>
</g>
<!-- N2&#45;&gt;N20 -->
<g id="edge2" class="edge">
<title>N2&#45;&gt;N20</title>
<path fill="none" stroke="black" d="M66,-1501.8C66,-1490.16 66,-1474.55 66,-1461.24"/>
<polygon fill="black" stroke="black" points="69.5,-1461.18 66,-1451.18 62.5,-1461.18 69.5,-1461.18"/>
<text text-anchor="middle" x="89.5" y="-1472.8" font-family="Times New Roman,serif" font-size="14.00">p = null;</text>
</g>
<!-- N3 -->
<g id="node4" class="node">
<title>N3</title>
<ellipse fill="none" stroke="black" cx="66" cy="-1172" rx="27" ry="18"/>
<text text-anchor="middle" x="66" y="-1168.3" font-family="Times New Roman,serif" font-size="14.00">N5</text>
</g>
<!-- N4 -->
<g id="node5" class="node">
<title>N4</title>
<ellipse fill="none" stroke="black" cx="98" cy="-805" rx="27" ry="18"/>
<text text-anchor="middle" x="98" y="-801.3" font-family="Times New Roman,serif" font-size="14.00">N6</text>
</g>
<!-- N3&#45;&gt;N4 -->
<g id="edge4" class="edge">
<title>N3&#45;&gt;N4</title>
<path fill="none" stroke="black" d="M65.36,-1153.75C64.77,-1136.58 64,-1109.47 64,-1086 64,-1086 64,-1086 64,-910 64,-881.96 75.31,-851.67 84.88,-831.06"/>
<polygon fill="black" stroke="black" points="88.04,-832.57 89.24,-822.04 81.74,-829.52 88.04,-832.57"/>
<text text-anchor="middle" x="104" y="-1001.8" font-family="Times New Roman,serif" font-size="14.00">!(0 &lt; yn.d)/</text>
<text text-anchor="middle" x="104" y="-986.8" font-family="Times New Roman,serif" font-size="14.00">change = true;</text>
</g>
<!-- N9 -->
<g id="node10" class="node">
<title>N9</title>
<ellipse fill="none" stroke="black" cx="137" cy="-1085" rx="27" ry="18"/>
<text text-anchor="middle" x="137" y="-1081.3" font-family="Times New Roman,serif" font-size="14.00">N31</text>
</g>
<!-- N3&#45;&gt;N9 -->
<g id="edge3" class="edge">
<title>N3&#45;&gt;N9</title>
<path fill="none" stroke="black" d="M78.69,-1155.8C89.6,-1142.75 105.48,-1123.74 117.92,-1108.85"/>
<polygon fill="black" stroke="black" points="120.69,-1110.98 124.42,-1101.06 115.32,-1106.5 120.69,-1110.98"/>
<text text-anchor="middle" x="122" y="-1124.8" font-family="Times New Roman,serif" font-size="14.00">p = y;</text>
</g>
<!-- N13 -->
<g id="node14" class="node">
<title>N13</title>
<ellipse fill="none" stroke="black" cx="103" cy="-714" rx="27" ry="18"/>
<text text-anchor="middle" x="103" y="-710.3" font-family="Times New Roman,serif" font-size="14.00">N41</text>
</g>
<!-- N4&#45;&gt;N13 -->
<g id="edge5" class="edge">
<title>N4&#45;&gt;N13</title>
<path fill="none" stroke="black" d="M98.96,-786.84C99.67,-774.28 100.64,-756.98 101.45,-742.5"/>
<polygon fill="black" stroke="black" points="104.97,-742.29 102.04,-732.11 97.98,-741.9 104.97,-742.29"/>
<text text-anchor="middle" x="124" y="-753.8" font-family="Times New Roman,serif" font-size="14.00">t = yn.n;</text>
</g>
<!-- N5 -->
<g id="node6" class="node">
<title>N5</title>
<ellipse fill="none" stroke="black" cx="119" cy="-453" rx="27" ry="18"/>
<text text-anchor="middle" x="119" y="-449.3" font-family="Times New Roman,serif" font-size="14.00">N10</text>
</g>
<!-- N16 -->
<g id="node17" class="node">
<title>N16</title>
<ellipse fill="none" stroke="black" cx="133" cy="-366" rx="27" ry="18"/>
<text text-anchor="middle" x="133" y="-362.3" font-family="Times New Roman,serif" font-size="14.00">N52</text>
</g>
<!-- N5&#45;&gt;N16 -->
<g id="edge6" class="edge">
<title>N5&#45;&gt;N16</title>
<path fill="none" stroke="black" d="M121.83,-434.8C123.75,-423.16 126.32,-407.55 128.51,-394.24"/>
<polygon fill="black" stroke="black" points="132,-394.61 130.17,-384.18 125.09,-393.47 132,-394.61"/>
<text text-anchor="middle" x="146.5" y="-405.8" font-family="Times New Roman,serif" font-size="14.00">p = yn;</text>
</g>
<!-- N6 -->
<g id="node7" class="node">
<title>N6</title>
<ellipse fill="none" stroke="black" cx="66" cy="-1346" rx="27" ry="18"/>
<text text-anchor="middle" x="66" y="-1342.3" font-family="Times New Roman,serif" font-size="14.00">N14</text>
</g>
<!-- N8 -->
<g id="node9" class="node">
<title>N8</title>
<ellipse fill="none" stroke="black" cx="66" cy="-1259" rx="27" ry="18"/>
<text text-anchor="middle" x="66" y="-1255.3" font-family="Times New Roman,serif" font-size="14.00">N29</text>
</g>
<!-- N6&#45;&gt;N8 -->
<g id="edge7" class="edge">
<title>N6&#45;&gt;N8</title>
<path fill="none" stroke="black" d="M66,-1327.8C66,-1316.16 66,-1300.55 66,-1287.24"/>
<polygon fill="black" stroke="black" points="69.5,-1287.18 66,-1277.18 62.5,-1287.18 69.5,-1287.18"/>
<text text-anchor="middle" x="92.5" y="-1298.8" font-family="Times New Roman,serif" font-size="14.00">y = head;</text>
</g>
<!-- N7 -->
<g id="node8" class="node">
<title>N7</title>
<ellipse fill="none" stroke="black" cx="103" cy="-540" rx="27" ry="18"/>
<text text-anchor="middle" x="103" y="-536.3" font-family="Times New Roman,serif" font-size="14.00">N23</text>
</g>
<!-- N7&#45;&gt;N5 -->
<g id="edge8" class="edge">
<title>N7&#45;&gt;N5</title>
<path fill="none" stroke="black" d="M106.24,-521.8C108.44,-510.09 111.41,-494.34 113.92,-480.97"/>
<polygon fill="black" stroke="black" points="117.41,-481.36 115.82,-470.89 110.53,-480.07 117.41,-481.36"/>
<text text-anchor="middle" x="141" y="-492.8" font-family="Times New Roman,serif" font-size="14.00">head = yn;</text>
</g>
<!-- N7&#45;&gt;N5 -->
<g id="edge9" class="edge">
<title>N7&#45;&gt;N5</title>
<path fill="none" stroke="black" d="M81.29,-529.17C64.08,-519.9 44.4,-505.07 54,-489 60.85,-477.54 72.88,-469.61 84.75,-464.24"/>
<polygon fill="black" stroke="black" points="86.16,-467.44 94.13,-460.46 83.55,-460.95 86.16,-467.44"/>
<text text-anchor="middle" x="80" y="-492.8" font-family="Times New Roman,serif" font-size="14.00">p.n = yn;</text>
</g>
<!-- N8&#45;&gt;N3 -->
<g id="edge10" class="edge">
<title>N8&#45;&gt;N3</title>
<path fill="none" stroke="black" d="M66,-1240.8C66,-1229.16 66,-1213.55 66,-1200.24"/>
<polygon fill="black" stroke="black" points="69.5,-1200.18 66,-1190.18 62.5,-1200.18 69.5,-1200.18"/>
<text text-anchor="middle" x="91.5" y="-1211.8" font-family="Times New Roman,serif" font-size="14.00">yn = y.n;</text>
</g>
<!-- N11 -->
<g id="node12" class="node">
<title>N11</title>
<ellipse fill="none" stroke="black" cx="192" cy="-998" rx="27" ry="18"/>
<text text-anchor="middle" x="192" y="-994.3" font-family="Times New Roman,serif" font-size="14.00">N38</text>
</g>
<!-- N9&#45;&gt;N11 -->
<g id="edge11" class="edge">
<title>N9&#45;&gt;N11</title>
<path fill="none" stroke="black" d="M147.35,-1068.01C155.49,-1055.43 166.97,-1037.68 176.26,-1023.33"/>
<polygon fill="black" stroke="black" points="179.21,-1025.21 181.7,-1014.92 173.33,-1021.41 179.21,-1025.21"/>
<text text-anchor="middle" x="187" y="-1037.8" font-family="Times New Roman,serif" font-size="14.00">y = yn;</text>
</g>
<!-- N10 -->
<g id="node11" class="node">
<title>N10</title>
<ellipse fill="none" stroke="black" cx="275" cy="-714" rx="27" ry="18"/>
<text text-anchor="middle" x="275" y="-710.3" font-family="Times New Roman,serif" font-size="14.00">N35</text>
</g>
<!-- N12 -->
<g id="node13" class="node">
<title>N12</title>
<ellipse fill="none" stroke="black" cx="200" cy="-911" rx="27" ry="18"/>
<text text-anchor="middle" x="200" y="-907.3" font-family="Times New Roman,serif" font-size="14.00">N39</text>
</g>
<!-- N10&#45;&gt;N12 -->
<g id="edge12" class="edge">
<title>N10&#45;&gt;N12</title>
<path fill="none" stroke="black" d="M281.08,-731.62C291.3,-762.64 308.1,-830.28 279,-875 269.38,-889.79 251.93,-898.37 235.87,-903.34"/>
<polygon fill="black" stroke="black" points="234.87,-899.98 226.13,-905.98 236.7,-906.74 234.87,-899.98"/>
<text text-anchor="middle" x="320.5" y="-801.3" font-family="Times New Roman,serif" font-size="14.00">yn = y.n;</text>
</g>
<!-- N11&#45;&gt;N12 -->
<g id="edge13" class="edge">
<title>N11&#45;&gt;N12</title>
<path fill="none" stroke="black" d="M193.62,-979.8C194.71,-968.16 196.18,-952.55 197.44,-939.24"/>
<polygon fill="black" stroke="black" points="200.93,-939.46 198.38,-929.18 193.96,-938.8 200.93,-939.46"/>
<text text-anchor="middle" x="221.5" y="-950.8" font-family="Times New Roman,serif" font-size="14.00">yn = y.n;</text>
</g>
<!-- N12&#45;&gt;N1 -->
<g id="edge15" class="edge">
<title>N12&#45;&gt;N1</title>
<path fill="none" stroke="black" d="M225.29,-904.55C247.68,-899.08 280.78,-889.39 307,-875 328.9,-862.98 350.6,-844.95 366.46,-830.33"/>
<polygon fill="black" stroke="black" points="368.87,-832.87 373.76,-823.47 364.07,-827.78 368.87,-832.87"/>
<text text-anchor="middle" x="366.5" y="-856.3" font-family="Times New Roman,serif" font-size="14.00">return;</text>
</g>
<!-- N12&#45;&gt;N4 -->
<g id="edge16" class="edge">
<title>N12&#45;&gt;N4</title>
<path fill="none" stroke="black" d="M173.67,-905.91C154.39,-901.53 129.06,-892.66 114,-875 104.21,-863.52 100.13,-847.19 98.53,-833.3"/>
<polygon fill="black" stroke="black" points="102.02,-832.96 97.74,-823.27 95.04,-833.51 102.02,-832.96"/>
<text text-anchor="middle" x="154" y="-856.3" font-family="Times New Roman,serif" font-size="14.00">change = true;</text>
</g>
<!-- N21 -->
<g id="node22" class="node">
<title>N21</title>
<ellipse fill="none" stroke="black" cx="215" cy="-805" rx="27" ry="18"/>
<text text-anchor="middle" x="215" y="-801.3" font-family="Times New Roman,serif" font-size="14.00">N84</text>
</g>
<!-- N12&#45;&gt;N21 -->
<g id="edge14" class="edge">
<title>N12&#45;&gt;N21</title>
<path fill="none" stroke="black" d="M198.75,-893.02C198.14,-879.82 198.07,-861.1 201,-845 201.78,-840.7 202.98,-836.25 204.36,-831.95"/>
<polygon fill="black" stroke="black" points="207.71,-832.96 207.77,-822.37 201.12,-830.62 207.71,-832.96"/>
<text text-anchor="middle" x="240" y="-863.8" font-family="Times New Roman,serif" font-size="14.00">!(1 &lt; head.d)/</text>
<text text-anchor="middle" x="240" y="-848.8" font-family="Times New Roman,serif" font-size="14.00">p = y;</text>
</g>
<!-- N14 -->
<g id="node15" class="node">
<title>N14</title>
<ellipse fill="none" stroke="black" cx="103" cy="-627" rx="27" ry="18"/>
<text text-anchor="middle" x="103" y="-623.3" font-family="Times New Roman,serif" font-size="14.00">N42</text>
</g>
<!-- N13&#45;&gt;N14 -->
<g id="edge17" class="edge">
<title>N13&#45;&gt;N14</title>
<path fill="none" stroke="black" d="M103,-695.8C103,-684.16 103,-668.55 103,-655.24"/>
<polygon fill="black" stroke="black" points="106.5,-655.18 103,-645.18 99.5,-655.18 106.5,-655.18"/>
<text text-anchor="middle" x="123.5" y="-666.8" font-family="Times New Roman,serif" font-size="14.00">y.n = t;</text>
</g>
<!-- N14&#45;&gt;N7 -->
<g id="edge18" class="edge">
<title>N14&#45;&gt;N7</title>
<path fill="none" stroke="black" d="M103,-608.8C103,-597.16 103,-581.55 103,-568.24"/>
<polygon fill="black" stroke="black" points="106.5,-568.18 103,-558.18 99.5,-568.18 106.5,-568.18"/>
<text text-anchor="middle" x="128.5" y="-579.8" font-family="Times New Roman,serif" font-size="14.00">yn.n = y;</text>
</g>
<!-- N15 -->
<g id="node16" class="node">
<title>N15</title>
<ellipse fill="none" stroke="black" cx="167" cy="-279" rx="27" ry="18"/>
<text text-anchor="middle" x="167" y="-275.3" font-family="Times New Roman,serif" font-size="14.00">N46</text>
</g>
<!-- N15&#45;&gt;N4 -->
<g id="edge21" class="edge">
<title>N15&#45;&gt;N4</title>
<path fill="none" stroke="black" d="M175.39,-296.13C183.32,-312.88 194,-340.07 194,-365 194,-715 194,-715 194,-715 194,-750.73 157.79,-776.14 129.85,-790.43"/>
<polygon fill="black" stroke="black" points="128.22,-787.34 120.75,-794.85 131.27,-793.63 128.22,-787.34"/>
<text text-anchor="middle" x="234" y="-543.8" font-family="Times New Roman,serif" font-size="14.00">!(yn == null)/</text>
<text text-anchor="middle" x="234" y="-528.8" font-family="Times New Roman,serif" font-size="14.00">change = true;</text>
</g>
<!-- N17 -->
<g id="node18" class="node">
<title>N17</title>
<ellipse fill="none" stroke="black" cx="132" cy="-192" rx="27" ry="18"/>
<text text-anchor="middle" x="132" y="-188.3" font-family="Times New Roman,serif" font-size="14.00">N68</text>
</g>
<!-- N15&#45;&gt;N17 -->
<g id="edge20" class="edge">
<title>N15&#45;&gt;N17</title>
<path fill="none" stroke="black" d="M160.09,-261.21C155.12,-249.14 148.32,-232.64 142.66,-218.89"/>
<polygon fill="black" stroke="black" points="145.83,-217.38 138.78,-209.47 139.35,-220.05 145.83,-217.38"/>
<text text-anchor="middle" x="168" y="-231.8" font-family="Times New Roman,serif" font-size="14.00">p = y;</text>
</g>
<!-- N15&#45;&gt;N20 -->
<g id="edge19" class="edge">
<title>N15&#45;&gt;N20</title>
<path fill="none" stroke="black" d="M193.62,-282.27C264.07,-288.99 450,-311.78 450,-365 450,-1347 450,-1347 450,-1347 450,-1417.58 199.54,-1429.6 103.17,-1431.61"/>
<polygon fill="black" stroke="black" points="102.94,-1428.11 93,-1431.8 103.06,-1435.11 102.94,-1428.11"/>
<text text-anchor="middle" x="473.5" y="-856.3" font-family="Times New Roman,serif" font-size="14.00">p = null;</text>
</g>
<!-- N16&#45;&gt;N15 -->
<g id="edge22" class="edge">
<title>N16&#45;&gt;N15</title>
<path fill="none" stroke="black" d="M134.7,-347.83C136.1,-337.94 138.6,-325.44 143,-315 144.6,-311.21 146.64,-307.42 148.85,-303.79"/>
<polygon fill="black" stroke="black" points="151.92,-305.5 154.57,-295.24 146.1,-301.61 151.92,-305.5"/>
<text text-anchor="middle" x="161.5" y="-318.8" font-family="Times New Roman,serif" font-size="14.00">yn = t;</text>
</g>
<!-- N18 -->
<g id="node19" class="node">
<title>N18</title>
<ellipse fill="none" stroke="black" cx="104" cy="-105" rx="27" ry="18"/>
<text text-anchor="middle" x="104" y="-101.3" font-family="Times New Roman,serif" font-size="14.00">N69</text>
</g>
<!-- N17&#45;&gt;N18 -->
<g id="edge23" class="edge">
<title>N17&#45;&gt;N18</title>
<path fill="none" stroke="black" d="M126.47,-174.21C122.56,-162.33 117.23,-146.17 112.75,-132.56"/>
<polygon fill="black" stroke="black" points="115.97,-131.16 109.52,-122.76 109.32,-133.35 115.97,-131.16"/>
<text text-anchor="middle" x="139" y="-144.8" font-family="Times New Roman,serif" font-size="14.00">y = yn;</text>
</g>
<!-- N19 -->
<g id="node20" class="node">
<title>N19</title>
<ellipse fill="none" stroke="black" cx="27" cy="-18" rx="27" ry="18"/>
<text text-anchor="middle" x="27" y="-14.3" font-family="Times New Roman,serif" font-size="14.00">N70</text>
</g>
<!-- N18&#45;&gt;N19 -->
<g id="edge24" class="edge">
<title>N18&#45;&gt;N19</title>
<path fill="none" stroke="black" d="M90.59,-89.19C78.63,-75.99 60.94,-56.47 47.26,-41.36"/>
<polygon fill="black" stroke="black" points="49.82,-38.98 40.52,-33.92 44.64,-43.68 49.82,-38.98"/>
<text text-anchor="middle" x="95.5" y="-57.8" font-family="Times New Roman,serif" font-size="14.00">yn = y.n;</text>
</g>
<!-- N19&#45;&gt;N20 -->
<g id="edge25" class="edge">
<title>N19&#45;&gt;N20</title>
<path fill="none" stroke="black" d="M21.94,-35.76C17.25,-52.78 11,-79.97 11,-104 11,-1347 11,-1347 11,-1347 11,-1371.92 27.87,-1395.31 42.93,-1411.22"/>
<polygon fill="black" stroke="black" points="40.55,-1413.8 50.09,-1418.41 45.51,-1408.86 40.55,-1413.8"/>
<text text-anchor="middle" x="34.5" y="-710.3" font-family="Times New Roman,serif" font-size="14.00">p = null;</text>
</g>
<!-- N20&#45;&gt;N6 -->
<g id="edge26" class="edge">
<title>N20&#45;&gt;N6</title>
<path fill="none" stroke="black" d="M66,-1414.8C66,-1403.16 66,-1387.55 66,-1374.24"/>
<polygon fill="black" stroke="black" points="69.5,-1374.18 66,-1364.18 62.5,-1374.18 69.5,-1374.18"/>
<text text-anchor="middle" x="108.5" y="-1385.8" font-family="Times New Roman,serif" font-size="14.00">change = false;</text>
</g>
<!-- N21&#45;&gt;N10 -->
<g id="edge27" class="edge">
<title>N21&#45;&gt;N10</title>
<path fill="none" stroke="black" d="M219.8,-786.98C223.43,-775.84 229.15,-761.31 237,-750 240.76,-744.58 245.49,-739.39 250.33,-734.74"/>
<polygon fill="black" stroke="black" points="252.81,-737.22 257.89,-727.93 248.12,-732.02 252.81,-737.22"/>
<text text-anchor="middle" x="257" y="-753.8" font-family="Times New Roman,serif" font-size="14.00">y = yn;</text>
</g>
</g>
</svg>
