<?xml version="1.0" encoding="UTF-8" standalone="no"?>
<!DOCTYPE svg PUBLIC "-//W3C//DTD SVG 1.1//EN"
 "http://www.w3.org/Graphics/SVG/1.1/DTD/svg11.dtd">
<!-- Generated by graphviz version 2.46.1 (20210213.1702)
 -->
<!-- Title: anonymous_graph Pages: 1 -->
<svg width="499pt" height="1684pt"
 viewBox="0.00 0.00 499.00 1684.00" xmlns="http://www.w3.org/2000/svg" xmlns:xlink="http://www.w3.org/1999/xlink">
<g id="graph0" class="graph" transform="scale(1 1) rotate(0) translate(4 1680)">
<title>anonymous_graph</title>
<polygon fill="white" stroke="transparent" points="-4,4 -4,-1680 495,-1680 495,4 -4,4"/>
<!-- N0 -->
<g id="node1" class="node">
<title>N0</title>
<ellipse fill="none" stroke="black" cx="86" cy="-1658" rx="29.5" ry="18"/>
<text text-anchor="middle" x="86" y="-1654.3" font-family="Times New Roman,serif" font-size="14.00">initial</text>
</g>
<!-- N2 -->
<g id="node3" class="node">
<title>N2</title>
<ellipse fill="none" stroke="black" cx="86" cy="-1571" rx="27" ry="18"/>
<text text-anchor="middle" x="86" y="-1567.3" font-family="Times New Roman,serif" font-size="14.00">N1</text>
</g>
<!-- N0&#45;&gt;N2 -->
<g id="edge1" class="edge">
<title>N0&#45;&gt;N2</title>
<path fill="none" stroke="black" d="M86,-1639.8C86,-1628.16 86,-1612.55 86,-1599.24"/>
<polygon fill="black" stroke="black" points="89.5,-1599.18 86,-1589.18 82.5,-1599.18 89.5,-1599.18"/>
<text text-anchor="middle" x="126" y="-1610.8" font-family="Times New Roman,serif" font-size="14.00">change = true;</text>
</g>
<!-- N1 -->
<g id="node2" class="node">
<title>N1</title>
<ellipse fill="none" stroke="black" cx="388" cy="-820" rx="27" ry="18"/>
<ellipse fill="none" stroke="black" cx="388" cy="-820" rx="31" ry="22"/>
<text text-anchor="middle" x="388" y="-816.3" font-family="Times New Roman,serif" font-size="14.00">final</text>
</g>
<!-- N22 -->
<g id="node23" class="node">
<title>N22</title>
<ellipse fill="none" stroke="black" cx="86" cy="-1484" rx="27" ry="18"/>
<text text-anchor="middle" x="86" y="-1480.3" font-family="Times New Roman,serif" font-size="14.00">N71</text>
</g>
<!-- N2&#45;&gt;N22 -->
<g id="edge2" class="edge">
<title>N2&#45;&gt;N22</title>
<path fill="none" stroke="black" d="M86,-1552.8C86,-1541.16 86,-1525.55 86,-1512.24"/>
<polygon fill="black" stroke="black" points="89.5,-1512.18 86,-1502.18 82.5,-1512.18 89.5,-1512.18"/>
<text text-anchor="middle" x="109.5" y="-1523.8" font-family="Times New Roman,serif" font-size="14.00">p = null;</text>
</g>
<!-- N3 -->
<g id="node4" class="node">
<title>N3</title>
<ellipse fill="none" stroke="black" cx="148" cy="-1223" rx="27" ry="18"/>
<text text-anchor="middle" x="148" y="-1219.3" font-family="Times New Roman,serif" font-size="14.00">N5</text>
</g>
<!-- N4 -->
<g id="node5" class="node">
<title>N4</title>
<ellipse fill="none" stroke="black" cx="148" cy="-1067" rx="27" ry="18"/>
<text text-anchor="middle" x="148" y="-1063.3" font-family="Times New Roman,serif" font-size="14.00">N6</text>
</g>
<!-- N3&#45;&gt;N4 -->
<g id="edge4" class="edge">
<title>N3&#45;&gt;N4</title>
<path fill="none" stroke="black" d="M148,-1204.93C148,-1178.45 148,-1127.22 148,-1095.49"/>
<polygon fill="black" stroke="black" points="151.5,-1095.15 148,-1085.15 144.5,-1095.15 151.5,-1095.15"/>
<text text-anchor="middle" x="188" y="-1175.8" font-family="Times New Roman,serif" font-size="14.00">!(0 &lt; yn.d)/</text>
<text text-anchor="middle" x="188" y="-1160.8" font-family="Times New Roman,serif" font-size="14.00">change = true;</text>
</g>
<!-- N10 -->
<g id="node11" class="node">
<title>N10</title>
<ellipse fill="none" stroke="black" cx="259" cy="-1121" rx="27" ry="18"/>
<text text-anchor="middle" x="259" y="-1117.3" font-family="Times New Roman,serif" font-size="14.00">N31</text>
</g>
<!-- N3&#45;&gt;N10 -->
<g id="edge3" class="edge">
<title>N3&#45;&gt;N10</title>
<path fill="none" stroke="black" d="M173.7,-1216.8C192.03,-1211.9 216.15,-1202.87 232,-1187 242.36,-1176.63 248.94,-1161.71 253,-1148.78"/>
<polygon fill="black" stroke="black" points="256.43,-1149.53 255.75,-1138.96 249.69,-1147.65 256.43,-1149.53"/>
<text text-anchor="middle" x="266" y="-1168.3" font-family="Times New Roman,serif" font-size="14.00">p = y;</text>
</g>
<!-- N14 -->
<g id="node15" class="node">
<title>N14</title>
<ellipse fill="none" stroke="black" cx="203" cy="-729" rx="27" ry="18"/>
<text text-anchor="middle" x="203" y="-725.3" font-family="Times New Roman,serif" font-size="14.00">N41</text>
</g>
<!-- N4&#45;&gt;N14 -->
<g id="edge5" class="edge">
<title>N4&#45;&gt;N14</title>
<path fill="none" stroke="black" d="M148,-1048.75C148,-1029.62 148,-997.86 148,-970.5 148,-970.5 148,-970.5 148,-819 148,-793.09 165.08,-768.42 180.2,-751.65"/>
<polygon fill="black" stroke="black" points="183.04,-753.75 187.39,-744.09 177.96,-748.93 183.04,-753.75"/>
<text text-anchor="middle" x="172" y="-922.3" font-family="Times New Roman,serif" font-size="14.00">t = yn.n;</text>
</g>
<!-- N5 -->
<g id="node6" class="node">
<title>N5</title>
<ellipse fill="none" stroke="black" cx="141" cy="-468" rx="27" ry="18"/>
<text text-anchor="middle" x="141" y="-464.3" font-family="Times New Roman,serif" font-size="14.00">N10</text>
</g>
<!-- N17 -->
<g id="node18" class="node">
<title>N17</title>
<ellipse fill="none" stroke="black" cx="141" cy="-381" rx="27" ry="18"/>
<text text-anchor="middle" x="141" y="-377.3" font-family="Times New Roman,serif" font-size="14.00">N52</text>
</g>
<!-- N5&#45;&gt;N17 -->
<g id="edge6" class="edge">
<title>N5&#45;&gt;N17</title>
<path fill="none" stroke="black" d="M141,-449.8C141,-438.16 141,-422.55 141,-409.24"/>
<polygon fill="black" stroke="black" points="144.5,-409.18 141,-399.18 137.5,-409.18 144.5,-409.18"/>
<text text-anchor="middle" x="161.5" y="-420.8" font-family="Times New Roman,serif" font-size="14.00">p = yn;</text>
</g>
<!-- N6 -->
<g id="node7" class="node">
<title>N6</title>
<ellipse fill="none" stroke="black" cx="141" cy="-1397" rx="27" ry="18"/>
<text text-anchor="middle" x="141" y="-1393.3" font-family="Times New Roman,serif" font-size="14.00">N14</text>
</g>
<!-- N9 -->
<g id="node10" class="node">
<title>N9</title>
<ellipse fill="none" stroke="black" cx="144" cy="-1310" rx="27" ry="18"/>
<text text-anchor="middle" x="144" y="-1306.3" font-family="Times New Roman,serif" font-size="14.00">N29</text>
</g>
<!-- N6&#45;&gt;N9 -->
<g id="edge7" class="edge">
<title>N6&#45;&gt;N9</title>
<path fill="none" stroke="black" d="M141.61,-1378.8C142.02,-1367.16 142.57,-1351.55 143.04,-1338.24"/>
<polygon fill="black" stroke="black" points="146.54,-1338.29 143.39,-1328.18 139.54,-1338.05 146.54,-1338.29"/>
<text text-anchor="middle" x="168.5" y="-1349.8" font-family="Times New Roman,serif" font-size="14.00">y = head;</text>
</g>
<!-- N7 -->
<g id="node8" class="node">
<title>N7</title>
<ellipse fill="none" stroke="black" cx="218" cy="-192" rx="27" ry="18"/>
<text text-anchor="middle" x="218" y="-188.3" font-family="Times New Roman,serif" font-size="14.00">N20</text>
</g>
<!-- N7&#45;&gt;N14 -->
<g id="edge8" class="edge">
<title>N7&#45;&gt;N14</title>
<path fill="none" stroke="black" d="M235.72,-205.9C242.73,-211.87 250.23,-219.52 255,-228 269.49,-253.75 269,-263.45 269,-293 269,-643 269,-643 269,-643 269,-667.1 262.66,-673.87 248,-693 243.2,-699.27 237.02,-705.02 230.79,-709.98"/>
<polygon fill="black" stroke="black" points="228.33,-707.45 222.39,-716.22 232.51,-713.07 228.33,-707.45"/>
<text text-anchor="middle" x="293" y="-464.3" font-family="Times New Roman,serif" font-size="14.00">t = yn.n;</text>
</g>
<!-- N8 -->
<g id="node9" class="node">
<title>N8</title>
<ellipse fill="none" stroke="black" cx="202" cy="-555" rx="27" ry="18"/>
<text text-anchor="middle" x="202" y="-551.3" font-family="Times New Roman,serif" font-size="14.00">N23</text>
</g>
<!-- N8&#45;&gt;N5 -->
<g id="edge9" class="edge">
<title>N8&#45;&gt;N5</title>
<path fill="none" stroke="black" d="M175.7,-550.44C156.69,-546.35 132.28,-537.6 120,-519 114.61,-510.84 117.05,-501.06 121.86,-492.33"/>
<polygon fill="black" stroke="black" points="124.95,-494 127.5,-483.72 119.09,-490.17 124.95,-494"/>
<text text-anchor="middle" x="150" y="-507.8" font-family="Times New Roman,serif" font-size="14.00">head = yn;</text>
</g>
<!-- N8&#45;&gt;N5 -->
<g id="edge10" class="edge">
<title>N8&#45;&gt;N5</title>
<path fill="none" stroke="black" d="M196.68,-537.31C192.96,-527.11 187.34,-514.14 180,-504 176.08,-498.58 171.19,-493.39 166.22,-488.75"/>
<polygon fill="black" stroke="black" points="168.29,-485.9 158.46,-481.93 163.67,-491.16 168.29,-485.9"/>
<text text-anchor="middle" x="214" y="-507.8" font-family="Times New Roman,serif" font-size="14.00">p.n = yn;</text>
</g>
<!-- N9&#45;&gt;N3 -->
<g id="edge11" class="edge">
<title>N9&#45;&gt;N3</title>
<path fill="none" stroke="black" d="M144.81,-1291.8C145.36,-1280.16 146.09,-1264.55 146.72,-1251.24"/>
<polygon fill="black" stroke="black" points="150.22,-1251.33 147.19,-1241.18 143.23,-1251 150.22,-1251.33"/>
<text text-anchor="middle" x="171.5" y="-1262.8" font-family="Times New Roman,serif" font-size="14.00">yn = y.n;</text>
</g>
<!-- N12 -->
<g id="node13" class="node">
<title>N12</title>
<ellipse fill="none" stroke="black" cx="292" cy="-1013" rx="27" ry="18"/>
<text text-anchor="middle" x="292" y="-1009.3" font-family="Times New Roman,serif" font-size="14.00">N38</text>
</g>
<!-- N10&#45;&gt;N12 -->
<g id="edge12" class="edge">
<title>N10&#45;&gt;N12</title>
<path fill="none" stroke="black" d="M264.3,-1102.97C269.55,-1086.12 277.65,-1060.1 283.74,-1040.54"/>
<polygon fill="black" stroke="black" points="287.08,-1041.58 286.71,-1030.99 280.4,-1039.5 287.08,-1041.58"/>
<text text-anchor="middle" x="300" y="-1063.3" font-family="Times New Roman,serif" font-size="14.00">y = yn;</text>
</g>
<!-- N11 -->
<g id="node12" class="node">
<title>N11</title>
<ellipse fill="none" stroke="black" cx="383" cy="-729" rx="27" ry="18"/>
<text text-anchor="middle" x="383" y="-725.3" font-family="Times New Roman,serif" font-size="14.00">N35</text>
</g>
<!-- N13 -->
<g id="node14" class="node">
<title>N13</title>
<ellipse fill="none" stroke="black" cx="295" cy="-926" rx="27" ry="18"/>
<text text-anchor="middle" x="295" y="-922.3" font-family="Times New Roman,serif" font-size="14.00">N39</text>
</g>
<!-- N11&#45;&gt;N13 -->
<g id="edge13" class="edge">
<title>N11&#45;&gt;N13</title>
<path fill="none" stroke="black" d="M396.61,-744.86C407.48,-757.81 421.88,-777.67 428,-798 439.78,-837.16 452.27,-857.85 427,-890 415.25,-904.95 366.4,-914.91 331.56,-920.26"/>
<polygon fill="black" stroke="black" points="330.63,-916.85 321.25,-921.77 331.65,-923.78 330.63,-916.85"/>
<text text-anchor="middle" x="465.5" y="-816.3" font-family="Times New Roman,serif" font-size="14.00">yn = y.n;</text>
</g>
<!-- N12&#45;&gt;N13 -->
<g id="edge14" class="edge">
<title>N12&#45;&gt;N13</title>
<path fill="none" stroke="black" d="M292.61,-994.8C293.02,-983.16 293.57,-967.55 294.04,-954.24"/>
<polygon fill="black" stroke="black" points="297.54,-954.29 294.39,-944.18 290.54,-954.05 297.54,-954.29"/>
<text text-anchor="middle" x="318.5" y="-965.8" font-family="Times New Roman,serif" font-size="14.00">yn = y.n;</text>
</g>
<!-- N13&#45;&gt;N1 -->
<g id="edge17" class="edge">
<title>N13&#45;&gt;N1</title>
<path fill="none" stroke="black" d="M320.86,-920.04C338.45,-915.3 360.84,-906.37 374,-890 382.43,-879.5 386.2,-865.27 387.76,-852.45"/>
<polygon fill="black" stroke="black" points="391.28,-852.38 388.6,-842.13 384.3,-851.81 391.28,-852.38"/>
<text text-anchor="middle" x="404.5" y="-871.3" font-family="Times New Roman,serif" font-size="14.00">return;</text>
</g>
<!-- N18 -->
<g id="node19" class="node">
<title>N18</title>
<ellipse fill="none" stroke="black" cx="203" cy="-820" rx="27" ry="18"/>
<text text-anchor="middle" x="203" y="-816.3" font-family="Times New Roman,serif" font-size="14.00">N61</text>
</g>
<!-- N13&#45;&gt;N18 -->
<g id="edge15" class="edge">
<title>N13&#45;&gt;N18</title>
<path fill="none" stroke="black" d="M268.75,-921.66C248.98,-917.66 222.97,-908.94 209,-890 200.33,-878.24 198.54,-862.1 199.05,-848.38"/>
<polygon fill="black" stroke="black" points="202.57,-848.28 199.86,-838.04 195.59,-847.73 202.57,-848.28"/>
<text text-anchor="middle" x="249" y="-871.3" font-family="Times New Roman,serif" font-size="14.00">change = true;</text>
</g>
<!-- N23 -->
<g id="node24" class="node">
<title>N23</title>
<ellipse fill="none" stroke="black" cx="307" cy="-820" rx="27" ry="18"/>
<text text-anchor="middle" x="307" y="-816.3" font-family="Times New Roman,serif" font-size="14.00">N84</text>
</g>
<!-- N13&#45;&gt;N23 -->
<g id="edge16" class="edge">
<title>N13&#45;&gt;N23</title>
<path fill="none" stroke="black" d="M294.06,-907.8C293.63,-894.64 293.65,-876.08 296,-860 296.59,-855.96 297.48,-851.76 298.5,-847.66"/>
<polygon fill="black" stroke="black" points="301.91,-848.45 301.21,-837.88 295.16,-846.58 301.91,-848.45"/>
<text text-anchor="middle" x="335" y="-878.8" font-family="Times New Roman,serif" font-size="14.00">!(1 &lt; head.d)/</text>
<text text-anchor="middle" x="335" y="-863.8" font-family="Times New Roman,serif" font-size="14.00">p = y;</text>
</g>
<!-- N15 -->
<g id="node16" class="node">
<title>N15</title>
<ellipse fill="none" stroke="black" cx="203" cy="-642" rx="27" ry="18"/>
<text text-anchor="middle" x="203" y="-638.3" font-family="Times New Roman,serif" font-size="14.00">N42</text>
</g>
<!-- N14&#45;&gt;N15 -->
<g id="edge18" class="edge">
<title>N14&#45;&gt;N15</title>
<path fill="none" stroke="black" d="M203,-710.8C203,-699.16 203,-683.55 203,-670.24"/>
<polygon fill="black" stroke="black" points="206.5,-670.18 203,-660.18 199.5,-670.18 206.5,-670.18"/>
<text text-anchor="middle" x="223.5" y="-681.8" font-family="Times New Roman,serif" font-size="14.00">y.n = t;</text>
</g>
<!-- N15&#45;&gt;N8 -->
<g id="edge19" class="edge">
<title>N15&#45;&gt;N8</title>
<path fill="none" stroke="black" d="M202.8,-623.8C202.66,-612.16 202.48,-596.55 202.32,-583.24"/>
<polygon fill="black" stroke="black" points="205.82,-583.13 202.2,-573.18 198.82,-583.22 205.82,-583.13"/>
<text text-anchor="middle" x="227.5" y="-594.8" font-family="Times New Roman,serif" font-size="14.00">yn.n = y;</text>
</g>
<!-- N16 -->
<g id="node17" class="node">
<title>N16</title>
<ellipse fill="none" stroke="black" cx="127" cy="-294" rx="27" ry="18"/>
<text text-anchor="middle" x="127" y="-290.3" font-family="Times New Roman,serif" font-size="14.00">N46</text>
</g>
<!-- N16&#45;&gt;N7 -->
<g id="edge20" class="edge">
<title>N16&#45;&gt;N7</title>
<path fill="none" stroke="black" d="M137.04,-277.17C146.12,-263.45 160.28,-243.43 175,-228 180.3,-222.45 186.47,-216.96 192.45,-212.03"/>
<polygon fill="black" stroke="black" points="194.75,-214.67 200.4,-205.7 190.4,-209.19 194.75,-214.67"/>
<text text-anchor="middle" x="215" y="-246.8" font-family="Times New Roman,serif" font-size="14.00">!(yn == null)/</text>
<text text-anchor="middle" x="215" y="-231.8" font-family="Times New Roman,serif" font-size="14.00">change = true;</text>
</g>
<!-- N19 -->
<g id="node20" class="node">
<title>N19</title>
<ellipse fill="none" stroke="black" cx="106" cy="-192" rx="27" ry="18"/>
<text text-anchor="middle" x="106" y="-188.3" font-family="Times New Roman,serif" font-size="14.00">N68</text>
</g>
<!-- N16&#45;&gt;N19 -->
<g id="edge22" class="edge">
<title>N16&#45;&gt;N19</title>
<path fill="none" stroke="black" d="M121.22,-276.41C119.36,-270.63 117.41,-264.08 116,-258 113.13,-245.65 110.87,-231.79 109.23,-220.05"/>
<polygon fill="black" stroke="black" points="112.67,-219.42 107.89,-209.97 105.73,-220.34 112.67,-219.42"/>
<text text-anchor="middle" x="133" y="-239.3" font-family="Times New Roman,serif" font-size="14.00">p = y;</text>
</g>
<!-- N16&#45;&gt;N22 -->
<g id="edge21" class="edge">
<title>N16&#45;&gt;N22</title>
<path fill="none" stroke="black" d="M114.48,-310.23C102.42,-326.47 86,-353.46 86,-380 86,-1398 86,-1398 86,-1398 86,-1417.25 86,-1438.95 86,-1455.6"/>
<polygon fill="black" stroke="black" points="82.5,-1455.74 86,-1465.74 89.5,-1455.74 82.5,-1455.74"/>
<text text-anchor="middle" x="109.5" y="-871.3" font-family="Times New Roman,serif" font-size="14.00">p = null;</text>
</g>
<!-- N17&#45;&gt;N16 -->
<g id="edge23" class="edge">
<title>N17&#45;&gt;N16</title>
<path fill="none" stroke="black" d="M138.17,-362.8C136.25,-351.16 133.68,-335.55 131.49,-322.24"/>
<polygon fill="black" stroke="black" points="134.91,-321.47 129.83,-312.18 128,-322.61 134.91,-321.47"/>
<text text-anchor="middle" x="152.5" y="-333.8" font-family="Times New Roman,serif" font-size="14.00">yn = t;</text>
</g>
<!-- N18&#45;&gt;N14 -->
<g id="edge24" class="edge">
<title>N18&#45;&gt;N14</title>
<path fill="none" stroke="black" d="M203,-801.84C203,-789.28 203,-771.98 203,-757.5"/>
<polygon fill="black" stroke="black" points="206.5,-757.11 203,-747.11 199.5,-757.11 206.5,-757.11"/>
<text text-anchor="middle" x="227" y="-768.8" font-family="Times New Roman,serif" font-size="14.00">t = yn.n;</text>
</g>
<!-- N20 -->
<g id="node21" class="node">
<title>N20</title>
<ellipse fill="none" stroke="black" cx="91" cy="-105" rx="27" ry="18"/>
<text text-anchor="middle" x="91" y="-101.3" font-family="Times New Roman,serif" font-size="14.00">N69</text>
</g>
<!-- N19&#45;&gt;N20 -->
<g id="edge25" class="edge">
<title>N19&#45;&gt;N20</title>
<path fill="none" stroke="black" d="M102.96,-173.8C100.91,-162.16 98.16,-146.55 95.81,-133.24"/>
<polygon fill="black" stroke="black" points="99.22,-132.41 94.03,-123.18 92.32,-133.63 99.22,-132.41"/>
<text text-anchor="middle" x="119" y="-144.8" font-family="Times New Roman,serif" font-size="14.00">y = yn;</text>
</g>
<!-- N21 -->
<g id="node22" class="node">
<title>N21</title>
<ellipse fill="none" stroke="black" cx="27" cy="-18" rx="27" ry="18"/>
<text text-anchor="middle" x="27" y="-14.3" font-family="Times New Roman,serif" font-size="14.00">N70</text>
</g>
<!-- N20&#45;&gt;N21 -->
<g id="edge26" class="edge">
<title>N20&#45;&gt;N21</title>
<path fill="none" stroke="black" d="M79.26,-88.41C69.61,-75.59 55.78,-57.22 44.77,-42.6"/>
<polygon fill="black" stroke="black" points="47.48,-40.37 38.66,-34.49 41.88,-44.59 47.48,-40.37"/>
<text text-anchor="middle" x="87.5" y="-57.8" font-family="Times New Roman,serif" font-size="14.00">yn = y.n;</text>
</g>
<!-- N21&#45;&gt;N22 -->
<g id="edge27" class="edge">
<title>N21&#45;&gt;N22</title>
<path fill="none" stroke="black" d="M21.94,-35.76C17.25,-52.78 11,-79.97 11,-104 11,-1398 11,-1398 11,-1398 11,-1427.23 36.25,-1451.16 57.45,-1466.09"/>
<polygon fill="black" stroke="black" points="55.64,-1469.1 65.9,-1471.75 59.53,-1463.28 55.64,-1469.1"/>
<text text-anchor="middle" x="34.5" y="-725.3" font-family="Times New Roman,serif" font-size="14.00">p = null;</text>
</g>
<!-- N22&#45;&gt;N6 -->
<g id="edge28" class="edge">
<title>N22&#45;&gt;N6</title>
<path fill="none" stroke="black" d="M96.35,-1467.01C104.49,-1454.43 115.97,-1436.68 125.26,-1422.33"/>
<polygon fill="black" stroke="black" points="128.21,-1424.21 130.7,-1413.92 122.33,-1420.41 128.21,-1424.21"/>
<text text-anchor="middle" x="158.5" y="-1436.8" font-family="Times New Roman,serif" font-size="14.00">change = false;</text>
</g>
<!-- N23&#45;&gt;N11 -->
<g id="edge29" class="edge">
<title>N23&#45;&gt;N11</title>
<path fill="none" stroke="black" d="M319.89,-803.9C331.79,-789.97 349.64,-769.06 363.32,-753.04"/>
<polygon fill="black" stroke="black" points="366.21,-755.05 370.04,-745.17 360.89,-750.5 366.21,-755.05"/>
<text text-anchor="middle" x="371" y="-768.8" font-family="Times New Roman,serif" font-size="14.00">y = yn;</text>
</g>
</g>
</svg>
