<?xml version="1.0" encoding="UTF-8" standalone="no"?>
<!DOCTYPE svg PUBLIC "-//W3C//DTD SVG 1.1//EN"
 "http://www.w3.org/Graphics/SVG/1.1/DTD/svg11.dtd">
<!-- Generated by graphviz version 2.46.1 (20210213.1702)
 -->
<!-- Title: anonymous_graph Pages: 1 -->
<svg width="596pt" height="589pt"
 viewBox="0.00 0.00 596.00 589.00" xmlns="http://www.w3.org/2000/svg" xmlns:xlink="http://www.w3.org/1999/xlink">
<g id="graph0" class="graph" transform="scale(1 1) rotate(0) translate(4 585)">
<title>anonymous_graph</title>
<polygon fill="white" stroke="transparent" points="-4,4 -4,-585 592,-585 592,4 -4,4"/>
<!-- N0 -->
<g id="node1" class="node">
<title>N0</title>
<ellipse fill="none" stroke="black" cx="305" cy="-563" rx="29.5" ry="18"/>
<text text-anchor="middle" x="305" y="-559.3" font-family="Times New Roman,serif" font-size="14.00">initial</text>
</g>
<!-- N1 -->
<g id="node2" class="node">
<title>N1</title>
<ellipse fill="none" stroke="black" cx="31" cy="-457" rx="27" ry="18"/>
<ellipse fill="none" stroke="black" cx="31" cy="-457" rx="31" ry="22"/>
<text text-anchor="middle" x="31" y="-453.3" font-family="Times New Roman,serif" font-size="14.00">final</text>
</g>
<!-- N0&#45;&gt;N1 -->
<g id="edge4" class="edge">
<title>N0&#45;&gt;N1</title>
<path fill="none" stroke="black" d="M275.76,-562.11C215.2,-561.72 78.92,-557.4 46,-527 35.77,-517.55 31.66,-502.9 30.26,-489.52"/>
<polygon fill="black" stroke="black" points="33.74,-488.97 29.65,-479.19 26.75,-489.38 33.74,-488.97"/>
<text text-anchor="middle" x="64.5" y="-508.3" font-family="Times New Roman,serif" font-size="14.00">return;</text>
</g>
<!-- N2 -->
<g id="node3" class="node">
<title>N2</title>
<ellipse fill="none" stroke="black" cx="175" cy="-457" rx="27" ry="18"/>
<text text-anchor="middle" x="175" y="-453.3" font-family="Times New Roman,serif" font-size="14.00">N6</text>
</g>
<!-- N0&#45;&gt;N2 -->
<g id="edge1" class="edge">
<title>N0&#45;&gt;N2</title>
<path fill="none" stroke="black" d="M275.67,-561.66C222.89,-560.37 115.22,-554.35 92,-527 83.37,-516.84 84.85,-508.26 92,-497 102.42,-480.6 121.77,-470.97 139.16,-465.39"/>
<polygon fill="black" stroke="black" points="140.45,-468.66 149.1,-462.54 138.52,-461.93 140.45,-468.66"/>
<text text-anchor="middle" x="132" y="-508.3" font-family="Times New Roman,serif" font-size="14.00">change = true;</text>
</g>
<!-- N0&#45;&gt;N2 -->
<g id="edge2" class="edge">
<title>N0&#45;&gt;N2</title>
<path fill="none" stroke="black" d="M275.81,-560.17C251.05,-557.07 216.26,-548.82 195,-527 184.25,-515.97 179.22,-499.52 176.89,-485.45"/>
<polygon fill="black" stroke="black" points="180.33,-484.75 175.58,-475.28 173.38,-485.64 180.33,-484.75"/>
<text text-anchor="middle" x="235" y="-515.8" font-family="Times New Roman,serif" font-size="14.00">!(yn == null)/</text>
<text text-anchor="middle" x="235" y="-500.8" font-family="Times New Roman,serif" font-size="14.00">change = true;</text>
</g>
<!-- N10 -->
<g id="node11" class="node">
<title>N10</title>
<ellipse fill="none" stroke="black" cx="289" cy="-366" rx="27" ry="18"/>
<text text-anchor="middle" x="289" y="-362.3" font-family="Times New Roman,serif" font-size="14.00">N71</text>
</g>
<!-- N0&#45;&gt;N10 -->
<g id="edge3" class="edge">
<title>N0&#45;&gt;N10</title>
<path fill="none" stroke="black" d="M303.58,-544.7C300.79,-510.64 294.56,-434.71 291.22,-394"/>
<polygon fill="black" stroke="black" points="294.7,-393.67 290.39,-383.99 287.72,-394.24 294.7,-393.67"/>
<text text-anchor="middle" x="321.5" y="-453.3" font-family="Times New Roman,serif" font-size="14.00">p = null;</text>
</g>
<!-- N11 -->
<g id="node12" class="node">
<title>N11</title>
<ellipse fill="none" stroke="black" cx="412" cy="-457" rx="27" ry="18"/>
<text text-anchor="middle" x="412" y="-453.3" font-family="Times New Roman,serif" font-size="14.00">N84</text>
</g>
<!-- N0&#45;&gt;N11 -->
<g id="edge5" class="edge">
<title>N0&#45;&gt;N11</title>
<path fill="none" stroke="black" d="M305.76,-544.91C307.24,-530.58 311.42,-510.36 323,-497 336.7,-481.19 358.02,-471.54 376.35,-465.8"/>
<polygon fill="black" stroke="black" points="377.51,-469.11 386.17,-463 375.59,-462.38 377.51,-469.11"/>
<text text-anchor="middle" x="362" y="-515.8" font-family="Times New Roman,serif" font-size="14.00">!(1 &lt; head.d)/</text>
<text text-anchor="middle" x="362" y="-500.8" font-family="Times New Roman,serif" font-size="14.00">p = y;</text>
</g>
<!-- N0&#45;&gt;N11 -->
<g id="edge6" class="edge">
<title>N0&#45;&gt;N11</title>
<path fill="none" stroke="black" d="M333.81,-559.23C355.61,-555.56 384.52,-546.98 401,-527 410.53,-515.44 413.43,-498.97 413.87,-485.02"/>
<polygon fill="black" stroke="black" points="417.37,-484.95 413.8,-474.97 410.37,-485 417.37,-484.95"/>
<text text-anchor="middle" x="429" y="-508.3" font-family="Times New Roman,serif" font-size="14.00">p = y;</text>
</g>
<!-- N7 -->
<g id="node8" class="node">
<title>N7</title>
<ellipse fill="none" stroke="black" cx="187" cy="-366" rx="27" ry="18"/>
<text text-anchor="middle" x="187" y="-362.3" font-family="Times New Roman,serif" font-size="14.00">N41</text>
</g>
<!-- N2&#45;&gt;N7 -->
<g id="edge8" class="edge">
<title>N2&#45;&gt;N7</title>
<path fill="none" stroke="black" d="M164.04,-440.31C157.87,-429.48 152.27,-414.79 157,-402 158.75,-397.28 161.45,-392.76 164.53,-388.63"/>
<polygon fill="black" stroke="black" points="167.4,-390.66 171.2,-380.77 162.06,-386.13 167.4,-390.66"/>
<text text-anchor="middle" x="181" y="-405.8" font-family="Times New Roman,serif" font-size="14.00">t = yn.n;</text>
</g>
<!-- N2&#45;&gt;N10 -->
<g id="edge7" class="edge">
<title>N2&#45;&gt;N10</title>
<path fill="none" stroke="black" d="M187.96,-440.68C198.13,-429.21 213.03,-413.57 228,-402 237.47,-394.68 248.63,-387.84 258.79,-382.18"/>
<polygon fill="black" stroke="black" points="260.64,-385.16 267.78,-377.33 257.31,-379 260.64,-385.16"/>
<text text-anchor="middle" x="251.5" y="-405.8" font-family="Times New Roman,serif" font-size="14.00">p = null;</text>
</g>
<!-- N3 -->
<g id="node4" class="node">
<title>N3</title>
<ellipse fill="none" stroke="black" cx="385" cy="-105" rx="27" ry="18"/>
<text text-anchor="middle" x="385" y="-101.3" font-family="Times New Roman,serif" font-size="14.00">N10</text>
</g>
<!-- N9 -->
<g id="node10" class="node">
<title>N9</title>
<ellipse fill="none" stroke="black" cx="490" cy="-18" rx="27" ry="18"/>
<text text-anchor="middle" x="490" y="-14.3" font-family="Times New Roman,serif" font-size="14.00">N52</text>
</g>
<!-- N3&#45;&gt;N9 -->
<g id="edge9" class="edge">
<title>N3&#45;&gt;N9</title>
<path fill="none" stroke="black" d="M401.87,-90.34C419.12,-76.38 446.08,-54.56 465.64,-38.72"/>
<polygon fill="black" stroke="black" points="467.95,-41.35 473.52,-32.34 463.54,-35.91 467.95,-41.35"/>
<text text-anchor="middle" x="463.5" y="-57.8" font-family="Times New Roman,serif" font-size="14.00">p = yn;</text>
</g>
<!-- N4 -->
<g id="node5" class="node">
<title>N4</title>
<ellipse fill="none" stroke="black" cx="328" cy="-279" rx="27" ry="18"/>
<text text-anchor="middle" x="328" y="-275.3" font-family="Times New Roman,serif" font-size="14.00">N14</text>
</g>
<!-- N6 -->
<g id="node7" class="node">
<title>N6</title>
<ellipse fill="none" stroke="black" cx="412" cy="-192" rx="27" ry="18"/>
<text text-anchor="middle" x="412" y="-188.3" font-family="Times New Roman,serif" font-size="14.00">N29</text>
</g>
<!-- N4&#45;&gt;N6 -->
<g id="edge10" class="edge">
<title>N4&#45;&gt;N6</title>
<path fill="none" stroke="black" d="M330.56,-260.64C332.85,-250.2 337.12,-237.19 345,-228 353.89,-217.62 366.64,-209.89 378.64,-204.38"/>
<polygon fill="black" stroke="black" points="380.15,-207.54 388,-200.42 377.43,-201.09 380.15,-207.54"/>
<text text-anchor="middle" x="371.5" y="-231.8" font-family="Times New Roman,serif" font-size="14.00">y = head;</text>
</g>
<!-- N5 -->
<g id="node6" class="node">
<title>N5</title>
<ellipse fill="none" stroke="black" cx="302" cy="-192" rx="27" ry="18"/>
<text text-anchor="middle" x="302" y="-188.3" font-family="Times New Roman,serif" font-size="14.00">N23</text>
</g>
<!-- N5&#45;&gt;N3 -->
<g id="edge11" class="edge">
<title>N5&#45;&gt;N3</title>
<path fill="none" stroke="black" d="M297.96,-173.86C296.52,-163.5 296.59,-150.5 303,-141 313.33,-125.7 331.82,-117.06 348.64,-112.19"/>
<polygon fill="black" stroke="black" points="349.97,-115.47 358.81,-109.63 348.25,-108.68 349.97,-115.47"/>
<text text-anchor="middle" x="333" y="-144.8" font-family="Times New Roman,serif" font-size="14.00">head = yn;</text>
</g>
<!-- N5&#45;&gt;N3 -->
<g id="edge12" class="edge">
<title>N5&#45;&gt;N3</title>
<path fill="none" stroke="black" d="M324.96,-182.08C337.54,-176.24 352.63,-167.53 363,-156 369.04,-149.28 373.63,-140.64 377.02,-132.43"/>
<polygon fill="black" stroke="black" points="380.39,-133.4 380.56,-122.8 373.82,-130.98 380.39,-133.4"/>
<text text-anchor="middle" x="398" y="-144.8" font-family="Times New Roman,serif" font-size="14.00">p.n = yn;</text>
</g>
<!-- N6&#45;&gt;N0 -->
<g id="edge13" class="edge">
<title>N6&#45;&gt;N0</title>
<path fill="none" stroke="black" d="M429.03,-206.01C446.77,-221.18 472,-248.02 472,-278 472,-458 472,-458 472,-458 472,-490.19 473.56,-505.07 450,-527 421.6,-553.43 376.8,-560.91 344.5,-562.57"/>
<polygon fill="black" stroke="black" points="344.37,-559.07 334.5,-562.92 344.61,-566.07 344.37,-559.07"/>
<text text-anchor="middle" x="497.5" y="-362.3" font-family="Times New Roman,serif" font-size="14.00">yn = y.n;</text>
</g>
<!-- N8 -->
<g id="node9" class="node">
<title>N8</title>
<ellipse fill="none" stroke="black" cx="244" cy="-279" rx="27" ry="18"/>
<text text-anchor="middle" x="244" y="-275.3" font-family="Times New Roman,serif" font-size="14.00">N42</text>
</g>
<!-- N7&#45;&gt;N8 -->
<g id="edge14" class="edge">
<title>N7&#45;&gt;N8</title>
<path fill="none" stroke="black" d="M197.72,-349.01C206.21,-336.35 218.21,-318.45 227.87,-304.06"/>
<polygon fill="black" stroke="black" points="230.86,-305.88 233.52,-295.63 225.04,-301.99 230.86,-305.88"/>
<text text-anchor="middle" x="238.5" y="-318.8" font-family="Times New Roman,serif" font-size="14.00">y.n = t;</text>
</g>
<!-- N8&#45;&gt;N5 -->
<g id="edge15" class="edge">
<title>N8&#45;&gt;N5</title>
<path fill="none" stroke="black" d="M250.07,-260.99C254.08,-250.93 259.9,-238.19 267,-228 270.46,-223.03 274.67,-218.14 278.95,-213.67"/>
<polygon fill="black" stroke="black" points="281.45,-216.12 286.1,-206.6 276.53,-211.14 281.45,-216.12"/>
<text text-anchor="middle" x="292.5" y="-231.8" font-family="Times New Roman,serif" font-size="14.00">yn.n = y;</text>
</g>
<!-- N9&#45;&gt;N0 -->
<g id="edge16" class="edge">
<title>N9&#45;&gt;N0</title>
<path fill="none" stroke="black" d="M507.32,-31.95C525.35,-47.06 551,-73.85 551,-104 551,-458 551,-458 551,-458 551,-546.43 414.48,-560.82 344.84,-562.41"/>
<polygon fill="black" stroke="black" points="344.62,-558.91 334.67,-562.56 344.72,-565.91 344.62,-558.91"/>
<text text-anchor="middle" x="569.5" y="-275.3" font-family="Times New Roman,serif" font-size="14.00">yn = t;</text>
</g>
<!-- N10&#45;&gt;N4 -->
<g id="edge17" class="edge">
<title>N10&#45;&gt;N4</title>
<path fill="none" stroke="black" d="M293.23,-347.9C295.97,-338.03 299.97,-325.53 305,-315 306.75,-311.34 308.83,-307.61 311.01,-304.02"/>
<polygon fill="black" stroke="black" points="314.03,-305.79 316.51,-295.49 308.15,-302 314.03,-305.79"/>
<text text-anchor="middle" x="347.5" y="-318.8" font-family="Times New Roman,serif" font-size="14.00">change = false;</text>
</g>
<!-- N11&#45;&gt;N6 -->
<g id="edge18" class="edge">
<title>N11&#45;&gt;N6</title>
<path fill="none" stroke="black" d="M412,-438.74C412,-394.16 412,-274.84 412,-220.57"/>
<polygon fill="black" stroke="black" points="415.5,-220.32 412,-210.32 408.5,-220.32 415.5,-220.32"/>
<text text-anchor="middle" x="432" y="-318.8" font-family="Times New Roman,serif" font-size="14.00">y = yn;</text>
</g>
</g>
</svg>
