<?xml version="1.0" encoding="UTF-8" standalone="no"?>
<!DOCTYPE svg PUBLIC "-//W3C//DTD SVG 1.1//EN"
 "http://www.w3.org/Graphics/SVG/1.1/DTD/svg11.dtd">
<!-- Generated by graphviz version 2.46.1 (20210213.1702)
 -->
<!-- Title: anonymous_graph Pages: 1 -->
<svg width="475pt" height="1372pt"
 viewBox="0.00 0.00 475.00 1372.00" xmlns="http://www.w3.org/2000/svg" xmlns:xlink="http://www.w3.org/1999/xlink">
<g id="graph0" class="graph" transform="scale(1 1) rotate(0) translate(4 1368)">
<title>anonymous_graph</title>
<polygon fill="white" stroke="transparent" points="-4,4 -4,-1368 471,-1368 471,4 -4,4"/>
<!-- N0 -->
<g id="node1" class="node">
<title>N0</title>
<ellipse fill="none" stroke="black" cx="73" cy="-1346" rx="29.5" ry="18"/>
<text text-anchor="middle" x="73" y="-1342.3" font-family="Times New Roman,serif" font-size="14.00">initial</text>
</g>
<!-- N2 -->
<g id="node3" class="node">
<title>N2</title>
<ellipse fill="none" stroke="black" cx="73" cy="-1259" rx="27" ry="18"/>
<text text-anchor="middle" x="73" y="-1255.3" font-family="Times New Roman,serif" font-size="14.00">N1</text>
</g>
<!-- N0&#45;&gt;N2 -->
<g id="edge1" class="edge">
<title>N0&#45;&gt;N2</title>
<path fill="none" stroke="black" d="M73,-1327.8C73,-1316.16 73,-1300.55 73,-1287.24"/>
<polygon fill="black" stroke="black" points="76.5,-1287.18 73,-1277.18 69.5,-1287.18 76.5,-1287.18"/>
<text text-anchor="middle" x="113" y="-1298.8" font-family="Times New Roman,serif" font-size="14.00">change = true;</text>
</g>
<!-- N1 -->
<g id="node2" class="node">
<title>N1</title>
<ellipse fill="none" stroke="black" cx="436" cy="-805" rx="27" ry="18"/>
<ellipse fill="none" stroke="black" cx="436" cy="-805" rx="31" ry="22"/>
<text text-anchor="middle" x="436" y="-801.3" font-family="Times New Roman,serif" font-size="14.00">final</text>
</g>
<!-- N17 -->
<g id="node18" class="node">
<title>N17</title>
<ellipse fill="none" stroke="black" cx="73" cy="-1172" rx="27" ry="18"/>
<text text-anchor="middle" x="73" y="-1168.3" font-family="Times New Roman,serif" font-size="14.00">N71</text>
</g>
<!-- N2&#45;&gt;N17 -->
<g id="edge2" class="edge">
<title>N2&#45;&gt;N17</title>
<path fill="none" stroke="black" d="M73,-1240.8C73,-1229.16 73,-1213.55 73,-1200.24"/>
<polygon fill="black" stroke="black" points="76.5,-1200.18 73,-1190.18 69.5,-1200.18 76.5,-1200.18"/>
<text text-anchor="middle" x="96.5" y="-1211.8" font-family="Times New Roman,serif" font-size="14.00">p = null;</text>
</g>
<!-- N3 -->
<g id="node4" class="node">
<title>N3</title>
<ellipse fill="none" stroke="black" cx="148" cy="-805" rx="27" ry="18"/>
<text text-anchor="middle" x="148" y="-801.3" font-family="Times New Roman,serif" font-size="14.00">N6</text>
</g>
<!-- N10 -->
<g id="node11" class="node">
<title>N10</title>
<ellipse fill="none" stroke="black" cx="207" cy="-714" rx="27" ry="18"/>
<text text-anchor="middle" x="207" y="-710.3" font-family="Times New Roman,serif" font-size="14.00">N41</text>
</g>
<!-- N3&#45;&gt;N10 -->
<g id="edge3" class="edge">
<title>N3&#45;&gt;N10</title>
<path fill="none" stroke="black" d="M158.55,-788.09C167.53,-774.55 180.56,-754.88 190.85,-739.36"/>
<polygon fill="black" stroke="black" points="193.94,-741.04 196.54,-730.77 188.1,-737.17 193.94,-741.04"/>
<text text-anchor="middle" x="206" y="-753.8" font-family="Times New Roman,serif" font-size="14.00">t = yn.n;</text>
</g>
<!-- N4 -->
<g id="node5" class="node">
<title>N4</title>
<ellipse fill="none" stroke="black" cx="203" cy="-453" rx="27" ry="18"/>
<text text-anchor="middle" x="203" y="-449.3" font-family="Times New Roman,serif" font-size="14.00">N10</text>
</g>
<!-- N13 -->
<g id="node14" class="node">
<title>N13</title>
<ellipse fill="none" stroke="black" cx="203" cy="-366" rx="27" ry="18"/>
<text text-anchor="middle" x="203" y="-362.3" font-family="Times New Roman,serif" font-size="14.00">N52</text>
</g>
<!-- N4&#45;&gt;N13 -->
<g id="edge4" class="edge">
<title>N4&#45;&gt;N13</title>
<path fill="none" stroke="black" d="M203,-434.8C203,-423.16 203,-407.55 203,-394.24"/>
<polygon fill="black" stroke="black" points="206.5,-394.18 203,-384.18 199.5,-394.18 206.5,-394.18"/>
<text text-anchor="middle" x="223.5" y="-405.8" font-family="Times New Roman,serif" font-size="14.00">p = yn;</text>
</g>
<!-- N5 -->
<g id="node6" class="node">
<title>N5</title>
<ellipse fill="none" stroke="black" cx="135" cy="-1085" rx="27" ry="18"/>
<text text-anchor="middle" x="135" y="-1081.3" font-family="Times New Roman,serif" font-size="14.00">N14</text>
</g>
<!-- N7 -->
<g id="node8" class="node">
<title>N7</title>
<ellipse fill="none" stroke="black" cx="178" cy="-998" rx="27" ry="18"/>
<text text-anchor="middle" x="178" y="-994.3" font-family="Times New Roman,serif" font-size="14.00">N29</text>
</g>
<!-- N5&#45;&gt;N7 -->
<g id="edge5" class="edge">
<title>N5&#45;&gt;N7</title>
<path fill="none" stroke="black" d="M143.29,-1067.61C149.48,-1055.38 158.05,-1038.44 165.12,-1024.46"/>
<polygon fill="black" stroke="black" points="168.34,-1025.84 169.73,-1015.34 162.1,-1022.68 168.34,-1025.84"/>
<text text-anchor="middle" x="185.5" y="-1037.8" font-family="Times New Roman,serif" font-size="14.00">y = head;</text>
</g>
<!-- N6 -->
<g id="node7" class="node">
<title>N6</title>
<ellipse fill="none" stroke="black" cx="273" cy="-540" rx="27" ry="18"/>
<text text-anchor="middle" x="273" y="-536.3" font-family="Times New Roman,serif" font-size="14.00">N23</text>
</g>
<!-- N6&#45;&gt;N4 -->
<g id="edge6" class="edge">
<title>N6&#45;&gt;N4</title>
<path fill="none" stroke="black" d="M268.86,-521.98C265.74,-511.66 260.67,-498.67 253,-489 247.32,-481.84 239.8,-475.53 232.31,-470.31"/>
<polygon fill="black" stroke="black" points="233.95,-467.2 223.65,-464.7 230.14,-473.08 233.95,-467.2"/>
<text text-anchor="middle" x="291" y="-492.8" font-family="Times New Roman,serif" font-size="14.00">head = yn;</text>
</g>
<!-- N6&#45;&gt;N4 -->
<g id="edge7" class="edge">
<title>N6&#45;&gt;N4</title>
<path fill="none" stroke="black" d="M250.83,-529.49C228.97,-520 198.6,-506.49 197,-504 192.56,-497.06 192.2,-488.46 193.52,-480.36"/>
<polygon fill="black" stroke="black" points="196.95,-481.07 195.91,-470.52 190.14,-479.41 196.95,-481.07"/>
<text text-anchor="middle" x="223" y="-492.8" font-family="Times New Roman,serif" font-size="14.00">p.n = yn;</text>
</g>
<!-- N9 -->
<g id="node10" class="node">
<title>N9</title>
<ellipse fill="none" stroke="black" cx="243" cy="-911" rx="27" ry="18"/>
<text text-anchor="middle" x="243" y="-907.3" font-family="Times New Roman,serif" font-size="14.00">N39</text>
</g>
<!-- N7&#45;&gt;N9 -->
<g id="edge8" class="edge">
<title>N7&#45;&gt;N9</title>
<path fill="none" stroke="black" d="M189.92,-981.41C199.73,-968.59 213.77,-950.22 224.96,-935.6"/>
<polygon fill="black" stroke="black" points="227.86,-937.56 231.15,-927.49 222.3,-933.31 227.86,-937.56"/>
<text text-anchor="middle" x="239.5" y="-950.8" font-family="Times New Roman,serif" font-size="14.00">yn = y.n;</text>
</g>
<!-- N8 -->
<g id="node9" class="node">
<title>N8</title>
<ellipse fill="none" stroke="black" cx="308" cy="-714" rx="27" ry="18"/>
<text text-anchor="middle" x="308" y="-710.3" font-family="Times New Roman,serif" font-size="14.00">N35</text>
</g>
<!-- N8&#45;&gt;N9 -->
<g id="edge9" class="edge">
<title>N8&#45;&gt;N9</title>
<path fill="none" stroke="black" d="M315.66,-731.59C328.72,-762.56 351.2,-830.13 322,-875 312.38,-889.79 294.93,-898.37 278.87,-903.34"/>
<polygon fill="black" stroke="black" points="277.87,-899.98 269.13,-905.98 279.7,-906.74 277.87,-899.98"/>
<text text-anchor="middle" x="361.5" y="-801.3" font-family="Times New Roman,serif" font-size="14.00">yn = y.n;</text>
</g>
<!-- N9&#45;&gt;N1 -->
<g id="edge11" class="edge">
<title>N9&#45;&gt;N1</title>
<path fill="none" stroke="black" d="M268.25,-904.48C290.62,-898.96 323.7,-889.24 350,-875 372.28,-862.94 394.51,-844.91 410.78,-830.3"/>
<polygon fill="black" stroke="black" points="413.26,-832.78 418.27,-823.45 408.53,-827.62 413.26,-832.78"/>
<text text-anchor="middle" x="410.5" y="-856.3" font-family="Times New Roman,serif" font-size="14.00">return;</text>
</g>
<!-- N9&#45;&gt;N3 -->
<g id="edge12" class="edge">
<title>N9&#45;&gt;N3</title>
<path fill="none" stroke="black" d="M216.57,-906.4C196.97,-902.28 171.28,-893.51 157,-875 148.03,-863.38 145.55,-847.24 145.42,-833.5"/>
<polygon fill="black" stroke="black" points="148.93,-833.22 145.74,-823.12 141.93,-833.01 148.93,-833.22"/>
<text text-anchor="middle" x="197" y="-856.3" font-family="Times New Roman,serif" font-size="14.00">change = true;</text>
</g>
<!-- N18 -->
<g id="node19" class="node">
<title>N18</title>
<ellipse fill="none" stroke="black" cx="258" cy="-805" rx="27" ry="18"/>
<text text-anchor="middle" x="258" y="-801.3" font-family="Times New Roman,serif" font-size="14.00">N84</text>
</g>
<!-- N9&#45;&gt;N18 -->
<g id="edge10" class="edge">
<title>N9&#45;&gt;N18</title>
<path fill="none" stroke="black" d="M241.75,-893.02C241.14,-879.82 241.07,-861.1 244,-845 244.78,-840.7 245.98,-836.25 247.36,-831.95"/>
<polygon fill="black" stroke="black" points="250.71,-832.96 250.77,-822.37 244.12,-830.62 250.71,-832.96"/>
<text text-anchor="middle" x="283" y="-863.8" font-family="Times New Roman,serif" font-size="14.00">!(1 &lt; head.d)/</text>
<text text-anchor="middle" x="283" y="-848.8" font-family="Times New Roman,serif" font-size="14.00">p = y;</text>
</g>
<!-- N11 -->
<g id="node12" class="node">
<title>N11</title>
<ellipse fill="none" stroke="black" cx="220" cy="-627" rx="27" ry="18"/>
<text text-anchor="middle" x="220" y="-623.3" font-family="Times New Roman,serif" font-size="14.00">N42</text>
</g>
<!-- N10&#45;&gt;N11 -->
<g id="edge13" class="edge">
<title>N10&#45;&gt;N11</title>
<path fill="none" stroke="black" d="M209.63,-695.8C211.41,-684.16 213.8,-668.55 215.83,-655.24"/>
<polygon fill="black" stroke="black" points="219.32,-655.59 217.37,-645.18 212.4,-654.53 219.32,-655.59"/>
<text text-anchor="middle" x="234.5" y="-666.8" font-family="Times New Roman,serif" font-size="14.00">y.n = t;</text>
</g>
<!-- N11&#45;&gt;N6 -->
<g id="edge14" class="edge">
<title>N11&#45;&gt;N6</title>
<path fill="none" stroke="black" d="M229.97,-610.01C237.74,-597.55 248.67,-580.01 257.57,-565.74"/>
<polygon fill="black" stroke="black" points="260.75,-567.25 263.08,-556.92 254.81,-563.55 260.75,-567.25"/>
<text text-anchor="middle" x="274.5" y="-579.8" font-family="Times New Roman,serif" font-size="14.00">yn.n = y;</text>
</g>
<!-- N12 -->
<g id="node13" class="node">
<title>N12</title>
<ellipse fill="none" stroke="black" cx="145" cy="-279" rx="27" ry="18"/>
<text text-anchor="middle" x="145" y="-275.3" font-family="Times New Roman,serif" font-size="14.00">N46</text>
</g>
<!-- N12&#45;&gt;N3 -->
<g id="edge17" class="edge">
<title>N12&#45;&gt;N3</title>
<path fill="none" stroke="black" d="M145.97,-297.25C146.84,-314.42 148,-341.52 148,-365 148,-715 148,-715 148,-715 148,-735.73 148,-759.17 148,-776.8"/>
<polygon fill="black" stroke="black" points="144.5,-776.94 148,-786.94 151.5,-776.94 144.5,-776.94"/>
<text text-anchor="middle" x="188" y="-543.8" font-family="Times New Roman,serif" font-size="14.00">!(yn == null)/</text>
<text text-anchor="middle" x="188" y="-528.8" font-family="Times New Roman,serif" font-size="14.00">change = true;</text>
</g>
<!-- N14 -->
<g id="node15" class="node">
<title>N14</title>
<ellipse fill="none" stroke="black" cx="137" cy="-192" rx="27" ry="18"/>
<text text-anchor="middle" x="137" y="-188.3" font-family="Times New Roman,serif" font-size="14.00">N68</text>
</g>
<!-- N12&#45;&gt;N14 -->
<g id="edge16" class="edge">
<title>N12&#45;&gt;N14</title>
<path fill="none" stroke="black" d="M143.38,-260.8C142.29,-249.16 140.82,-233.55 139.56,-220.24"/>
<polygon fill="black" stroke="black" points="143.04,-219.8 138.62,-210.18 136.07,-220.46 143.04,-219.8"/>
<text text-anchor="middle" x="158" y="-231.8" font-family="Times New Roman,serif" font-size="14.00">p = y;</text>
</g>
<!-- N12&#45;&gt;N17 -->
<g id="edge15" class="edge">
<title>N12&#45;&gt;N17</title>
<path fill="none" stroke="black" d="M125.33,-291.71C104.01,-306.06 73,-332.51 73,-365 73,-1086 73,-1086 73,-1086 73,-1105.25 73,-1126.95 73,-1143.6"/>
<polygon fill="black" stroke="black" points="69.5,-1143.74 73,-1153.74 76.5,-1143.74 69.5,-1143.74"/>
<text text-anchor="middle" x="96.5" y="-710.3" font-family="Times New Roman,serif" font-size="14.00">p = null;</text>
</g>
<!-- N13&#45;&gt;N12 -->
<g id="edge18" class="edge">
<title>N13&#45;&gt;N12</title>
<path fill="none" stroke="black" d="M192.36,-349.41C183.75,-336.79 171.47,-318.79 161.57,-304.28"/>
<polygon fill="black" stroke="black" points="164.29,-302.07 155.77,-295.78 158.51,-306.01 164.29,-302.07"/>
<text text-anchor="middle" x="195.5" y="-318.8" font-family="Times New Roman,serif" font-size="14.00">yn = t;</text>
</g>
<!-- N15 -->
<g id="node16" class="node">
<title>N15</title>
<ellipse fill="none" stroke="black" cx="107" cy="-105" rx="27" ry="18"/>
<text text-anchor="middle" x="107" y="-101.3" font-family="Times New Roman,serif" font-size="14.00">N69</text>
</g>
<!-- N14&#45;&gt;N15 -->
<g id="edge19" class="edge">
<title>N14&#45;&gt;N15</title>
<path fill="none" stroke="black" d="M131.07,-174.21C126.88,-162.33 121.18,-146.17 116.37,-132.56"/>
<polygon fill="black" stroke="black" points="119.54,-131.02 112.91,-122.76 112.94,-133.35 119.54,-131.02"/>
<text text-anchor="middle" x="143" y="-144.8" font-family="Times New Roman,serif" font-size="14.00">y = yn;</text>
</g>
<!-- N16 -->
<g id="node17" class="node">
<title>N16</title>
<ellipse fill="none" stroke="black" cx="27" cy="-18" rx="27" ry="18"/>
<text text-anchor="middle" x="27" y="-14.3" font-family="Times New Roman,serif" font-size="14.00">N70</text>
</g>
<!-- N15&#45;&gt;N16 -->
<g id="edge20" class="edge">
<title>N15&#45;&gt;N16</title>
<path fill="none" stroke="black" d="M93.07,-89.19C80.56,-75.91 62.04,-56.23 47.79,-41.08"/>
<polygon fill="black" stroke="black" points="50.18,-38.52 40.78,-33.64 45.08,-43.32 50.18,-38.52"/>
<text text-anchor="middle" x="96.5" y="-57.8" font-family="Times New Roman,serif" font-size="14.00">yn = y.n;</text>
</g>
<!-- N16&#45;&gt;N17 -->
<g id="edge21" class="edge">
<title>N16&#45;&gt;N17</title>
<path fill="none" stroke="black" d="M21.94,-35.76C17.25,-52.78 11,-79.97 11,-104 11,-1086 11,-1086 11,-1086 11,-1112.29 30.6,-1135.89 47.77,-1151.52"/>
<polygon fill="black" stroke="black" points="45.54,-1154.22 55.4,-1158.11 50.12,-1148.93 45.54,-1154.22"/>
<text text-anchor="middle" x="34.5" y="-579.8" font-family="Times New Roman,serif" font-size="14.00">p = null;</text>
</g>
<!-- N17&#45;&gt;N5 -->
<g id="edge22" class="edge">
<title>N17&#45;&gt;N5</title>
<path fill="none" stroke="black" d="M84.37,-1155.41C93.72,-1142.59 107.12,-1124.22 117.79,-1109.6"/>
<polygon fill="black" stroke="black" points="120.63,-1111.63 123.7,-1101.49 114.98,-1107.51 120.63,-1111.63"/>
<text text-anchor="middle" x="149.5" y="-1124.8" font-family="Times New Roman,serif" font-size="14.00">change = false;</text>
</g>
<!-- N18&#45;&gt;N8 -->
<g id="edge23" class="edge">
<title>N18&#45;&gt;N8</title>
<path fill="none" stroke="black" d="M264.24,-787.47C268.63,-776.54 274.96,-762.05 282,-750 284.23,-746.18 286.8,-742.27 289.44,-738.52"/>
<polygon fill="black" stroke="black" points="292.48,-740.3 295.59,-730.17 286.84,-736.15 292.48,-740.3"/>
<text text-anchor="middle" x="302" y="-753.8" font-family="Times New Roman,serif" font-size="14.00">y = yn;</text>
</g>
</g>
</svg>
