<?xml version="1.0" encoding="UTF-8" standalone="no"?>
<!DOCTYPE svg PUBLIC "-//W3C//DTD SVG 1.1//EN"
 "http://www.w3.org/Graphics/SVG/1.1/DTD/svg11.dtd">
<!-- Generated by graphviz version 2.46.1 (20210213.1702)
 -->
<!-- Title: anonymous_graph Pages: 1 -->
<svg width="682pt" height="2335pt"
 viewBox="0.00 0.00 682.26 2335.00" xmlns="http://www.w3.org/2000/svg" xmlns:xlink="http://www.w3.org/1999/xlink">
<g id="graph0" class="graph" transform="scale(1 1) rotate(0) translate(4 2331)">
<title>anonymous_graph</title>
<polygon fill="white" stroke="transparent" points="-4,4 -4,-2331 678.26,-2331 678.26,4 -4,4"/>
<!-- N0 -->
<g id="node1" class="node">
<title>N0</title>
<ellipse fill="none" stroke="black" cx="367.26" cy="-2309" rx="29.5" ry="18"/>
<text text-anchor="middle" x="367.26" y="-2305.3" font-family="Times New Roman,serif" font-size="14.00">initial</text>
</g>
<!-- N2 -->
<g id="node3" class="node">
<title>N2</title>
<ellipse fill="none" stroke="black" cx="367.26" cy="-2222" rx="27" ry="18"/>
<text text-anchor="middle" x="367.26" y="-2218.3" font-family="Times New Roman,serif" font-size="14.00">N1</text>
</g>
<!-- N0&#45;&gt;N2 -->
<g id="edge1" class="edge">
<title>N0&#45;&gt;N2</title>
<path fill="none" stroke="black" d="M367.26,-2290.8C367.26,-2279.16 367.26,-2263.55 367.26,-2250.24"/>
<polygon fill="black" stroke="black" points="370.76,-2250.18 367.26,-2240.18 363.76,-2250.18 370.76,-2250.18"/>
<text text-anchor="middle" x="407.26" y="-2261.8" font-family="Times New Roman,serif" font-size="14.00">change = true;</text>
</g>
<!-- N1 -->
<g id="node2" class="node">
<title>N1</title>
<ellipse fill="none" stroke="black" cx="170.26" cy="-907" rx="27" ry="18"/>
<ellipse fill="none" stroke="black" cx="170.26" cy="-907" rx="31" ry="22"/>
<text text-anchor="middle" x="170.26" y="-903.3" font-family="Times New Roman,serif" font-size="14.00">final</text>
</g>
<!-- N3 -->
<g id="node4" class="node">
<title>N3</title>
<ellipse fill="none" stroke="black" cx="367.26" cy="-2135" rx="27" ry="18"/>
<text text-anchor="middle" x="367.26" y="-2131.3" font-family="Times New Roman,serif" font-size="14.00">N2</text>
</g>
<!-- N2&#45;&gt;N3 -->
<g id="edge2" class="edge">
<title>N2&#45;&gt;N3</title>
<path fill="none" stroke="black" d="M367.26,-2203.8C367.26,-2192.16 367.26,-2176.55 367.26,-2163.24"/>
<polygon fill="black" stroke="black" points="370.76,-2163.18 367.26,-2153.18 363.76,-2163.18 370.76,-2163.18"/>
<text text-anchor="middle" x="390.76" y="-2174.8" font-family="Times New Roman,serif" font-size="14.00">p = null;</text>
</g>
<!-- N8 -->
<g id="node9" class="node">
<title>N8</title>
<ellipse fill="none" stroke="black" cx="367.26" cy="-2048" rx="27" ry="18"/>
<text text-anchor="middle" x="367.26" y="-2044.3" font-family="Times New Roman,serif" font-size="14.00">N14</text>
</g>
<!-- N3&#45;&gt;N8 -->
<g id="edge3" class="edge">
<title>N3&#45;&gt;N8</title>
<path fill="none" stroke="black" d="M367.26,-2116.8C367.26,-2105.16 367.26,-2089.55 367.26,-2076.24"/>
<polygon fill="black" stroke="black" points="370.76,-2076.18 367.26,-2066.18 363.76,-2076.18 370.76,-2076.18"/>
<text text-anchor="middle" x="409.76" y="-2087.8" font-family="Times New Roman,serif" font-size="14.00">change = false;</text>
</g>
<!-- N4 -->
<g id="node5" class="node">
<title>N4</title>
<ellipse fill="none" stroke="black" cx="367.26" cy="-1961" rx="27" ry="18"/>
<text text-anchor="middle" x="367.26" y="-1957.3" font-family="Times New Roman,serif" font-size="14.00">N4</text>
</g>
<!-- N5 -->
<g id="node6" class="node">
<title>N5</title>
<ellipse fill="none" stroke="black" cx="367.26" cy="-1874" rx="27" ry="18"/>
<text text-anchor="middle" x="367.26" y="-1870.3" font-family="Times New Roman,serif" font-size="14.00">N5</text>
</g>
<!-- N4&#45;&gt;N5 -->
<g id="edge4" class="edge">
<title>N4&#45;&gt;N5</title>
<path fill="none" stroke="black" d="M367.26,-1942.8C367.26,-1931.16 367.26,-1915.55 367.26,-1902.24"/>
<polygon fill="black" stroke="black" points="370.76,-1902.18 367.26,-1892.18 363.76,-1902.18 370.76,-1902.18"/>
<text text-anchor="middle" x="392.76" y="-1913.8" font-family="Times New Roman,serif" font-size="14.00">yn = y.n;</text>
</g>
<!-- N6 -->
<g id="node7" class="node">
<title>N6</title>
<ellipse fill="none" stroke="black" cx="403.26" cy="-1718" rx="27" ry="18"/>
<text text-anchor="middle" x="403.26" y="-1714.3" font-family="Times New Roman,serif" font-size="14.00">N6</text>
</g>
<!-- N5&#45;&gt;N6 -->
<g id="edge5" class="edge">
<title>N5&#45;&gt;N6</title>
<path fill="none" stroke="black" d="M371.25,-1855.93C377.47,-1829.34 389.52,-1777.78 396.94,-1746.07"/>
<polygon fill="black" stroke="black" points="400.39,-1746.68 399.26,-1736.15 393.57,-1745.09 400.39,-1746.68"/>
<text text-anchor="middle" x="421.26" y="-1826.8" font-family="Times New Roman,serif" font-size="14.00">!(0 &lt; yn.d)/</text>
<text text-anchor="middle" x="421.26" y="-1811.8" font-family="Times New Roman,serif" font-size="14.00">change = true;</text>
</g>
<!-- N18 -->
<g id="node19" class="node">
<title>N18</title>
<ellipse fill="none" stroke="black" cx="319.26" cy="-1772" rx="27" ry="18"/>
<text text-anchor="middle" x="319.26" y="-1768.3" font-family="Times New Roman,serif" font-size="14.00">N37</text>
</g>
<!-- N5&#45;&gt;N18 -->
<g id="edge6" class="edge">
<title>N5&#45;&gt;N18</title>
<path fill="none" stroke="black" d="M345.78,-1862.77C336.15,-1856.96 325.73,-1848.69 320.26,-1838 314.38,-1826.5 313.56,-1812.29 314.45,-1800.09"/>
<polygon fill="black" stroke="black" points="317.94,-1800.34 315.58,-1790.01 310.98,-1799.55 317.94,-1800.34"/>
<text text-anchor="middle" x="346.26" y="-1826.8" font-family="Times New Roman,serif" font-size="14.00">0 &lt; yn.d/</text>
<text text-anchor="middle" x="346.26" y="-1811.8" font-family="Times New Roman,serif" font-size="14.00">p = y;</text>
</g>
<!-- N22 -->
<g id="node23" class="node">
<title>N22</title>
<ellipse fill="none" stroke="black" cx="306.26" cy="-816" rx="27" ry="18"/>
<text text-anchor="middle" x="306.26" y="-812.3" font-family="Times New Roman,serif" font-size="14.00">N41</text>
</g>
<!-- N6&#45;&gt;N22 -->
<g id="edge7" class="edge">
<title>N6&#45;&gt;N22</title>
<path fill="none" stroke="black" d="M405.89,-1699.79C408.85,-1678.86 413.26,-1642.42 413.26,-1611 413.26,-1611 413.26,-1611 413.26,-906 413.26,-867.02 370.78,-841.83 339.35,-828.52"/>
<polygon fill="black" stroke="black" points="340.59,-825.25 330.01,-824.77 337.99,-831.75 340.59,-825.25"/>
<text text-anchor="middle" x="437.26" y="-1255.3" font-family="Times New Roman,serif" font-size="14.00">t = yn.n;</text>
</g>
<!-- N7 -->
<g id="node8" class="node">
<title>N7</title>
<ellipse fill="none" stroke="black" cx="370.26" cy="-555" rx="27" ry="18"/>
<text text-anchor="middle" x="370.26" y="-551.3" font-family="Times New Roman,serif" font-size="14.00">N10</text>
</g>
<!-- N25 -->
<g id="node26" class="node">
<title>N25</title>
<ellipse fill="none" stroke="black" cx="370.26" cy="-468" rx="27" ry="18"/>
<text text-anchor="middle" x="370.26" y="-464.3" font-family="Times New Roman,serif" font-size="14.00">N52</text>
</g>
<!-- N7&#45;&gt;N25 -->
<g id="edge8" class="edge">
<title>N7&#45;&gt;N25</title>
<path fill="none" stroke="black" d="M370.26,-536.8C370.26,-525.16 370.26,-509.55 370.26,-496.24"/>
<polygon fill="black" stroke="black" points="373.76,-496.18 370.26,-486.18 366.76,-496.18 373.76,-496.18"/>
<text text-anchor="middle" x="390.76" y="-507.8" font-family="Times New Roman,serif" font-size="14.00">p = yn;</text>
</g>
<!-- N8&#45;&gt;N4 -->
<g id="edge10" class="edge">
<title>N8&#45;&gt;N4</title>
<path fill="none" stroke="black" d="M367.26,-2029.8C367.26,-2018.16 367.26,-2002.55 367.26,-1989.24"/>
<polygon fill="black" stroke="black" points="370.76,-1989.18 367.26,-1979.18 363.76,-1989.18 370.76,-1989.18"/>
<text text-anchor="middle" x="393.76" y="-2000.8" font-family="Times New Roman,serif" font-size="14.00">y = head;</text>
</g>
<!-- N14 -->
<g id="node15" class="node">
<title>N14</title>
<ellipse fill="none" stroke="black" cx="287.26" cy="-1961" rx="27" ry="18"/>
<text text-anchor="middle" x="287.26" y="-1957.3" font-family="Times New Roman,serif" font-size="14.00">N29</text>
</g>
<!-- N8&#45;&gt;N14 -->
<g id="edge11" class="edge">
<title>N8&#45;&gt;N14</title>
<path fill="none" stroke="black" d="M345.33,-2037.42C333.71,-2031.46 319.9,-2022.86 310.26,-2012 304.16,-2005.12 299.39,-1996.33 295.82,-1988.06"/>
<polygon fill="black" stroke="black" points="299.07,-1986.76 292.17,-1978.72 292.55,-1989.31 299.07,-1986.76"/>
<text text-anchor="middle" x="336.76" y="-2000.8" font-family="Times New Roman,serif" font-size="14.00">y = head;</text>
</g>
<!-- N32 -->
<g id="node33" class="node">
<title>N32</title>
<ellipse fill="none" stroke="black" cx="209.26" cy="-1961" rx="27" ry="18"/>
<text text-anchor="middle" x="209.26" y="-1957.3" font-family="Times New Roman,serif" font-size="14.00">N73</text>
</g>
<!-- N8&#45;&gt;N32 -->
<g id="edge9" class="edge">
<title>N8&#45;&gt;N32</title>
<path fill="none" stroke="black" d="M340.51,-2044.95C313.46,-2041.71 271.58,-2033.38 242.26,-2012 233.66,-2005.72 226.66,-1996.46 221.35,-1987.62"/>
<polygon fill="black" stroke="black" points="224.33,-1985.76 216.44,-1978.68 218.19,-1989.13 224.33,-1985.76"/>
<text text-anchor="middle" x="268.76" y="-2000.8" font-family="Times New Roman,serif" font-size="14.00">y = head;</text>
</g>
<!-- N9 -->
<g id="node10" class="node">
<title>N9</title>
<ellipse fill="none" stroke="black" cx="265.26" cy="-1874" rx="27" ry="18"/>
<text text-anchor="middle" x="265.26" y="-1870.3" font-family="Times New Roman,serif" font-size="14.00">N16</text>
</g>
<!-- N15 -->
<g id="node16" class="node">
<title>N15</title>
<ellipse fill="none" stroke="black" cx="244.26" cy="-1772" rx="27" ry="18"/>
<text text-anchor="middle" x="244.26" y="-1768.3" font-family="Times New Roman,serif" font-size="14.00">N31</text>
</g>
<!-- N9&#45;&gt;N15 -->
<g id="edge12" class="edge">
<title>N9&#45;&gt;N15</title>
<path fill="none" stroke="black" d="M261.7,-1856.04C258.47,-1840.66 253.66,-1817.75 249.91,-1799.89"/>
<polygon fill="black" stroke="black" points="253.32,-1799.11 247.84,-1790.05 246.47,-1800.55 253.32,-1799.11"/>
<text text-anchor="middle" x="274.26" y="-1819.3" font-family="Times New Roman,serif" font-size="14.00">p = y;</text>
</g>
<!-- N10 -->
<g id="node11" class="node">
<title>N10</title>
<ellipse fill="none" stroke="black" cx="168.26" cy="-998" rx="27" ry="18"/>
<text text-anchor="middle" x="168.26" y="-994.3" font-family="Times New Roman,serif" font-size="14.00">N19</text>
</g>
<!-- N10&#45;&gt;N1 -->
<g id="edge13" class="edge">
<title>N10&#45;&gt;N1</title>
<path fill="none" stroke="black" d="M168.58,-979.88C168.77,-970.22 169.01,-957.94 169.26,-947 169.32,-944.45 169.38,-941.81 169.45,-939.16"/>
<polygon fill="black" stroke="black" points="172.95,-939.13 169.7,-929.05 165.95,-938.96 172.95,-939.13"/>
<text text-anchor="middle" x="187.76" y="-950.8" font-family="Times New Roman,serif" font-size="14.00">return;</text>
</g>
<!-- N16 -->
<g id="node17" class="node">
<title>N16</title>
<ellipse fill="none" stroke="black" cx="94.26" cy="-907" rx="27" ry="18"/>
<text text-anchor="middle" x="94.26" y="-903.3" font-family="Times New Roman,serif" font-size="14.00">N34</text>
</g>
<!-- N10&#45;&gt;N16 -->
<g id="edge15" class="edge">
<title>N10&#45;&gt;N16</title>
<path fill="none" stroke="black" d="M152.42,-983.38C145.58,-977.17 137.7,-969.53 131.26,-962 123.54,-952.96 115.96,-942.3 109.68,-932.84"/>
<polygon fill="black" stroke="black" points="112.48,-930.73 104.11,-924.24 106.61,-934.54 112.48,-930.73"/>
<text text-anchor="middle" x="148.26" y="-950.8" font-family="Times New Roman,serif" font-size="14.00">p = y;</text>
</g>
<!-- N27 -->
<g id="node28" class="node">
<title>N27</title>
<ellipse fill="none" stroke="black" cx="248.26" cy="-907" rx="27" ry="18"/>
<text text-anchor="middle" x="248.26" y="-903.3" font-family="Times New Roman,serif" font-size="14.00">N61</text>
</g>
<!-- N10&#45;&gt;N27 -->
<g id="edge14" class="edge">
<title>N10&#45;&gt;N27</title>
<path fill="none" stroke="black" d="M184.35,-983.25C191.34,-977.02 199.46,-969.39 206.26,-962 214.97,-952.54 223.83,-941.42 231.15,-931.74"/>
<polygon fill="black" stroke="black" points="233.98,-933.79 237.14,-923.68 228.37,-929.61 233.98,-933.79"/>
<text text-anchor="middle" x="259.26" y="-950.8" font-family="Times New Roman,serif" font-size="14.00">change = true;</text>
</g>
<!-- N11 -->
<g id="node12" class="node">
<title>N11</title>
<ellipse fill="none" stroke="black" cx="251.26" cy="-279" rx="27" ry="18"/>
<text text-anchor="middle" x="251.26" y="-275.3" font-family="Times New Roman,serif" font-size="14.00">N20</text>
</g>
<!-- N11&#45;&gt;N22 -->
<g id="edge16" class="edge">
<title>N11&#45;&gt;N22</title>
<path fill="none" stroke="black" d="M246.62,-296.84C241.58,-316.59 234.26,-350.41 234.26,-380 234.26,-730 234.26,-730 234.26,-730 234.26,-758.43 258,-782.24 278.22,-797.36"/>
<polygon fill="black" stroke="black" points="276.41,-800.36 286.59,-803.29 280.46,-794.65 276.41,-800.36"/>
<text text-anchor="middle" x="258.26" y="-551.3" font-family="Times New Roman,serif" font-size="14.00">t = yn.n;</text>
</g>
<!-- N12 -->
<g id="node13" class="node">
<title>N12</title>
<ellipse fill="none" stroke="black" cx="306.26" cy="-642" rx="27" ry="18"/>
<text text-anchor="middle" x="306.26" y="-638.3" font-family="Times New Roman,serif" font-size="14.00">N23</text>
</g>
<!-- N12&#45;&gt;N7 -->
<g id="edge17" class="edge">
<title>N12&#45;&gt;N7</title>
<path fill="none" stroke="black" d="M302.15,-624.11C300.6,-613.84 300.42,-600.86 306.26,-591 312.87,-579.85 324.43,-572.02 335.92,-566.64"/>
<polygon fill="black" stroke="black" points="337.55,-569.75 345.44,-562.68 334.86,-563.29 337.55,-569.75"/>
<text text-anchor="middle" x="336.26" y="-594.8" font-family="Times New Roman,serif" font-size="14.00">head = yn;</text>
</g>
<!-- N12&#45;&gt;N7 -->
<g id="edge18" class="edge">
<title>N12&#45;&gt;N7</title>
<path fill="none" stroke="black" d="M330.1,-633.3C343.05,-627.82 358.05,-619.07 366.26,-606 370.47,-599.31 372.2,-591.08 372.67,-583.24"/>
<polygon fill="black" stroke="black" points="376.17,-582.98 372.66,-572.98 369.17,-582.98 376.17,-582.98"/>
<text text-anchor="middle" x="397.26" y="-594.8" font-family="Times New Roman,serif" font-size="14.00">p.n = yn;</text>
</g>
<!-- N13 -->
<g id="node14" class="node">
<title>N13</title>
<ellipse fill="none" stroke="black" cx="466.26" cy="-279" rx="27" ry="18"/>
<text text-anchor="middle" x="466.26" y="-275.3" font-family="Times New Roman,serif" font-size="14.00">N27</text>
</g>
<!-- N13&#45;&gt;N8 -->
<g id="edge19" class="edge">
<title>N13&#45;&gt;N8</title>
<path fill="none" stroke="black" d="M472.55,-296.72C479.36,-316.36 489.26,-350.07 489.26,-380 489.26,-1962 489.26,-1962 489.26,-1962 489.26,-2004.71 438.31,-2027.72 402.26,-2038.65"/>
<polygon fill="black" stroke="black" points="401.2,-2035.31 392.54,-2041.42 403.12,-2042.04 401.2,-2035.31"/>
<text text-anchor="middle" x="531.76" y="-1124.8" font-family="Times New Roman,serif" font-size="14.00">change = false;</text>
</g>
<!-- N14&#45;&gt;N9 -->
<g id="edge20" class="edge">
<title>N14&#45;&gt;N9</title>
<path fill="none" stroke="black" d="M282.92,-1943.21C279.86,-1931.41 275.71,-1915.38 272.21,-1901.82"/>
<polygon fill="black" stroke="black" points="275.57,-1900.85 269.68,-1892.05 268.79,-1902.61 275.57,-1900.85"/>
<text text-anchor="middle" x="302.76" y="-1913.8" font-family="Times New Roman,serif" font-size="14.00">yn = y.n;</text>
</g>
<!-- N26 -->
<g id="node27" class="node">
<title>N26</title>
<ellipse fill="none" stroke="black" cx="223.26" cy="-1610" rx="27" ry="18"/>
<text text-anchor="middle" x="223.26" y="-1606.3" font-family="Times New Roman,serif" font-size="14.00">N59</text>
</g>
<!-- N15&#45;&gt;N26 -->
<g id="edge21" class="edge">
<title>N15&#45;&gt;N26</title>
<path fill="none" stroke="black" d="M242.02,-1753.88C238.38,-1726.21 231.2,-1671.44 226.85,-1638.33"/>
<polygon fill="black" stroke="black" points="230.27,-1637.46 225.49,-1628 223.33,-1638.37 230.27,-1637.46"/>
<text text-anchor="middle" x="260.26" y="-1714.3" font-family="Times New Roman,serif" font-size="14.00">y = yn;</text>
</g>
<!-- N17 -->
<g id="node18" class="node">
<title>N17</title>
<ellipse fill="none" stroke="black" cx="46.26" cy="-816" rx="27" ry="18"/>
<text text-anchor="middle" x="46.26" y="-812.3" font-family="Times New Roman,serif" font-size="14.00">N35</text>
</g>
<!-- N16&#45;&gt;N17 -->
<g id="edge22" class="edge">
<title>N16&#45;&gt;N17</title>
<path fill="none" stroke="black" d="M85.46,-889.68C78.29,-876.38 68.04,-857.38 59.82,-842.14"/>
<polygon fill="black" stroke="black" points="62.84,-840.36 55.01,-833.22 56.68,-843.68 62.84,-840.36"/>
<text text-anchor="middle" x="93.26" y="-855.8" font-family="Times New Roman,serif" font-size="14.00">y = yn;</text>
</g>
<!-- N17&#45;&gt;N10 -->
<g id="edge23" class="edge">
<title>N17&#45;&gt;N10</title>
<path fill="none" stroke="black" d="M33.18,-831.84C15,-854.34 -13.45,-897.77 7.26,-929 34.7,-970.37 92.83,-986.64 131.22,-992.99"/>
<polygon fill="black" stroke="black" points="131.07,-996.51 141.48,-994.53 132.11,-989.58 131.07,-996.51"/>
<text text-anchor="middle" x="32.76" y="-903.3" font-family="Times New Roman,serif" font-size="14.00">yn = y.n;</text>
</g>
<!-- N19 -->
<g id="node20" class="node">
<title>N19</title>
<ellipse fill="none" stroke="black" cx="318.26" cy="-1664" rx="27" ry="18"/>
<text text-anchor="middle" x="318.26" y="-1660.3" font-family="Times New Roman,serif" font-size="14.00">N38</text>
</g>
<!-- N18&#45;&gt;N19 -->
<g id="edge24" class="edge">
<title>N18&#45;&gt;N19</title>
<path fill="none" stroke="black" d="M319.1,-1753.97C318.95,-1737.38 318.71,-1711.88 318.52,-1692.43"/>
<polygon fill="black" stroke="black" points="322.02,-1692.31 318.43,-1682.34 315.02,-1692.37 322.02,-1692.31"/>
<text text-anchor="middle" x="338.26" y="-1714.3" font-family="Times New Roman,serif" font-size="14.00">y = yn;</text>
</g>
<!-- N20 -->
<g id="node21" class="node">
<title>N20</title>
<ellipse fill="none" stroke="black" cx="318.26" cy="-1556" rx="27" ry="18"/>
<text text-anchor="middle" x="318.26" y="-1552.3" font-family="Times New Roman,serif" font-size="14.00">N39</text>
</g>
<!-- N19&#45;&gt;N20 -->
<g id="edge25" class="edge">
<title>N19&#45;&gt;N20</title>
<path fill="none" stroke="black" d="M318.26,-1645.97C318.26,-1629.38 318.26,-1603.88 318.26,-1584.43"/>
<polygon fill="black" stroke="black" points="321.76,-1584.34 318.26,-1574.34 314.76,-1584.34 321.76,-1584.34"/>
<text text-anchor="middle" x="343.76" y="-1606.3" font-family="Times New Roman,serif" font-size="14.00">yn = y.n;</text>
</g>
<!-- N21 -->
<g id="node22" class="node">
<title>N21</title>
<ellipse fill="none" stroke="black" cx="321.26" cy="-1400" rx="27" ry="18"/>
<text text-anchor="middle" x="321.26" y="-1396.3" font-family="Times New Roman,serif" font-size="14.00">N40</text>
</g>
<!-- N20&#45;&gt;N21 -->
<g id="edge26" class="edge">
<title>N20&#45;&gt;N21</title>
<path fill="none" stroke="black" d="M318.49,-1537.89C318.68,-1524.78 318.96,-1506.25 319.26,-1490 319.66,-1469.27 320.19,-1445.82 320.6,-1428.2"/>
<polygon fill="black" stroke="black" points="324.1,-1428.14 320.84,-1418.06 317.11,-1427.97 324.1,-1428.14"/>
<text text-anchor="middle" x="359.26" y="-1508.8" font-family="Times New Roman,serif" font-size="14.00">1 &lt; head.d/</text>
<text text-anchor="middle" x="359.26" y="-1493.8" font-family="Times New Roman,serif" font-size="14.00">change = true;</text>
</g>
<!-- N42 -->
<g id="node43" class="node">
<title>N42</title>
<ellipse fill="none" stroke="black" cx="242.26" cy="-1454" rx="27" ry="18"/>
<text text-anchor="middle" x="242.26" y="-1450.3" font-family="Times New Roman,serif" font-size="14.00">N84</text>
</g>
<!-- N20&#45;&gt;N42 -->
<g id="edge27" class="edge">
<title>N20&#45;&gt;N42</title>
<path fill="none" stroke="black" d="M291.09,-1553.76C267.51,-1551.08 234.65,-1543.1 218.26,-1520 209.44,-1507.56 215.24,-1491.51 223.34,-1478.47"/>
<polygon fill="black" stroke="black" points="226.38,-1480.22 229.17,-1470 220.62,-1476.25 226.38,-1480.22"/>
<text text-anchor="middle" x="257.26" y="-1508.8" font-family="Times New Roman,serif" font-size="14.00">!(1 &lt; head.d)/</text>
<text text-anchor="middle" x="257.26" y="-1493.8" font-family="Times New Roman,serif" font-size="14.00">p = y;</text>
</g>
<!-- N21&#45;&gt;N22 -->
<g id="edge28" class="edge">
<title>N21&#45;&gt;N22</title>
<path fill="none" stroke="black" d="M321.84,-1381.75C322.43,-1362.63 323.26,-1330.86 323.26,-1303.5 323.26,-1303.5 323.26,-1303.5 323.26,-906 323.26,-884.9 318.59,-861.47 314.15,-843.95"/>
<polygon fill="black" stroke="black" points="317.42,-842.63 311.46,-833.88 310.66,-844.44 317.42,-842.63"/>
<text text-anchor="middle" x="347.26" y="-1124.8" font-family="Times New Roman,serif" font-size="14.00">t = yn.n;</text>
</g>
<!-- N23 -->
<g id="node24" class="node">
<title>N23</title>
<ellipse fill="none" stroke="black" cx="306.26" cy="-729" rx="27" ry="18"/>
<text text-anchor="middle" x="306.26" y="-725.3" font-family="Times New Roman,serif" font-size="14.00">N42</text>
</g>
<!-- N22&#45;&gt;N23 -->
<g id="edge29" class="edge">
<title>N22&#45;&gt;N23</title>
<path fill="none" stroke="black" d="M306.26,-797.8C306.26,-786.16 306.26,-770.55 306.26,-757.24"/>
<polygon fill="black" stroke="black" points="309.76,-757.18 306.26,-747.18 302.76,-757.18 309.76,-757.18"/>
<text text-anchor="middle" x="326.76" y="-768.8" font-family="Times New Roman,serif" font-size="14.00">y.n = t;</text>
</g>
<!-- N23&#45;&gt;N12 -->
<g id="edge30" class="edge">
<title>N23&#45;&gt;N12</title>
<path fill="none" stroke="black" d="M306.26,-710.8C306.26,-699.16 306.26,-683.55 306.26,-670.24"/>
<polygon fill="black" stroke="black" points="309.76,-670.18 306.26,-660.18 302.76,-670.18 309.76,-670.18"/>
<text text-anchor="middle" x="331.76" y="-681.8" font-family="Times New Roman,serif" font-size="14.00">yn.n = y;</text>
</g>
<!-- N24 -->
<g id="node25" class="node">
<title>N24</title>
<ellipse fill="none" stroke="black" cx="370.26" cy="-381" rx="27" ry="18"/>
<text text-anchor="middle" x="370.26" y="-377.3" font-family="Times New Roman,serif" font-size="14.00">N46</text>
</g>
<!-- N24&#45;&gt;N11 -->
<g id="edge32" class="edge">
<title>N24&#45;&gt;N11</title>
<path fill="none" stroke="black" d="M344.7,-374.68C326.07,-369.7 301.23,-360.61 284.26,-345 272.91,-334.55 264.88,-319.31 259.59,-306.22"/>
<polygon fill="black" stroke="black" points="262.83,-304.89 256.07,-296.73 256.27,-307.33 262.83,-304.89"/>
<text text-anchor="middle" x="324.26" y="-333.8" font-family="Times New Roman,serif" font-size="14.00">!(yn == null)/</text>
<text text-anchor="middle" x="324.26" y="-318.8" font-family="Times New Roman,serif" font-size="14.00">change = true;</text>
</g>
<!-- N24&#45;&gt;N13 -->
<g id="edge31" class="edge">
<title>N24&#45;&gt;N13</title>
<path fill="none" stroke="black" d="M385.35,-365.77C391.69,-359.57 399.03,-352.11 405.26,-345 416.34,-332.37 416.93,-327.4 428.26,-315 432.71,-310.13 437.74,-305.18 442.64,-300.58"/>
<polygon fill="black" stroke="black" points="445.13,-303.05 450.15,-293.72 440.41,-297.88 445.13,-303.05"/>
<text text-anchor="middle" x="451.76" y="-326.3" font-family="Times New Roman,serif" font-size="14.00">p = null;</text>
</g>
<!-- N28 -->
<g id="node29" class="node">
<title>N28</title>
<ellipse fill="none" stroke="black" cx="382.26" cy="-279" rx="27" ry="18"/>
<text text-anchor="middle" x="382.26" y="-275.3" font-family="Times New Roman,serif" font-size="14.00">N68</text>
</g>
<!-- N24&#45;&gt;N28 -->
<g id="edge33" class="edge">
<title>N24&#45;&gt;N28</title>
<path fill="none" stroke="black" d="M369.18,-362.78C368.68,-349.61 368.68,-331.04 371.26,-315 371.7,-312.26 372.31,-309.45 373.02,-306.66"/>
<polygon fill="black" stroke="black" points="376.44,-307.43 375.89,-296.85 369.72,-305.47 376.44,-307.43"/>
<text text-anchor="middle" x="388.26" y="-326.3" font-family="Times New Roman,serif" font-size="14.00">p = y;</text>
</g>
<!-- N25&#45;&gt;N24 -->
<g id="edge34" class="edge">
<title>N25&#45;&gt;N24</title>
<path fill="none" stroke="black" d="M370.26,-449.8C370.26,-438.16 370.26,-422.55 370.26,-409.24"/>
<polygon fill="black" stroke="black" points="373.76,-409.18 370.26,-399.18 366.76,-409.18 373.76,-409.18"/>
<text text-anchor="middle" x="388.76" y="-420.8" font-family="Times New Roman,serif" font-size="14.00">yn = t;</text>
</g>
<!-- N26&#45;&gt;N10 -->
<g id="edge35" class="edge">
<title>N26&#45;&gt;N10</title>
<path fill="none" stroke="black" d="M212.96,-1593.32C201.11,-1573.74 183.26,-1538.8 183.26,-1506 183.26,-1506 183.26,-1506 183.26,-1084 183.26,-1064.33 179.32,-1042.49 175.48,-1025.87"/>
<polygon fill="black" stroke="black" points="178.79,-1024.66 173.01,-1015.78 171.99,-1026.32 178.79,-1024.66"/>
<text text-anchor="middle" x="208.76" y="-1298.8" font-family="Times New Roman,serif" font-size="14.00">yn = y.n;</text>
</g>
<!-- N27&#45;&gt;N22 -->
<g id="edge36" class="edge">
<title>N27&#45;&gt;N22</title>
<path fill="none" stroke="black" d="M249.47,-888.79C250.93,-877.57 254.15,-863.02 261.26,-852 265.54,-845.37 271.52,-839.47 277.73,-834.5"/>
<polygon fill="black" stroke="black" points="280.19,-837.03 286.19,-828.3 276.06,-831.38 280.19,-837.03"/>
<text text-anchor="middle" x="285.26" y="-855.8" font-family="Times New Roman,serif" font-size="14.00">t = yn.n;</text>
</g>
<!-- N29 -->
<g id="node30" class="node">
<title>N29</title>
<ellipse fill="none" stroke="black" cx="470.26" cy="-192" rx="27" ry="18"/>
<text text-anchor="middle" x="470.26" y="-188.3" font-family="Times New Roman,serif" font-size="14.00">N69</text>
</g>
<!-- N28&#45;&gt;N29 -->
<g id="edge37" class="edge">
<title>N28&#45;&gt;N29</title>
<path fill="none" stroke="black" d="M397.19,-263.58C411.18,-250.07 432.27,-229.7 448.2,-214.31"/>
<polygon fill="black" stroke="black" points="450.79,-216.67 455.56,-207.21 445.93,-211.64 450.79,-216.67"/>
<text text-anchor="middle" x="451.26" y="-231.8" font-family="Times New Roman,serif" font-size="14.00">y = yn;</text>
</g>
<!-- N30 -->
<g id="node31" class="node">
<title>N30</title>
<ellipse fill="none" stroke="black" cx="524.26" cy="-105" rx="27" ry="18"/>
<text text-anchor="middle" x="524.26" y="-101.3" font-family="Times New Roman,serif" font-size="14.00">N70</text>
</g>
<!-- N29&#45;&gt;N30 -->
<g id="edge38" class="edge">
<title>N29&#45;&gt;N30</title>
<path fill="none" stroke="black" d="M480.42,-175.01C488.34,-162.55 499.48,-145.01 508.55,-130.74"/>
<polygon fill="black" stroke="black" points="511.74,-132.23 514.15,-121.92 505.84,-128.48 511.74,-132.23"/>
<text text-anchor="middle" x="525.76" y="-144.8" font-family="Times New Roman,serif" font-size="14.00">yn = y.n;</text>
</g>
<!-- N31 -->
<g id="node32" class="node">
<title>N31</title>
<ellipse fill="none" stroke="black" cx="557.26" cy="-18" rx="27" ry="18"/>
<text text-anchor="middle" x="557.26" y="-14.3" font-family="Times New Roman,serif" font-size="14.00">N71</text>
</g>
<!-- N30&#45;&gt;N31 -->
<g id="edge39" class="edge">
<title>N30&#45;&gt;N31</title>
<path fill="none" stroke="black" d="M523.12,-86.75C523.07,-76.83 524.07,-64.33 528.26,-54 530.13,-49.4 532.84,-44.94 535.85,-40.84"/>
<polygon fill="black" stroke="black" points="538.66,-42.93 542.3,-32.99 533.25,-38.49 538.66,-42.93"/>
<text text-anchor="middle" x="551.76" y="-57.8" font-family="Times New Roman,serif" font-size="14.00">p = null;</text>
</g>
<!-- N31&#45;&gt;N8 -->
<g id="edge40" class="edge">
<title>N31&#45;&gt;N8</title>
<path fill="none" stroke="black" d="M567.21,-34.94C576.61,-51.54 589.26,-78.61 589.26,-104 589.26,-1962 589.26,-1962 589.26,-1962 589.26,-2001.39 465.85,-2029.29 403.06,-2040.94"/>
<polygon fill="black" stroke="black" points="402.38,-2037.51 393.16,-2042.74 403.63,-2044.4 402.38,-2037.51"/>
<text text-anchor="middle" x="631.76" y="-994.3" font-family="Times New Roman,serif" font-size="14.00">change = false;</text>
</g>
<!-- N33 -->
<g id="node34" class="node">
<title>N33</title>
<ellipse fill="none" stroke="black" cx="188.26" cy="-1874" rx="27" ry="18"/>
<text text-anchor="middle" x="188.26" y="-1870.3" font-family="Times New Roman,serif" font-size="14.00">N74</text>
</g>
<!-- N32&#45;&gt;N33 -->
<g id="edge41" class="edge">
<title>N32&#45;&gt;N33</title>
<path fill="none" stroke="black" d="M205.11,-1943.21C202.2,-1931.41 198.24,-1915.38 194.89,-1901.82"/>
<polygon fill="black" stroke="black" points="198.27,-1900.92 192.48,-1892.05 191.48,-1902.6 198.27,-1900.92"/>
<text text-anchor="middle" x="225.76" y="-1913.8" font-family="Times New Roman,serif" font-size="14.00">yn = y.n;</text>
</g>
<!-- N34 -->
<g id="node35" class="node">
<title>N34</title>
<ellipse fill="none" stroke="black" cx="166.26" cy="-1772" rx="27" ry="18"/>
<text text-anchor="middle" x="166.26" y="-1768.3" font-family="Times New Roman,serif" font-size="14.00">N75</text>
</g>
<!-- N33&#45;&gt;N34 -->
<g id="edge42" class="edge">
<title>N33&#45;&gt;N34</title>
<path fill="none" stroke="black" d="M184.53,-1856.04C181.15,-1840.66 176.11,-1817.75 172.18,-1799.89"/>
<polygon fill="black" stroke="black" points="175.58,-1799.06 170.01,-1790.05 168.74,-1800.57 175.58,-1799.06"/>
<text text-anchor="middle" x="198.26" y="-1819.3" font-family="Times New Roman,serif" font-size="14.00">p = y;</text>
</g>
<!-- N35 -->
<g id="node36" class="node">
<title>N35</title>
<ellipse fill="none" stroke="black" cx="161.26" cy="-1664" rx="27" ry="18"/>
<text text-anchor="middle" x="161.26" y="-1660.3" font-family="Times New Roman,serif" font-size="14.00">N76</text>
</g>
<!-- N34&#45;&gt;N35 -->
<g id="edge43" class="edge">
<title>N34&#45;&gt;N35</title>
<path fill="none" stroke="black" d="M165.46,-1753.97C164.68,-1737.38 163.47,-1711.88 162.56,-1692.43"/>
<polygon fill="black" stroke="black" points="166.05,-1692.16 162.08,-1682.34 159.06,-1692.49 166.05,-1692.16"/>
<text text-anchor="middle" x="185.26" y="-1714.3" font-family="Times New Roman,serif" font-size="14.00">y = yn;</text>
</g>
<!-- N36 -->
<g id="node37" class="node">
<title>N36</title>
<ellipse fill="none" stroke="black" cx="127.26" cy="-1556" rx="27" ry="18"/>
<text text-anchor="middle" x="127.26" y="-1552.3" font-family="Times New Roman,serif" font-size="14.00">N77</text>
</g>
<!-- N35&#45;&gt;N36 -->
<g id="edge44" class="edge">
<title>N35&#45;&gt;N36</title>
<path fill="none" stroke="black" d="M148.02,-1647.94C143.57,-1642.09 139.04,-1635.09 136.26,-1628 130.87,-1614.21 128.54,-1597.88 127.6,-1584.36"/>
<polygon fill="black" stroke="black" points="131.09,-1584.04 127.11,-1574.22 124.1,-1584.38 131.09,-1584.04"/>
<text text-anchor="middle" x="161.76" y="-1606.3" font-family="Times New Roman,serif" font-size="14.00">yn = y.n;</text>
</g>
<!-- N37 -->
<g id="node38" class="node">
<title>N37</title>
<ellipse fill="none" stroke="black" cx="117.26" cy="-1454" rx="27" ry="18"/>
<text text-anchor="middle" x="117.26" y="-1450.3" font-family="Times New Roman,serif" font-size="14.00">N78</text>
</g>
<!-- N36&#45;&gt;N37 -->
<g id="edge45" class="edge">
<title>N36&#45;&gt;N37</title>
<path fill="none" stroke="black" d="M125.52,-1537.58C124,-1522.38 121.77,-1500.07 120.01,-1482.46"/>
<polygon fill="black" stroke="black" points="123.46,-1481.82 118.99,-1472.22 116.5,-1482.52 123.46,-1481.82"/>
<text text-anchor="middle" x="141.26" y="-1501.3" font-family="Times New Roman,serif" font-size="14.00">p = y;</text>
</g>
<!-- N38 -->
<g id="node39" class="node">
<title>N38</title>
<ellipse fill="none" stroke="black" cx="110.26" cy="-1346" rx="27" ry="18"/>
<text text-anchor="middle" x="110.26" y="-1342.3" font-family="Times New Roman,serif" font-size="14.00">N79</text>
</g>
<!-- N37&#45;&gt;N38 -->
<g id="edge46" class="edge">
<title>N37&#45;&gt;N38</title>
<path fill="none" stroke="black" d="M116.14,-1435.97C115.04,-1419.28 113.34,-1393.58 112.05,-1374.08"/>
<polygon fill="black" stroke="black" points="115.54,-1373.74 111.39,-1363.99 108.55,-1374.2 115.54,-1373.74"/>
<text text-anchor="middle" x="135.26" y="-1396.3" font-family="Times New Roman,serif" font-size="14.00">y = yn;</text>
</g>
<!-- N39 -->
<g id="node40" class="node">
<title>N39</title>
<ellipse fill="none" stroke="black" cx="110.26" cy="-1259" rx="27" ry="18"/>
<text text-anchor="middle" x="110.26" y="-1255.3" font-family="Times New Roman,serif" font-size="14.00">N80</text>
</g>
<!-- N38&#45;&gt;N39 -->
<g id="edge47" class="edge">
<title>N38&#45;&gt;N39</title>
<path fill="none" stroke="black" d="M110.26,-1327.8C110.26,-1316.16 110.26,-1300.55 110.26,-1287.24"/>
<polygon fill="black" stroke="black" points="113.76,-1287.18 110.26,-1277.18 106.76,-1287.18 113.76,-1287.18"/>
<text text-anchor="middle" x="135.76" y="-1298.8" font-family="Times New Roman,serif" font-size="14.00">yn = y.n;</text>
</g>
<!-- N40 -->
<g id="node41" class="node">
<title>N40</title>
<ellipse fill="none" stroke="black" cx="114.26" cy="-1172" rx="27" ry="18"/>
<text text-anchor="middle" x="114.26" y="-1168.3" font-family="Times New Roman,serif" font-size="14.00">N81</text>
</g>
<!-- N39&#45;&gt;N40 -->
<g id="edge48" class="edge">
<title>N39&#45;&gt;N40</title>
<path fill="none" stroke="black" d="M111.07,-1240.8C111.62,-1229.16 112.36,-1213.55 112.98,-1200.24"/>
<polygon fill="black" stroke="black" points="116.48,-1200.33 113.46,-1190.18 109.49,-1200 116.48,-1200.33"/>
<text text-anchor="middle" x="130.26" y="-1211.8" font-family="Times New Roman,serif" font-size="14.00">p = y;</text>
</g>
<!-- N41 -->
<g id="node42" class="node">
<title>N41</title>
<ellipse fill="none" stroke="black" cx="117.26" cy="-1085" rx="27" ry="18"/>
<text text-anchor="middle" x="117.26" y="-1081.3" font-family="Times New Roman,serif" font-size="14.00">N82</text>
</g>
<!-- N40&#45;&gt;N41 -->
<g id="edge49" class="edge">
<title>N40&#45;&gt;N41</title>
<path fill="none" stroke="black" d="M114.87,-1153.8C115.28,-1142.16 115.83,-1126.55 116.3,-1113.24"/>
<polygon fill="black" stroke="black" points="119.8,-1113.29 116.66,-1103.18 112.81,-1113.05 119.8,-1113.29"/>
<text text-anchor="middle" x="136.26" y="-1124.8" font-family="Times New Roman,serif" font-size="14.00">y = yn;</text>
</g>
<!-- N41&#45;&gt;N10 -->
<g id="edge50" class="edge">
<title>N41&#45;&gt;N10</title>
<path fill="none" stroke="black" d="M113.89,-1066.82C112.78,-1056.7 112.95,-1043.96 118.26,-1034 122.6,-1025.87 129.76,-1019.22 137.33,-1013.99"/>
<polygon fill="black" stroke="black" points="139.57,-1016.72 146.25,-1008.5 135.9,-1010.76 139.57,-1016.72"/>
<text text-anchor="middle" x="143.76" y="-1037.8" font-family="Times New Roman,serif" font-size="14.00">yn = y.n;</text>
</g>
<!-- N43 -->
<g id="node44" class="node">
<title>N43</title>
<ellipse fill="none" stroke="black" cx="253.26" cy="-1346" rx="27" ry="18"/>
<text text-anchor="middle" x="253.26" y="-1342.3" font-family="Times New Roman,serif" font-size="14.00">N85</text>
</g>
<!-- N42&#45;&gt;N43 -->
<g id="edge51" class="edge">
<title>N42&#45;&gt;N43</title>
<path fill="none" stroke="black" d="M242.11,-1436C242.19,-1421.56 242.8,-1400.34 245.26,-1382 245.62,-1379.31 246.09,-1376.53 246.62,-1373.76"/>
<polygon fill="black" stroke="black" points="250.05,-1374.49 248.73,-1363.98 243.2,-1373.02 250.05,-1374.49"/>
<text text-anchor="middle" x="265.26" y="-1396.3" font-family="Times New Roman,serif" font-size="14.00">y = yn;</text>
</g>
<!-- N44 -->
<g id="node45" class="node">
<title>N44</title>
<ellipse fill="none" stroke="black" cx="248.26" cy="-1259" rx="27" ry="18"/>
<text text-anchor="middle" x="248.26" y="-1255.3" font-family="Times New Roman,serif" font-size="14.00">N86</text>
</g>
<!-- N43&#45;&gt;N44 -->
<g id="edge52" class="edge">
<title>N43&#45;&gt;N44</title>
<path fill="none" stroke="black" d="M252.25,-1327.8C251.57,-1316.16 250.65,-1300.55 249.87,-1287.24"/>
<polygon fill="black" stroke="black" points="253.36,-1286.95 249.27,-1277.18 246.37,-1287.36 253.36,-1286.95"/>
<text text-anchor="middle" x="275.76" y="-1298.8" font-family="Times New Roman,serif" font-size="14.00">yn = y.n;</text>
</g>
<!-- N45 -->
<g id="node46" class="node">
<title>N45</title>
<ellipse fill="none" stroke="black" cx="248.26" cy="-1172" rx="27" ry="18"/>
<text text-anchor="middle" x="248.26" y="-1168.3" font-family="Times New Roman,serif" font-size="14.00">N87</text>
</g>
<!-- N44&#45;&gt;N45 -->
<g id="edge53" class="edge">
<title>N44&#45;&gt;N45</title>
<path fill="none" stroke="black" d="M248.26,-1240.8C248.26,-1229.16 248.26,-1213.55 248.26,-1200.24"/>
<polygon fill="black" stroke="black" points="251.76,-1200.18 248.26,-1190.18 244.76,-1200.18 251.76,-1200.18"/>
<text text-anchor="middle" x="265.26" y="-1211.8" font-family="Times New Roman,serif" font-size="14.00">p = y;</text>
</g>
<!-- N46 -->
<g id="node47" class="node">
<title>N46</title>
<ellipse fill="none" stroke="black" cx="248.26" cy="-1085" rx="27" ry="18"/>
<text text-anchor="middle" x="248.26" y="-1081.3" font-family="Times New Roman,serif" font-size="14.00">N88</text>
</g>
<!-- N45&#45;&gt;N46 -->
<g id="edge54" class="edge">
<title>N45&#45;&gt;N46</title>
<path fill="none" stroke="black" d="M248.26,-1153.8C248.26,-1142.16 248.26,-1126.55 248.26,-1113.24"/>
<polygon fill="black" stroke="black" points="251.76,-1113.18 248.26,-1103.18 244.76,-1113.18 251.76,-1113.18"/>
<text text-anchor="middle" x="268.26" y="-1124.8" font-family="Times New Roman,serif" font-size="14.00">y = yn;</text>
</g>
<!-- N46&#45;&gt;N10 -->
<g id="edge55" class="edge">
<title>N46&#45;&gt;N10</title>
<path fill="none" stroke="black" d="M234.33,-1069.19C221.82,-1055.91 203.3,-1036.23 189.05,-1021.08"/>
<polygon fill="black" stroke="black" points="191.44,-1018.52 182.04,-1013.64 186.34,-1023.32 191.44,-1018.52"/>
<text text-anchor="middle" x="238.76" y="-1037.8" font-family="Times New Roman,serif" font-size="14.00">yn = y.n;</text>
</g>
</g>
</svg>
